<svg class="svg-icon" style="width: 1em; height: 1em;vertical-align: middle;fill: currentColor;overflow: hidden;" viewBox="0 0 1024 1024" version="1.1" xmlns="http://www.w3.org/2000/svg"><path d="M533.333333 544.711111c-61.155556 0-112.355556-49.777778-112.355555-112.355555s49.777778-112.355556 112.355555-112.355556 112.355556 49.777778 112.355556 112.355556-49.777778 112.355556-112.355556 112.355555z m0-166.4c-29.866667 0-55.466667 24.177778-55.466666 55.466667s24.177778 55.466667 55.466666 55.466666c29.866667 0 55.466667-24.177778 55.466667-55.466666s-24.177778-55.466667-55.466667-55.466667z" fill="#DC4569" /><path d="M533.333333 783.644444c-7.111111 0-14.222222-2.844444-19.911111-8.533333L364.088889 625.777778c-54.044444-48.355556-83.911111-116.622222-83.911111-187.733334 0-139.377778 113.777778-253.155556 253.155555-253.155555s253.155556 113.777778 253.155556 253.155555c0 71.111111-31.288889 139.377778-83.911111 187.733334L554.666667 775.111111c-5.688889 5.688889-12.8 8.533333-21.333334 8.533333z m0-543.288888c-108.088889 0-196.266667 88.177778-196.266666 196.266666 0 55.466667 24.177778 109.511111 65.422222 146.488889 0 0 1.422222 0 1.422222 1.422222l129.422222 129.422223 129.422223-129.422223 1.422222-1.422222c41.244444-36.977778 65.422222-91.022222 65.422222-146.488889 1.422222-108.088889-86.755556-196.266667-196.266667-196.266666z" fill="#3FA6AD" /><path d="M817.777778 894.577778H244.622222c-8.533333 0-17.066667-4.266667-22.755555-11.377778-5.688889-7.111111-7.111111-15.644444-4.266667-24.177778l59.733333-216.177778c4.266667-15.644444 19.911111-24.177778 35.555556-19.911111 15.644444 4.266667 24.177778 19.911111 19.911111 35.555556L283.022222 839.111111h497.777778l-49.777778-180.622222c-4.266667-15.644444 4.266667-31.288889 19.911111-35.555556 15.644444-4.266667 31.288889 4.266667 35.555556 19.911111l59.733333 216.177778c2.844444 8.533333 0 17.066667-4.266666 24.177778-7.111111 7.111111-14.222222 11.377778-24.177778 11.377778z" fill="#3FA6AD" /></svg>