<?xml version="1.0" encoding="UTF-8"?>
<!DOCTYPE svg PUBLIC "-//W3C//DTD SVG 1.1//EN" "http://www.w3.org/Graphics/SVG/1.1/DTD/svg11.dtd">
<svg xmlns="http://www.w3.org/2000/svg" version="1.1" width="448px" height="162px" style="shape-rendering:geometricPrecision; text-rendering:geometricPrecision; image-rendering:optimizeQuality; fill-rule:evenodd; clip-rule:evenodd" xmlns:xlink="http://www.w3.org/1999/xlink">
<g><path style="opacity:1" fill="#fefefe" d="M -0.5,-0.5 C 148.833,-0.5 298.167,-0.5 447.5,-0.5C 447.5,53.5 447.5,107.5 447.5,161.5C 298.167,161.5 148.833,161.5 -0.5,161.5C -0.5,107.5 -0.5,53.5 -0.5,-0.5 Z"/></g>
<g><path style="opacity:1" fill="#dd3f30" d="M 54.5,4.5 C 62.5778,2.95968 68.7445,5.62634 73,12.5C 83.1967,39.4229 93.1967,66.4229 103,93.5C 103.743,95.4406 103.576,97.2739 102.5,99C 96.9927,101.425 91.3261,103.259 85.5,104.5C 84.1046,98.3137 82.1046,92.3137 79.5,86.5C 66.1667,85.1667 52.8333,85.1667 39.5,86.5C 37.2907,92.4612 35.2907,98.4612 33.5,104.5C 28.3642,103.607 23.3642,102.107 18.5,100C 16.5904,99.5917 15.5904,98.4251 15.5,96.5C 24.7029,70.0578 34.2029,43.7245 44,17.5C 46.1144,11.8774 49.6144,7.54409 54.5,4.5 Z"/></g>
<g><path style="opacity:1" fill="#fef6f5" d="M 58.5,28.5 C 59.4972,28.4701 60.1639,28.9701 60.5,30C 65.0137,42.7058 69.0137,55.5391 72.5,68.5C 63.8333,68.5 55.1667,68.5 46.5,68.5C 50.7046,55.2203 54.7046,41.887 58.5,28.5 Z"/></g>
<g><path style="opacity:1" fill="#de4234" d="M 229.5,61.5 C 228.532,63.6074 228.198,65.9407 228.5,68.5C 231.5,68.5 234.5,68.5 237.5,68.5C 237.5,70.8333 237.5,73.1667 237.5,75.5C 234.5,75.5 231.5,75.5 228.5,75.5C 228.5,83.8333 228.5,92.1667 228.5,100.5C 225.833,100.5 223.167,100.5 220.5,100.5C 220.5,92.1667 220.5,83.8333 220.5,75.5C 218.833,75.5 217.167,75.5 215.5,75.5C 215.5,73.1667 215.5,70.8333 215.5,68.5C 217.167,68.5 218.833,68.5 220.5,68.5C 218.647,54.6886 224.647,49.0219 238.5,51.5C 239.809,58.0182 237.142,60.8516 230.5,60C 229.944,60.3826 229.611,60.8826 229.5,61.5 Z"/></g>
<g><path style="opacity:1" fill="#de4234" d="M 303.5,51.5 C 309.842,51.3338 316.175,51.5005 322.5,52C 331.424,55.3482 334.257,61.5149 331,70.5C 329.457,72.3783 327.624,73.8783 325.5,75C 334.215,78.6011 336.715,84.7678 333,93.5C 330.749,98.3686 326.915,100.869 321.5,101C 315.509,101.499 309.509,101.666 303.5,101.5C 303.5,84.8333 303.5,68.1667 303.5,51.5 Z"/></g>
<g><path style="opacity:1" fill="#de4234" d="M 173.5,52.5 C 176.187,52.3359 178.854,52.5026 181.5,53C 182.428,53.3879 183.095,54.0546 183.5,55C 188.509,70.0274 193.509,85.0274 198.5,100C 194.848,100.499 191.182,100.665 187.5,100.5C 188.494,92.3297 184.994,89.3297 177,91.5C 174.167,91.6667 171.333,91.8333 168.5,92C 167.407,94.4433 166.407,96.9433 165.5,99.5C 162.572,100.484 159.572,100.817 156.5,100.5C 160.018,88.4432 163.852,76.4432 168,64.5C 169.374,60.1766 171.207,56.1766 173.5,52.5 Z"/></g>
<g><path style="opacity:1" fill="#dd3f31" d="M 201.5,52.5 C 204.5,52.5 207.5,52.5 210.5,52.5C 210.5,68.5 210.5,84.5 210.5,100.5C 207.5,100.5 204.5,100.5 201.5,100.5C 201.5,84.5 201.5,68.5 201.5,52.5 Z"/></g>
<g><path style="opacity:1" fill="#e98077" d="M 417.5,53.5 C 414.833,53.5 412.167,53.5 409.5,53.5C 409.5,69.1667 409.5,84.8333 409.5,100.5C 408.504,84.6754 408.17,68.6754 408.5,52.5C 411.713,52.19 414.713,52.5233 417.5,53.5 Z"/></g>
<g><path style="opacity:1" fill="#dd4031" d="M 417.5,53.5 C 417.5,62.1667 417.5,70.8333 417.5,79.5C 419.144,79.7135 420.644,79.3802 422,78.5C 423.706,74.9212 425.539,71.4212 427.5,68C 430.351,66.7114 433.351,66.2114 436.5,66.5C 436.5,68.5 436.5,70.5 436.5,72.5C 435.325,72.281 434.325,72.6143 433.5,73.5C 431.765,77.1497 429.432,80.3164 426.5,83C 427.931,83.4652 429.097,84.2986 430,85.5C 432.372,90.4118 434.872,95.2451 437.5,100C 434.118,100.824 430.784,100.657 427.5,99.5C 426.097,96.1248 424.597,92.7914 423,89.5C 421.736,87.393 419.903,86.393 417.5,86.5C 417.5,91.1667 417.5,95.8333 417.5,100.5C 414.833,100.5 412.167,100.5 409.5,100.5C 409.5,84.8333 409.5,69.1667 409.5,53.5C 412.167,53.5 414.833,53.5 417.5,53.5 Z"/></g>
<g><path style="opacity:1" fill="#fef3f2" d="M 311.5,60.5 C 314.85,60.335 318.183,60.5017 321.5,61C 324.425,64.696 324.092,68.0293 320.5,71C 317.518,71.498 314.518,71.6646 311.5,71.5C 311.5,67.8333 311.5,64.1667 311.5,60.5 Z"/></g>
<g><path style="opacity:1" fill="#fef3f2" d="M 176.5,62.5 C 179.273,69.167 181.273,76.167 182.5,83.5C 178.833,83.5 175.167,83.5 171.5,83.5C 172.96,76.4522 174.627,69.4522 176.5,62.5 Z"/></g>
<g><path style="opacity:1" fill="#de4133" d="M 244.5,66.5 C 250.176,66.3339 255.843,66.5006 261.5,67C 262.931,67.4652 264.097,68.2986 265,69.5C 266.263,76.7282 266.93,84.0615 267,91.5C 271.053,95.9766 270.22,98.9766 264.5,100.5C 262.945,100.278 261.611,99.6113 260.5,98.5C 254.938,102.128 249.272,102.294 243.5,99C 240.151,94.5216 239.651,89.6882 242,84.5C 246.278,79.7357 251.445,78.4024 257.5,80.5C 258.91,78.0508 258.576,75.8841 256.5,74C 252.514,73.5012 248.514,73.3345 244.5,73.5C 243.933,71.0314 243.933,68.698 244.5,66.5 Z"/></g>
<g><path style="opacity:1" fill="#de4435" d="M 344.5,66.5 C 349.511,66.3341 354.511,66.5007 359.5,67C 362.232,67.3981 364.065,68.8981 365,71.5C 365.333,78.1667 365.667,84.8333 366,91.5C 366.45,93.519 367.283,95.3523 368.5,97C 366.759,98.6196 364.925,100.12 363,101.5C 360.52,97.9399 357.686,97.7732 354.5,101C 345.335,103.255 340.002,99.7548 338.5,90.5C 340.904,81.2857 346.904,77.619 356.5,79.5C 356.739,77.5328 356.406,75.6995 355.5,74C 351.514,73.5012 347.514,73.3345 343.5,73.5C 343.481,71.9397 343.148,70.4397 342.5,69C 343.056,67.9889 343.722,67.1556 344.5,66.5 Z"/></g>
<g><path style="opacity:1" fill="#de4435" d="M 376.5,66.5 C 382.509,66.3338 388.509,66.5005 394.5,67C 396.848,67.3459 398.681,68.5125 400,70.5C 401.449,80.3949 401.949,90.3949 401.5,100.5C 398.5,100.5 395.5,100.5 392.5,100.5C 392.666,92.16 392.5,83.8267 392,75.5C 389.174,73.6602 386.007,72.9935 382.5,73.5C 382.5,82.5 382.5,91.5 382.5,100.5C 379.5,100.5 376.5,100.5 373.5,100.5C 373.5,89.5 373.5,78.5 373.5,67.5C 374.791,67.7373 375.791,67.404 376.5,66.5 Z"/></g>
<g><path style="opacity:1" fill="#f2b4ae" d="M 229.5,61.5 C 229.5,63.5 229.5,65.5 229.5,67.5C 232.385,67.1936 235.052,67.5269 237.5,68.5C 234.5,68.5 231.5,68.5 228.5,68.5C 228.198,65.9407 228.532,63.6074 229.5,61.5 Z"/></g>
<g><path style="opacity:1" fill="#de4335" d="M 281.5,78.5 C 289.649,77.7863 291.982,80.953 288.5,88C 285.165,90.2909 282.332,89.7909 280,86.5C 279.282,83.5929 279.782,80.9262 281.5,78.5 Z"/></g>
<g><path style="opacity:1" fill="#efa199" d="M 319.5,79.5 C 317.167,79.5 314.833,79.5 312.5,79.5C 312.5,83.8333 312.5,88.1667 312.5,92.5C 315.167,92.5 317.833,92.5 320.5,92.5C 317.713,93.4767 314.713,93.81 311.5,93.5C 311.5,88.5 311.5,83.5 311.5,78.5C 314.385,78.1936 317.052,78.5269 319.5,79.5 Z"/></g>
<g><path style="opacity:1" fill="#fefcfc" d="M 319.5,79.5 C 323.083,80.4224 324.75,82.7558 324.5,86.5C 325.099,89.8862 323.766,91.8862 320.5,92.5C 317.833,92.5 315.167,92.5 312.5,92.5C 312.5,88.1667 312.5,83.8333 312.5,79.5C 314.833,79.5 317.167,79.5 319.5,79.5 Z"/></g>
<g><path style="opacity:1" fill="#fdefed" d="M 250.5,85.5 C 253.167,85.5 255.833,85.5 258.5,85.5C 258.813,88.2469 258.48,90.9135 257.5,93.5C 249.641,95.3178 247.308,92.6512 250.5,85.5 Z"/></g>
<g><path style="opacity:1" fill="#fef4f3" d="M 349.5,85.5 C 351.833,85.5 354.167,85.5 356.5,85.5C 356.232,88.1194 356.565,90.6194 357.5,93C 348.873,96.2036 346.206,93.7036 349.5,85.5 Z"/></g>
<g><path style="opacity:1" fill="#dd3f31" d="M 11.5,134.5 C 43.5,134.5 75.5,134.5 107.5,134.5C 107.5,141.167 107.5,147.833 107.5,154.5C 75.8316,154.667 44.1649,154.5 12.5,154C 11.5223,147.59 11.189,141.09 11.5,134.5 Z"/></g>
</svg>
