<?xml version="1.0" encoding="UTF-8"?>
<!DOCTYPE svg PUBLIC "-//W3C//DTD SVG 1.1//EN" "http://www.w3.org/Graphics/SVG/1.1/DTD/svg11.dtd">
<svg xmlns="http://www.w3.org/2000/svg" version="1.1" width="1920px" height="1920px" style="shape-rendering:geometricPrecision; text-rendering:geometricPrecision; image-rendering:optimizeQuality; fill-rule:evenodd; clip-rule:evenodd" xmlns:xlink="http://www.w3.org/1999/xlink">
<g><path style="opacity:1" fill="#fefefe" d="M -0.5,-0.5 C 639.5,-0.5 1279.5,-0.5 1919.5,-0.5C 1919.5,639.5 1919.5,1279.5 1919.5,1919.5C 1279.5,1919.5 639.5,1919.5 -0.5,1919.5C -0.5,1279.5 -0.5,639.5 -0.5,-0.5 Z"/></g>
<g><path style="opacity:1" fill="#fddb3d" d="M 971.5,222.5 C 972.076,233.65 972.743,244.65 973.5,255.5C 974.359,280.829 974.526,306.162 974,331.5C 969.963,345.822 960.463,351.655 945.5,349C 939.29,346.157 934.79,341.657 932,335.5C 930.54,311.552 930.04,287.552 930.5,263.5C 930.24,249.804 930.573,236.137 931.5,222.5C 938.595,209.971 948.928,206.471 962.5,212C 966.798,214.459 969.798,217.959 971.5,222.5 Z"/></g>
<g><path style="opacity:1" fill="#fce46d" d="M 971.5,222.5 C 972.268,223.263 972.768,224.263 973,225.5C 973.5,235.494 973.666,245.494 973.5,255.5C 972.743,244.65 972.076,233.65 971.5,222.5 Z"/></g>
<g><path style="opacity:1" fill="#fcea92" d="M 931.5,222.5 C 930.573,236.137 930.24,249.804 930.5,263.5C 929.34,251.007 929.173,238.34 930,225.5C 930.232,224.263 930.732,223.263 931.5,222.5 Z"/></g>
<g><path style="opacity:1" fill="#fcdb3c" d="M 1236.5,273.5 C 1237.11,277.135 1237.45,280.802 1237.5,284.5C 1225.03,318.053 1211.87,351.386 1198,384.5C 1191.26,391.411 1183.09,393.911 1173.5,392C 1166.15,388.815 1161.48,383.315 1159.5,375.5C 1159.18,370.341 1159.85,365.341 1161.5,360.5C 1173.39,329.724 1185.55,299.058 1198,268.5C 1207.65,258.031 1218.48,256.697 1230.5,264.5C 1233.34,266.992 1235.34,269.992 1236.5,273.5 Z"/></g>
<g><path style="opacity:1" fill="#fcdb3d" d="M 684.5,264.5 C 693.349,263.523 700.516,266.523 706,273.5C 721.713,306.626 735.88,340.459 748.5,375C 744.501,394.692 733.167,401.025 714.5,394C 712.91,392.954 711.41,391.787 710,390.5C 695.739,359.369 682.072,328.036 669,296.5C 663.777,280.616 668.943,269.949 684.5,264.5 Z"/></g>
<g><path style="opacity:1" fill="#ffeda9" d="M 1236.5,273.5 C 1238.57,277.044 1238.9,280.71 1237.5,284.5C 1237.45,280.802 1237.11,277.135 1236.5,273.5 Z"/></g>
<g><path style="opacity:1" fill="#feeea6" d="M 1161.5,360.5 C 1159.85,365.341 1159.18,370.341 1159.5,375.5C 1158.36,372.024 1158.19,368.358 1159,364.5C 1159.2,362.68 1160.03,361.347 1161.5,360.5 Z"/></g>
<g><path style="opacity:1" fill="#fcdb3d" d="M 1435.5,405.5 C 1454.8,404.967 1463.63,414.3 1462,433.5C 1461.28,435.949 1460.28,438.283 1459,440.5C 1434.86,465.639 1410.36,490.472 1385.5,515C 1371.39,521.598 1360.55,518.098 1353,504.5C 1351.97,497.633 1352.63,490.967 1355,484.5C 1377.71,461.292 1400.21,437.959 1422.5,414.5C 1426.41,410.726 1430.74,407.726 1435.5,405.5 Z"/></g>
<g><path style="opacity:1" fill="#ffeca5" d="M 471.5,417.5 C 467.434,417.307 463.434,417.64 459.5,418.5C 459.611,417.883 459.944,417.383 460.5,417C 464.358,416.19 468.024,416.357 471.5,417.5 Z"/></g>
<g><path style="opacity:1" fill="#fcdb3d" d="M 471.5,417.5 C 474.005,417.98 476.338,418.98 478.5,420.5C 481.354,423.188 484.354,425.688 487.5,428C 509.946,450.446 532.446,472.946 555,495.5C 560.174,507.65 557.34,517.483 546.5,525C 537.743,528.865 529.409,528.198 521.5,523C 496.71,499.176 472.21,475.01 448,450.5C 441.783,438.583 443.95,428.416 454.5,420C 456.025,418.991 457.692,418.491 459.5,418.5C 463.434,417.64 467.434,417.307 471.5,417.5 Z"/></g>
<g><path style="opacity:1" fill="#fde87e" d="M 979.5,477.5 C 959.491,477.409 939.491,477.743 919.5,478.5C 931.128,476.982 942.961,476.315 955,476.5C 963.34,476.5 971.507,476.834 979.5,477.5 Z"/></g>
<g><path style="opacity:1" fill="#fcdb3b" d="M 979.5,477.5 C 1113.5,487.079 1222.67,543.745 1307,647.5C 1355.72,710.646 1385.55,781.979 1396.5,861.5C 1396.32,867.404 1396.99,873.071 1398.5,878.5C 1403.81,933.041 1399.14,986.708 1384.5,1039.5C 1383.08,1041.51 1382.41,1043.85 1382.5,1046.5C 1350,1151.09 1288.33,1233.59 1197.5,1294C 1167.2,1318.79 1147.87,1350.29 1139.5,1388.5C 1117.01,1389.5 1094.34,1389.83 1071.5,1389.5C 1056.96,1294.78 1050.79,1199.45 1053,1103.5C 1053.61,1091.98 1054.44,1080.48 1055.5,1069C 1055.83,1068.17 1056.17,1067.33 1056.5,1066.5C 1059.79,1064.28 1063.46,1063.11 1067.5,1063C 1070.33,1060.75 1073.33,1058.75 1076.5,1057C 1082.02,1055.16 1087.35,1052.83 1092.5,1050C 1096.85,1045.63 1101.85,1041.96 1107.5,1039C 1129.25,1022.42 1146.91,1002.25 1160.5,978.5C 1162.22,972.07 1164.22,965.737 1166.5,959.5C 1171.21,941.46 1166.87,926.294 1153.5,914C 1148.82,911.886 1144.48,909.219 1140.5,906C 1116.3,901.303 1094.63,906.469 1075.5,921.5C 1067.26,929.248 1059.93,937.915 1053.5,947.5C 1049.96,955.593 1046.13,963.593 1042,971.5C 1036.87,986.907 1032.53,1002.57 1029,1018.5C 1027.59,1026.81 1026.42,1035.14 1025.5,1043.5C 979.545,1055.64 933.212,1056.81 886.5,1047C 882.344,1026.91 877.177,1007.08 871,987.5C 867.305,978.784 863.638,970.117 860,961.5C 855.659,954.147 851.325,946.814 847,939.5C 840.5,933 834,926.5 827.5,920C 810.623,909.392 792.29,906.059 772.5,910C 747.077,920.66 736.577,939.826 741,967.5C 742.473,975.369 744.64,983.036 747.5,990.5C 752.392,998.602 757.559,1006.6 763,1014.5C 769.567,1020.51 775.734,1027.01 781.5,1034C 789.712,1039.19 797.712,1044.85 805.5,1051C 817.86,1057.51 830.526,1063.51 843.5,1069C 847.344,1070.59 851.344,1071.59 855.5,1072C 856.658,1073.01 857.325,1074.34 857.5,1076C 860.027,1087.72 861.861,1099.55 863,1111.5C 871.719,1204.69 873.553,1298.02 868.5,1391.5C 840.51,1392.38 812.51,1392.71 784.5,1392.5C 775.407,1357.89 757.407,1328.73 730.5,1305C 717.167,1295.67 703.833,1286.33 690.5,1277C 596.163,1204.16 538.829,1109 518.5,991.5C 518.435,988.572 517.768,985.905 516.5,983.5C 516.5,982.5 516.5,981.5 516.5,980.5C 516.23,975.972 515.563,971.639 514.5,967.5C 512.362,940.189 512.028,912.856 513.5,885.5C 514.682,879.699 515.348,873.699 515.5,867.5C 532.369,742.546 590.369,641.713 689.5,565C 757.741,514.411 834.408,485.578 919.5,478.5C 939.491,477.743 959.491,477.409 979.5,477.5 Z"/></g>
<g><path style="opacity:1" fill="#feefa8" d="M 975.5,537.5 C 956.82,537.33 938.154,537.663 919.5,538.5C 920.952,537.698 922.618,537.198 924.5,537C 941.672,536.172 958.672,536.338 975.5,537.5 Z"/></g>
<g><path style="opacity:1" fill="#fefefc" d="M 975.5,537.5 C 979.167,537.5 982.833,537.5 986.5,537.5C 996.3,539.309 1006.3,540.643 1016.5,541.5C 1028.91,544.773 1033.74,552.773 1031,565.5C 1029.17,571.333 1025.33,575.167 1019.5,577C 998.205,575.654 976.872,574.487 955.5,573.5C 844.552,576.372 753.719,620.039 683,704.5C 677.622,712.089 672.122,719.589 666.5,727C 653.618,735.072 643.451,732.572 636,719.5C 634.699,713.078 635.699,707.078 639,701.5C 699.735,617.342 781.235,564.676 883.5,543.5C 887.775,543.098 891.942,543.098 896,543.5C 897.409,542.219 898.909,541.219 900.5,540.5C 902.5,540.5 904.5,540.5 906.5,540.5C 911.028,540.23 915.361,539.563 919.5,538.5C 938.154,537.663 956.82,537.33 975.5,537.5 Z"/></g>
<g><path style="opacity:1" fill="#fef3c1" d="M 919.5,538.5 C 915.361,539.563 911.028,540.23 906.5,540.5C 906.918,539.778 907.584,539.278 908.5,539C 912.152,538.501 915.818,538.335 919.5,538.5 Z"/></g>
<g><path style="opacity:1" fill="#feec9b" d="M 986.5,537.5 C 996.771,537.866 1006.77,539.199 1016.5,541.5C 1006.3,540.643 996.3,539.309 986.5,537.5 Z"/></g>
<g><path style="opacity:1" fill="#fff4ca" d="M 900.5,540.5 C 898.909,541.219 897.409,542.219 896,543.5C 891.942,543.098 887.775,543.098 883.5,543.5C 888.948,541.98 894.614,540.98 900.5,540.5 Z"/></g>
<g><path style="opacity:1" fill="#fcdb3d" d="M 1586.5,627.5 C 1607.03,625.867 1616.2,635.2 1614,655.5C 1612.62,659.758 1610.12,663.258 1606.5,666C 1575.01,680.241 1543.35,694.241 1511.5,708C 1491.71,710.211 1482.21,701.378 1483,681.5C 1484.71,677.127 1487.21,673.293 1490.5,670C 1522.47,655.512 1554.47,641.345 1586.5,627.5 Z"/></g>
<g><path style="opacity:1" fill="#fcdb3c" d="M 313.5,642.5 C 318.58,642.25 323.58,642.75 328.5,644C 360.115,656.065 391.449,668.732 422.5,682C 432.726,691.082 434.226,701.582 427,713.5C 419.66,721.42 410.826,723.586 400.5,720C 369.883,707.697 339.217,695.364 308.5,683C 297.895,674.279 295.728,663.779 302,651.5C 305.449,647.877 309.283,644.877 313.5,642.5 Z"/></g>
<g><path style="opacity:1" fill="#feea94" d="M 615.5,755.5 C 616.793,754.842 618.293,754.508 620,754.5C 622.544,754.336 624.71,755.003 626.5,756.5C 622.881,755.756 619.215,755.423 615.5,755.5 Z"/></g>
<g><path style="opacity:1" fill="#fefefb" d="M 615.5,755.5 C 619.215,755.423 622.881,755.756 626.5,756.5C 636.081,760.326 639.914,767.326 638,777.5C 632.617,790.31 627.617,803.31 623,816.5C 616.311,825.586 607.811,827.753 597.5,823C 590.518,817.451 587.685,810.284 589,801.5C 593.741,788.281 599.075,775.281 605,762.5C 607.659,758.764 611.159,756.431 615.5,755.5 Z"/></g>
<g><path style="opacity:1" fill="#fde987" d="M 1396.5,861.5 C 1397.88,866.944 1398.55,872.611 1398.5,878.5C 1396.99,873.071 1396.32,867.404 1396.5,861.5 Z"/></g>
<g><path style="opacity:1" fill="#feeda2" d="M 515.5,867.5 C 515.348,873.699 514.682,879.699 513.5,885.5C 513.276,879.261 513.943,873.261 515.5,867.5 Z"/></g>
<g><path style="opacity:1" fill="#fdfae1" d="M 1607.5,890.5 C 1588.34,891.497 1569.01,891.83 1549.5,891.5C 1549.37,890.624 1549.7,889.957 1550.5,889.5C 1569.45,890.487 1588.45,890.821 1607.5,890.5 Z"/></g>
<g><path style="opacity:1" fill="#fddb3d" d="M 1607.5,890.5 C 1624.21,890.092 1640.88,890.592 1657.5,892C 1670.36,899.928 1673.53,910.761 1667,924.5C 1662.71,929.89 1657.21,933.056 1650.5,934C 1615.83,934.591 1581.16,934.925 1546.5,935C 1529.46,926.749 1525.96,914.583 1536,898.5C 1539.68,894.618 1544.18,892.285 1549.5,891.5C 1569.01,891.83 1588.34,891.497 1607.5,890.5 Z"/></g>
<g><path style="opacity:1" fill="#fbbc0d" d="M 1071.5,1389.5 C 1068.83,1389.5 1066.17,1389.5 1063.5,1389.5C 1055.17,1389.5 1046.83,1389.5 1038.5,1389.5C 1022.81,1286.76 1016.81,1183.42 1020.5,1079.5C 977.955,1087.88 935.289,1088.55 892.5,1081.5C 900.596,1146.4 904.263,1211.56 903.5,1277C 903.218,1315.17 902.552,1353.34 901.5,1391.5C 890.5,1391.5 879.5,1391.5 868.5,1391.5C 873.553,1298.02 871.719,1204.69 863,1111.5C 861.861,1099.55 860.027,1087.72 857.5,1076C 857.325,1074.34 856.658,1073.01 855.5,1072C 851.344,1071.59 847.344,1070.59 843.5,1069C 830.526,1063.51 817.86,1057.51 805.5,1051C 797.712,1044.85 789.712,1039.19 781.5,1034C 775.734,1027.01 769.567,1020.51 763,1014.5C 757.559,1006.6 752.392,998.602 747.5,990.5C 744.64,983.036 742.473,975.369 741,967.5C 736.577,939.826 747.077,920.66 772.5,910C 792.29,906.059 810.623,909.392 827.5,920C 834,926.5 840.5,933 847,939.5C 851.325,946.814 855.659,954.147 860,961.5C 863.638,970.117 867.305,978.784 871,987.5C 877.177,1007.08 882.344,1026.91 886.5,1047C 933.212,1056.81 979.545,1055.64 1025.5,1043.5C 1026.42,1035.14 1027.59,1026.81 1029,1018.5C 1032.53,1002.57 1036.87,986.907 1042,971.5C 1046.13,963.593 1049.96,955.593 1053.5,947.5C 1059.93,937.915 1067.26,929.248 1075.5,921.5C 1094.63,906.469 1116.3,901.303 1140.5,906C 1144.48,909.219 1148.82,911.886 1153.5,914C 1166.87,926.294 1171.21,941.46 1166.5,959.5C 1164.22,965.737 1162.22,972.07 1160.5,978.5C 1146.91,1002.25 1129.25,1022.42 1107.5,1039C 1101.85,1041.96 1096.85,1045.63 1092.5,1050C 1087.35,1052.83 1082.02,1055.16 1076.5,1057C 1073.33,1058.75 1070.33,1060.75 1067.5,1063C 1063.46,1063.11 1059.79,1064.28 1056.5,1066.5C 1056.17,1067.33 1055.83,1068.17 1055.5,1069C 1054.44,1080.48 1053.61,1091.98 1053,1103.5C 1050.79,1199.45 1056.96,1294.78 1071.5,1389.5 Z"/></g>
<g><path style="opacity:1" fill="#fcdb3d" d="M 311.5,905.5 C 332.887,905.045 354.22,905.545 375.5,907C 386.252,912.672 390.418,921.505 388,933.5C 384.563,941.938 378.396,947.105 369.5,949C 333.5,949.667 297.5,949.667 261.5,949C 251.169,942.685 247.002,933.518 249,921.5C 252.031,913.799 257.531,908.966 265.5,907C 281.005,906.831 296.339,906.331 311.5,905.5 Z"/></g>
<g><path style="opacity:1" fill="#fcda3a" d="M 1114.5,937.5 C 1120.97,937.151 1127.3,937.817 1133.5,939.5C 1134.85,950.787 1132.68,961.454 1127,971.5C 1110.1,995.561 1088.6,1014.56 1062.5,1028.5C 1062.17,1027.67 1061.83,1026.83 1061.5,1026C 1064.78,1009.5 1069.28,993.337 1075,977.5C 1077,973.506 1079,969.506 1081,965.5C 1084.97,961.533 1088.14,957.033 1090.5,952C 1097.63,945.584 1105.63,940.751 1114.5,937.5 Z"/></g>
<g><path style="opacity:1" fill="#fcda39" d="M 780.5,941.5 C 790.817,940.334 800.484,942.167 809.5,947C 813.971,952.141 818.471,957.308 823,962.5C 824.908,966.414 827.241,970.08 830,973.5C 832.352,980.193 835.186,986.693 838.5,993C 842.14,1003.78 845.64,1014.62 849,1025.5C 849.455,1028.85 849.955,1032.19 850.5,1035.5C 848.801,1035.66 847.134,1035.49 845.5,1035C 837.618,1029.89 829.284,1025.56 820.5,1022C 817.167,1019.33 813.833,1016.67 810.5,1014C 809.552,1013.52 808.552,1013.35 807.5,1013.5C 806.476,1010.1 804.142,1007.77 800.5,1006.5C 799.614,1005.68 799.281,1004.68 799.5,1003.5C 798.448,1003.65 797.448,1003.48 796.5,1003C 792.333,998.167 788.167,993.333 784,988.5C 779.379,981.216 775.879,973.383 773.5,965C 770.42,955.334 772.754,947.501 780.5,941.5 Z"/></g>
<g><path style="opacity:1" fill="#fdf5cc" d="M 514.5,967.5 C 515.563,971.639 516.23,975.972 516.5,980.5C 515.778,980.082 515.278,979.416 515,978.5C 514.501,974.848 514.335,971.182 514.5,967.5 Z"/></g>
<g><path style="opacity:1" fill="#feeb8f" d="M 516.5,983.5 C 517.768,985.905 518.435,988.572 518.5,991.5C 516.96,989.162 516.294,986.495 516.5,983.5 Z"/></g>
<g><path style="opacity:1" fill="#fff3ba" d="M 1384.5,1039.5 C 1384.59,1042.15 1383.92,1044.49 1382.5,1046.5C 1382.41,1043.85 1383.08,1041.51 1384.5,1039.5 Z"/></g>
<g><path style="opacity:1" fill="#fcda3a" d="M 1063.5,1389.5 C 1009.67,1390.73 955.671,1391.39 901.5,1391.5C 902.552,1353.34 903.218,1315.17 903.5,1277C 904.263,1211.56 900.596,1146.4 892.5,1081.5C 935.289,1088.55 977.955,1087.88 1020.5,1079.5C 1016.81,1183.42 1022.81,1286.76 1038.5,1389.5C 1046.83,1389.5 1055.17,1389.5 1063.5,1389.5 Z"/></g>
<g><path style="opacity:1" fill="#fcdb3d" d="M 1501.5,1118.5 C 1506.18,1118.33 1510.85,1118.5 1515.5,1119C 1546.72,1132.73 1578.05,1146.07 1609.5,1159C 1620.52,1168.12 1622.35,1178.95 1615,1191.5C 1607.82,1198.84 1599.32,1201.01 1589.5,1198C 1558.8,1184.98 1528.14,1171.98 1497.5,1159C 1486.26,1149.19 1484.59,1138.02 1492.5,1125.5C 1494.99,1122.43 1497.99,1120.1 1501.5,1118.5 Z"/></g>
<g><path style="opacity:1" fill="#fcdb3d" d="M 313.5,1211.5 C 309.131,1211.53 304.798,1211.2 300.5,1210.5C 288.498,1204.35 284.331,1194.69 288,1181.5C 289.738,1177.76 292.238,1174.59 295.5,1172C 322.699,1161.37 350.032,1150.7 377.5,1140C 387.197,1135.73 397.197,1134.4 407.5,1136C 418.252,1141.67 422.418,1150.51 420,1162.5C 417.552,1166.61 414.719,1170.45 411.5,1174C 378.777,1186.41 346.11,1198.91 313.5,1211.5 Z"/></g>
<g><path style="opacity:1" fill="#feefac" d="M 300.5,1210.5 C 304.798,1211.2 309.131,1211.53 313.5,1211.5C 312.036,1212.16 310.369,1212.49 308.5,1212.5C 305.514,1212.62 302.848,1211.95 300.5,1210.5 Z"/></g>
<g><path style="opacity:1" fill="#fcdb3d" d="M 1375.5,1313.5 C 1380.84,1313.33 1386.18,1313.5 1391.5,1314C 1393,1315.25 1394.67,1316.25 1396.5,1317C 1421.03,1340.86 1445.53,1364.69 1470,1388.5C 1477.14,1400.24 1475.64,1410.74 1465.5,1420C 1456.81,1424.62 1448.14,1424.62 1439.5,1420C 1415.56,1396.72 1391.73,1373.56 1368,1350.5C 1357.67,1335.51 1360.17,1323.18 1375.5,1313.5 Z"/></g>
<g><path style="opacity:1" fill="#fcdb3c" d="M 530.5,1322.5 C 551.009,1322.5 559.842,1332.5 557,1352.5C 532.175,1380.66 506.008,1407.49 478.5,1433C 464.447,1438.27 454.281,1434.11 448,1420.5C 446.644,1413.39 447.644,1406.72 451,1400.5C 474.5,1376.33 498,1352.17 521.5,1328C 524.367,1325.73 527.367,1323.9 530.5,1322.5 Z"/></g>
<g><path style="opacity:1" fill="#606060" d="M 1139.5,1388.5 C 1146.84,1388.33 1154.17,1388.5 1161.5,1389C 1171.57,1392.64 1176.57,1399.8 1176.5,1410.5C 1176.99,1422.23 1171.65,1429.56 1160.5,1432.5C 1160.5,1440.5 1160.5,1448.5 1160.5,1456.5C 1172.45,1458.52 1177.79,1465.69 1176.5,1478C 1177.65,1489.01 1172.98,1496.17 1162.5,1499.5C 1161.17,1506.83 1161.17,1514.17 1162.5,1521.5C 1176.09,1527.02 1180.93,1537.02 1177,1551.5C 1174.91,1559.09 1170.08,1563.76 1162.5,1565.5C 1162.5,1572.83 1162.5,1580.17 1162.5,1587.5C 1161.83,1587.5 1161.5,1587.17 1161.5,1586.5C 1161.5,1579.17 1161.5,1571.83 1161.5,1564.5C 1047.34,1566.49 933.176,1567.82 819,1568.5C 801.154,1568.5 783.654,1569.17 766.5,1570.5C 766.167,1570.5 765.833,1570.5 765.5,1570.5C 754.265,1567.4 748.932,1559.9 749.5,1548C 749.255,1540.39 751.922,1534.06 757.5,1529C 760.541,1527.79 763.208,1526.29 765.5,1524.5C 897.093,1523.64 1028.76,1522.31 1160.5,1520.5C 1160.5,1513.5 1160.5,1506.5 1160.5,1499.5C 1053.5,1499.9 946.497,1500.73 839.5,1502C 814.668,1502.71 790.001,1503.55 765.5,1504.5C 753.732,1501.87 748.066,1494.37 748.5,1482C 748.162,1470.48 753.495,1463.31 764.5,1460.5C 764.5,1452.83 764.5,1445.17 764.5,1437.5C 752.716,1434.81 747.383,1427.31 748.5,1415C 747.326,1405.01 751.326,1398.01 760.5,1394C 768.677,1393.83 776.677,1393.33 784.5,1392.5C 812.51,1392.71 840.51,1392.38 868.5,1391.5C 879.5,1391.5 890.5,1391.5 901.5,1391.5C 955.671,1391.39 1009.67,1390.73 1063.5,1389.5C 1066.17,1389.5 1068.83,1389.5 1071.5,1389.5C 1094.34,1389.83 1117.01,1389.5 1139.5,1388.5 Z"/></g>
<g><path style="opacity:1" fill="#41444b" d="M 1111.5,1433.5 C 1127.5,1433.5 1143.5,1433.5 1159.5,1433.5C 1159.5,1440.83 1159.5,1448.17 1159.5,1455.5C 1028.16,1456.61 896.831,1457.94 765.5,1459.5C 765.5,1452.5 765.5,1445.5 765.5,1438.5C 880.997,1436.98 996.33,1435.31 1111.5,1433.5 Z"/></g>
<g><path style="opacity:1" fill="#41444b" d="M 765.5,1524.5 C 765.5,1517.83 765.5,1511.17 765.5,1504.5C 790.001,1503.55 814.668,1502.71 839.5,1502C 946.497,1500.73 1053.5,1499.9 1160.5,1499.5C 1160.5,1506.5 1160.5,1513.5 1160.5,1520.5C 1028.76,1522.31 897.093,1523.64 765.5,1524.5 Z"/></g>
<g><path style="opacity:1" fill="#41444b" d="M 1161.5,1586.5 C 1029.85,1589.31 898.187,1590.98 766.5,1591.5C 766.5,1584.5 766.5,1577.5 766.5,1570.5C 783.654,1569.17 801.154,1568.5 819,1568.5C 933.176,1567.82 1047.34,1566.49 1161.5,1564.5C 1161.5,1571.83 1161.5,1579.17 1161.5,1586.5 Z"/></g>
<g><path style="opacity:1" fill="#a8a9ad" d="M 765.5,1570.5 C 765.833,1570.5 766.167,1570.5 766.5,1570.5C 766.5,1577.5 766.5,1584.5 766.5,1591.5C 765.07,1592.54 763.403,1593.2 761.5,1593.5C 762.287,1591.9 763.62,1591.23 765.5,1591.5C 765.5,1584.5 765.5,1577.5 765.5,1570.5 Z"/></g>
<g><path style="opacity:1" fill="#606060" d="M 1161.5,1586.5 C 1161.5,1587.17 1161.83,1587.5 1162.5,1587.5C 1170.12,1588.9 1175.29,1593.23 1178,1600.5C 1181.78,1614.19 1177.62,1624.35 1165.5,1631C 1152.26,1630.88 1139.26,1631.71 1126.5,1633.5C 1111.67,1632.83 1096.67,1632.5 1081.5,1632.5C 988.332,1633.57 895.332,1634.9 802.5,1636.5C 790.162,1636.67 777.829,1636.5 765.5,1636C 757.484,1634.4 752.651,1629.57 751,1621.5C 749.644,1613.47 750.644,1605.8 754,1598.5C 756.128,1596.19 758.628,1594.53 761.5,1593.5C 763.403,1593.2 765.07,1592.54 766.5,1591.5C 898.187,1590.98 1029.85,1589.31 1161.5,1586.5 Z"/></g>
<g><path style="opacity:1" fill="#41444b" d="M 1126.5,1633.5 C 1115.24,1674.1 1088.9,1698.43 1047.5,1706.5C 1017.67,1707.08 988.007,1707.75 958.5,1708.5C 953.167,1708.5 947.833,1708.5 942.5,1708.5C 919.43,1709.03 896.43,1708.36 873.5,1706.5C 836.561,1696.56 812.894,1673.23 802.5,1636.5C 895.332,1634.9 988.332,1633.57 1081.5,1632.5C 1096.67,1632.5 1111.67,1632.83 1126.5,1633.5 Z"/></g>
<g><path style="opacity:1" fill="#616469" d="M 1047.5,1706.5 C 1045.03,1707.32 1042.36,1707.82 1039.5,1708C 1012.5,1708.5 985.502,1708.67 958.5,1708.5C 988.007,1707.75 1017.67,1707.08 1047.5,1706.5 Z"/></g>
<g><path style="opacity:1" fill="#636569" d="M 873.5,1706.5 C 896.43,1708.36 919.43,1709.03 942.5,1708.5C 923.004,1709.66 903.338,1709.83 883.5,1709C 879.91,1708.69 876.577,1707.86 873.5,1706.5 Z"/></g>
</svg>
