<?xml version="1.0" encoding="UTF-8"?>
<!DOCTYPE svg PUBLIC "-//W3C//DTD SVG 1.1//EN" "http://www.w3.org/Graphics/SVG/1.1/DTD/svg11.dtd">
<svg xmlns="http://www.w3.org/2000/svg" version="1.1" width="244px" height="94px" style="shape-rendering:geometricPrecision; text-rendering:geometricPrecision; image-rendering:optimizeQuality; fill-rule:evenodd; clip-rule:evenodd" xmlns:xlink="http://www.w3.org/1999/xlink">
<g><path style="opacity:1" fill="#050a2f" d="M -0.5,-0.5 C 80.8333,-0.5 162.167,-0.5 243.5,-0.5C 243.5,30.8333 243.5,62.1667 243.5,93.5C 162.167,93.5 80.8333,93.5 -0.5,93.5C -0.5,62.1667 -0.5,30.8333 -0.5,-0.5 Z"/></g>
<g><path style="opacity:1" fill="#e5af3c" d="M 164.5,10.5 C 170.856,10.895 177.023,12.2283 183,14.5C 186.339,13.1199 189.506,13.2866 192.5,15C 189.772,17.3922 186.772,19.3922 183.5,21C 177.487,21.3581 171.487,21.8581 165.5,22.5C 161.271,21.778 157.271,20.4447 153.5,18.5C 154.722,16.0217 156.722,15.0217 159.5,15.5C 159.5,14.5 159.5,13.5 159.5,12.5C 161.553,12.5979 163.22,11.9313 164.5,10.5 Z"/></g>
<g><path style="opacity:1" fill="#dda93b" d="M 112.5,13.5 C 117.98,13.4956 120.48,16.1623 120,21.5C 116.333,25.5 112.667,25.5 109,21.5C 108.279,17.9463 109.446,15.2796 112.5,13.5 Z"/></g>
<g><path style="opacity:1" fill="#e5af3c" d="M 143.5,33.5 C 142.21,34.0577 141.377,35.0577 141,36.5C 140.085,35.6721 139.419,34.6721 139,33.5C 134.564,38.8157 133.397,37.8157 135.5,30.5C 134.418,30.2514 133.085,30.0848 131.5,30C 134.478,25.9364 134.144,22.2697 130.5,19C 135.483,15.434 137.983,10.6006 138,4.5C 140.257,6.04559 142.424,7.71225 144.5,9.5C 148.5,7.83333 152.5,6.16667 156.5,4.5C 157.086,4.70931 157.586,5.04265 158,5.5C 158.667,7.83333 158.667,10.1667 158,12.5C 155.437,13.741 152.937,15.0744 150.5,16.5C 151.2,19.5847 153.033,21.5847 156,22.5C 156.333,22.1667 156.667,21.8333 157,21.5C 157.49,22.7932 157.657,24.1266 157.5,25.5C 155.064,25.683 152.897,25.0163 151,23.5C 150.838,26.1659 152.005,28.1659 154.5,29.5C 152.312,30.2407 150.312,30.574 148.5,30.5C 151.612,31.9829 154.445,31.6496 157,29.5C 157.333,31.5 157.667,33.5 158,35.5C 160.753,31.2654 162.42,31.5987 163,36.5C 165.753,32.2654 167.42,32.5987 168,37.5C 169.55,33.6358 171.05,33.6358 172.5,37.5C 173.833,33.5 175.167,33.5 176.5,37.5C 177.142,34.2027 178.309,33.8693 180,36.5C 181.333,33.8333 182.667,33.8333 184,36.5C 184.292,34.6739 184.125,32.8405 183.5,31C 184.342,26.3878 186.509,25.5544 190,28.5C 190.617,29.4491 190.451,30.2825 189.5,31C 188.262,30.9227 187.262,31.0894 186.5,31.5C 188.622,34.1397 190.456,33.8063 192,30.5C 193.072,25.1876 195.572,20.6876 199.5,17C 206.273,15.7091 210.273,18.3757 211.5,25C 211.468,27.8953 210.468,30.3953 208.5,32.5C 212.527,37.2175 215.527,42.5508 217.5,48.5C 219.574,51.0779 222.24,52.5779 225.5,53C 223.043,54.5123 223.043,55.8456 225.5,57C 223.109,58.3086 223.109,59.3086 225.5,60C 224.426,60.7387 223.759,61.7387 223.5,63C 224.625,64.9626 225.959,66.796 227.5,68.5C 226.127,70.4899 225.127,72.6566 224.5,75C 222.5,75.6667 220.5,75.6667 218.5,75C 219.848,72.9896 221.182,70.9896 222.5,69C 220.683,65.8434 218.85,62.6767 217,59.5C 212.318,57.2794 207.485,55.2794 202.5,53.5C 201.417,54.365 201.251,55.365 202,56.5C 203.399,57.2266 204.899,57.7266 206.5,58C 204.854,59.5548 204.521,61.2215 205.5,63C 203.722,65.1354 203.055,67.6354 203.5,70.5C 201.051,71.0574 198.718,71.0574 196.5,70.5C 197.965,68.4006 199.299,66.2339 200.5,64C 197.648,60.6468 194.981,57.1468 192.5,53.5C 189.573,55.8156 189.907,57.3156 193.5,58C 191.875,58.8525 191.542,59.8525 192.5,61C 190.863,64.2846 190.196,67.7846 190.5,71.5C 187.813,71.6641 185.146,71.4974 182.5,71C 183.928,68.8153 185.595,66.8153 187.5,65C 185.669,61.8016 183.502,58.9683 181,56.5C 179.189,57.4235 179.355,58.2569 181.5,59C 180.672,59.9147 179.672,60.5814 178.5,61C 179.345,62.5581 178.679,63.5581 176.5,64C 176.833,64.3333 177.167,64.6667 177.5,65C 176.5,65.3333 175.5,65.6667 174.5,66C 174.833,66.3333 175.167,66.6667 175.5,67C 172.734,67.8129 171.067,69.6462 170.5,72.5C 167.953,73.5385 165.953,72.7052 164.5,70C 169.559,67.0232 172.226,62.5232 172.5,56.5C 169.781,56.3462 166.781,56.3462 163.5,56.5C 163.5,57.5 163.5,58.5 163.5,59.5C 164.552,59.3505 165.552,59.5172 166.5,60C 165.241,60.9234 163.908,61.7568 162.5,62.5C 164.946,63.9828 164.612,65.1495 161.5,66C 161.833,66.3333 162.167,66.6667 162.5,67C 159.994,68.5065 158.328,70.6732 157.5,73.5C 152.458,71.7774 152.292,69.7774 157,67.5C 157.167,66.6667 157.333,65.8333 157.5,65C 155.928,62.0812 155.261,58.9145 155.5,55.5C 153.856,55.7135 152.356,55.3802 151,54.5C 150.205,57.3832 151.371,58.8832 154.5,59C 153.5,59.8333 152.5,60.6667 151.5,61.5C 154.044,62.9374 154.044,64.4374 151.5,66C 152.167,66.3333 152.833,66.6667 153.5,67C 149.745,71.0741 147.411,75.9074 146.5,81.5C 144.235,82.6474 141.902,82.8141 139.5,82C 142.648,79.2048 144.314,75.7048 144.5,71.5C 142.262,61.6241 139.928,51.7907 137.5,42C 136.727,37.233 138.061,36.0663 141.5,38.5C 142.562,36.9783 143.229,35.3117 143.5,33.5 Z"/></g>
<g><path style="opacity:1" fill="#32272d" d="M 146.5,11.5 C 148.973,11.9473 149.14,12.9473 147,14.5C 145.272,13.6477 145.105,12.6477 146.5,11.5 Z"/></g>
<g><path style="opacity:1" fill="#0b0e2f" d="M 200.5,20.5 C 206,19.8314 208.167,22.1647 207,27.5C 204.925,29.6483 202.592,29.9817 200,28.5C 197.936,31.2736 195.436,33.1069 192.5,34C 195.304,29.5549 197.971,25.0549 200.5,20.5 Z"/></g>
<g><path style="opacity:1" fill="#e9b23d" d="M 30.5,30.5 C 42.947,29.4635 51.1136,34.7968 55,46.5C 55.6667,48.8333 55.6667,51.1667 55,53.5C 44.9158,54.4861 34.7491,54.8194 24.5,54.5C 25.0532,58.7605 27.3865,61.5939 31.5,63C 37.3944,64.2554 42.7277,63.0887 47.5,59.5C 48.982,61.4829 50.6487,63.3163 52.5,65C 48.2108,69.6418 42.8775,71.8085 36.5,71.5C 19.5646,70.3894 12.398,61.3894 15,44.5C 18.5245,37.7988 23.6912,33.1321 30.5,30.5 Z"/></g>
<g><path style="opacity:1" fill="#e2ad3c" d="M 79.5,30.5 C 90.8526,29.0755 98.0193,33.7422 101,44.5C 101.5,53.4938 101.666,62.4938 101.5,71.5C 98.1667,71.5 94.8333,71.5 91.5,71.5C 91.6664,62.4938 91.4998,53.4938 91,44.5C 89.2003,40.765 86.2003,39.0983 82,39.5C 77.2684,39.1981 73.9351,41.1981 72,45.5C 71.5002,54.1603 71.3336,62.8269 71.5,71.5C 68.1667,71.5 64.8333,71.5 61.5,71.5C 61.5,58.1667 61.5,44.8333 61.5,31.5C 65.6388,30.7042 68.8055,32.0375 71,35.5C 73.6822,33.415 76.5155,31.7483 79.5,30.5 Z"/></g>
<g><path style="opacity:1" fill="#e0ac3b" d="M 109.5,31.5 C 113.287,30.8144 116.454,31.8144 119,34.5C 119.5,46.8288 119.667,59.1622 119.5,71.5C 116.167,71.5 112.833,71.5 109.5,71.5C 109.5,58.1667 109.5,44.8333 109.5,31.5 Z"/></g>
<g><path style="opacity:1" fill="#28202b" d="M 143.5,33.5 C 143.47,32.5028 143.97,31.8361 145,31.5C 146.635,31.8777 148.135,32.5444 149.5,33.5C 147.674,33.9202 145.674,33.9202 143.5,33.5 Z"/></g>
<g><path style="opacity:1" fill="#0a0d2f" d="M 30.5,38.5 C 35.7154,37.7024 40.2154,39.0358 44,42.5C 45.0086,44.0249 45.5086,45.6916 45.5,47.5C 38.1365,47.8306 30.8032,47.4973 23.5,46.5C 25.1691,43.1697 27.5025,40.5031 30.5,38.5 Z"/></g>
</svg>
