<?xml version="1.0" encoding="UTF-8"?>
<!DOCTYPE svg PUBLIC "-//W3C//DTD SVG 1.1//EN" "http://www.w3.org/Graphics/SVG/1.1/DTD/svg11.dtd">
<svg xmlns="http://www.w3.org/2000/svg" version="1.1" width="700px" height="688px" style="shape-rendering:geometricPrecision; text-rendering:geometricPrecision; image-rendering:optimizeQuality; fill-rule:evenodd; clip-rule:evenodd" xmlns:xlink="http://www.w3.org/1999/xlink">
<g><path style="opacity:1" fill="#fefefe" d="M -0.5,-0.5 C 232.833,-0.5 466.167,-0.5 699.5,-0.5C 699.5,228.833 699.5,458.167 699.5,687.5C 466.167,687.5 232.833,687.5 -0.5,687.5C -0.5,458.167 -0.5,228.833 -0.5,-0.5 Z"/></g>
<g><path style="opacity:1" fill="#e86778" d="M 325.5,25.5 C 333.611,25.0648 341.611,25.5648 349.5,27C 341.167,27.6667 332.833,27.6667 324.5,27C 325.056,26.6174 325.389,26.1174 325.5,25.5 Z"/></g>
<g><path style="opacity:1" fill="#e96674" d="M 378.5,27.5 C 382.619,28.3678 383.119,30.0344 380,32.5C 377.389,31.5001 376.889,29.8334 378.5,27.5 Z"/></g>
<g><path style="opacity:1" fill="#e75b6a" d="M 305.5,31.5 C 308.5,31.1667 309.833,32.5 309.5,35.5C 305.56,36.234 304.227,34.9007 305.5,31.5 Z"/></g>
<g><path style="opacity:1" fill="#e75d6b" d="M 404.5,31.5 C 407.084,32.0483 408.084,33.715 407.5,36.5C 403.716,36.4747 402.716,34.8081 404.5,31.5 Z"/></g>
<g><path style="opacity:1" fill="#e65868" d="M 268.5,34.5 C 271.166,34.0658 272.333,35.0658 272,37.5C 268.403,39.0661 267.237,38.0661 268.5,34.5 Z"/></g>
<g><path style="opacity:1" fill="#e65767" d="M 423.5,37.5 C 429.979,38.2684 436.313,39.7684 442.5,42C 461.668,50.0507 480.335,59.0507 498.5,69C 501.5,72 504.5,75 507.5,78C 504.053,77.2879 500.719,75.9545 497.5,74C 475.337,58.92 451.337,47.5867 425.5,40C 424.244,39.5831 423.577,38.7498 423.5,37.5 Z"/></g>
<g><path style="opacity:1" fill="#e55061" d="M 240.5,44.5 C 244.167,44.5 247.833,44.5 251.5,44.5C 251.548,47.2919 250.215,49.1253 247.5,50C 220.843,64.3268 194.509,79.1601 168.5,94.5C 167.479,93.9984 167.312,93.3317 168,92.5C 188.688,71.0844 212.855,55.0844 240.5,44.5 Z"/></g>
<g><path style="opacity:1" fill="#e75d6c" d="M 289.5,44.5 C 290.5,44.5 291.5,44.5 292.5,44.5C 292.5,45.5 292.5,46.5 292.5,47.5C 291.5,47.5 290.5,47.5 289.5,47.5C 289.5,46.5 289.5,45.5 289.5,44.5 Z"/></g>
<g><path style="opacity:1" fill="#e65162" d="M 302.5,61.5 C 321.17,61.3334 339.836,61.5001 358.5,62C 360.792,63.2899 362.792,64.9565 364.5,67C 347.905,68.6062 331.239,69.6062 314.5,70C 310.55,71.2055 306.55,72.2055 302.5,73C 290.729,73.1354 279.062,74.302 267.5,76.5C 266.167,76.3333 264.833,76.1667 263.5,76C 275.743,68.8676 288.743,64.0343 302.5,61.5 Z"/></g>
<g><path style="opacity:1" fill="#e65364" d="M 414.5,71.5 C 414.735,70.9033 415.235,70.5699 416,70.5C 430.315,73.3822 444.481,76.8822 458.5,81C 483.759,93.2932 507.759,107.627 530.5,124C 554.713,144.504 573.879,168.67 588,196.5C 565.293,167.791 539.793,141.624 511.5,118C 496.947,107.804 481.613,98.8038 465.5,91C 448.474,84.484 431.474,77.984 414.5,71.5 Z"/></g>
<g><path style="opacity:1" fill="#e96674" d="M 516.5,82.5 C 521.159,82.0146 522.492,83.848 520.5,88C 515.728,88.8104 514.395,86.9771 516.5,82.5 Z"/></g>
<g><path style="opacity:1" fill="#e54f60" d="M 204.5,99.5 C 208.29,99.0077 208.956,99.841 206.5,102C 178.25,121.574 152.417,144.074 129,169.5C 101.323,204.465 83.6563,244.131 76,288.5C 72.7525,305.899 70.2525,323.399 68.5,341C 70.391,360.58 74.2244,379.747 80,398.5C 87.7523,418.504 95.9189,438.338 104.5,458C 103.898,459.563 103.065,459.396 102,457.5C 93.6225,444.745 86.2892,431.412 80,417.5C 90.3834,462.272 111.717,500.938 144,533.5C 146.75,537.332 149.25,541.332 151.5,545.5C 161.936,553.099 171.936,561.266 181.5,570C 191.556,577.722 201.889,585.055 212.5,592C 237.759,605.296 263.759,616.963 290.5,627C 275.833,626.714 261.5,624.381 247.5,620C 218.227,607.707 191.56,591.374 167.5,571C 160.526,563.53 154.526,555.363 149.5,546.5C 130.189,534.356 114.356,518.69 102,499.5C 73.1167,453.682 57.6167,403.682 55.5,349.5C 55.9261,339.83 56.4261,330.163 57,320.5C 61.491,295.902 65.491,271.236 69,246.5C 69,250.5 69,254.5 69,258.5C 75.5577,240.051 84.2244,222.718 95,206.5C 111.521,182.974 129.188,160.308 148,138.5C 164.309,121.665 183.143,108.665 204.5,99.5 Z"/></g>
<g><path style="opacity:1" fill="#e65667" d="M 159.5,102.5 C 161.048,102.821 161.715,103.821 161.5,105.5C 158.752,105.598 158.086,104.598 159.5,102.5 Z"/></g>
<g><path style="opacity:1" fill="#e65465" d="M 532.5,102.5 C 536.31,103.754 536.31,104.754 532.5,105.5C 532.5,104.5 532.5,103.5 532.5,102.5 Z"/></g>
<g><path style="opacity:1" fill="#f3a5ae" d="M 545.5,106.5 C 548.797,106.329 549.131,106.995 546.5,108.5C 545.702,108.043 545.369,107.376 545.5,106.5 Z"/></g>
<g><path style="opacity:1" fill="#e75968" d="M 554.5,116.5 C 558.35,116.701 559.35,118.534 557.5,122C 553.537,122.118 552.537,120.284 554.5,116.5 Z"/></g>
<g><path style="opacity:1" fill="#e75a69" d="M 126.5,133.5 C 132.148,133.311 133.482,135.478 130.5,140C 125.791,140.082 124.458,137.915 126.5,133.5 Z"/></g>
<g><path style="opacity:1" fill="#e96877" d="M 561.5,132.5 C 563.337,132.639 563.67,133.306 562.5,134.5C 561.702,134.043 561.369,133.376 561.5,132.5 Z"/></g>
<g><path style="opacity:1" fill="#e65162" d="M 345.5,135.5 C 350.032,138.707 352.699,143.207 353.5,149C 353.379,153.788 350.879,156.288 346,156.5C 341.697,155.863 339.531,153.363 339.5,149C 340.554,144.061 342.554,139.561 345.5,135.5 Z"/></g>
<g><path style="opacity:1" fill="#e55162" d="M 122.5,139.5 C 123.675,139.281 124.675,139.614 125.5,140.5C 114.433,162.308 101.6,182.975 87,202.5C 86.3482,199.406 86.6815,196.406 88,193.5C 96.1417,173.224 107.642,155.224 122.5,139.5 Z"/></g>
<g><path style="opacity:1" fill="#e65667" d="M 333.5,153.5 C 337.353,154.345 340.019,156.679 341.5,160.5C 337.18,160.54 334.513,158.207 333.5,153.5 Z"/></g>
<g><path style="opacity:1" fill="#e65667" d="M 356.5,153.5 C 359.998,153.565 360.498,154.899 358,157.5C 356.587,159.414 354.753,160.747 352.5,161.5C 351.417,160.635 351.251,159.635 352,158.5C 353.707,156.963 355.207,155.296 356.5,153.5 Z"/></g>
<g><path style="opacity:1" fill="#e55061" d="M 587.5,156.5 C 601.812,172.104 612.312,190.104 619,210.5C 627.585,234.336 633.085,258.836 635.5,284C 635.612,293.846 633.945,303.346 630.5,312.5C 628.346,309.568 626.846,306.234 626,302.5C 620.152,283.924 615.318,265.091 611.5,246C 611.833,244.5 612.167,243 612.5,241.5C 616.619,246.068 619.453,251.402 621,257.5C 620.151,247.753 618.484,238.086 616,228.5C 607.312,204.132 597.812,180.132 587.5,156.5 Z"/></g>
<g><path style="opacity:1" fill="#e54f60" d="M 325.5,159.5 C 333.163,158.042 336.663,161.042 336,168.5C 333.149,173.812 328.982,174.978 323.5,172C 320.659,170.414 317.993,168.58 315.5,166.5C 318.513,163.664 321.846,161.331 325.5,159.5 Z"/></g>
<g><path style="opacity:1" fill="#e55061" d="M 359.5,159.5 C 366.627,159.095 372.627,161.428 377.5,166.5C 372.624,170.946 366.958,173.112 360.5,173C 355.659,168.923 355.325,164.423 359.5,159.5 Z"/></g>
<g><path style="opacity:1" fill="#e65364" d="M 344.5,162.5 C 349.328,162.385 350.661,164.552 348.5,169C 343.57,169.427 342.237,167.26 344.5,162.5 Z"/></g>
<g><path style="opacity:1" fill="#e65566" d="M 351.5,171.5 C 355.353,172.345 358.019,174.679 359.5,178.5C 355.18,178.54 352.513,176.207 351.5,171.5 Z"/></g>
<g><path style="opacity:1" fill="#e65868" d="M 338.5,171.5 C 341.998,171.565 342.498,172.899 340,175.5C 338.587,177.414 336.753,178.747 334.5,179.5C 333.417,178.635 333.251,177.635 334,176.5C 335.707,174.963 337.207,173.296 338.5,171.5 Z"/></g>
<g><path style="opacity:1" fill="#e54f60" d="M 343.5,176.5 C 352.785,175.95 355.619,179.95 352,188.5C 350.669,191.834 348.835,194.834 346.5,197.5C 341.254,192.594 339.087,186.594 340,179.5C 341.145,178.364 342.312,177.364 343.5,176.5 Z"/></g>
<g><path style="opacity:1" fill="#e54c5e" d="M 351.5,282.5 C 351.783,283.289 352.283,283.956 353,284.5C 353.824,275.657 353.657,266.99 352.5,258.5C 352.313,248.334 350.979,238.334 348.5,228.5C 355.757,228.46 363.09,228.293 370.5,228C 372.676,227.837 374.509,227.004 376,225.5C 371.393,263.477 371.393,301.477 376,339.5C 366.53,336.848 357.03,336.848 347.5,339.5C 347.167,339.167 346.833,338.833 346.5,338.5C 348.926,332.234 349.093,325.901 347,319.5C 343.186,309.868 338.353,300.868 332.5,292.5C 332.217,291.711 331.717,291.044 331,290.5C 330.185,295.352 330.352,300.019 331.5,304.5C 331.811,315.633 333.144,326.633 335.5,337.5C 329.189,336.573 322.856,336.406 316.5,337C 314.385,337.557 312.385,338.391 310.5,339.5C 310.167,339.167 309.833,338.833 309.5,338.5C 311.808,320.769 312.808,302.936 312.5,285C 313.206,265.599 311.539,246.433 307.5,227.5C 316.392,227.745 325.392,227.079 334.5,225.5C 334.324,246.3 339.991,265.3 351.5,282.5 Z"/></g>
<g><path style="opacity:1" fill="#e54d5f" d="M 416.5,224.5 C 421.357,224.508 425.69,226.008 429.5,229C 433.672,235.006 437.338,241.339 440.5,248C 436.088,249.704 431.754,251.704 427.5,254C 424.763,255.614 422.597,257.781 421,260.5C 416.693,245.24 410.693,244.573 403,258.5C 396.38,276.854 397.047,294.854 405,312.5C 408.698,316.399 413.198,317.899 418.5,317C 420.403,311.669 420.903,306.169 420,300.5C 417.275,298.242 414.275,297.909 411,299.5C 411.471,293.538 411.471,287.538 411,281.5C 410.308,280.975 409.808,280.308 409.5,279.5C 419.119,279.441 428.785,279.441 438.5,279.5C 435.528,299.28 436.194,318.946 440.5,338.5C 439.833,338.833 439.167,339.167 438.5,339.5C 429.016,338.315 419.516,338.315 410,339.5C 399.833,339.084 391.833,334.751 386,326.5C 383.211,321.466 381.211,316.132 380,310.5C 374.833,284.349 379.166,260.016 393,237.5C 399.142,229.851 406.975,225.518 416.5,224.5 Z"/></g>
<g><path style="opacity:1" fill="#e54e5f" d="M 251.5,225.5 C 259.652,227.727 267.985,228.727 276.5,228.5C 284.24,228.359 291.907,227.859 299.5,227C 297.557,234.353 297.057,241.853 298,249.5C 298.374,250.416 298.874,251.25 299.5,252C 291.962,250.577 284.295,250.244 276.5,251C 274.226,253.344 273.059,256.178 273,259.5C 272.196,264.751 272.363,269.918 273.5,275C 280.408,276.036 287.075,275.202 293.5,272.5C 293.833,272.833 294.167,273.167 294.5,273.5C 291.887,281.157 291.887,288.824 294.5,296.5C 294.167,296.833 293.833,297.167 293.5,297.5C 287.768,294.782 281.768,293.948 275.5,295C 273.067,298.385 272.067,302.218 272.5,306.5C 272.054,311.889 273.387,316.723 276.5,321C 285.337,321.808 294.004,320.975 302.5,318.5C 300.904,325.273 301.237,331.94 303.5,338.5C 302.667,338.833 301.833,339.167 301,339.5C 284.464,336.922 267.964,336.922 251.5,339.5C 251.167,339 250.833,338.5 250.5,338C 258.011,300.54 258.344,263.04 251.5,225.5 Z"/></g>
<g><path style="opacity:1" fill="#f5c5cd" d="M 352.5,258.5 C 353.657,266.99 353.824,275.657 353,284.5C 352.283,283.956 351.783,283.289 351.5,282.5C 352.492,274.684 352.826,266.684 352.5,258.5 Z"/></g>
<g><path style="opacity:1" fill="#f3b9c2" d="M 332.5,292.5 C 331.517,296.298 331.183,300.298 331.5,304.5C 330.352,300.019 330.185,295.352 331,290.5C 331.717,291.044 332.217,291.711 332.5,292.5 Z"/></g>
<g><path style="opacity:1" fill="#e54f60" d="M 627.5,313.5 C 628.79,314.058 629.623,315.058 630,316.5C 633.157,334.628 633.324,352.795 630.5,371C 631.945,374.618 632.612,378.451 632.5,382.5C 631.756,398.962 629.923,415.296 627,431.5C 624.065,442.646 619.399,452.98 613,462.5C 611.316,464.351 609.483,466.018 607.5,467.5C 607.167,466 606.833,464.5 606.5,463C 609.461,447.835 613.294,433.001 618,418.5C 606.132,451.587 589.132,481.587 567,508.5C 552.804,522.362 538.971,536.529 525.5,551C 513.839,559.166 501.839,566.832 489.5,574C 476.46,578.678 463.46,583.678 450.5,589C 430.332,593.597 409.999,597.264 389.5,600C 363.206,602.918 336.872,603.251 310.5,601C 301.321,600.303 292.321,598.637 283.5,596C 278.275,594.721 273.609,592.388 269.5,589C 297.44,590.94 325.44,592.44 353.5,593.5C 395.567,594.65 434.901,584.816 471.5,564C 494.017,551.246 515.684,537.246 536.5,522C 565.71,496.446 587.544,465.613 602,429.5C 607.526,414.474 613.526,399.808 620,385.5C 621.667,363.167 623.333,340.833 625,318.5C 625.847,316.807 626.68,315.14 627.5,313.5 Z"/></g>
<g><path style="opacity:1" fill="#e54d5f" d="M 277.5,354.5 C 294.548,354.702 304.381,363.369 307,380.5C 308.038,391.357 305.204,401.024 298.5,409.5C 296.513,411.327 294.179,412.327 291.5,412.5C 293.63,428.559 299.296,443.225 308.5,456.5C 303.357,457.125 298.357,458.292 293.5,460C 290.241,461.211 287.408,463.044 285,465.5C 284,457.5 283,449.5 282,441.5C 280.843,434.693 278.51,428.36 275,422.5C 273.067,436.387 274.901,449.72 280.5,462.5C 280.167,462.833 279.833,463.167 279.5,463.5C 270.022,460.468 260.856,461.135 252,465.5C 252.989,456.882 253.989,448.215 255,439.5C 256.76,411.424 255.26,383.591 250.5,356C 254.299,355.986 258.133,356.152 262,356.5C 267.386,356.432 272.553,355.765 277.5,354.5 Z"/></g>
<g><path style="opacity:1" fill="#e54e5f" d="M 340.5,354.5 C 341.097,354.735 341.43,355.235 341.5,356C 339.775,363.407 338.608,370.907 338,378.5C 337.333,395.5 337.333,412.5 338,429.5C 338.421,433.872 339.088,438.205 340,442.5C 345.647,449.641 350.313,448.974 354,440.5C 355.277,412.41 354.443,384.41 351.5,356.5C 359.174,356.666 366.841,356.5 374.5,356C 376.556,355.689 378.556,355.189 380.5,354.5C 380.833,355 381.167,355.5 381.5,356C 379.688,363.396 378.521,370.896 378,378.5C 377.176,399.513 376.176,420.513 375,441.5C 374.026,449.947 370.526,457.114 364.5,463C 352.522,466.275 340.522,466.275 328.5,463C 321.824,459.176 317.991,453.343 317,445.5C 315.803,425.858 315.136,406.192 315,386.5C 314.909,376.347 313.742,366.347 311.5,356.5C 318.895,356.605 326.562,356.439 334.5,356C 336.708,355.809 338.708,355.309 340.5,354.5 Z"/></g>
<g><path style="opacity:1" fill="#e54d5e" d="M 391.5,449.5 C 392.167,446.5 392.833,443.5 393.5,440.5C 400.77,444.105 408.103,444.272 415.5,441C 420.705,434.234 420.705,427.568 415.5,421C 405.842,414.912 397.009,407.745 389,399.5C 381.561,384.832 384.061,371.999 396.5,361C 402.387,357.153 408.887,355.319 416,355.5C 424.125,356.905 432.291,358.072 440.5,359C 434.605,365.688 432.105,373.521 433,382.5C 426.22,376.176 418.72,375.009 410.5,379C 406.68,382.955 406.513,387.122 410,391.5C 419.296,398.462 427.63,406.462 435,415.5C 442.154,430.846 440.488,445.179 430,458.5C 427.331,461.164 424.164,462.998 420.5,464C 411.778,464.591 403.111,464.091 394.5,462.5C 391.761,462.786 389.094,462.952 386.5,463C 389.717,459.104 391.383,454.604 391.5,449.5 Z"/></g>
<g><path style="opacity:1" fill="#fdf5f6" d="M 274.5,373.5 C 280.589,373.756 283.922,376.922 284.5,383C 284.049,386.92 283.216,390.753 282,394.5C 280.967,397.033 279.133,398.699 276.5,399.5C 275.749,398.624 275.249,397.624 275,396.5C 274.5,388.841 274.334,381.174 274.5,373.5 Z"/></g>
<g><path style="opacity:1" fill="#ed909e" d="M 393.5,440.5 C 392.833,443.5 392.167,446.5 391.5,449.5C 391.18,446.102 391.513,442.768 392.5,439.5C 393.107,439.624 393.44,439.957 393.5,440.5 Z"/></g>
<g><path style="opacity:1" fill="#e55061" d="M 278.5,478.5 C 288.181,479.491 291.681,484.824 289,494.5C 288.027,496.64 286.527,498.307 284.5,499.5C 286.881,504.262 289.214,508.929 291.5,513.5C 288.901,513.549 286.734,514.549 285,516.5C 283.773,511.482 281.773,506.815 279,502.5C 278.329,506.636 278.829,510.636 280.5,514.5C 277.634,515.208 274.8,515.875 272,516.5C 272.207,507.508 272.207,498.508 272,489.5C 271.338,486.583 269.505,485.25 266.5,485.5C 266.5,495.5 266.5,505.5 266.5,515.5C 263.5,515.5 260.5,515.5 257.5,515.5C 257.709,505.828 258.042,496.161 258.5,486.5C 256.409,486.318 254.409,486.652 252.5,487.5C 251.52,484.914 251.187,482.247 251.5,479.5C 260.682,479.827 269.682,479.493 278.5,478.5 Z"/></g>
<g><path style="opacity:1" fill="#e55061" d="M 302.5,516.5 C 299.833,515.833 297.167,515.167 294.5,514.5C 296.812,502.956 298.146,491.289 298.5,479.5C 303.233,479.777 307.9,479.443 312.5,478.5C 313.331,485.142 313.831,491.809 314,498.5C 314.722,504.388 316.222,510.055 318.5,515.5C 315.606,515.339 312.606,515.672 309.5,516.5C 308.682,513.893 308.182,511.226 308,508.5C 306.413,507.273 305.079,507.606 304,509.5C 303.814,512.036 303.314,514.369 302.5,516.5 Z"/></g>
<g><path style="opacity:1" fill="#e55162" d="M 328.5,502.5 C 328.217,501.711 327.717,501.044 327,500.5C 326.195,503.696 326.362,506.696 327.5,509.5C 327.838,512.011 327.838,514.345 327.5,516.5C 324.731,515.704 322.064,515.371 319.5,515.5C 320.77,503.519 320.77,491.519 319.5,479.5C 322.518,479.296 325.518,478.963 328.5,478.5C 328.149,485.762 329.982,492.429 334,498.5C 334.873,492.181 334.373,486.014 332.5,480C 335.482,479.502 338.482,479.335 341.5,479.5C 340.237,491.83 340.237,504.164 341.5,516.5C 338.5,516.5 335.5,516.5 332.5,516.5C 332.664,513.813 332.497,511.146 332,508.5C 330.569,506.636 329.403,504.636 328.5,502.5 Z"/></g>
<g><path style="opacity:1" fill="#e65263" d="M 351.5,478.5 C 355.262,478.627 358.928,479.294 362.5,480.5C 360.929,482.882 360.096,485.549 360,488.5C 357.847,486.556 355.347,486.056 352.5,487C 351.941,487.725 351.608,488.558 351.5,489.5C 355.098,493.274 358.598,497.274 362,501.5C 363.23,514.759 357.397,519.426 344.5,515.5C 345.374,513.253 345.708,510.92 345.5,508.5C 348.141,509.263 350.808,509.43 353.5,509C 355.187,507.087 355.687,504.92 355,502.5C 350.872,499.615 347.206,496.281 344,492.5C 342.578,485.676 345.078,481.009 351.5,478.5 Z"/></g>
<g><path style="opacity:1" fill="#e54e60" d="M 374.5,516.5 C 377.625,517.479 380.958,517.813 384.5,517.5C 384.244,519.792 384.577,521.959 385.5,524C 378.869,523.726 372.203,523.559 365.5,523.5C 365.747,508.809 365.414,494.142 364.5,479.5C 367.833,479.5 371.167,479.5 374.5,479.5C 373.239,491.98 373.239,504.314 374.5,516.5 Z"/></g>
<g><path style="opacity:1" fill="#e55061" d="M 395.5,479.5 C 395.177,485.69 395.51,491.69 396.5,497.5C 396.249,506.351 397.083,515.017 399,523.5C 395.76,521.964 392.76,522.297 390,524.5C 390.418,519.535 390.418,514.535 390,509.5C 388.479,506.954 386.979,506.954 385.5,509.5C 384.549,510.919 384.216,512.585 384.5,514.5C 382.265,514.205 380.265,514.539 378.5,515.5C 377.833,515.5 377.167,515.5 376.5,515.5C 375.833,515.5 375.5,515.167 375.5,514.5C 378.787,503.063 380.787,491.396 381.5,479.5C 386.167,479.5 390.833,479.5 395.5,479.5 Z"/></g>
<g><path style="opacity:1" fill="#e55061" d="M 397.5,487.5 C 397.668,485.201 397.334,482.701 396.5,480C 398.134,479.506 399.801,479.34 401.5,479.5C 408.249,479.267 414.916,479.267 421.5,479.5C 420.926,482.177 420.259,484.843 419.5,487.5C 417.038,485.934 414.538,485.601 412,486.5C 411.577,496.518 411.577,506.518 412,516.5C 408.851,515.479 405.684,515.312 402.5,516C 403.486,506.25 403.819,496.416 403.5,486.5C 401.435,486.517 399.435,486.85 397.5,487.5 Z"/></g>
<g><path style="opacity:1" fill="#e65363" d="M 435.5,495.5 C 436.167,497.5 436.833,499.5 437.5,501.5C 435.412,501.865 433.079,501.865 430.5,501.5C 430.5,504.5 430.5,507.5 430.5,510.5C 433.5,510.5 436.5,510.5 439.5,510.5C 439.5,512.5 439.5,514.5 439.5,516.5C 433.794,516.829 428.128,516.495 422.5,515.5C 424.685,503.564 425.019,491.564 423.5,479.5C 428.5,479.5 433.5,479.5 438.5,479.5C 438.5,482.167 438.5,484.833 438.5,487.5C 431.52,485.953 428.52,488.62 429.5,495.5C 431.5,495.5 433.5,495.5 435.5,495.5 Z"/></g>
<g><path style="opacity:1" fill="#e85e6c" d="M 600.5,479.5 C 601.5,479.5 602.5,479.5 603.5,479.5C 603.5,480.5 603.5,481.5 603.5,482.5C 602.5,482.5 601.5,482.5 600.5,482.5C 600.5,481.5 600.5,480.5 600.5,479.5 Z"/></g>
<g><path style="opacity:1" fill="#ee96a3" d="M 401.5,479.5 C 399.801,479.34 398.134,479.506 396.5,480C 397.334,482.701 397.668,485.201 397.5,487.5C 396.586,490.728 396.253,494.061 396.5,497.5C 395.51,491.69 395.177,485.69 395.5,479.5C 397.5,478.167 399.5,478.167 401.5,479.5 Z"/></g>
<g><path style="opacity:1" fill="#fbdfe3" d="M 278.5,485.5 C 280.849,485.458 282.182,486.625 282.5,489C 281.888,491.058 280.888,492.891 279.5,494.5C 278.516,491.572 278.183,488.572 278.5,485.5 Z"/></g>
<g><path style="opacity:1" fill="#fbe7e9" d="M 305.5,488.5 C 307.652,490.607 308.652,493.274 308.5,496.5C 309.159,500.687 307.659,502.02 304,500.5C 303.081,496.269 303.581,492.269 305.5,488.5 Z"/></g>
<g><path style="opacity:1" fill="#fdf0f2" d="M 387.5,488.5 C 388.75,488.577 389.583,489.244 390,490.5C 390.667,493.5 390.667,496.5 390,499.5C 388.644,500.38 387.144,500.714 385.5,500.5C 386.075,496.477 386.741,492.477 387.5,488.5 Z"/></g>
<g><path style="opacity:1" fill="#f3bcc5" d="M 435.5,495.5 C 435.56,494.957 435.893,494.624 436.5,494.5C 437.474,496.743 437.808,499.076 437.5,501.5C 436.833,499.5 436.167,497.5 435.5,495.5 Z"/></g>
<g><path style="opacity:1" fill="#e75a6a" d="M 592.5,495.5 C 593.5,495.5 594.5,495.5 595.5,495.5C 595.884,497.665 595.217,499.332 593.5,500.5C 591.296,499.218 590.962,497.551 592.5,495.5 Z"/></g>
<g><path style="opacity:1" fill="#ed93a0" d="M 328.5,502.5 C 327.532,504.607 327.198,506.941 327.5,509.5C 326.362,506.696 326.195,503.696 327,500.5C 327.717,501.044 328.217,501.711 328.5,502.5 Z"/></g>
<g><path style="opacity:1" fill="#e55162" d="M 134.5,501.5 C 158.105,520.935 182.438,539.435 207.5,557C 210.167,559.667 212.833,562.333 215.5,565C 187.299,556.304 163.799,540.471 145,517.5C 140.858,512.537 137.358,507.204 134.5,501.5 Z"/></g>
<g><path style="opacity:1" fill="#f0a4af" d="M 385.5,509.5 C 385.5,511.5 385.5,513.5 385.5,515.5C 383.167,515.5 380.833,515.5 378.5,515.5C 380.265,514.539 382.265,514.205 384.5,514.5C 384.216,512.585 384.549,510.919 385.5,509.5 Z"/></g>
<g><path style="opacity:1" fill="#f1aab4" d="M 294.5,514.5 C 297.167,515.167 299.833,515.833 302.5,516.5C 299.428,516.817 296.428,516.484 293.5,515.5C 293.624,514.893 293.957,514.56 294.5,514.5 Z"/></g>
<g><path style="opacity:1" fill="#f3b8c1" d="M 375.5,514.5 C 375.5,515.167 375.833,515.5 376.5,515.5C 379.763,516.082 382.43,516.748 384.5,517.5C 380.958,517.813 377.625,517.479 374.5,516.5C 374.328,515.508 374.662,514.842 375.5,514.5 Z"/></g>
<g><path style="opacity:1" fill="#e75968" d="M 580.5,517.5 C 586.704,517.314 588.037,519.814 584.5,525C 578.403,525.147 577.07,522.647 580.5,517.5 Z"/></g>
<g><path style="opacity:1" fill="#e65666" d="M 568.5,531.5 C 569.497,531.47 570.164,531.97 570.5,533C 566.321,540.012 560.654,545.512 553.5,549.5C 553.167,549.167 552.833,548.833 552.5,548.5C 557.179,542.157 562.512,536.49 568.5,531.5 Z"/></g>
<g><path style="opacity:1" fill="#e65364" d="M 535.5,559.5 C 536.833,559.5 538.167,559.5 539.5,559.5C 539.5,560.833 539.5,562.167 539.5,563.5C 536.5,563.833 535.167,562.5 535.5,559.5 Z"/></g>
<g><path style="opacity:1" fill="#e65363" d="M 520.5,572.5 C 526.04,573.369 527.707,576.369 525.5,581.5C 523.004,583.953 520.338,584.12 517.5,582C 515.603,577.828 516.603,574.662 520.5,572.5 Z"/></g>
<g><path style="opacity:1" fill="#e65466" d="M 239.5,576.5 C 243.31,577.754 243.31,578.754 239.5,579.5C 239.5,578.5 239.5,577.5 239.5,576.5 Z"/></g>
<g><path style="opacity:1" fill="#e8606e" d="M 499.5,583.5 C 504.159,583.015 505.492,584.848 503.5,589C 499.272,589.272 497.938,587.438 499.5,583.5 Z"/></g>
<g><path style="opacity:1" fill="#e75a6a" d="M 410.5,625.5 C 408.265,625.795 406.265,625.461 404.5,624.5C 426.511,618.747 448.178,611.914 469.5,604C 476.427,600.62 483.26,597.12 490,593.5C 491.257,593.85 491.591,594.517 491,595.5C 484.072,599.715 476.905,603.548 469.5,607C 455.691,611.603 442.024,616.603 428.5,622C 422.626,623.905 416.626,625.072 410.5,625.5 Z"/></g>
<g><path style="opacity:1" fill="#e85d6b" d="M 329.5,618.5 C 330.5,618.5 331.5,618.5 332.5,618.5C 332.5,619.5 332.5,620.5 332.5,621.5C 331.5,621.5 330.5,621.5 329.5,621.5C 329.5,620.5 329.5,619.5 329.5,618.5 Z"/></g>
<g><path style="opacity:1" fill="#e65566" d="M 308.5,621.5 C 313.328,621.385 314.661,623.552 312.5,628C 311.101,628.595 309.768,628.428 308.5,627.5C 307.306,625.484 307.306,623.484 308.5,621.5 Z"/></g>
<g><path style="opacity:1" fill="#f1afb9" d="M 404.5,624.5 C 406.265,625.461 408.265,625.795 410.5,625.5C 408.034,626.634 405.367,626.801 402.5,626C 403.044,625.283 403.711,624.783 404.5,624.5 Z"/></g>
<g><path style="opacity:1" fill="#e96a78" d="M 337.5,630.5 C 341.161,630.35 342.161,631.85 340.5,635C 336.707,635.487 335.707,633.987 337.5,630.5 Z"/></g>
</svg>
