<?xml version="1.0" encoding="UTF-8"?>
<!DOCTYPE svg PUBLIC "-//W3C//DTD SVG 1.1//EN" "http://www.w3.org/Graphics/SVG/1.1/DTD/svg11.dtd">
<svg xmlns="http://www.w3.org/2000/svg" version="1.1" width="250px" height="94px" style="shape-rendering:geometricPrecision; text-rendering:geometricPrecision; image-rendering:optimizeQuality; fill-rule:evenodd; clip-rule:evenodd" xmlns:xlink="http://www.w3.org/1999/xlink">
<g><path style="opacity:1" fill="#fdfdfe" d="M -0.5,-0.5 C 82.8333,-0.5 166.167,-0.5 249.5,-0.5C 249.5,30.8333 249.5,62.1667 249.5,93.5C 166.167,93.5 82.8333,93.5 -0.5,93.5C -0.5,62.1667 -0.5,30.8333 -0.5,-0.5 Z"/></g>
<g><path style="opacity:1" fill="#181a60" d="M 102.5,8.5 C 128.513,7.63972 154.18,10.1397 179.5,16C 190.049,18.9541 199.715,23.6207 208.5,30C 217.382,38.3737 217.715,47.0404 209.5,56C 200.171,62.8978 189.838,67.8978 178.5,71C 137.994,81.2059 97.6611,80.8726 57.5,70C 47.1817,66.7606 38.015,61.594 30,54.5C 24.0873,47.1351 24.0873,39.8018 30,32.5C 38.015,25.406 47.1817,20.2394 57.5,17C 72.3916,12.8544 87.3916,10.021 102.5,8.5 Z"/></g>
<g><path style="opacity:1" fill="#dee1e6" d="M 99.5,11.5 C 130.657,9.28088 160.991,13.1142 190.5,23C 195.492,25.1609 200.159,27.8276 204.5,31C 212.249,37.1725 213.415,44.3392 208,52.5C 201.772,58.6172 194.439,62.9505 186,65.5C 158.161,74.3009 129.661,77.4676 100.5,75C 81.472,73.5517 63.1386,69.2184 45.5,62C 41.0493,59.2171 36.8826,56.0504 33,52.5C 28.7825,47.0842 28.4492,41.4175 32,35.5C 38.428,29.034 45.928,24.2007 54.5,21C 61.9371,19.2483 69.2705,17.2483 76.5,15C 84.3405,14.0246 92.0072,12.8579 99.5,11.5 Z"/></g>
<g><path style="opacity:1" fill="#070f5a" d="M 99.5,14.5 C 126.583,12.8616 153.25,15.3616 179.5,22C 187.752,24.524 195.419,28.1907 202.5,33C 209.641,41.2634 208.974,48.93 200.5,56C 180.413,66.0217 159.08,71.3551 136.5,72C 111.81,74.0098 87.4765,72.0098 63.5,66C 53.0621,63.4217 43.8955,58.5884 36,51.5C 31.8289,44.0465 32.9956,37.5465 39.5,32C 49.2044,25.537 59.8711,21.2037 71.5,19C 80.9497,17.3238 90.2831,15.8238 99.5,14.5 Z"/></g>
<g><path style="opacity:1" fill="#e5eaed" d="M 90.5,19.5 C 102.584,19.75 114.584,20.9167 126.5,23C 133.896,23.2405 141.23,23.4072 148.5,23.5C 147.968,25.7411 146.635,27.2411 144.5,28C 141.07,28.9565 137.57,29.4565 134,29.5C 127.102,28.3964 120.269,27.2297 113.5,26C 109.5,28.6667 106.167,32 103.5,36C 105.473,36.4955 107.473,36.6621 109.5,36.5C 109.014,32.491 110.68,30.6577 114.5,31C 117.341,34.1588 116.674,36.4922 112.5,38C 113.167,38.6667 113.833,39.3333 114.5,40C 111.973,39.4017 109.307,38.9017 106.5,38.5C 104.772,38.5901 103.106,38.9234 101.5,39.5C 97.3554,46.9545 92.3554,53.7878 86.5,60C 79.9294,64.7922 73.5961,64.6256 67.5,59.5C 63.9988,52.8537 65.3322,47.3537 71.5,43C 73.5787,42.1923 75.5787,42.359 77.5,43.5C 72.69,45.7792 70.8566,49.4459 72,54.5C 73.126,55.9436 74.626,56.6102 76.5,56.5C 78.9088,55.9364 81.2421,55.1031 83.5,54C 87.8397,49.9931 91.8397,45.6598 95.5,41C 93.0617,40.3179 90.8951,40.8179 89,42.5C 88.5,42.1667 88,41.8333 87.5,41.5C 90.7725,39.0892 94.4392,37.4226 98.5,36.5C 101.142,32.2245 104.475,28.5579 108.5,25.5C 108.291,24.914 107.957,24.414 107.5,24C 101.157,22.0647 94.8235,22.0647 88.5,24C 84.1249,25.7006 82.4582,28.8672 83.5,33.5C 87.9797,33.8431 91.4797,32.1764 94,28.5C 94.5,28.8333 95,29.1667 95.5,29.5C 93.6449,35.1932 89.8116,38.5265 84,39.5C 79.9437,38.9431 77.7771,36.6098 77.5,32.5C 77.5153,30.3659 78.0153,28.3659 79,26.5C 82.4139,23.3247 86.2473,20.9914 90.5,19.5 Z"/></g>
<g><path style="opacity:1" fill="#e9eeed" d="M 112.5,44.5 C 112.567,45.9587 112.234,47.2921 111.5,48.5C 106.572,50.0192 104.406,53.3525 105,58.5C 110.11,61.3064 113.277,59.6397 114.5,53.5C 115.473,51.0521 115.806,48.3854 115.5,45.5C 116.5,45.5 117.5,45.5 118.5,45.5C 118.892,47.1789 119.392,48.8455 120,50.5C 122.762,45.5712 126.928,43.5712 132.5,44.5C 132.628,47.7741 133.961,47.9408 136.5,45C 141.667,43.5 143.5,45.3333 142,50.5C 139.618,51.8663 137.452,51.533 135.5,49.5C 134.548,51.0453 134.215,52.712 134.5,54.5C 136.527,54.6621 138.527,54.4955 140.5,54C 144.217,50.6153 148.217,47.6153 152.5,45C 155.8,44.2108 158.633,45.0442 161,47.5C 163.955,43.7557 166.789,39.9224 169.5,36C 171.5,35.3333 173.5,35.3333 175.5,36C 170.544,42.7456 165.71,49.5789 161,56.5C 159.991,58.0249 159.491,59.6916 159.5,61.5C 160.552,61.6495 161.552,61.4828 162.5,61C 165.344,58.8192 168.178,56.6525 171,54.5C 172.257,54.8499 172.591,55.5165 172,56.5C 168.545,61.1392 164.045,64.1392 158.5,65.5C 156.62,65.0748 155.12,64.0748 154,62.5C 147.075,67.4555 142.575,65.7889 140.5,57.5C 136.313,59.5422 133.313,58.5422 131.5,54.5C 129.5,57.5 127.5,60.5 125.5,63.5C 123.955,64.4519 122.288,64.7852 120.5,64.5C 122.867,59.4379 125.534,54.4379 128.5,49.5C 128,49.1667 127.5,48.8333 127,48.5C 121.392,53.5486 115.892,58.7152 110.5,64C 105.853,65.4804 102.187,64.3137 99.5,60.5C 98.0316,62.3329 96.3649,62.6662 94.5,61.5C 97.6467,56.5231 100.98,51.6897 104.5,47C 106.909,45.2932 109.575,44.4598 112.5,44.5 Z"/></g>
<g><path style="opacity:1" fill="#151463" d="M 153.5,48.5 C 154.5,48.5 155.5,48.5 156.5,48.5C 157.341,55.5129 154.341,59.5129 147.5,60.5C 146.871,55.0911 148.871,51.0911 153.5,48.5 Z"/></g>
<g><path style="opacity:1" fill="#0d1162" d="M 111.5,48.5 C 112.5,48.5 113.5,48.5 114.5,48.5C 114.5,50.1667 114.5,51.8333 114.5,53.5C 113.277,59.6397 110.11,61.3064 105,58.5C 104.406,53.3525 106.572,50.0192 111.5,48.5 Z"/></g>
<g><path style="opacity:1" fill="#3b3d6b" d="M 112.5,44.5 C 114.735,44.2053 116.735,44.5386 118.5,45.5C 117.5,45.5 116.5,45.5 115.5,45.5C 115.806,48.3854 115.473,51.0521 114.5,53.5C 114.5,51.8333 114.5,50.1667 114.5,48.5C 113.5,48.5 112.5,48.5 111.5,48.5C 112.234,47.2921 112.567,45.9587 112.5,44.5 Z"/></g>
</svg>
