<?xml version="1.0" encoding="UTF-8"?>
<!DOCTYPE svg PUBLIC "-//W3C//DTD SVG 1.1//EN" "http://www.w3.org/Graphics/SVG/1.1/DTD/svg11.dtd">
<svg xmlns="http://www.w3.org/2000/svg" version="1.1" width="240px" height="120px" style="shape-rendering:geometricPrecision; text-rendering:geometricPrecision; image-rendering:optimizeQuality; fill-rule:evenodd; clip-rule:evenodd" xmlns:xlink="http://www.w3.org/1999/xlink">
<g><path style="opacity:1" fill="#327abc" d="M -0.5,-0.5 C 79.5,-0.5 159.5,-0.5 239.5,-0.5C 239.5,39.5 239.5,79.5 239.5,119.5C 159.5,119.5 79.5,119.5 -0.5,119.5C -0.5,79.5 -0.5,39.5 -0.5,-0.5 Z"/></g>
<g><path style="opacity:1" fill="#f2f7fb" d="M 59.5,8.5 C 62.8593,11.3974 65.3593,15.0641 67,19.5C 73.2075,38.1423 71.2075,55.8089 61,72.5C 50.468,57.4991 47.8014,41.1658 53,23.5C 55.1789,18.4785 57.3456,13.4785 59.5,8.5 Z"/></g>
<g><path style="opacity:1" fill="#4184c1" d="M 54.5,43.5 C 53.5233,40.7131 53.19,37.7131 53.5,34.5C 54.0382,26.8854 56.3715,19.8854 60.5,13.5C 66.8184,23.9636 69.3184,35.2969 68,47.5C 66.9081,42.8596 65.9081,38.1929 65,33.5C 64.0272,30.2211 62.5272,27.2211 60.5,24.5C 56.8999,30.3014 54.8999,36.6347 54.5,43.5 Z"/></g>
<g><path style="opacity:1" fill="#fafcfd" d="M 49.5,84.5 C 48.5233,81.7131 48.19,78.7131 48.5,75.5C 56.8333,75.5 65.1667,75.5 73.5,75.5C 73.6664,83.5069 73.4997,91.5069 73,99.5C 53.7909,115.27 35.7909,113.936 19,95.5C 6.41171,71.3397 12.245,53.173 36.5,41C 40.0863,39.8924 43.753,39.3924 47.5,39.5C 47.5,48.5 47.5,57.5 47.5,66.5C 32.6289,68.2042 26.4623,76.5375 29,91.5C 33.8401,103.835 42.6735,108.001 55.5,104C 62.9205,101.324 65.7539,96.1576 64,88.5C 60.3043,83.5358 55.4709,82.2024 49.5,84.5 Z"/></g>
<g><path style="opacity:1" fill="#92bede" d="M 53.5,34.5 C 53.19,37.7131 53.5233,40.7131 54.5,43.5C 54.6633,45.8568 54.4966,48.1902 54,50.5C 52.3068,45.0725 52.1401,39.7392 53.5,34.5 Z"/></g>
<g><path style="opacity:1" fill="#4586c2" d="M 59.5,47.5 C 60.7498,47.5774 61.5831,48.244 62,49.5C 64.2971,56.3957 63.7971,63.0624 60.5,69.5C 56.9231,62.3099 56.5897,54.9765 59.5,47.5 Z"/></g>
<g><path style="opacity:1" fill="#bed8eb" d="M 73.5,75.5 C 65.1667,75.5 56.8333,75.5 48.5,75.5C 48.19,78.7131 48.5233,81.7131 49.5,84.5C 49.44,85.0431 49.1067,85.3764 48.5,85.5C 47.5108,81.8927 47.1774,78.226 47.5,74.5C 56.3494,74.1736 65.0161,74.507 73.5,75.5 Z"/></g>
<g><path style="opacity:1" fill="#bcd7eb" d="M 112.5,76.5 C 108.936,75.5773 105.269,75.244 101.5,75.5C 101.737,76.791 101.404,77.791 100.5,78.5C 100.5,77.1667 100.5,75.8333 100.5,74.5C 104.971,73.9106 108.971,74.5772 112.5,76.5 Z"/></g>
<g><path style="opacity:1" fill="#f5f9fc" d="M 81.5,74.5 C 91.6613,72.3305 95.9947,76.3305 94.5,86.5C 92.1667,86.5 89.8333,86.5 87.5,86.5C 87.8076,84.076 87.4742,81.7427 86.5,79.5C 85.1667,88.1667 85.1667,96.8333 86.5,105.5C 87.5404,101.182 87.5404,96.8485 86.5,92.5C 89.1667,92.5 91.8333,92.5 94.5,92.5C 94.8967,97.9586 94.3967,103.292 93,108.5C 91.1781,110.045 89.0114,110.712 86.5,110.5C 83.8688,110.679 81.5355,110.013 79.5,108.5C 78.3569,97.8802 78.1902,87.2135 79,76.5C 79.9947,75.9341 80.828,75.2674 81.5,74.5 Z"/></g>
<g><path style="opacity:1" fill="#f7fafc" d="M 112.5,76.5 C 113.5,87.8337 114.5,99.167 115.5,110.5C 113.167,110.5 110.833,110.5 108.5,110.5C 108.5,107.167 108.5,103.833 108.5,100.5C 107.167,100.5 105.833,100.5 104.5,100.5C 104.5,103.833 104.5,107.167 104.5,110.5C 102.167,110.5 99.8333,110.5 97.5,110.5C 98.5,99.8334 99.5,89.1668 100.5,78.5C 101.404,77.791 101.737,76.791 101.5,75.5C 105.269,75.244 108.936,75.5773 112.5,76.5 Z"/></g>
<g><path style="opacity:1" fill="#f6f9fc" d="M 126.5,103.5 C 125.596,104.209 125.263,105.209 125.5,106.5C 127.833,106.5 130.167,106.5 132.5,106.5C 132.5,107.5 132.5,108.5 132.5,109.5C 127.833,109.5 123.167,109.5 118.5,109.5C 120.499,99.5039 122.499,89.5039 124.5,79.5C 122.833,79.5 121.167,79.5 119.5,79.5C 119.5,77.8333 119.5,76.1667 119.5,74.5C 123.833,74.5 128.167,74.5 132.5,74.5C 131.268,84.3258 129.268,93.9924 126.5,103.5 Z"/></g>
<g><path style="opacity:1" fill="#f7fafc" d="M 136.5,74.5 C 140.846,74.3343 145.179,74.501 149.5,75C 150.667,75.5 151.5,76.3333 152,77.5C 152.667,83.5 152.667,89.5 152,95.5C 149.804,98.1252 146.97,99.1252 143.5,98.5C 143.5,102.5 143.5,106.5 143.5,110.5C 141.167,110.5 138.833,110.5 136.5,110.5C 136.5,98.5 136.5,86.5 136.5,74.5 Z"/></g>
<g><path style="opacity:1" fill="#f6fafc" d="M 156.5,74.5 C 160.846,74.3343 165.179,74.501 169.5,75C 170.333,75.8333 171.167,76.6667 172,77.5C 173.038,84.3825 172.538,91.0492 170.5,97.5C 171.661,101.811 172.661,106.145 173.5,110.5C 170.881,110.768 168.381,110.435 166,109.5C 165.333,105.5 164.667,101.5 164,97.5C 163.501,101.821 163.334,106.154 163.5,110.5C 161.167,110.5 158.833,110.5 156.5,110.5C 156.5,98.5 156.5,86.5 156.5,74.5 Z"/></g>
<g><path style="opacity:1" fill="#f8fbfd" d="M 180.5,74.5 C 183.85,74.335 187.183,74.5017 190.5,75C 191.667,75.5 192.5,76.3333 193,77.5C 193.667,87.5 193.667,97.5 193,107.5C 192.167,108.333 191.333,109.167 190.5,110C 187.167,110.667 183.833,110.667 180.5,110C 179.667,109.167 178.833,108.333 178,107.5C 177.333,97.5 177.333,87.5 178,77.5C 178.698,76.3094 179.531,75.3094 180.5,74.5 Z"/></g>
<g><path style="opacity:1" fill="#fafcfd" d="M 215.5,76.5 C 218.391,75.5975 221.391,75.2641 224.5,75.5C 224.5,86.8333 224.5,98.1667 224.5,109.5C 222.5,109.5 220.5,109.5 218.5,109.5C 218.666,102.492 218.5,95.4921 218,88.5C 216.991,90.0249 216.491,91.6916 216.5,93.5C 215.29,99.0955 214.623,104.762 214.5,110.5C 212.5,110.5 210.5,110.5 208.5,110.5C 205.214,81.3643 203.881,81.3643 204.5,110.5C 202.167,110.5 199.833,110.5 197.5,110.5C 197.5,98.5 197.5,86.5 197.5,74.5C 200.777,74.2161 203.943,74.5495 207,75.5C 208.241,83.1861 209.574,90.8527 211,98.5C 212.732,91.2007 214.232,83.8673 215.5,76.5 Z"/></g>
<g><path style="opacity:1" fill="#9ec6e2" d="M 216.5,93.5 C 216.491,91.6916 216.991,90.0249 218,88.5C 218.5,95.4921 218.666,102.492 218.5,109.5C 220.5,109.5 222.5,109.5 224.5,109.5C 224.5,98.1667 224.5,86.8333 224.5,75.5C 221.391,75.2641 218.391,75.5975 215.5,76.5C 218.337,74.5977 221.671,73.931 225.5,74.5C 225.5,86.5 225.5,98.5 225.5,110.5C 222.833,110.5 220.167,110.5 217.5,110.5C 217.822,104.642 217.489,98.9753 216.5,93.5 Z"/></g>
<g><path style="opacity:1" fill="#337cbd" d="M 143.5,79.5 C 144.805,81.3972 145.471,83.7305 145.5,86.5C 145.167,88.8333 144.833,91.1667 144.5,93.5C 143.507,88.8804 143.173,84.2137 143.5,79.5 Z"/></g>
<g><path style="opacity:1" fill="#347cbd" d="M 163.5,79.5 C 164.8,81.223 165.467,83.3897 165.5,86C 165.167,88.1667 164.833,90.3333 164.5,92.5C 163.508,88.2172 163.174,83.8839 163.5,79.5 Z"/></g>
<g><path style="opacity:1" fill="#317abc" d="M 184.5,79.5 C 185.825,83.4451 186.492,87.7784 186.5,92.5C 186.167,96.8333 185.833,101.167 185.5,105.5C 184.502,96.8589 184.169,88.1922 184.5,79.5 Z"/></g>
<g><path style="opacity:1" fill="#8ab9db" d="M 107.5,85.5 C 106.833,86.1667 106.167,86.8333 105.5,87.5C 105.187,84.7531 105.52,82.0865 106.5,79.5C 107.466,81.396 107.799,83.396 107.5,85.5 Z"/></g>
<g><path style="opacity:1" fill="#367ebe" d="M 107.5,85.5 C 107.823,89.226 107.489,92.8927 106.5,96.5C 105.516,93.5719 105.183,90.5719 105.5,87.5C 106.167,86.8333 106.833,86.1667 107.5,85.5 Z"/></g>
<g><path style="opacity:1" fill="#bbd7eb" d="M 126.5,103.5 C 128.279,105.344 130.612,106.01 133.5,105.5C 133.5,107.167 133.5,108.833 133.5,110.5C 128.305,110.821 123.305,110.487 118.5,109.5C 123.167,109.5 127.833,109.5 132.5,109.5C 132.5,108.5 132.5,107.5 132.5,106.5C 130.167,106.5 127.833,106.5 125.5,106.5C 125.263,105.209 125.596,104.209 126.5,103.5 Z"/></g>
</svg>
