<?xml version="1.0" encoding="UTF-8"?>
<!DOCTYPE svg PUBLIC "-//W3C//DTD SVG 1.1//EN" "http://www.w3.org/Graphics/SVG/1.1/DTD/svg11.dtd">
<svg xmlns="http://www.w3.org/2000/svg" version="1.1" width="170px" height="82px" style="shape-rendering:geometricPrecision; text-rendering:geometricPrecision; image-rendering:optimizeQuality; fill-rule:evenodd; clip-rule:evenodd" xmlns:xlink="http://www.w3.org/1999/xlink">
<g><path style="opacity:1" fill="#f6f4ef" d="M -0.5,-0.5 C 56.1667,-0.5 112.833,-0.5 169.5,-0.5C 169.5,26.8333 169.5,54.1667 169.5,81.5C 112.833,81.5 56.1667,81.5 -0.5,81.5C -0.5,54.1667 -0.5,26.8333 -0.5,-0.5 Z"/></g>
<g><path style="opacity:1" fill="#7d667b" d="M 31.5,13.5 C 30.8333,13.5 30.1667,13.5 29.5,13.5C 26.8333,13.5 24.1667,13.5 21.5,13.5C 21.6138,15.7179 22.2804,17.7179 23.5,19.5C 23.1667,20.5 22.5,21.1667 21.5,21.5C 20.5041,21.5858 19.6708,21.2524 19,20.5C 18.5702,17.8078 18.7369,15.1411 19.5,12.5C 22.2888,9.63993 25.6222,8.97327 29.5,10.5C 30.6119,11.2652 31.2786,12.2652 31.5,13.5 Z"/></g>
<g><path style="opacity:1" fill="#53514e" d="M 62.5,26.5 C 63.0431,26.44 63.3764,26.1067 63.5,25.5C 62.1667,24.8333 60.8333,24.1667 59.5,23.5C 61.7427,22.5258 64.076,22.1924 66.5,22.5C 66.5,25.8333 66.5,29.1667 66.5,32.5C 65.2652,32.2786 64.2652,31.6119 63.5,30.5C 54.8398,34.8555 49.8398,32.1888 48.5,22.5C 49.8542,13.6501 54.8542,10.6501 63.5,13.5C 65.415,15.0712 66.415,17.0712 66.5,19.5C 63.5034,18.8588 60.8367,17.5255 58.5,15.5C 56.6171,15.8757 55.1171,16.8757 54,18.5C 52.7728,22.5913 53.6061,26.0913 56.5,29C 59.2942,29.9724 61.2942,29.1391 62.5,26.5 Z"/></g>
<g><path style="opacity:1" fill="#494744" d="M 113.5,12.5 C 114.5,12.5 115.5,12.5 116.5,12.5C 116.5,13.5 116.5,14.5 116.5,15.5C 115.5,15.5 114.5,15.5 113.5,15.5C 113.5,14.5 113.5,13.5 113.5,12.5 Z"/></g>
<g><path style="opacity:1" fill="#565451" d="M 120.5,12.5 C 121.833,12.5 123.167,12.5 124.5,12.5C 124.5,19.1667 124.5,25.8333 124.5,32.5C 123.167,32.5 121.833,32.5 120.5,32.5C 120.5,25.8333 120.5,19.1667 120.5,12.5 Z"/></g>
<g><path style="opacity:1" fill="#565451" d="M 104.5,13.5 C 105.833,13.5 107.167,13.5 108.5,13.5C 108.449,15.5695 109.115,17.4029 110.5,19C 109.422,20.8436 108.755,22.8436 108.5,25C 108.965,27.6033 109.632,30.1033 110.5,32.5C 108.533,32.7394 106.699,32.4061 105,31.5C 104.501,27.8484 104.335,24.1817 104.5,20.5C 100.5,19.8333 100.5,19.1667 104.5,18.5C 104.5,16.8333 104.5,15.1667 104.5,13.5 Z"/></g>
<g><path style="opacity:1" fill="#dbd5d4" d="M 29.5,13.5 C 29.5,14.8333 29.5,16.1667 29.5,17.5C 27.7179,18.7196 25.7179,19.3862 23.5,19.5C 22.2804,17.7179 21.6138,15.7179 21.5,13.5C 24.1667,13.5 26.8333,13.5 29.5,13.5 Z"/></g>
<g><path style="opacity:1" fill="#c29c59" d="M 29.5,13.5 C 30.1667,13.5 30.8333,13.5 31.5,13.5C 33.0481,13.8212 33.7148,14.8212 33.5,16.5C 32.1667,17.5 30.8333,18.5 29.5,19.5C 29.5,18.8333 29.5,18.1667 29.5,17.5C 29.5,16.1667 29.5,14.8333 29.5,13.5 Z"/></g>
<g><path style="opacity:1" fill="#575552" d="M 74.5,17.5 C 80.8818,17.215 83.8818,20.215 83.5,26.5C 80.1016,26.1796 76.7683,26.513 73.5,27.5C 74.1709,28.9458 75.3376,29.6125 77,29.5C 79.1537,28.7479 81.3203,28.5812 83.5,29C 80.5146,32.5497 76.8479,33.383 72.5,31.5C 68.177,26.1062 68.8436,21.4395 74.5,17.5 Z"/></g>
<g><path style="opacity:1" fill="#54524f" d="M 92.5,17.5 C 95.0444,17.1043 97.2111,17.771 99,19.5C 99.499,23.8206 99.6657,28.1539 99.5,32.5C 98.1667,32.5 96.8333,32.5 95.5,32.5C 95.6653,28.8183 95.4986,25.1516 95,21.5C 93.6667,20.1667 92.3333,20.1667 91,21.5C 90.5014,25.1516 90.3347,28.8183 90.5,32.5C 89.1667,32.5 87.8333,32.5 86.5,32.5C 86.5,27.8333 86.5,23.1667 86.5,18.5C 87.9305,18.4208 89.2638,18.7542 90.5,19.5C 91.5223,19.1445 92.189,18.4778 92.5,17.5 Z"/></g>
<g><path style="opacity:1" fill="#8f8e89" d="M 116.5,18.5 C 115.5,18.5 114.5,18.5 113.5,18.5C 113.5,23.1667 113.5,27.8333 113.5,32.5C 112.513,27.6946 112.179,22.6946 112.5,17.5C 114.099,17.2322 115.432,17.5655 116.5,18.5 Z"/></g>
<g><path style="opacity:1" fill="#484743" d="M 116.5,18.5 C 116.5,23.1667 116.5,27.8333 116.5,32.5C 115.5,32.5 114.5,32.5 113.5,32.5C 113.5,27.8333 113.5,23.1667 113.5,18.5C 114.5,18.5 115.5,18.5 116.5,18.5 Z"/></g>
<g><path style="opacity:1" fill="#575552" d="M 131.5,17.5 C 137.882,17.215 140.882,20.215 140.5,26.5C 137.102,26.1796 133.768,26.513 130.5,27.5C 131.171,28.9458 132.338,29.6125 134,29.5C 136.154,28.7479 138.32,28.5812 140.5,29C 137.515,32.5497 133.848,33.383 129.5,31.5C 125.177,26.1062 125.844,21.4395 131.5,17.5 Z"/></g>
<g><path style="opacity:1" fill="#a37f5c" d="M 29.5,17.5 C 29.5,18.1667 29.5,18.8333 29.5,19.5C 27.8984,21.0739 25.8984,21.7406 23.5,21.5C 23.1568,23.4832 23.8235,24.8166 25.5,25.5C 25.5,27.1667 25.5,28.8333 25.5,30.5C 25.1667,30.5 24.8333,30.5 24.5,30.5C 24.7593,28.0107 23.7593,26.344 21.5,25.5C 21.5,24.1667 21.5,22.8333 21.5,21.5C 22.5,21.1667 23.1667,20.5 23.5,19.5C 25.7179,19.3862 27.7179,18.7196 29.5,17.5 Z"/></g>
<g><path style="opacity:1" fill="#edbf55" d="M 33.5,16.5 C 35.3145,19.4074 37.9812,20.7407 41.5,20.5C 41.6085,22.5138 40.9418,24.1805 39.5,25.5C 37.9201,27.7171 36.9201,30.3837 36.5,33.5C 35.5832,32.8728 34.5832,32.5394 33.5,32.5C 32.4324,31.5655 31.099,31.2322 29.5,31.5C 28.1667,29.5 26.8333,27.5 25.5,25.5C 23.8235,24.8166 23.1568,23.4832 23.5,21.5C 25.8984,21.7406 27.8984,21.0739 29.5,19.5C 30.8333,18.5 32.1667,17.5 33.5,16.5 Z"/></g>
<g><path style="opacity:1" fill="#c2b7bb" d="M 19.5,12.5 C 18.7369,15.1411 18.5702,17.8078 19,20.5C 19.6708,21.2524 20.5041,21.5858 21.5,21.5C 21.5,22.8333 21.5,24.1667 21.5,25.5C 21.6495,26.552 21.4828,27.552 21,28.5C 17.8932,30.7135 16.3932,33.7135 16.5,37.5C 15.3871,36.0536 15.2204,34.3869 16,32.5C 17.7331,30.2769 19.2331,27.9435 20.5,25.5C 18.8006,23.2937 17.8006,20.7937 17.5,18C 17.3932,15.7794 18.0598,13.9461 19.5,12.5 Z"/></g>
<g><path style="opacity:1" fill="#807e7a" d="M 66.5,32.5 C 66.5,29.1667 66.5,25.8333 66.5,22.5C 64.076,22.1924 61.7427,22.5258 59.5,23.5C 60.8333,24.1667 62.1667,24.8333 63.5,25.5C 63.3764,26.1067 63.0431,26.44 62.5,26.5C 61.4324,25.5655 60.099,25.2322 58.5,25.5C 58.5,24.1667 58.5,22.8333 58.5,21.5C 61.5,21.5 64.5,21.5 67.5,21.5C 67.815,25.3714 67.4816,29.0381 66.5,32.5 Z"/></g>
<g><path style="opacity:1" fill="#e8e7e2" d="M 75.5,20.5 C 77.3464,20.2222 78.6798,20.8888 79.5,22.5C 77.5787,23.641 75.5787,23.8077 73.5,23C 74.3805,22.2917 75.0472,21.4584 75.5,20.5 Z"/></g>
<g><path style="opacity:1" fill="#e8e7e2" d="M 132.5,20.5 C 134.346,20.2222 135.68,20.8888 136.5,22.5C 134.579,23.641 132.579,23.8077 130.5,23C 131.381,22.2917 132.047,21.4584 132.5,20.5 Z"/></g>
<g><path style="opacity:1" fill="#745b77" d="M 21.5,25.5 C 23.7593,26.344 24.7593,28.0107 24.5,30.5C 23.0812,33.1004 21.4146,35.6004 19.5,38C 18.4232,38.4696 17.4232,38.3029 16.5,37.5C 16.3932,33.7135 17.8932,30.7135 21,28.5C 21.4828,27.552 21.6495,26.552 21.5,25.5 Z"/></g>
<g><path style="opacity:1" fill="#c79e4f" d="M 25.5,25.5 C 26.8333,27.5 28.1667,29.5 29.5,31.5C 29.1667,32.1667 28.8333,32.8333 28.5,33.5C 27.5,33.5 26.5,33.5 25.5,33.5C 25.5,32.5 25.5,31.5 25.5,30.5C 25.5,28.8333 25.5,27.1667 25.5,25.5 Z"/></g>
<g><path style="opacity:1" fill="#e4ca8d" d="M 39.5,25.5 C 38.6487,28.1106 38.482,30.7773 39,33.5C 37.6439,34.3802 36.1439,34.7135 34.5,34.5C 34.1667,33.8333 33.8333,33.1667 33.5,32.5C 34.5832,32.5394 35.5832,32.8728 36.5,33.5C 36.9201,30.3837 37.9201,27.7171 39.5,25.5 Z"/></g>
<g><path style="opacity:1" fill="#96818c" d="M 29.5,31.5 C 31.099,31.2322 32.4324,31.5655 33.5,32.5C 33.8333,33.1667 34.1667,33.8333 34.5,34.5C 34.7373,35.791 34.404,36.791 33.5,37.5C 33.6309,38.3764 33.2975,39.0431 32.5,39.5C 31.4822,38.8075 30.4822,38.1408 29.5,37.5C 29.1667,36.1667 28.8333,34.8333 28.5,33.5C 28.8333,32.8333 29.1667,32.1667 29.5,31.5 Z"/></g>
<g><path style="opacity:1" fill="#695073" d="M 33.5,37.5 C 30.7252,37.1662 30.0585,35.8329 31.5,33.5C 33.1112,34.3202 33.7778,35.6536 33.5,37.5 Z"/></g>
<g><path style="opacity:1" fill="#dad2d0" d="M 24.5,30.5 C 24.8333,30.5 25.1667,30.5 25.5,30.5C 25.5,31.5 25.5,32.5 25.5,33.5C 26.5,33.5 27.5,33.5 28.5,33.5C 28.8333,34.8333 29.1667,36.1667 29.5,37.5C 25.2922,33.0538 22.6256,33.8872 21.5,40C 18.7383,41.0769 17.0717,40.2436 16.5,37.5C 17.4232,38.3029 18.4232,38.4696 19.5,38C 21.4146,35.6004 23.0812,33.1004 24.5,30.5 Z"/></g>
<g><path style="opacity:1" fill="#646462" d="M 23.5,50.5 C 24.5,50.5 25.5,50.5 26.5,50.5C 26.8967,55.9586 26.3967,61.2919 25,66.5C 22.5991,67.6023 20.0991,67.769 17.5,67C 16.2528,65.5064 16.2528,64.0064 17.5,62.5C 18.3857,63.325 18.719,64.325 18.5,65.5C 20.1667,65.5 21.8333,65.5 23.5,65.5C 23.5,60.5 23.5,55.5 23.5,50.5 Z"/></g>
<g><path style="opacity:1" fill="#60605d" d="M 42.5,50.5 C 43.8142,52.9151 44.4809,55.7485 44.5,59C 44.1667,61.8333 43.8333,64.6667 43.5,67.5C 42.5046,61.8722 42.1712,56.2055 42.5,50.5 Z"/></g>
<g><path style="opacity:1" fill="#5a5a57" d="M 141.5,50.5 C 142.94,54.2753 144.273,58.2753 145.5,62.5C 144.248,64.0009 143.248,65.6675 142.5,67.5C 141.571,66.3112 141.238,64.9778 141.5,63.5C 138.753,63.8134 136.086,63.48 133.5,62.5C 136.177,58.4714 138.844,54.4714 141.5,50.5 Z"/></g>
<g><path style="opacity:1" fill="#585855" d="M 29.5,55.5 C 31.2371,58.008 32.0704,61.008 32,64.5C 33.6667,65.8333 35.3333,65.8333 37,64.5C 37.1786,61.4465 37.6786,58.4465 38.5,55.5C 39.8333,59.5 39.8333,63.5 38.5,67.5C 36.3284,67.3241 33.9951,67.1575 31.5,67C 31,66.5 30.5,66 30,65.5C 29.5017,62.1832 29.335,58.8499 29.5,55.5 Z"/></g>
<g><path style="opacity:1" fill="#ecebe6" d="M 140.5,54.5 C 141.468,56.6074 141.802,58.9407 141.5,61.5C 139.712,61.7852 138.045,61.4519 136.5,60.5C 137.844,58.4714 139.177,56.4714 140.5,54.5 Z"/></g>
<g><path style="opacity:1" fill="#5a5a57" d="M 57.5,50.5 C 63.4992,50.002 65.6659,52.6687 64,58.5C 61.4066,60.5486 58.9066,62.7152 56.5,65C 59.2263,65.1816 61.8929,65.6816 64.5,66.5C 61.2317,67.487 57.8984,67.8204 54.5,67.5C 54.3433,66.1266 54.51,64.7932 55,63.5C 57.3333,61.5 59.6667,59.5 62,57.5C 63.1667,53.3333 61.6667,51.8333 57.5,53C 56.9288,54.2051 56.2621,55.3717 55.5,56.5C 54.4117,53.9923 55.0784,51.9923 57.5,50.5 Z"/></g>
<g><path style="opacity:1" fill="#5a5a57" d="M 97.5,50.5 C 103.499,50.002 105.666,52.6687 104,58.5C 101.407,60.5486 98.9066,62.7152 96.5,65C 99.2263,65.1816 101.893,65.6816 104.5,66.5C 101.232,67.487 97.8984,67.8204 94.5,67.5C 94.3433,66.1266 94.51,64.7932 95,63.5C 97.3333,61.5 99.6667,59.5 102,57.5C 103.167,53.3333 101.667,51.8333 97.5,53C 96.9288,54.2051 96.2621,55.3717 95.5,56.5C 94.4117,53.9923 95.0784,51.9923 97.5,50.5 Z"/></g>
<g><path style="opacity:1" fill="#585755" d="M 70.5,50.5 C 77.9933,49.8145 80.16,52.8145 77,59.5C 74.6667,61.0062 72.5,62.6729 70.5,64.5C 73.1667,65.1667 75.8333,65.8333 78.5,66.5C 74.8927,67.4892 71.226,67.8226 67.5,67.5C 68.9952,63.1605 71.8285,59.8272 76,57.5C 77.0798,54.7629 76.2464,53.0963 73.5,52.5C 71.2586,53.0708 69.5919,54.4042 68.5,56.5C 68.1667,56 67.8333,55.5 67.5,55C 68.3146,53.3566 69.3146,51.8566 70.5,50.5 Z"/></g>
<g><path style="opacity:1" fill="#595856" d="M 123.5,50.5 C 129.989,49.6323 132.489,52.299 131,58.5C 128.331,60.3404 125.831,62.3404 123.5,64.5C 126.167,65.1667 128.833,65.8333 131.5,66.5C 127.893,67.4892 124.226,67.8226 120.5,67.5C 120.351,66.448 120.517,65.448 121,64.5C 123.479,61.931 126.146,59.5977 129,57.5C 130.167,53.3333 128.667,51.8333 124.5,53C 123.929,54.2051 123.262,55.3717 122.5,56.5C 121.23,54.2432 121.564,52.2432 123.5,50.5 Z"/></g>
<g><path style="opacity:1" fill="#6b6b68" d="M 81.5,64.5 C 82.5,64.5 83.5,64.5 84.5,64.5C 84.8186,66.7505 84.3186,68.7505 83,70.5C 82.3828,69.5509 82.5494,68.7175 83.5,68C 82.0267,67.2904 81.3601,66.1238 81.5,64.5 Z"/></g>
<g><path style="opacity:1" fill="#656462" d="M 110.5,50.5 C 118.086,50.9402 120.919,54.9402 119,62.5C 117.923,67.1152 115.09,68.6152 110.5,67C 106.537,61.5011 106.537,56.0011 110.5,50.5 Z"/></g>
<g><path style="opacity:1" fill="#f4f3ee" d="M 111.5,52.5 C 113.144,52.2865 114.644,52.6198 116,53.5C 116.667,57.1667 116.667,60.8333 116,64.5C 114.333,65.8333 112.667,65.8333 111,64.5C 110.238,60.4126 110.404,56.4126 111.5,52.5 Z"/></g>
</svg>
