<?xml version="1.0" encoding="UTF-8"?>
<!DOCTYPE svg PUBLIC "-//W3C//DTD SVG 1.1//EN" "http://www.w3.org/Graphics/SVG/1.1/DTD/svg11.dtd">
<svg xmlns="http://www.w3.org/2000/svg" version="1.1" width="352px" height="330px" style="shape-rendering:geometricPrecision; text-rendering:geometricPrecision; image-rendering:optimizeQuality; fill-rule:evenodd; clip-rule:evenodd" xmlns:xlink="http://www.w3.org/1999/xlink">
<g><path style="opacity:1" fill="#fefefe" d="M -0.5,-0.5 C 116.833,-0.5 234.167,-0.5 351.5,-0.5C 351.5,109.5 351.5,219.5 351.5,329.5C 234.167,329.5 116.833,329.5 -0.5,329.5C -0.5,219.5 -0.5,109.5 -0.5,-0.5 Z"/></g>
<g><path style="opacity:1" fill="#335bae" d="M 162.5,30.5 C 216.182,28.9193 257.349,50.586 286,95.5C 309.46,139.63 309.126,183.63 285,227.5C 253.72,274.284 209.887,294.784 153.5,289C 111.501,281.655 80.0009,259.489 59,222.5C 30.5229,161.225 40.6895,107.392 89.5,61C 110.873,43.6442 135.206,33.4775 162.5,30.5 Z"/></g>
<g><path style="opacity:1" fill="#eef2f8" d="M 155.5,33.5 C 209.625,28.9849 251.792,48.9849 282,93.5C 304.064,132.651 306.397,172.984 289,214.5C 257.889,271.471 210.056,294.971 145.5,285C 94.6755,271.509 62.5088,239.342 49,188.5C 38.9766,131.411 57.4766,86.2441 104.5,53C 120.36,43.218 137.36,36.718 155.5,33.5 Z"/></g>
<g><path style="opacity:1" fill="#2451a9" d="M 161.5,36.5 C 214.472,34.3948 254.638,55.7281 282,100.5C 303.583,142.751 302.583,184.417 279,225.5C 248.745,270.201 206.579,289.368 152.5,283C 98.9706,271.137 65.4706,238.637 52,185.5C 43.6909,136.082 58.5242,95.2482 96.5,63C 115.887,48.3759 137.554,39.5425 161.5,36.5 Z"/></g>
<g><path style="opacity:1" fill="#eff3f9" d="M 155.5,43.5 C 215.031,39.1722 257.531,63.8388 283,117.5C 300.13,170.092 288.297,214.925 247.5,252C 210.694,279.401 170.694,285.067 127.5,269C 81.1969,246.479 57.1969,209.312 55.5,157.5C 61.5566,95.4502 94.8899,57.4502 155.5,43.5 Z"/></g>
<g><path style="opacity:1" fill="#345bae" d="M 160.5,46.5 C 208.799,44.2307 245.966,63.2307 272,103.5C 294.623,147.13 291.956,189.13 264,229.5C 231.517,267.994 190.684,281.494 141.5,270C 88.6232,250.786 61.2899,212.952 59.5,156.5C 64.0531,105.124 90.3865,70.2903 138.5,52C 145.885,49.8294 153.218,47.9961 160.5,46.5 Z"/></g>
<g><path style="opacity:1" fill="#fdfdfe" d="M 159.5,49.5 C 216.113,46.5363 255.613,70.8696 278,122.5C 290.751,161.695 284.751,197.695 260,230.5C 225.513,268.437 183.679,279.937 134.5,265C 80.4287,240.18 56.9287,198.013 64,138.5C 77.1133,88.5477 108.947,58.881 159.5,49.5 Z"/></g>
<g><path style="opacity:1" fill="#102c83" d="M 90.5,114.5 C 100.833,114.5 111.167,114.5 121.5,114.5C 121.575,118.897 121.075,123.23 120,127.5C 112.764,120.081 107.264,121.248 103.5,131C 104.333,132.784 105.333,132.784 106.5,131C 110.449,130.073 113.949,130.906 117,133.5C 118.385,138.605 116.552,141.105 111.5,141C 109.697,140.363 108.364,139.197 107.5,137.5C 104.069,139.963 103.735,142.796 106.5,146C 111.324,148.446 115.491,147.613 119,143.5C 119.943,148.16 120.777,152.827 121.5,157.5C 111.167,157.5 100.833,157.5 90.5,157.5C 93.0856,143.139 93.0856,128.806 90.5,114.5 Z"/></g>
<g><path style="opacity:1" fill="#112d83" d="M 131.5,114.5 C 136.511,114.334 141.511,114.501 146.5,115C 147.638,121.413 150.138,127.246 154,132.5C 154.697,126.463 154.53,120.463 153.5,114.5C 158.511,114.334 163.511,114.501 168.5,115C 167.809,116.067 167.309,117.234 167,118.5C 166.014,131.258 166.514,143.924 168.5,156.5C 163.167,157.833 157.833,157.833 152.5,156.5C 150.803,150.104 147.803,144.438 143.5,139.5C 142.265,145.579 142.598,151.579 144.5,157.5C 139.833,157.5 135.167,157.5 130.5,157.5C 132.542,143.199 132.876,128.866 131.5,114.5 Z"/></g>
<g><path style="opacity:1" fill="#132e84" d="M 178.5,114.5 C 185.841,114.334 193.174,114.5 200.5,115C 211.95,118.129 214.616,124.795 208.5,135C 206.956,135.29 205.623,135.956 204.5,137C 208.948,150.577 216.614,161.911 227.5,171C 232.92,175.179 238.587,175.513 244.5,172C 239.616,169.473 239.283,166.473 243.5,163C 251.28,161.447 254.447,164.614 253,172.5C 244.39,183.133 233.89,185.3 221.5,179C 207.964,169.435 198.131,156.935 192,141.5C 191.516,146.918 192.016,152.251 193.5,157.5C 188.167,157.5 182.833,157.5 177.5,157.5C 179.694,143.217 180.027,128.884 178.5,114.5 Z"/></g>
<g><path style="opacity:1" fill="#102c83" d="M 219.5,114.5 C 224.844,114.334 230.177,114.501 235.5,115C 234.137,116.945 233.303,119.112 233,121.5C 232.13,127.917 232.464,134.251 234,140.5C 238.637,143.61 241.637,142.276 243,136.5C 243.95,129.371 243.45,122.371 241.5,115.5C 246.467,114.338 251.467,114.171 256.5,115C 255.166,117.66 254.332,120.494 254,123.5C 253.667,130.5 253.333,137.5 253,144.5C 249.822,155.926 242.322,160.093 230.5,157C 226.183,154.685 223.35,151.185 222,146.5C 222.01,135.721 221.177,125.054 219.5,114.5 Z"/></g>
<g><path style="opacity:1" fill="#f8f8fb" d="M 190.5,123.5 C 192.746,124.21 195.08,124.71 197.5,125C 198.86,126.938 198.527,128.604 196.5,130C 194.527,130.495 192.527,130.662 190.5,130.5C 190.5,128.167 190.5,125.833 190.5,123.5 Z"/></g>
<g><path style="opacity:1" fill="#6274ad" d="M 98.5,194.5 C 99.3984,193.842 100.398,193.176 101.5,192.5C 97.8333,191.167 94.1667,191.167 90.5,192.5C 90.6236,193.107 90.9569,193.44 91.5,193.5C 91.44,194.043 91.1067,194.376 90.5,194.5C 89.5713,193.311 89.238,191.978 89.5,190.5C 93.8333,190.5 98.1667,190.5 102.5,190.5C 102.5,191.833 102.5,193.167 102.5,194.5C 101.167,194.5 99.8333,194.5 98.5,194.5 Z"/></g>
<g><path style="opacity:1" fill="#173086" d="M 153.5,200.5 C 154.675,200.281 155.675,200.614 156.5,201.5C 155.494,202.396 155.494,203.062 156.5,203.5C 157.894,201.418 157.561,199.751 155.5,198.5C 154.504,198.586 153.671,198.252 153,197.5C 152.232,190.789 155.065,188.789 161.5,191.5C 162.747,193.006 162.747,194.506 161.5,196C 159.591,196.448 158.424,195.615 158,193.5C 157.833,194 157.667,194.5 157.5,195C 158.604,196.82 160.104,198.32 162,199.5C 162.825,201.701 162.325,203.534 160.5,205C 158.167,205.667 155.833,205.667 153.5,205C 152.199,203.384 152.199,201.884 153.5,200.5 Z"/></g>
<g><path style="opacity:1" fill="#5a6eaa" d="M 170.5,192.5 C 169.167,191.167 167.833,191.167 166.5,192.5C 165.957,192.44 165.624,192.107 165.5,191.5C 167.5,190.167 169.5,190.167 171.5,191.5C 171.376,192.107 171.043,192.44 170.5,192.5 Z"/></g>
<g><path style="opacity:1" fill="#4b63a3" d="M 204.5,191.5 C 200.774,191.177 197.107,191.511 193.5,192.5C 193.624,193.107 193.957,193.44 194.5,193.5C 194.44,194.043 194.107,194.376 193.5,194.5C 192.571,193.311 192.238,191.978 192.5,190.5C 196.702,190.183 200.702,190.517 204.5,191.5 Z"/></g>
<g><path style="opacity:1" fill="#6779b0" d="M 212.5,193.5 C 212.38,192.414 211.713,191.747 210.5,191.5C 209.287,191.747 208.62,192.414 208.5,193.5C 208.167,193.5 207.833,193.5 207.5,193.5C 207.5,192.5 207.5,191.5 207.5,190.5C 209.5,190.5 211.5,190.5 213.5,190.5C 213.737,191.791 213.404,192.791 212.5,193.5 Z"/></g>
<g><path style="opacity:1" fill="#1d3488" d="M 219.5,190.5 C 226.925,192.016 229.092,196.349 226,203.5C 219.643,206.9 216.143,204.9 215.5,197.5C 215.974,194.689 217.307,192.355 219.5,190.5 Z"/></g>
<g><path style="opacity:1" fill="#293b8d" d="M 247.5,190.5 C 249.857,190.337 252.19,190.503 254.5,191C 255.406,192.699 255.739,194.533 255.5,196.5C 254.448,196.351 253.448,196.517 252.5,197C 256.795,198.845 257.462,201.512 254.5,205C 252.167,205.667 249.833,205.667 247.5,205C 244.906,202.152 245.573,200.152 249.5,199C 245.121,196.985 244.454,194.151 247.5,190.5 Z"/></g>
<g><path style="opacity:1" fill="#122e84" d="M 98.5,194.5 C 97.4095,197.681 97.4095,201.015 98.5,204.5C 96.8333,204.5 95.1667,204.5 93.5,204.5C 94.3761,201.201 94.5428,197.868 94,194.5C 93.3292,193.748 92.4959,193.414 91.5,193.5C 90.9569,193.44 90.6236,193.107 90.5,192.5C 94.1667,191.167 97.8333,191.167 101.5,192.5C 100.398,193.176 99.3984,193.842 98.5,194.5 Z"/></g>
<g><path style="opacity:1" fill="#193286" d="M 110.5,204.5 C 108.833,204.5 107.167,204.5 105.5,204.5C 105.5,203.5 105.5,202.5 105.5,201.5C 105.5,197.833 105.5,194.167 105.5,190.5C 109.257,190.071 112.757,190.737 116,192.5C 116.678,194.902 116.178,197.068 114.5,199C 115.217,200.531 116.217,201.864 117.5,203C 116.941,205.188 115.607,205.854 113.5,205C 112.134,203.4 111.134,201.567 110.5,199.5C 109.566,201.095 109.566,202.761 110.5,204.5 Z"/></g>
<g><path style="opacity:1" fill="#193186" d="M 132.5,203.5 C 131.432,204.434 130.099,204.768 128.5,204.5C 128.5,203.5 128.5,202.5 128.5,201.5C 127.167,201.5 125.833,201.5 124.5,201.5C 124.5,202.5 124.5,203.5 124.5,204.5C 122.901,204.768 121.568,204.434 120.5,203.5C 121.91,199.296 122.577,194.963 122.5,190.5C 125.167,190.5 127.833,190.5 130.5,190.5C 130.423,194.962 131.09,199.295 132.5,203.5 Z"/></g>
<g><path style="opacity:1" fill="#142f85" d="M 136.5,201.5 C 137.479,198.375 137.813,195.042 137.5,191.5C 139.292,191.366 140.958,191.699 142.5,192.5C 142.709,193.922 143.209,195.255 144,196.5C 144.495,194.527 144.662,192.527 144.5,190.5C 145.833,190.5 147.167,190.5 148.5,190.5C 148.5,195.167 148.5,199.833 148.5,204.5C 146.712,204.785 145.045,204.452 143.5,203.5C 141.101,198.025 140.101,198.359 140.5,204.5C 139.167,204.5 137.833,204.5 136.5,204.5C 136.5,203.5 136.5,202.5 136.5,201.5 Z"/></g>
<g><path style="opacity:1" fill="#112e84" d="M 170.5,192.5 C 170.335,195.518 170.502,198.518 171,201.5C 173.091,202.5 174.757,201.833 176,199.5C 176.494,201.134 176.66,202.801 176.5,204.5C 173.167,204.5 169.833,204.5 166.5,204.5C 166.5,203.5 166.5,202.5 166.5,201.5C 166.5,198.5 166.5,195.5 166.5,192.5C 167.833,191.167 169.167,191.167 170.5,192.5 Z"/></g>
<g><path style="opacity:1" fill="#193186" d="M 191.5,203.5 C 190.432,204.434 189.099,204.768 187.5,204.5C 187.5,203.5 187.5,202.5 187.5,201.5C 186.167,201.5 184.833,201.5 183.5,201.5C 183.5,202.5 183.5,203.5 183.5,204.5C 181.901,204.768 180.568,204.434 179.5,203.5C 181.064,199.326 181.731,194.993 181.5,190.5C 184.167,190.5 186.833,190.5 189.5,190.5C 189.652,194.924 190.319,199.257 191.5,203.5 Z"/></g>
<g><path style="opacity:1" fill="#0d2b83" d="M 204.5,191.5 C 204.649,192.552 204.483,193.552 204,194.5C 203,193.167 202,193.167 201,194.5C 200.503,196.81 200.337,199.143 200.5,201.5C 200.5,202.5 200.5,203.5 200.5,204.5C 199.167,204.5 197.833,204.5 196.5,204.5C 197.376,201.201 197.543,197.868 197,194.5C 196.329,193.748 195.496,193.414 194.5,193.5C 193.957,193.44 193.624,193.107 193.5,192.5C 197.107,191.511 200.774,191.177 204.5,191.5 Z"/></g>
<g><path style="opacity:1" fill="#1e3387" d="M 212.5,193.5 C 212.5,197.167 212.5,200.833 212.5,204.5C 211.167,204.5 209.833,204.5 208.5,204.5C 208.5,200.833 208.5,197.167 208.5,193.5C 208.62,192.414 209.287,191.747 210.5,191.5C 211.713,191.747 212.38,192.414 212.5,193.5 Z"/></g>
<g><path style="opacity:1" fill="#25398b" d="M 230.5,190.5 C 232.288,190.215 233.955,190.548 235.5,191.5C 238.368,198.132 239.035,197.798 237.5,190.5C 239.167,190.5 240.833,190.5 242.5,190.5C 242.5,195.167 242.5,199.833 242.5,204.5C 238.27,205.437 235.77,203.771 235,199.5C 234.506,201.134 234.34,202.801 234.5,204.5C 233.167,204.5 231.833,204.5 230.5,204.5C 230.5,199.833 230.5,195.167 230.5,190.5 Z"/></g>
<g><path style="opacity:1" fill="#7082b5" d="M 142.5,192.5 C 140.958,191.699 139.292,191.366 137.5,191.5C 137.813,195.042 137.479,198.375 136.5,201.5C 136.5,197.833 136.5,194.167 136.5,190.5C 139.082,190.025 141.082,190.692 142.5,192.5 Z"/></g>
<g><path style="opacity:1" fill="#d5dae9" d="M 109.5,193.5 C 112.674,193.952 113.007,194.952 110.5,196.5C 109.614,195.675 109.281,194.675 109.5,193.5 Z"/></g>
<g><path style="opacity:1" fill="#eff1f6" d="M 220.5,194.5 C 222.722,194.559 223.722,195.725 223.5,198C 222.167,202.667 220.833,202.667 219.5,198C 219.648,196.744 219.982,195.577 220.5,194.5 Z"/></g>
<g><path style="opacity:1" fill="#b4bcd8" d="M 125.5,195.5 C 127.465,195.948 127.798,196.948 126.5,198.5C 125.614,197.675 125.281,196.675 125.5,195.5 Z"/></g>
<g><path style="opacity:1" fill="#cad0e3" d="M 184.5,195.5 C 186.465,195.948 186.798,196.948 185.5,198.5C 184.614,197.675 184.281,196.675 184.5,195.5 Z"/></g>
<g><path style="opacity:1" fill="#7f8fbd" d="M 155.5,198.5 C 157.561,199.751 157.894,201.418 156.5,203.5C 155.494,203.062 155.494,202.396 156.5,201.5C 155.675,200.614 154.675,200.281 153.5,200.5C 154.167,199.833 154.833,199.167 155.5,198.5 Z"/></g>
<g><path style="opacity:1" fill="#919ec6" d="M 105.5,201.5 C 105.5,202.5 105.5,203.5 105.5,204.5C 107.167,204.5 108.833,204.5 110.5,204.5C 108.735,205.461 106.735,205.795 104.5,205.5C 104.232,203.901 104.566,202.568 105.5,201.5 Z"/></g>
<g><path style="opacity:1" fill="#7e8dbc" d="M 132.5,203.5 C 133.043,203.56 133.376,203.893 133.5,204.5C 131.604,205.466 129.604,205.799 127.5,205.5C 126.833,201.5 126.167,201.5 125.5,205.5C 123.396,205.799 121.396,205.466 119.5,204.5C 119.624,203.893 119.957,203.56 120.5,203.5C 121.568,204.434 122.901,204.768 124.5,204.5C 124.5,203.5 124.5,202.5 124.5,201.5C 125.833,201.5 127.167,201.5 128.5,201.5C 128.5,202.5 128.5,203.5 128.5,204.5C 130.099,204.768 131.432,204.434 132.5,203.5 Z"/></g>
<g><path style="opacity:1" fill="#8b99c3" d="M 166.5,201.5 C 166.5,202.5 166.5,203.5 166.5,204.5C 169.833,204.5 173.167,204.5 176.5,204.5C 173.038,205.482 169.371,205.815 165.5,205.5C 165.232,203.901 165.566,202.568 166.5,201.5 Z"/></g>
<g><path style="opacity:1" fill="#8190bd" d="M 191.5,203.5 C 192.043,203.56 192.376,203.893 192.5,204.5C 190.604,205.466 188.604,205.799 186.5,205.5C 185.833,201.5 185.167,201.5 184.5,205.5C 182.396,205.799 180.396,205.466 178.5,204.5C 178.624,203.893 178.957,203.56 179.5,203.5C 180.568,204.434 181.901,204.768 183.5,204.5C 183.5,203.5 183.5,202.5 183.5,201.5C 184.833,201.5 186.167,201.5 187.5,201.5C 187.5,202.5 187.5,203.5 187.5,204.5C 189.099,204.768 190.432,204.434 191.5,203.5 Z"/></g>
<g><path style="opacity:1" fill="#7787b9" d="M 200.5,201.5 C 201.434,202.568 201.768,203.901 201.5,205.5C 199.585,205.784 197.919,205.451 196.5,204.5C 197.833,204.5 199.167,204.5 200.5,204.5C 200.5,203.5 200.5,202.5 200.5,201.5 Z"/></g>
<g><path style="opacity:1" fill="#96a2c9" d="M 207.5,193.5 C 207.833,193.5 208.167,193.5 208.5,193.5C 208.5,197.167 208.5,200.833 208.5,204.5C 209.833,204.5 211.167,204.5 212.5,204.5C 211.081,205.451 209.415,205.784 207.5,205.5C 207.5,201.5 207.5,197.5 207.5,193.5 Z"/></g>
</svg>
