<svg xmlns="http://www.w3.org/2000/svg" width="100" height="98" style="shape-rendering:geometricPrecision;text-rendering:geometricPrecision;image-rendering:optimizeQuality;fill-rule:evenodd;clip-rule:evenodd" viewBox="0 0 700 688"><path fill="#fefefe" d="M-.5-.5h700v688H-.5V-.5Z" style="opacity:1"/><path fill="#e86778" d="M325.5 25.5c8.111-.435 16.111.065 24 1.5-8.333.667-16.667.667-25 0 .556-.383.889-.883 1-1.5Z" style="opacity:1"/><path fill="#e96674" d="M378.5 27.5c4.119.868 4.619 2.534 1.5 5-2.611-1-3.111-2.667-1.5-5Z" style="opacity:1"/><path fill="#e75b6a" d="M305.5 31.5c3-.333 4.333 1 4 4-3.94.734-5.273-.6-4-4Z" style="opacity:1"/><path fill="#e75d6b" d="M404.5 31.5c2.584.548 3.584 2.215 3 5-3.784-.025-4.784-1.692-3-5Z" style="opacity:1"/><path fill="#e65868" d="M268.5 34.5c2.666-.434 3.833.566 3.5 3-3.597 1.566-4.763.566-3.5-3Z" style="opacity:1"/><path fill="#e65767" d="M423.5 37.5a85.507 85.507 0 0 1 19 4.5 600.8 600.8 0 0 1 56 27l9 9c-3.447-.712-6.781-2.046-10-4-22.163-15.08-46.163-26.413-72-34-1.256-.417-1.923-1.25-2-2.5Z" style="opacity:1"/><path fill="#e55061" d="M240.5 44.5h11c.048 2.792-1.285 4.625-4 5.5a2282.53 2282.53 0 0 0-79 44.5c-1.021-.502-1.188-1.168-.5-2 20.688-21.416 44.855-37.416 72.5-48Z" style="opacity:1"/><path fill="#e75d6c" d="M289.5 44.5h3v3h-3v-3Z" style="opacity:1"/><path fill="#e65162" d="M302.5 61.5c18.67-.167 37.336 0 56 .5a21.52 21.52 0 0 1 6 5 686.395 686.395 0 0 1-50 3 120.652 120.652 0 0 1-12 3 199.32 199.32 0 0 0-35 3.5l-4-.5c12.243-7.132 25.243-11.966 39-14.5Z" style="opacity:1"/><path fill="#e65364" d="M414.5 71.5c.235-.597.735-.93 1.5-1A503.047 503.047 0 0 1 458.5 81a489.936 489.936 0 0 1 72 43c24.213 20.504 43.379 44.67 57.5 72.5-22.707-28.709-48.207-54.876-76.5-78.5a332.962 332.962 0 0 0-46-27 87798.598 87798.598 0 0 0-51-19.5Z" style="opacity:1"/><path fill="#e96674" d="M516.5 82.5c4.659-.485 5.992 1.348 4 5.5-4.772.81-6.105-1.023-4-5.5Z" style="opacity:1"/><path fill="#e54f60" d="M204.5 99.5c3.79-.492 4.456.341 2 2.5-28.25 19.574-54.083 42.074-77.5 67.5-27.677 34.965-45.344 74.631-53 119a621.744 621.744 0 0 0-7.5 52.5A289.353 289.353 0 0 0 80 398.5a1539.52 1539.52 0 0 0 24.5 59.5c-.602 1.563-1.435 1.396-2.5-.5a291.422 291.422 0 0 1-22-40c10.383 44.772 31.717 83.438 64 116 2.75 3.832 5.25 7.832 7.5 12a349.814 349.814 0 0 1 30 24.5 504.62 504.62 0 0 0 31 22 681.193 681.193 0 0 0 78 35c-14.667-.286-29-2.619-43-7-29.273-12.293-55.94-28.626-80-49a129.105 129.105 0 0 1-18-24.5c-19.311-12.144-35.144-27.81-47.5-47-28.883-45.818-44.383-95.818-46.5-150 .426-9.67.926-19.337 1.5-29a1889.717 1889.717 0 0 0 12-74v12c6.558-18.449 15.224-35.782 26-52a865.915 865.915 0 0 1 53-68c16.309-16.835 35.143-29.835 56.5-39Z" style="opacity:1"/><path fill="#e65667" d="M159.5 102.5c1.548.321 2.215 1.321 2 3-2.748.098-3.414-.902-2-3Z" style="opacity:1"/><path fill="#e65465" d="M532.5 102.5c3.81 1.254 3.81 2.254 0 3v-3Z" style="opacity:1"/><path fill="#f3a5ae" d="M545.5 106.5c3.297-.171 3.631.495 1 2-.798-.457-1.131-1.124-1-2Z" style="opacity:1"/><path fill="#e75968" d="M554.5 116.5c3.85.201 4.85 2.034 3 5.5-3.963.118-4.963-1.716-3-5.5Z" style="opacity:1"/><path fill="#e75a69" d="M126.5 133.5c5.648-.189 6.982 1.978 4 6.5-4.709.082-6.042-2.085-4-6.5Z" style="opacity:1"/><path fill="#e96877" d="M561.5 132.5c1.837.139 2.17.806 1 2-.798-.457-1.131-1.124-1-2Z" style="opacity:1"/><path fill="#e65162" d="M345.5 135.5c4.532 3.207 7.199 7.707 8 13.5-.121 4.788-2.621 7.288-7.5 7.5-4.303-.637-6.469-3.137-6.5-7.5 1.054-4.939 3.054-9.439 6-13.5Z" style="opacity:1"/><path fill="#e55162" d="M122.5 139.5c1.175-.219 2.175.114 3 1a422.927 422.927 0 0 1-38.5 62c-.652-3.094-.319-6.094 1-9 8.142-20.276 19.642-38.276 34.5-54Z" style="opacity:1"/><path fill="#e65667" d="M333.5 153.5c3.853.845 6.519 3.179 8 7-4.32.04-6.987-2.293-8-7ZM356.5 153.5c3.498.065 3.998 1.399 1.5 4-1.413 1.914-3.247 3.247-5.5 4-1.083-.865-1.249-1.865-.5-3a31.447 31.447 0 0 0 4.5-5Z" style="opacity:1"/><path fill="#e55061" d="M587.5 156.5c14.312 15.604 24.812 33.604 31.5 54 8.585 23.836 14.085 48.336 16.5 73.5.112 9.846-1.555 19.346-5 28.5-2.154-2.932-3.654-6.266-4.5-10a541.942 541.942 0 0 1-14.5-56.5l1-4.5c4.119 4.568 6.953 9.902 8.5 16a176.474 176.474 0 0 0-5-29 1122.665 1122.665 0 0 0-28.5-72Z" style="opacity:1"/><path fill="#e54f60" d="M325.5 159.5c7.663-1.458 11.163 1.542 10.5 9-2.851 5.312-7.018 6.478-12.5 3.5a52.108 52.108 0 0 1-8-5.5 41.927 41.927 0 0 1 10-7Z" style="opacity:1"/><path fill="#e55061" d="M359.5 159.5c7.127-.405 13.127 1.928 18 7-4.876 4.446-10.542 6.612-17 6.5-4.841-4.077-5.175-8.577-1-13.5Z" style="opacity:1"/><path fill="#e65364" d="M344.5 162.5c4.828-.115 6.161 2.052 4 6.5-4.93.427-6.263-1.74-4-6.5Z" style="opacity:1"/><path fill="#e65566" d="M351.5 171.5c3.853.845 6.519 3.179 8 7-4.32.04-6.987-2.293-8-7Z" style="opacity:1"/><path fill="#e65868" d="M338.5 171.5c3.498.065 3.998 1.399 1.5 4-1.413 1.914-3.247 3.247-5.5 4-1.083-.865-1.249-1.865-.5-3a31.447 31.447 0 0 0 4.5-5Z" style="opacity:1"/><path fill="#e54f60" d="M343.5 176.5c9.285-.55 12.119 3.45 8.5 12a31 31 0 0 1-5.5 9c-5.246-4.906-7.413-10.906-6.5-18a30.233 30.233 0 0 1 3.5-3Z" style="opacity:1"/><path fill="#e54c5e" d="M351.5 282.5c.283.789.783 1.456 1.5 2 .824-8.843.657-17.51-.5-26a132.284 132.284 0 0 0-4-30c7.257-.04 14.59-.207 22-.5 2.176-.163 4.009-.996 5.5-2.5-4.607 37.977-4.607 75.977 0 114-9.47-2.652-18.97-2.652-28.5 0l-1-1c2.426-6.266 2.593-12.599.5-19-3.814-9.632-8.647-18.632-14.5-27-.283-.789-.783-1.456-1.5-2-.815 4.852-.648 9.519.5 14a179.003 179.003 0 0 0 4 33 79.42 79.42 0 0 0-19-.5 23.663 23.663 0 0 0-6 2.5l-1-1a365.32 365.32 0 0 0 3-53.5 233.798 233.798 0 0 0-5-57.5c8.892.245 17.892-.421 27-2-.176 20.8 5.491 39.8 17 57Z" style="opacity:1"/><path fill="#e54d5f" d="M416.5 224.5c4.857.008 9.19 1.508 13 4.5a133.862 133.862 0 0 1 11 19 113.296 113.296 0 0 0-13 6c-2.737 1.614-4.903 3.781-6.5 6.5-4.307-15.26-10.307-15.927-18-2-6.62 18.354-5.953 36.354 2 54 3.698 3.899 8.198 5.399 13.5 4.5 1.903-5.331 2.403-10.831 1.5-16.5-2.725-2.258-5.725-2.591-9-1 .471-5.962.471-11.962 0-18a4.457 4.457 0 0 1-1.5-2c9.619-.059 19.285-.059 29 0-2.972 19.78-2.306 39.446 2 59l-2 1a114.685 114.685 0 0 0-28.5 0c-10.167-.416-18.167-4.749-24-13a57.995 57.995 0 0 1-6-16c-5.167-26.151-.834-50.484 13-73 6.142-7.649 13.975-11.982 23.5-13Z" style="opacity:1"/><path fill="#e54e5f" d="M251.5 225.5a85.688 85.688 0 0 0 25 3c7.74-.141 15.407-.641 23-1.5-1.943 7.353-2.443 14.853-1.5 22.5.374.916.874 1.75 1.5 2.5-7.538-1.423-15.205-1.756-23-1-2.274 2.344-3.441 5.178-3.5 8.5-.804 5.251-.637 10.418.5 15.5 6.908 1.036 13.575.202 20-2.5l1 1c-2.613 7.657-2.613 15.324 0 23l-1 1c-5.732-2.718-11.732-3.552-18-2.5-2.433 3.385-3.433 7.218-3 11.5-.446 5.389.887 10.223 4 14.5 8.837.808 17.504-.025 26-2.5-1.596 6.773-1.263 13.44 1 20l-2.5 1c-16.536-2.578-33.036-2.578-49.5 0l-1-1.5c7.511-37.46 7.844-74.96 1-112.5Z" style="opacity:1"/><path fill="#f5c5cd" d="M352.5 258.5c1.157 8.49 1.324 17.157.5 26-.717-.544-1.217-1.211-1.5-2 .992-7.816 1.326-15.816 1-24Z" style="opacity:1"/><path fill="#f3b9c2" d="M332.5 292.5c-.983 3.798-1.317 7.798-1 12-1.148-4.481-1.315-9.148-.5-14 .717.544 1.217 1.211 1.5 2Z" style="opacity:1"/><path fill="#e54f60" d="M627.5 313.5c1.29.558 2.123 1.558 2.5 3 3.157 18.128 3.324 36.295.5 54.5 1.445 3.618 2.112 7.451 2 11.5a369.76 369.76 0 0 1-5.5 49c-2.935 11.146-7.601 21.48-14 31a38.929 38.929 0 0 1-5.5 5l-1-4.5a379.819 379.819 0 0 1 11.5-44.5c-11.868 33.087-28.868 63.087-51 90a1245.865 1245.865 0 0 0-41.5 42.5 504.632 504.632 0 0 1-36 23 924.224 924.224 0 0 0-39 15 677.884 677.884 0 0 1-61 11 403.453 403.453 0 0 1-79 1 127.772 127.772 0 0 1-27-5c-5.225-1.279-9.891-3.612-14-7 27.94 1.94 55.94 3.44 84 4.5 42.067 1.15 81.401-8.684 118-29.5a662.429 662.429 0 0 0 65-42c29.21-25.554 51.044-56.387 65.5-92.5a655.685 655.685 0 0 1 18-44l5-67 2.5-5Z" style="opacity:1"/><path fill="#e54d5f" d="M277.5 354.5c17.048.202 26.881 8.869 29.5 26 1.038 10.857-1.796 20.524-8.5 29-1.987 1.827-4.321 2.827-7 3 2.13 16.059 7.796 30.725 17 44a70.841 70.841 0 0 0-15 3.5c-3.259 1.211-6.092 3.044-8.5 5.5l-3-24c-1.157-6.807-3.49-13.14-7-19-1.933 13.887-.099 27.22 5.5 40l-1 1c-9.478-3.032-18.644-2.365-27.5 2 .989-8.618 1.989-17.285 3-26 1.76-28.076.26-55.909-4.5-83.5 3.799-.014 7.633.152 11.5.5 5.386-.068 10.553-.735 15.5-2Z" style="opacity:1"/><path fill="#e54e5f" d="M340.5 354.5c.597.235.93.735 1 1.5a152.85 152.85 0 0 0-3.5 22.5c-.667 17-.667 34 0 51a116.123 116.123 0 0 0 2 13c5.647 7.141 10.313 6.474 14-2a558.17 558.17 0 0 0-2.5-84c7.674.166 15.341 0 23-.5a32.444 32.444 0 0 0 6-1.5l1 1.5a132.418 132.418 0 0 0-3.5 22.5 3758.162 3758.162 0 0 1-3 63c-.974 8.447-4.474 15.614-10.5 21.5-11.978 3.275-23.978 3.275-36 0-6.676-3.824-10.509-9.657-11.5-17.5a1093.96 1093.96 0 0 1-2-59 140.41 140.41 0 0 0-3.5-30c7.395.105 15.062-.061 23-.5 2.208-.191 4.208-.691 6-1.5Z" style="opacity:1"/><path fill="#e54d5e" d="m391.5 449.5 2-9c7.27 3.605 14.603 3.772 22 .5 5.205-6.766 5.205-13.432 0-20a143.533 143.533 0 0 1-26.5-21.5c-7.439-14.668-4.939-27.501 7.5-38.5 5.887-3.847 12.387-5.681 19.5-5.5a421.848 421.848 0 0 0 24.5 3.5c-5.895 6.688-8.395 14.521-7.5 23.5-6.78-6.324-14.28-7.491-22.5-3.5-3.82 3.955-3.987 8.122-.5 12.5a141.92 141.92 0 0 1 25 24c7.154 15.346 5.488 29.679-5 43-2.669 2.664-5.836 4.498-9.5 5.5-8.722.591-17.389.091-26-1.5a93.753 93.753 0 0 1-8 .5c3.217-3.896 4.883-8.396 5-13.5Z" style="opacity:1"/><path fill="#fdf5f6" d="M274.5 373.5c6.089.256 9.422 3.422 10 9.5a59.011 59.011 0 0 1-2.5 11.5c-1.033 2.533-2.867 4.199-5.5 5a6.802 6.802 0 0 1-1.5-3c-.5-7.659-.666-15.326-.5-23Z" style="opacity:1"/><path fill="#ed909e" d="m393.5 440.5-2 9a25.879 25.879 0 0 1 1-10c.607.124.94.457 1 1Z" style="opacity:1"/><path fill="#e55061" d="M278.5 478.5c9.681.991 13.181 6.324 10.5 16a10.91 10.91 0 0 1-4.5 5l7 14c-2.599.049-4.766 1.049-6.5 3a45.864 45.864 0 0 0-6-14c-.671 4.136-.171 8.136 1.5 12-2.866.708-5.7 1.375-8.5 2 .207-8.992.207-17.992 0-27-.662-2.917-2.495-4.25-5.5-4v30h-9c.209-9.672.542-19.339 1-29a11.988 11.988 0 0 0-6 1 16.873 16.873 0 0 1-1-8c9.182.327 18.182-.007 27-1ZM302.5 516.5l-8-2a210.017 210.017 0 0 0 4-35c4.733.277 9.4-.057 14-1a202.115 202.115 0 0 1 1.5 20 64.031 64.031 0 0 0 4.5 17c-2.894-.161-5.894.172-9 1a34.251 34.251 0 0 1-1.5-8c-1.587-1.227-2.921-.894-4 1-.186 2.536-.686 4.869-1.5 7Z" style="opacity:1"/><path fill="#e55162" d="M328.5 502.5c-.283-.789-.783-1.456-1.5-2-.805 3.196-.638 6.196.5 9 .338 2.511.338 4.845 0 7-2.769-.796-5.436-1.129-8-1a170.555 170.555 0 0 0 0-36c3.018-.204 6.018-.537 9-1-.351 7.262 1.482 13.929 5.5 20 .873-6.319.373-12.486-1.5-18.5a40.914 40.914 0 0 1 9-.5 181.128 181.128 0 0 0 0 37h-9a32.462 32.462 0 0 0-.5-8 27.227 27.227 0 0 1-3.5-6Z" style="opacity:1"/><path fill="#e65263" d="M351.5 478.5c3.762.127 7.428.794 11 2-1.571 2.382-2.404 5.049-2.5 8-2.153-1.944-4.653-2.444-7.5-1.5a4.933 4.933 0 0 0-1 2.5 190.45 190.45 0 0 1 10.5 12c1.23 13.259-4.603 17.926-17.5 14a15.418 15.418 0 0 0 1-7c2.641.763 5.308.93 8 .5 1.687-1.913 2.187-4.08 1.5-6.5a57.649 57.649 0 0 1-11-10c-1.422-6.824 1.078-11.491 7.5-14Z" style="opacity:1"/><path fill="#e54e60" d="M374.5 516.5c3.125.979 6.458 1.313 10 1-.256 2.292.077 4.459 1 6.5a615.62 615.62 0 0 0-20-.5 555.958 555.958 0 0 0-1-44h10c-1.261 12.48-1.261 24.814 0 37Z" style="opacity:1"/><path fill="#e55061" d="M395.5 479.5c-.323 6.19.01 12.19 1 18-.251 8.851.583 17.517 2.5 26-3.24-1.536-6.24-1.203-9 1a89.869 89.869 0 0 0 0-15c-1.521-2.546-3.021-2.546-4.5 0-.951 1.419-1.284 3.085-1 5-2.235-.295-4.235.039-6 1h-2c-.667 0-1-.333-1-1a161.257 161.257 0 0 0 6-35h14ZM397.5 487.5c.168-2.299-.166-4.799-1-7.5a12.93 12.93 0 0 1 5-.5 286.2 286.2 0 0 1 20 0 123.004 123.004 0 0 1-2 8c-2.462-1.566-4.962-1.899-7.5-1a354.768 354.768 0 0 0 0 30c-3.149-1.021-6.316-1.188-9.5-.5a221.957 221.957 0 0 0 1-29.5 19.22 19.22 0 0 0-6 1Z" style="opacity:1"/><path fill="#e65363" d="m435.5 495.5 2 6c-2.088.365-4.421.365-7 0v9h9v6a73.133 73.133 0 0 1-17-1 117.349 117.349 0 0 0 1-36h15v8c-6.98-1.547-9.98 1.12-9 8h6Z" style="opacity:1"/><path fill="#e85e6c" d="M600.5 479.5h3v3h-3v-3Z" style="opacity:1"/><path fill="#ee96a3" d="M401.5 479.5a12.93 12.93 0 0 0-5 .5c.834 2.701 1.168 5.201 1 7.5-.914 3.228-1.247 6.561-1 10-.99-5.81-1.323-11.81-1-18 2-1.333 4-1.333 6 0Z" style="opacity:1"/><path fill="#fbdfe3" d="M278.5 485.5c2.349-.042 3.682 1.125 4 3.5a14.766 14.766 0 0 1-3 5.5 21.127 21.127 0 0 1-1-9Z" style="opacity:1"/><path fill="#fbe7e9" d="M305.5 488.5c2.152 2.107 3.152 4.774 3 8 .659 4.187-.841 5.52-4.5 4-.919-4.231-.419-8.231 1.5-12Z" style="opacity:1"/><path fill="#fdf0f2" d="M387.5 488.5c1.25.077 2.083.744 2.5 2 .667 3 .667 6 0 9-1.356.88-2.856 1.214-4.5 1a260.977 260.977 0 0 1 2-12Z" style="opacity:1"/><path fill="#f3bcc5" d="M435.5 495.5c.06-.543.393-.876 1-1a13.116 13.116 0 0 1 1 7l-2-6Z" style="opacity:1"/><path fill="#e75a6a" d="M592.5 495.5h3c.384 2.165-.283 3.832-2 5-2.204-1.282-2.538-2.949-1-5Z" style="opacity:1"/><path fill="#ed93a0" d="M328.5 502.5c-.968 2.107-1.302 4.441-1 7-1.138-2.804-1.305-5.804-.5-9 .717.544 1.217 1.211 1.5 2Z" style="opacity:1"/><path fill="#e55162" d="M134.5 501.5a1182.963 1182.963 0 0 0 73 55.5l8 8c-28.201-8.696-51.701-24.529-70.5-47.5a82.763 82.763 0 0 1-10.5-16Z" style="opacity:1"/><path fill="#f0a4af" d="M385.5 509.5v6h-7c1.765-.961 3.765-1.295 6-1-.284-1.915.049-3.581 1-5Z" style="opacity:1"/><path fill="#f1aab4" d="m294.5 514.5 8 2a21.127 21.127 0 0 1-9-1c.124-.607.457-.94 1-1Z" style="opacity:1"/><path fill="#f3b8c1" d="M375.5 514.5c0 .667.333 1 1 1 3.263.582 5.93 1.248 8 2-3.542.313-6.875-.021-10-1-.172-.992.162-1.658 1-2Z" style="opacity:1"/><path fill="#e75968" d="M580.5 517.5c6.204-.186 7.537 2.314 4 7.5-6.097.147-7.43-2.353-4-7.5Z" style="opacity:1"/><path fill="#e65666" d="M568.5 531.5c.997-.03 1.664.47 2 1.5-4.179 7.012-9.846 12.512-17 16.5l-1-1a96.957 96.957 0 0 1 16-17Z" style="opacity:1"/><path fill="#e65364" d="M535.5 559.5h4v4c-3 .333-4.333-1-4-4Z" style="opacity:1"/><path fill="#e65363" d="M520.5 572.5c5.54.869 7.207 3.869 5 9-2.496 2.453-5.162 2.62-8 .5-1.897-4.172-.897-7.338 3-9.5Z" style="opacity:1"/><path fill="#e65466" d="M239.5 576.5c3.81 1.254 3.81 2.254 0 3v-3Z" style="opacity:1"/><path fill="#e8606e" d="M499.5 583.5c4.659-.485 5.992 1.348 4 5.5-4.228.272-5.562-1.562-4-5.5Z" style="opacity:1"/><path fill="#e75a6a" d="M410.5 625.5c-2.235.295-4.235-.039-6-1a683.098 683.098 0 0 0 65-20.5c6.927-3.38 13.76-6.88 20.5-10.5 1.257.35 1.591 1.017 1 2a220.897 220.897 0 0 1-21.5 11.5 753.294 753.294 0 0 0-41 15 75.105 75.105 0 0 1-18 3.5Z" style="opacity:1"/><path fill="#e85d6b" d="M329.5 618.5h3v3h-3v-3Z" style="opacity:1"/><path fill="#e65566" d="M308.5 621.5c4.828-.115 6.161 2.052 4 6.5-1.399.595-2.732.428-4-.5-1.194-2.016-1.194-4.016 0-6Z" style="opacity:1"/><path fill="#f1afb9" d="M404.5 624.5c1.765.961 3.765 1.295 6 1-2.466 1.134-5.133 1.301-8 .5.544-.717 1.211-1.217 2-1.5Z" style="opacity:1"/><path fill="#e96a78" d="M337.5 630.5c3.661-.15 4.661 1.35 3 4.5-3.793.487-4.793-1.013-3-4.5Z" style="opacity:1"/></svg>