<?xml version="1.0" encoding="UTF-8"?>
<!DOCTYPE svg PUBLIC "-//W3C//DTD SVG 1.1//EN" "http://www.w3.org/Graphics/SVG/1.1/DTD/svg11.dtd">
<svg xmlns="http://www.w3.org/2000/svg" version="1.1" width="388px" height="134px" style="shape-rendering:geometricPrecision; text-rendering:geometricPrecision; image-rendering:optimizeQuality; fill-rule:evenodd; clip-rule:evenodd" xmlns:xlink="http://www.w3.org/1999/xlink">
<g><path style="opacity:1" fill="#fdfdfd" d="M -0.5,-0.5 C 128.833,-0.5 258.167,-0.5 387.5,-0.5C 387.5,44.1667 387.5,88.8333 387.5,133.5C 258.167,133.5 128.833,133.5 -0.5,133.5C -0.5,88.8333 -0.5,44.1667 -0.5,-0.5 Z"/></g>
<g><path style="opacity:1" fill="#8bbfcd" d="M 119.5,14.5 C 118.883,14.6107 118.383,14.944 118,15.5C 116.869,18.4453 116.036,21.4453 115.5,24.5C 114.5,24.5 113.5,24.5 112.5,24.5C 112.785,22.712 112.452,21.0453 111.5,19.5C 110.818,20.2427 110.151,20.9094 109.5,21.5C 109.863,18.4373 110.53,15.4373 111.5,12.5C 111.167,11.5 110.833,10.5 110.5,9.5C 109.482,11.5939 108.482,13.5939 107.5,15.5C 107.366,13.7085 107.699,12.0418 108.5,10.5C 109.552,8.74395 111.219,8.07729 113.5,8.5C 112.779,11.8175 112.612,15.1508 113,18.5C 114.681,16.4518 116.181,14.2852 117.5,12C 119.061,11.8119 119.728,12.6453 119.5,14.5 Z"/></g>
<g><path style="opacity:1" fill="#daebef" d="M 69.5,14.5 C 68.5,14.5 67.5,14.5 66.5,14.5C 66.3433,15.8734 66.51,17.2068 67,18.5C 69.8142,21.4675 71.9809,24.8009 73.5,28.5C 76.6056,33.608 79.2723,38.9413 81.5,44.5C 82.8333,44.5 84.1667,44.5 85.5,44.5C 84.0813,45.4511 82.4147,45.7845 80.5,45.5C 80.7373,46.791 80.404,47.791 79.5,48.5C 79.762,47.0222 79.4287,45.6888 78.5,44.5C 71.4012,37.9028 64.4012,31.0694 57.5,24C 56.552,23.5172 55.552,23.3505 54.5,23.5C 54.5,24.5 54.5,25.5 54.5,26.5C 52.6558,25.7961 52.1558,24.4628 53,22.5C 54.6995,21.5939 56.5328,21.2606 58.5,21.5C 58.5,20.5 58.5,19.5 58.5,18.5C 60.5,18.5 62.5,18.5 64.5,18.5C 64.0051,13.9726 65.6718,12.6393 69.5,14.5 Z"/></g>
<g><path style="opacity:1" fill="#daedf1" d="M 94.5,6.5 C 94.5,17.8333 94.5,29.1667 94.5,40.5C 93.2223,40.7822 92.2223,41.4489 91.5,42.5C 89.4667,31.0561 86.8,19.7228 83.5,8.5C 85.6505,12.2806 86.6505,11.6139 86.5,6.5C 89.3387,6.96877 92.0054,6.96877 94.5,6.5 Z"/></g>
<g><path style="opacity:1" fill="#82bdcc" d="M 87.5,8.5 C 89.1238,8.36007 90.2904,9.02674 91,10.5C 91.8265,14.5411 91.6599,18.5411 90.5,22.5C 88.0416,18.2041 87.0416,13.5375 87.5,8.5 Z"/></g>
<g><path style="opacity:1" fill="#c2c2c2" d="M 333.5,22.5 C 327.5,22.5 321.5,22.5 315.5,22.5C 315.5,23.8333 315.5,25.1667 315.5,26.5C 318.167,26.5 320.833,26.5 323.5,26.5C 323.5,33.1667 323.5,39.8333 323.5,46.5C 322.51,40.3554 322.177,34.0221 322.5,27.5C 319.833,27.5 317.167,27.5 314.5,27.5C 314.784,29.4147 314.451,31.0813 313.5,32.5C 313.799,30.396 313.466,28.396 312.5,26.5C 311.091,25.1515 309.757,23.8181 308.5,22.5C 316.771,21.3837 325.104,21.3837 333.5,22.5 Z"/></g>
<g><path style="opacity:1" fill="#605f60" d="M 333.5,22.5 C 334.686,23.7054 334.686,25.0387 333.5,26.5C 331.167,26.5 328.833,26.5 326.5,26.5C 326.824,33.3543 326.491,40.021 325.5,46.5C 325.831,39.1365 325.497,31.8032 324.5,24.5C 323.702,24.9569 323.369,25.6236 323.5,26.5C 320.833,26.5 318.167,26.5 315.5,26.5C 315.5,25.1667 315.5,23.8333 315.5,22.5C 321.5,22.5 327.5,22.5 333.5,22.5 Z"/></g>
<g><path style="opacity:1" fill="#cccbcc" d="M 263.5,22.5 C 258.901,22.2 254.401,22.5333 250,23.5C 249.5,31.1594 249.334,38.8261 249.5,46.5C 248.674,42.0181 248.174,37.3514 248,32.5C 246.549,34.4641 244.716,35.7974 242.5,36.5C 243.458,35.0384 244.624,33.7051 246,32.5C 246.495,30.5273 246.662,28.5273 246.5,26.5C 247.117,26.6107 247.617,26.944 248,27.5C 248.251,25.567 248.751,23.7337 249.5,22C 254.352,21.1849 259.019,21.3516 263.5,22.5 Z"/></g>
<g><path style="opacity:1" fill="#4484a2" d="M 69.5,14.5 C 70.5758,17.6484 71.9091,20.6484 73.5,23.5C 73.7031,25.0443 74.3698,26.3777 75.5,27.5C 75.0431,28.2975 74.3764,28.6309 73.5,28.5C 71.9809,24.8009 69.8142,21.4675 67,18.5C 66.51,17.2068 66.3433,15.8734 66.5,14.5C 67.5,14.5 68.5,14.5 69.5,14.5 Z"/></g>
<g><path style="opacity:1" fill="#fbfbfb" d="M 221.5,36.5 C 221.5,35.5 221.5,34.5 221.5,33.5C 218.316,31.5864 214.649,30.9197 210.5,31.5C 210.5,30.1667 210.5,28.8333 210.5,27.5C 215.5,27.5 220.5,27.5 225.5,27.5C 225.5,32.8333 225.5,38.1667 225.5,43.5C 220.5,43.5 215.5,43.5 210.5,43.5C 210.5,41.5 210.5,39.5 210.5,37.5C 214.371,37.815 218.038,37.4816 221.5,36.5 Z"/></g>
<g><path style="opacity:1" fill="#d3d2d3" d="M 223.5,22.5 C 224.833,22.5 226.167,22.5 227.5,22.5C 227.5,30.8333 227.5,39.1667 227.5,47.5C 228.5,47.5 229.5,47.5 230.5,47.5C 230.335,44.1501 230.502,40.8168 231,37.5C 233.64,35.9003 235.807,36.2336 237.5,38.5C 235.958,37.6993 234.292,37.366 232.5,37.5C 232.751,40.909 232.417,44.2423 231.5,47.5C 222.946,49.295 214.28,49.9617 205.5,49.5C 205.5,48.5 205.5,47.5 205.5,46.5C 211.409,47.4553 217.409,47.7886 223.5,47.5C 223.5,46.5 223.5,45.5 223.5,44.5C 218.833,44.5 214.167,44.5 209.5,44.5C 209.5,41.8333 209.5,39.1667 209.5,36.5C 213.5,36.5 217.5,36.5 221.5,36.5C 218.038,37.4816 214.371,37.815 210.5,37.5C 210.5,39.5 210.5,41.5 210.5,43.5C 215.5,43.5 220.5,43.5 225.5,43.5C 225.5,38.1667 225.5,32.8333 225.5,27.5C 220.5,27.5 215.5,27.5 210.5,27.5C 210.5,28.8333 210.5,30.1667 210.5,31.5C 214.649,30.9197 218.316,31.5864 221.5,33.5C 217.5,33.5 213.5,33.5 209.5,33.5C 209.5,31.1667 209.5,28.8333 209.5,26.5C 214.167,26.5 218.833,26.5 223.5,26.5C 223.5,25.1667 223.5,23.8333 223.5,22.5 Z"/></g>
<g><path style="opacity:1" fill="#deeff3" d="M 98.5,6.5 C 101.388,5.98983 103.721,6.65649 105.5,8.5C 106.222,9.55114 107.222,10.2178 108.5,10.5C 107.699,12.0418 107.366,13.7085 107.5,15.5C 106.146,21.905 104.313,28.2383 102,34.5C 101.503,36.8098 101.337,39.1432 101.5,41.5C 102.822,41.67 103.989,41.3366 105,40.5C 106.501,34.156 108.001,27.8227 109.5,21.5C 110.151,20.9094 110.818,20.2427 111.5,19.5C 112.452,21.0453 112.785,22.712 112.5,24.5C 113.5,24.5 114.5,24.5 115.5,24.5C 116.036,21.4453 116.869,18.4453 118,15.5C 118.383,14.944 118.883,14.6107 119.5,14.5C 118.566,16.2385 118.566,17.9052 119.5,19.5C 120.288,18.2299 121.288,17.2299 122.5,16.5C 117.763,24.5211 112.93,32.5211 108,40.5C 107.51,41.7932 107.343,43.1266 107.5,44.5C 106.732,43.7375 106.232,42.7375 106,41.5C 104.556,43.1554 102.722,43.822 100.5,43.5C 100.715,41.8212 100.048,40.8212 98.5,40.5C 98.5,29.1667 98.5,17.8333 98.5,6.5 Z"/></g>
<g><path style="opacity:1" fill="#83becc" d="M 105.5,8.5 C 102.933,26.9078 101.599,26.9078 101.5,8.5C 102.833,8.5 104.167,8.5 105.5,8.5 Z"/></g>
<g><path style="opacity:1" fill="#807e7f" d="M 263.5,22.5 C 264.833,22.5 265.5,23.1667 265.5,24.5C 260.635,23.2448 255.801,23.2448 251,24.5C 250.5,31.8258 250.334,39.1591 250.5,46.5C 250.167,46.5 249.833,46.5 249.5,46.5C 249.334,38.8261 249.5,31.1594 250,23.5C 254.401,22.5333 258.901,22.2 263.5,22.5 Z"/></g>
<g><path style="opacity:1" fill="#393738" d="M 325.5,46.5 C 324.833,46.5 324.167,46.5 323.5,46.5C 323.5,39.8333 323.5,33.1667 323.5,26.5C 323.369,25.6236 323.702,24.9569 324.5,24.5C 325.497,31.8032 325.831,39.1365 325.5,46.5 Z"/></g>
<g><path style="opacity:1" fill="#bcbbbb" d="M 333.5,26.5 C 331.735,27.4614 329.735,27.7947 327.5,27.5C 327.666,34.175 327.5,40.8417 327,47.5C 325.244,48.985 324.077,48.6516 323.5,46.5C 324.167,46.5 324.833,46.5 325.5,46.5C 326.491,40.021 326.824,33.3543 326.5,26.5C 328.833,26.5 331.167,26.5 333.5,26.5 Z"/></g>
<g><path style="opacity:1" fill="#5fabc4" d="M 79.5,8.5 C 80.8333,8.5 82.1667,8.5 83.5,8.5C 86.8,19.7228 89.4667,31.0561 91.5,42.5C 90.1667,42.5 88.8333,42.5 87.5,42.5C 86.6884,37.5249 85.855,32.5249 85,27.5C 82.5729,21.4313 80.7396,15.098 79.5,8.5 Z"/></g>
<g><path style="opacity:1" fill="#cac9c9" d="M 201.5,46.5 C 201.831,38.8045 201.497,31.1378 200.5,23.5C 199.893,23.6236 199.56,23.9569 199.5,24.5C 198.683,26.9686 198.183,29.6353 198,32.5C 193.667,33.8333 189.333,33.8333 185,32.5C 184.817,29.6353 184.317,26.9686 183.5,24.5C 183.44,23.9569 183.107,23.6236 182.5,23.5C 181.503,31.1378 181.169,38.8045 181.5,46.5C 180.508,38.6841 180.174,30.6841 180.5,22.5C 182.5,22.5 184.5,22.5 186.5,22.5C 186.5,25.5 186.5,28.5 186.5,31.5C 189.833,31.5 193.167,31.5 196.5,31.5C 196.335,28.4816 196.502,25.4816 197,22.5C 198.667,21.1667 200.333,21.1667 202,22.5C 202.823,30.6775 202.656,38.6775 201.5,46.5 Z"/></g>
<g><path style="opacity:1" fill="#63b0ca" d="M 73.5,23.5 C 75.8872,25.9131 78.0539,28.5798 80,31.5C 80.8917,34.9518 82.5584,37.9518 85,40.5C 85.49,41.7932 85.6567,43.1266 85.5,44.5C 84.1667,44.5 82.8333,44.5 81.5,44.5C 79.2723,38.9413 76.6056,33.608 73.5,28.5C 74.3764,28.6309 75.0431,28.2975 75.5,27.5C 74.3698,26.3777 73.7031,25.0443 73.5,23.5 Z"/></g>
<g><path style="opacity:1" fill="#3f3d3e" d="M 183.5,24.5 C 183.335,27.5184 183.502,30.5184 184,33.5C 189,34.8333 194,34.8333 199,33.5C 199.498,30.5184 199.665,27.5184 199.5,24.5C 199.56,23.9569 199.893,23.6236 200.5,23.5C 201.497,31.1378 201.831,38.8045 201.5,46.5C 200.5,46.5 199.5,46.5 198.5,46.5C 198.5,43.1667 198.5,39.8333 198.5,36.5C 193.968,36.1818 189.634,36.5151 185.5,37.5C 184.521,40.6248 184.187,43.9581 184.5,47.5C 183.209,47.7373 182.209,47.404 181.5,46.5C 181.169,38.8045 181.503,31.1378 182.5,23.5C 183.107,23.6236 183.44,23.9569 183.5,24.5 Z"/></g>
<g><path style="opacity:1" fill="#777576" d="M 183.5,24.5 C 184.317,26.9686 184.817,29.6353 185,32.5C 189.333,33.8333 193.667,33.8333 198,32.5C 198.183,29.6353 198.683,26.9686 199.5,24.5C 199.665,27.5184 199.498,30.5184 199,33.5C 194,34.8333 189,34.8333 184,33.5C 183.502,30.5184 183.335,27.5184 183.5,24.5 Z"/></g>
<g><path style="opacity:1" fill="#575556" d="M 223.5,22.5 C 223.5,23.8333 223.5,25.1667 223.5,26.5C 218.833,26.5 214.167,26.5 209.5,26.5C 209.5,28.8333 209.5,31.1667 209.5,33.5C 213.5,33.5 217.5,33.5 221.5,33.5C 221.5,34.5 221.5,35.5 221.5,36.5C 217.5,36.5 213.5,36.5 209.5,36.5C 209.5,39.1667 209.5,41.8333 209.5,44.5C 214.167,44.5 218.833,44.5 223.5,44.5C 223.5,45.5 223.5,46.5 223.5,47.5C 217.409,47.7886 211.409,47.4553 205.5,46.5C 205.334,38.8261 205.5,31.1594 206,23.5C 211.741,22.5251 217.575,22.1918 223.5,22.5 Z"/></g>
<g><path style="opacity:1" fill="#5b5a5b" d="M 308.5,22.5 C 309.757,23.8181 311.091,25.1515 312.5,26.5C 313.466,28.396 313.799,30.396 313.5,32.5C 311.833,33.8333 310.167,35.1667 308.5,36.5C 305.109,34.8746 301.442,33.8746 297.5,33.5C 300.85,33.665 304.183,33.4983 307.5,33C 310.473,31.7758 311.14,29.7758 309.5,27C 305.514,26.5012 301.514,26.3345 297.5,26.5C 297.631,25.6236 297.298,24.9569 296.5,24.5C 295.335,31.8107 295.169,39.144 296,46.5C 296.181,43.3054 296.681,40.3054 297.5,37.5C 297.5,40.5 297.5,43.5 297.5,46.5C 296.295,47.6857 294.961,47.6857 293.5,46.5C 293.169,38.8045 293.503,31.1378 294.5,23.5C 299.1,22.5565 303.767,22.2232 308.5,22.5 Z"/></g>
<g><path style="opacity:1" fill="#c2c1c1" d="M 297.5,26.5 C 301.514,26.3345 305.514,26.5012 309.5,27C 311.14,29.7758 310.473,31.7758 307.5,33C 304.183,33.4983 300.85,33.665 297.5,33.5C 297.5,31.1667 297.5,28.8333 297.5,26.5 Z"/></g>
<g><path style="opacity:1" fill="#fefefe" d="M 298.5,27.5 C 301.833,27.5 305.167,27.5 308.5,27.5C 308.5,28.8333 308.5,30.1667 308.5,31.5C 305.167,31.5 301.833,31.5 298.5,31.5C 298.5,30.1667 298.5,28.8333 298.5,27.5 Z"/></g>
<g><path style="opacity:1" fill="#b1d4de" d="M 60.5,42.5 C 56.0457,41.3743 52.379,39.0409 49.5,35.5C 53.0794,35.2343 53.4127,33.901 50.5,31.5C 52.7244,30.2199 54.7244,30.5532 56.5,32.5C 57.4287,33.6888 57.762,35.0222 57.5,36.5C 53.1074,36.4568 52.7741,36.9568 56.5,38C 58.0414,39.3712 59.3747,40.8712 60.5,42.5 Z"/></g>
<g><path style="opacity:1" fill="#c0bfc0" d="M 185.5,37.5 C 189.634,36.5151 193.968,36.1818 198.5,36.5C 198.5,39.8333 198.5,43.1667 198.5,46.5C 199.5,46.5 200.5,46.5 201.5,46.5C 201.5,47.5 201.5,48.5 201.5,49.5C 200.167,49.5 198.833,49.5 197.5,49.5C 197.5,45.5 197.5,41.5 197.5,37.5C 193.5,37.5 189.5,37.5 185.5,37.5 Z"/></g>
<g><path style="opacity:1" fill="#88c5d6" d="M 94.5,6.5 C 94.8333,6.5 95.1667,6.5 95.5,6.5C 96.1667,50.5 96.8333,50.5 97.5,6.5C 97.8333,6.5 98.1667,6.5 98.5,6.5C 98.5,17.8333 98.5,29.1667 98.5,40.5C 97.1667,41.8333 95.8333,41.8333 94.5,40.5C 94.5,29.1667 94.5,17.8333 94.5,6.5 Z"/></g>
<g><path style="opacity:1" fill="#4a97b4" d="M 95.5,6.5 C 96.1667,6.5 96.8333,6.5 97.5,6.5C 96.8333,50.5 96.1667,50.5 95.5,6.5 Z"/></g>
<g><path style="opacity:1" fill="#5eaec6" d="M 109.5,21.5 C 108.001,27.8227 106.501,34.156 105,40.5C 103.989,41.3366 102.822,41.67 101.5,41.5C 101.337,39.1432 101.503,36.8098 102,34.5C 104.313,28.2383 106.146,21.905 107.5,15.5C 108.482,13.5939 109.482,11.5939 110.5,9.5C 110.833,10.5 111.167,11.5 111.5,12.5C 110.53,15.4373 109.863,18.4373 109.5,21.5 Z"/></g>
<g><path style="opacity:1" fill="#cecece" d="M 223.5,22.5 C 217.575,22.1918 211.741,22.5251 206,23.5C 205.5,31.1594 205.334,38.8261 205.5,46.5C 204.344,38.6775 204.177,30.6775 205,22.5C 211.266,21.1742 217.432,21.1742 223.5,22.5 Z"/></g>
<g><path style="opacity:1" fill="#4f4e4e" d="M 265.5,24.5 C 266.5,24.8333 267.167,25.5 267.5,26.5C 267.656,29.0661 267.322,31.5661 266.5,34C 270.72,38.8454 270.386,43.3454 265.5,47.5C 260.305,47.8205 255.305,47.4872 250.5,46.5C 250.334,39.1591 250.5,31.8258 251,24.5C 255.801,23.2448 260.635,23.2448 265.5,24.5 Z"/></g>
<g><path style="opacity:1" fill="#e1e0e0" d="M 253.5,26.5 C 256.85,26.335 260.183,26.5017 263.5,27C 264.935,29.2672 264.602,31.2672 262.5,33C 259.518,33.498 256.518,33.6646 253.5,33.5C 253.5,31.1667 253.5,28.8333 253.5,26.5 Z"/></g>
<g><path style="opacity:1" fill="#353334" d="M 297.5,26.5 C 297.5,28.8333 297.5,31.1667 297.5,33.5C 301.442,33.8746 305.109,34.8746 308.5,36.5C 307.243,37.6226 307.576,38.2893 309.5,38.5C 309.321,40.9541 309.987,43.1208 311.5,45C 311.164,46.0299 310.497,46.5299 309.5,46.5C 308.921,43.6689 307.588,41.3356 305.5,39.5C 305.586,38.5041 305.252,37.6708 304.5,37C 301.961,36.2042 299.628,36.3709 297.5,37.5C 296.681,40.3054 296.181,43.3054 296,46.5C 295.169,39.144 295.335,31.8107 296.5,24.5C 297.298,24.9569 297.631,25.6236 297.5,26.5 Z"/></g>
<g><path style="opacity:1" fill="#599db8" d="M 138.5,26.5 C 137.761,26.369 137.094,26.5357 136.5,27C 129.572,33.4228 123.238,40.2562 117.5,47.5C 116.292,48.2341 114.959,48.5674 113.5,48.5C 113.498,46.1691 114.331,44.1691 116,42.5C 122.194,36.3063 128.36,30.1396 134.5,24C 135.793,23.51 137.127,23.3433 138.5,23.5C 138.5,24.5 138.5,25.5 138.5,26.5 Z"/></g>
<g><path style="opacity:1" fill="#4d4c4c" d="M 227.5,22.5 C 232.179,22.3342 236.845,22.5008 241.5,23C 243.365,23.9643 245.032,25.1309 246.5,26.5C 246.662,28.5273 246.495,30.5273 246,32.5C 244.624,33.7051 243.458,35.0384 242.5,36.5C 241.876,36.9169 241.543,37.5836 241.5,38.5C 242.837,40.8593 244.17,43.1927 245.5,45.5C 245.167,45.8333 244.833,46.1667 244.5,46.5C 241.72,44.0644 239.386,41.3977 237.5,38.5C 235.807,36.2336 233.64,35.9003 231,37.5C 230.502,40.8168 230.335,44.1501 230.5,47.5C 229.5,47.5 228.5,47.5 227.5,47.5C 227.5,39.1667 227.5,30.8333 227.5,22.5 Z"/></g>
<g><path style="opacity:1" fill="#a19fa0" d="M 242.5,32.5 C 242.5,30.8333 242.5,29.1667 242.5,27.5C 238.833,27.5 235.167,27.5 231.5,27.5C 231.5,29.1667 231.5,30.8333 231.5,32.5C 234.833,32.5 238.167,32.5 241.5,32.5C 241.389,33.1174 241.056,33.6174 240.5,34C 237.5,34.6667 234.5,34.6667 231.5,34C 228.93,31.282 228.93,28.6153 231.5,26C 235.537,25.3933 239.537,25.56 243.5,26.5C 243.795,28.7354 243.461,30.7354 242.5,32.5 Z"/></g>
<g><path style="opacity:1" fill="#f8f7f8" d="M 242.5,32.5 C 242.167,32.5 241.833,32.5 241.5,32.5C 238.167,32.5 234.833,32.5 231.5,32.5C 231.5,30.8333 231.5,29.1667 231.5,27.5C 235.167,27.5 238.833,27.5 242.5,27.5C 242.5,29.1667 242.5,30.8333 242.5,32.5 Z"/></g>
<g><path style="opacity:1" fill="#f8f7f7" d="M 265.5,38.5 C 266.833,39.8333 266.833,41.1667 265.5,42.5C 261.936,43.4227 258.269,43.756 254.5,43.5C 254.5,41.5 254.5,39.5 254.5,37.5C 258.269,37.244 261.936,37.5773 265.5,38.5 Z"/></g>
<g><path style="opacity:1" fill="#bdbcbc" d="M 305.5,39.5 C 303.521,37.8325 301.188,37.1658 298.5,37.5C 298.81,40.7131 298.477,43.7131 297.5,46.5C 297.5,43.5 297.5,40.5 297.5,37.5C 299.628,36.3709 301.961,36.2042 304.5,37C 305.252,37.6708 305.586,38.5041 305.5,39.5 Z"/></g>
<g><path style="opacity:1" fill="#5aa1bc" d="M 79.5,48.5 C 78.1266,48.6567 76.7932,48.49 75.5,48C 68.8372,40.5115 61.8372,33.3448 54.5,26.5C 54.5,25.5 54.5,24.5 54.5,23.5C 55.552,23.3505 56.552,23.5172 57.5,24C 64.4012,31.0694 71.4012,37.9028 78.5,44.5C 79.4287,45.6888 79.762,47.0222 79.5,48.5 Z"/></g>
<g><path style="opacity:1" fill="#f3f9fa" d="M 79.5,8.5 C 80.7396,15.098 82.5729,21.4313 85,27.5C 85.855,32.5249 86.6884,37.5249 87.5,42.5C 88.8333,42.5 90.1667,42.5 91.5,42.5C 92.2223,41.4489 93.2223,40.7822 94.5,40.5C 95.8333,41.8333 97.1667,41.8333 98.5,40.5C 100.048,40.8212 100.715,41.8212 100.5,43.5C 102.722,43.822 104.556,43.1554 106,41.5C 106.232,42.7375 106.732,43.7375 107.5,44.5C 110.997,43.9403 113.497,41.9403 115,38.5C 117.012,33.8269 119.012,29.1602 121,24.5C 124.847,22.1807 126.68,18.8474 126.5,14.5C 125.5,14.5 124.5,14.5 123.5,14.5C 124.919,13.5489 126.585,13.2155 128.5,13.5C 128.5,15.1667 128.5,16.8333 128.5,18.5C 130.5,18.5 132.5,18.5 134.5,18.5C 134.5,19.5 134.5,20.5 134.5,21.5C 139.027,21.0051 140.361,22.6718 138.5,26.5C 138.5,25.5 138.5,24.5 138.5,23.5C 137.127,23.3433 135.793,23.51 134.5,24C 128.36,30.1396 122.194,36.3063 116,42.5C 114.331,44.1691 113.498,46.1691 113.5,48.5C 114.959,48.5674 116.292,48.2341 117.5,47.5C 124.5,40.8333 131.5,34.1667 138.5,27.5C 140.265,28.4614 142.265,28.7947 144.5,28.5C 144.5,30.1667 144.5,31.8333 144.5,33.5C 145.791,33.2627 146.791,33.596 147.5,34.5C 145.302,34.1201 143.635,34.7868 142.5,36.5C 135.227,41.2459 127.56,45.4125 119.5,49C 117.845,50.4443 117.178,52.2776 117.5,54.5C 122.664,51.6568 127.997,48.9901 133.5,46.5C 135.482,46.0046 137.482,45.5046 139.5,45C 144.686,40.2212 146.686,41.7212 145.5,49.5C 142.058,48.8283 139.391,49.8283 137.5,52.5C 131.456,53.6255 125.456,54.9589 119.5,56.5C 119.5,57.8333 119.5,59.1667 119.5,60.5C 126.961,59.7493 133.961,57.7493 140.5,54.5C 141.833,54.5 143.167,54.5 144.5,54.5C 144.196,55.1499 143.863,55.8165 143.5,56.5C 138.23,58.2801 132.897,59.7801 127.5,61C 135.493,61.4997 143.493,61.6664 151.5,61.5C 151.5,59.8333 151.5,58.1667 151.5,56.5C 152.833,56.5 154.167,56.5 155.5,56.5C 154.959,59.9601 154.959,63.2935 155.5,66.5C 155.5,65.1667 154.833,64.5 153.5,64.5C 148.544,63.1718 143.211,62.5051 137.5,62.5C 132.167,62.6667 126.833,62.8333 121.5,63C 119.078,64.888 119.078,66.888 121.5,69C 120.584,69.2784 119.918,69.7784 119.5,70.5C 119.5,71.8333 119.5,73.1667 119.5,74.5C 118.833,75.1667 118.167,75.8333 117.5,76.5C 117.178,78.7224 117.845,80.5557 119.5,82C 124.854,84.8339 130.187,87.6672 135.5,90.5C 135.61,93.1011 135.943,95.7678 136.5,98.5C 137.833,99.1667 138.833,100.167 139.5,101.5C 140.689,102.429 142.022,102.762 143.5,102.5C 142.432,103.434 141.099,103.768 139.5,103.5C 139.739,105.467 139.406,107.301 138.5,109C 136.537,109.844 135.204,109.344 134.5,107.5C 138.071,108.757 139.238,107.424 138,103.5C 136.223,101.21 134.056,99.5434 131.5,98.5C 126.703,93.202 121.703,88.0354 116.5,83C 115.552,82.5172 114.552,82.3505 113.5,82.5C 113.498,84.8309 114.331,86.8309 116,88.5C 120.086,92.416 123.919,96.416 127.5,100.5C 126.432,101.434 125.099,101.768 123.5,101.5C 123.351,102.552 123.517,103.552 124,104.5C 126.334,106.252 128.167,108.419 129.5,111C 131.061,111.188 131.728,110.355 131.5,108.5C 132.434,109.568 132.768,110.901 132.5,112.5C 130.856,112.714 129.356,112.38 128,111.5C 127.802,113.382 127.302,115.048 126.5,116.5C 123.185,107.011 118.352,98.3439 112,90.5C 111.51,89.2068 111.343,87.8734 111.5,86.5C 110.167,86.5 108.833,86.5 107.5,86.5C 107.232,88.099 107.566,89.4324 108.5,90.5C 108.762,91.9778 108.429,93.3112 107.5,94.5C 106.828,93.0508 106.161,91.7175 105.5,90.5C 104.713,88.8958 103.38,88.2291 101.5,88.5C 100.778,88.9175 100.278,89.5842 100,90.5C 97.7265,88.1084 95.5598,88.1084 93.5,90.5C 90.7646,89.1538 88.0979,87.8204 85.5,86.5C 84.1667,86.5 82.8333,86.5 81.5,86.5C 78.5367,94.0211 74.37,101.021 69,107.5C 67.5699,110.353 66.7366,113.353 66.5,116.5C 67.5,116.5 68.5,116.5 69.5,116.5C 68.4479,118.256 66.7812,118.923 64.5,118.5C 64.5,116.833 64.5,115.167 64.5,113.5C 60.7593,114.401 58.7593,113.068 58.5,109.5C 56.5328,109.739 54.6995,109.406 53,108.5C 52.1558,106.537 52.6558,105.204 54.5,104.5C 54.5,105.5 54.5,106.5 54.5,107.5C 55.791,107.737 56.791,107.404 57.5,106.5C 63.4803,102.685 68.3136,97.6852 72,91.5C 75.8853,89.4657 78.3853,86.4657 79.5,82.5C 78.1266,82.3433 76.7932,82.51 75.5,83C 70.3246,88.3422 64.9913,93.5089 59.5,98.5C 58.8688,96.5522 57.8688,94.7189 56.5,93C 58.0674,90.259 60.4007,89.0923 63.5,89.5C 63.5,88.5 63.5,87.5 63.5,86.5C 67.0039,83.5514 71.0039,81.5514 75.5,80.5C 75.5,79.1667 75.5,77.8333 75.5,76.5C 74.5,75.8333 73.5,75.1667 72.5,74.5C 74.256,73.4479 74.9227,71.7812 74.5,69.5C 73.448,69.6495 72.448,69.4828 71.5,69C 74.1667,66.6667 74.1667,64.3333 71.5,62C 74.8943,60.4348 75.2277,58.4348 72.5,56C 73.7375,55.7679 74.7375,55.2679 75.5,54.5C 75.5,53.1667 75.5,51.8333 75.5,50.5C 73.0987,49.9512 70.7654,49.1178 68.5,48C 66.0922,45.6023 63.4255,43.7689 60.5,42.5C 59.3747,40.8712 58.0414,39.3712 56.5,38C 52.7741,36.9568 53.1074,36.4568 57.5,36.5C 57.762,35.0222 57.4287,33.6888 56.5,32.5C 54.7244,30.5532 52.7244,30.2199 50.5,31.5C 53.4127,33.901 53.0794,35.2343 49.5,35.5C 48.1667,35.5 46.8333,35.5 45.5,35.5C 45.5,36.5 45.5,37.5 45.5,38.5C 43.6393,34.6718 44.9726,33.0051 49.5,33.5C 49.2148,31.712 49.5481,30.0453 50.5,28.5C 51.7362,29.2458 53.0695,29.5792 54.5,29.5C 54.5,28.5 54.5,27.5 54.5,26.5C 61.8372,33.3448 68.8372,40.5115 75.5,48C 76.7932,48.49 78.1266,48.6567 79.5,48.5C 80.404,47.791 80.7373,46.791 80.5,45.5C 82.4147,45.7845 84.0813,45.4511 85.5,44.5C 85.6567,43.1266 85.49,41.7932 85,40.5C 82.5584,37.9518 80.8917,34.9518 80,31.5C 78.0539,28.5798 75.8872,25.9131 73.5,23.5C 71.9091,20.6484 70.5758,17.6484 69.5,14.5C 70.1499,14.8039 70.8165,15.1373 71.5,15.5C 72.4519,13.9547 72.7852,12.288 72.5,10.5C 74.5824,10.472 76.4157,11.1387 78,12.5C 78.21,10.9419 78.71,9.60853 79.5,8.5 Z"/></g>
<g><path style="opacity:1" fill="#5ea6c0" d="M 123.5,14.5 C 124.5,14.5 125.5,14.5 126.5,14.5C 126.68,18.8474 124.847,22.1807 121,24.5C 119.012,29.1602 117.012,33.8269 115,38.5C 113.497,41.9403 110.997,43.9403 107.5,44.5C 107.343,43.1266 107.51,41.7932 108,40.5C 112.93,32.5211 117.763,24.5211 122.5,16.5C 122.328,15.5084 122.662,14.8417 123.5,14.5 Z"/></g>
<g><path style="opacity:1" fill="#83bbcb" d="M 139.5,29.5 C 140.5,29.5 141.5,29.5 142.5,29.5C 141.313,32.3666 139.313,34.7 136.5,36.5C 135.386,35.277 135.219,33.9437 136,32.5C 137.518,31.8366 138.685,30.8366 139.5,29.5 Z"/></g>
<g><path style="opacity:1" fill="#78b6c7" d="M 129.5,19.5 C 130.497,19.4701 131.164,19.9701 131.5,21C 129.477,23.1749 128.143,25.6749 127.5,28.5C 126.022,28.762 124.689,28.4287 123.5,27.5C 125.14,24.5319 127.14,21.8652 129.5,19.5 Z"/></g>
<g><path style="opacity:1" fill="#7dbac9" d="M 73.5,12.5 C 74.8221,12.33 75.9887,12.6634 77,13.5C 77.6423,16.2772 78.4756,18.9439 79.5,21.5C 79.1667,22.5 78.8333,23.5 78.5,24.5C 76.0412,20.78 74.3746,16.78 73.5,12.5 Z"/></g>
<g><path style="opacity:1" fill="#a1d1df" d="M 138.5,26.5 C 138.5,26.8333 138.5,27.1667 138.5,27.5C 131.5,34.1667 124.5,40.8333 117.5,47.5C 123.238,40.2562 129.572,33.4228 136.5,27C 137.094,26.5357 137.761,26.369 138.5,26.5 Z"/></g>
<g><path style="opacity:1" fill="#579bb6" d="M 133.5,46.5 C 127.997,48.9901 122.664,51.6568 117.5,54.5C 117.178,52.2776 117.845,50.4443 119.5,49C 127.56,45.4125 135.227,41.2459 142.5,36.5C 144.117,35.962 145.784,35.6287 147.5,35.5C 147.5,36.5 147.5,37.5 147.5,38.5C 142.217,40.1398 137.551,42.8065 133.5,46.5 Z"/></g>
<g><path style="opacity:1" fill="#599cb7" d="M 49.5,35.5 C 52.379,39.0409 56.0457,41.3743 60.5,42.5C 63.4255,43.7689 66.0922,45.6023 68.5,48C 70.7654,49.1178 73.0987,49.9512 75.5,50.5C 75.5,51.8333 75.5,53.1667 75.5,54.5C 69.9816,51.8568 64.3149,49.3568 58.5,47C 54.9765,43.7382 50.9765,41.2382 46.5,39.5C 45.8333,39.5 45.5,39.1667 45.5,38.5C 45.5,37.5 45.5,36.5 45.5,35.5C 46.8333,35.5 48.1667,35.5 49.5,35.5 Z"/></g>
<g><path style="opacity:1" fill="#b9b8b8" d="M 265.5,38.5 C 261.936,37.5773 258.269,37.244 254.5,37.5C 254.5,39.5 254.5,41.5 254.5,43.5C 258.269,43.756 261.936,43.4227 265.5,42.5C 261.971,44.4228 257.971,45.0894 253.5,44.5C 253.5,41.8333 253.5,39.1667 253.5,36.5C 257.971,35.9106 261.971,36.5772 265.5,38.5 Z"/></g>
<g><path style="opacity:1" fill="#d6d5d5" d="M 290.5,22.5 C 284.575,22.1918 278.741,22.5251 273,23.5C 272.178,31.3446 272.344,39.0113 273.5,46.5C 279.31,47.4896 285.31,47.8229 291.5,47.5C 291.5,46.5 291.5,45.5 291.5,44.5C 286.5,44.5 281.5,44.5 276.5,44.5C 275.527,42.0521 275.194,39.3854 275.5,36.5C 279.833,36.5 284.167,36.5 288.5,36.5C 284.702,37.4834 280.702,37.8168 276.5,37.5C 276.5,39.5 276.5,41.5 276.5,43.5C 281.833,43.5 287.167,43.5 292.5,43.5C 292.822,37.642 292.489,31.9753 291.5,26.5C 291.5,25.1667 291.5,23.8333 291.5,22.5C 297.31,21.2891 302.977,21.2891 308.5,22.5C 303.767,22.2232 299.1,22.5565 294.5,23.5C 293.503,31.1378 293.169,38.8045 293.5,46.5C 292.691,47.4687 291.691,48.3021 290.5,49C 284.5,49.6667 278.5,49.6667 272.5,49C 271.382,47.9264 270.382,46.7598 269.5,45.5C 268.378,46.6302 267.044,47.2969 265.5,47.5C 270.386,43.3454 270.72,38.8454 266.5,34C 267.322,31.5661 267.656,29.0661 267.5,26.5C 268.5,26.5 269.5,26.5 270.5,26.5C 270.227,24.549 270.893,23.049 272.5,22C 278.681,21.1808 284.681,21.3475 290.5,22.5 Z"/></g>
<g><path style="opacity:1" fill="#a3a2a2" d="M 276.5,26.5 C 276.5,28.5 276.5,30.5 276.5,32.5C 280.514,32.3345 284.514,32.5012 288.5,33C 289.791,34.2917 289.791,35.4583 288.5,36.5C 284.627,34.5698 280.294,33.9031 275.5,34.5C 275.194,31.6146 275.527,28.9479 276.5,26.5 Z"/></g>
<g><path style="opacity:1" fill="#f8f8f8" d="M 276.5,26.5 C 281.5,26.5 286.5,26.5 291.5,26.5C 292.489,31.9753 292.822,37.642 292.5,43.5C 287.167,43.5 281.833,43.5 276.5,43.5C 276.5,41.5 276.5,39.5 276.5,37.5C 280.702,37.8168 284.702,37.4834 288.5,36.5C 289.791,35.4583 289.791,34.2917 288.5,33C 284.514,32.5012 280.514,32.3345 276.5,32.5C 276.5,30.5 276.5,28.5 276.5,26.5 Z"/></g>
<g><path style="opacity:1" fill="#848384" d="M 290.5,22.5 C 290.833,22.5 291.167,22.5 291.5,22.5C 291.5,23.8333 291.5,25.1667 291.5,26.5C 286.5,26.5 281.5,26.5 276.5,26.5C 280.684,25.8336 285.018,25.1669 289.5,24.5C 284.281,23.1958 279.114,23.1958 274,24.5C 273.5,31.8258 273.334,39.1591 273.5,46.5C 272.344,39.0113 272.178,31.3446 273,23.5C 278.741,22.5251 284.575,22.1918 290.5,22.5 Z"/></g>
<g><path style="opacity:1" fill="#3b3839" d="M 276.5,26.5 C 275.527,28.9479 275.194,31.6146 275.5,34.5C 280.294,33.9031 284.627,34.5698 288.5,36.5C 284.167,36.5 279.833,36.5 275.5,36.5C 275.194,39.3854 275.527,42.0521 276.5,44.5C 280.647,45.3247 284.981,45.8247 289.5,46C 284.177,46.4994 278.844,46.666 273.5,46.5C 273.334,39.1591 273.5,31.8258 274,24.5C 279.114,23.1958 284.281,23.1958 289.5,24.5C 285.018,25.1669 280.684,25.8336 276.5,26.5 Z"/></g>
<g><path style="opacity:1" fill="#bdd7e0" d="M 147.5,34.5 C 148.886,36.6126 148.552,38.6126 146.5,40.5C 148.045,41.4519 149.712,41.7852 151.5,41.5C 151.528,43.5824 150.861,45.4157 149.5,47C 150.793,47.49 152.127,47.6567 153.5,47.5C 153.809,52.8955 151.142,55.2288 145.5,54.5C 147.406,53.5176 149.406,52.5176 151.5,51.5C 150.333,51.1667 149.167,50.8333 148,50.5C 144.8,51.0683 141.633,51.7349 138.5,52.5C 138.167,52.5 137.833,52.5 137.5,52.5C 139.391,49.8283 142.058,48.8283 145.5,49.5C 146.686,41.7212 144.686,40.2212 139.5,45C 137.482,45.5046 135.482,46.0046 133.5,46.5C 137.551,42.8065 142.217,40.1398 147.5,38.5C 147.5,37.5 147.5,36.5 147.5,35.5C 145.784,35.6287 144.117,35.962 142.5,36.5C 143.635,34.7868 145.302,34.1201 147.5,34.5 Z"/></g>
<g><path style="opacity:1" fill="#6a6869" d="M 276.5,44.5 C 281.5,44.5 286.5,44.5 291.5,44.5C 291.5,45.5 291.5,46.5 291.5,47.5C 285.31,47.8229 279.31,47.4896 273.5,46.5C 278.844,46.666 284.177,46.4994 289.5,46C 284.981,45.8247 280.647,45.3247 276.5,44.5 Z"/></g>
<g><path style="opacity:1" fill="#b8b8b8" d="M 309.5,38.5 C 312.337,41.1313 313.67,44.4646 313.5,48.5C 311.517,48.8432 310.183,48.1765 309.5,46.5C 310.497,46.5299 311.164,46.0299 311.5,45C 309.987,43.1208 309.321,40.9541 309.5,38.5 Z"/></g>
<g><path style="opacity:1" fill="#4486a3" d="M 145.5,54.5 C 145.167,54.5 144.833,54.5 144.5,54.5C 143.167,54.5 141.833,54.5 140.5,54.5C 138.007,54.8693 137.34,54.2027 138.5,52.5C 141.633,51.7349 144.8,51.0683 148,50.5C 149.167,50.8333 150.333,51.1667 151.5,51.5C 149.406,52.5176 147.406,53.5176 145.5,54.5 Z"/></g>
<g><path style="opacity:1" fill="#676666" d="M 233.5,52.5 C 239.833,52.5 246.167,52.5 252.5,52.5C 252.5,53.8333 252.5,55.1667 252.5,56.5C 250.167,56.5 247.833,56.5 245.5,56.5C 247.292,55.6909 249.292,55.1909 251.5,55C 249.833,54.8333 248.167,54.6667 246.5,54.5C 244.36,54.5561 242.694,55.2227 241.5,56.5C 238.833,56.5 236.167,56.5 233.5,56.5C 233.5,55.1667 233.5,53.8333 233.5,52.5 Z"/></g>
<g><path style="opacity:1" fill="#5ea5bf" d="M 39.5,48.5 C 49.8454,51.1953 60.1787,54.0287 70.5,57C 71.9733,57.7096 72.6399,58.8762 72.5,60.5C 67.0371,59.7922 61.7038,58.4589 56.5,56.5C 50.7244,56.1307 45.0577,55.1307 39.5,53.5C 39.5,51.8333 39.5,50.1667 39.5,48.5 Z"/></g>
<g><path style="opacity:1" fill="#66b4cc" d="M 137.5,52.5 C 137.833,52.5 138.167,52.5 138.5,52.5C 137.34,54.2027 138.007,54.8693 140.5,54.5C 133.961,57.7493 126.961,59.7493 119.5,60.5C 119.5,59.1667 119.5,57.8333 119.5,56.5C 125.456,54.9589 131.456,53.6255 137.5,52.5 Z"/></g>
<g><path style="opacity:1" fill="#c5c5c5" d="M 233.5,52.5 C 233.5,53.8333 233.5,55.1667 233.5,56.5C 232.508,63.6476 232.175,70.9809 232.5,78.5C 230.5,78.5 228.5,78.5 226.5,78.5C 226.5,69.8333 226.5,61.1667 226.5,52.5C 228.833,52.5 231.167,52.5 233.5,52.5 Z"/></g>
<g><path style="opacity:1" fill="#2e2c2d" d="M 245.5,56.5 C 245.167,56.5 244.833,56.5 244.5,56.5C 243.672,62.9874 243.172,69.654 243,76.5C 242.828,69.654 242.328,62.9874 241.5,56.5C 242.694,55.2227 244.36,54.5561 246.5,54.5C 248.167,54.6667 249.833,54.8333 251.5,55C 249.292,55.1909 247.292,55.6909 245.5,56.5 Z"/></g>
<g><path style="opacity:1" fill="#616061" d="M 259.5,63.5 C 257.78,61.3419 256.947,58.6752 257,55.5C 256.333,62.5 256.333,69.5 257,76.5C 257.181,73.3054 257.681,70.3054 258.5,67.5C 258.5,70.8333 258.5,74.1667 258.5,77.5C 257.5,77.5 256.5,77.5 255.5,77.5C 255.5,69.5 255.5,61.5 255.5,53.5C 256.833,53.5 258.167,53.5 259.5,53.5C 259.5,56.8333 259.5,60.1667 259.5,63.5 Z"/></g>
<g><path style="opacity:1" fill="#cdcccc" d="M 272.5,54.5 C 272.5,57.5 272.5,60.5 272.5,63.5C 268.167,63.5 263.833,63.5 259.5,63.5C 259.5,60.1667 259.5,56.8333 259.5,53.5C 258.167,53.5 256.833,53.5 255.5,53.5C 255.5,61.5 255.5,69.5 255.5,77.5C 254.671,70.6787 254.171,63.6787 254,56.5C 251.619,57.435 249.119,57.7683 246.5,57.5C 246.666,64.175 246.5,70.8417 246,77.5C 244.301,78.4061 242.467,78.7394 240.5,78.5C 240.5,71.5 240.5,64.5 240.5,57.5C 237.941,57.8016 235.607,57.4682 233.5,56.5C 236.167,56.5 238.833,56.5 241.5,56.5C 241.5,63.5 241.5,70.5 241.5,77.5C 242.5,77.5 243.5,77.5 244.5,77.5C 244.5,70.5 244.5,63.5 244.5,56.5C 244.833,56.5 245.167,56.5 245.5,56.5C 247.833,56.5 250.167,56.5 252.5,56.5C 252.5,55.1667 252.5,53.8333 252.5,52.5C 255.068,51.5504 257.568,51.5504 260,52.5C 260.498,55.8168 260.665,59.1501 260.5,62.5C 264.167,62.5 267.833,62.5 271.5,62.5C 271.194,59.6146 271.527,56.9479 272.5,54.5 Z"/></g>
<g><path style="opacity:1" fill="#5f5d5e" d="M 241.5,56.5 C 242.328,62.9874 242.828,69.654 243,76.5C 243.172,69.654 243.672,62.9874 244.5,56.5C 244.5,63.5 244.5,70.5 244.5,77.5C 243.5,77.5 242.5,77.5 241.5,77.5C 241.5,70.5 241.5,63.5 241.5,56.5 Z"/></g>
<g><path style="opacity:1" fill="#ddeff3" d="M 46.5,39.5 C 50.9765,41.2382 54.9765,43.7382 58.5,47C 64.3149,49.3568 69.9816,51.8568 75.5,54.5C 74.7375,55.2679 73.7375,55.7679 72.5,56C 75.2277,58.4348 74.8943,60.4348 71.5,62C 74.1667,64.3333 74.1667,66.6667 71.5,69C 72.448,69.4828 73.448,69.6495 74.5,69.5C 74.9227,71.7812 74.256,73.4479 72.5,74.5C 72.5,73.1667 72.5,71.8333 72.5,70.5C 69.2107,71.3739 65.8774,72.0405 62.5,72.5C 62.9528,71.5416 63.6195,70.7083 64.5,70C 55.324,69.8297 46.324,69.3297 37.5,68.5C 48.505,68.6665 59.505,68.4998 70.5,68C 71.056,67.6174 71.3893,67.1174 71.5,66.5C 71.5,65.5 71.5,64.5 71.5,63.5C 60.1667,63.5 48.8333,63.5 37.5,63.5C 37.5,61.1667 37.5,58.8333 37.5,56.5C 39.1667,56.5 40.8333,56.5 42.5,56.5C 42.7135,58.1439 42.3802,59.6439 41.5,61C 48.856,61.8313 56.1893,61.6646 63.5,60.5C 60.4985,60.1301 58.1652,58.7968 56.5,56.5C 61.7038,58.4589 67.0371,59.7922 72.5,60.5C 72.6399,58.8762 71.9733,57.7096 70.5,57C 60.1787,54.0287 49.8454,51.1953 39.5,48.5C 40.5676,47.5655 41.901,47.2322 43.5,47.5C 43.5198,45.857 42.8532,44.5237 41.5,43.5C 43.3634,42.3112 45.0301,40.9779 46.5,39.5 Z"/></g>
<g><path style="opacity:1" fill="#cccbcb" d="M 220.5,53.5 C 221.568,52.5655 222.901,52.2322 224.5,52.5C 224.5,61.1667 224.5,69.8333 224.5,78.5C 222.533,78.7394 220.699,78.4061 219,77.5C 218.667,73.8333 218.333,70.1667 218,66.5C 217.273,69.5097 215.44,71.5097 212.5,72.5C 211.702,72.0431 211.369,71.3764 211.5,70.5C 214.378,69.4378 216.378,67.4378 217.5,64.5C 218.117,64.3893 218.617,64.056 219,63.5C 219.333,67.8333 219.667,72.1667 220,76.5C 221.011,77.3366 222.178,77.67 223.5,77.5C 223.5,69.5 223.5,61.5 223.5,53.5C 222.5,53.5 221.5,53.5 220.5,53.5 Z"/></g>
<g><path style="opacity:1" fill="#9a9899" d="M 275.5,76.5 C 275.831,69.1365 275.497,61.8032 274.5,54.5C 273.513,57.7683 273.18,61.1016 273.5,64.5C 268.637,64.8195 263.97,64.4861 259.5,63.5C 263.833,63.5 268.167,63.5 272.5,63.5C 272.5,60.5 272.5,57.5 272.5,54.5C 273.287,52.8958 274.62,52.2291 276.5,52.5C 276.826,60.6841 276.492,68.6841 275.5,76.5 Z"/></g>
<g><path style="opacity:1" fill="#5c9fba" d="M 37.5,63.5 C 48.8333,63.5 60.1667,63.5 71.5,63.5C 71.5,64.5 71.5,65.5 71.5,66.5C 60.1667,66.5 48.8333,66.5 37.5,66.5C 37.5,65.5 37.5,64.5 37.5,63.5 Z"/></g>
<g><path style="opacity:1" fill="#666565" d="M 220.5,53.5 C 221.5,53.5 222.5,53.5 223.5,53.5C 223.5,61.5 223.5,69.5 223.5,77.5C 222.178,77.67 221.011,77.3366 220,76.5C 219.667,72.1667 219.333,67.8333 219,63.5C 218.617,64.056 218.117,64.3893 217.5,64.5C 217.5,63.1667 216.833,62.5 215.5,62.5C 216.657,60.322 217.99,58.322 219.5,56.5C 219.557,55.391 219.89,54.391 220.5,53.5 Z"/></g>
<g><path style="opacity:1" fill="#312e2f" d="M 219.5,56.5 C 220.15,56.1961 220.817,55.8627 221.5,55.5C 222.664,62.4763 222.831,69.4763 222,76.5C 221.501,71.1771 221.334,65.8437 221.5,60.5C 220.325,60.719 219.325,60.3857 218.5,59.5C 219.127,58.5832 219.461,57.5832 219.5,56.5 Z"/></g>
<g><path style="opacity:1" fill="#71aec4" d="M 137.5,64.5 C 139.743,65.8117 142.41,66.4783 145.5,66.5C 148.59,66.4783 151.257,65.8117 153.5,64.5C 154.833,64.5 155.5,65.1667 155.5,66.5C 144.248,67.4773 132.914,67.8106 121.5,67.5C 121.5,66.5 121.5,65.5 121.5,64.5C 126.833,64.5 132.167,64.5 137.5,64.5 Z"/></g>
<g><path style="opacity:1" fill="#4487a6" d="M 137.5,64.5 C 142.833,64.5 148.167,64.5 153.5,64.5C 151.257,65.8117 148.59,66.4783 145.5,66.5C 142.41,66.4783 139.743,65.8117 137.5,64.5 Z"/></g>
<g><path style="opacity:1" fill="#4e4b4c" d="M 227.5,53.5 C 228.5,53.5 229.5,53.5 230.5,53.5C 230.5,61.5 230.5,69.5 230.5,77.5C 229.5,77.5 228.5,77.5 227.5,77.5C 227.5,69.5 227.5,61.5 227.5,53.5 Z"/></g>
<g><path style="opacity:1" fill="#a7d4e0" d="M 37.5,66.5 C 48.8333,66.5 60.1667,66.5 71.5,66.5C 71.3893,67.1174 71.056,67.6174 70.5,68C 59.505,68.4998 48.505,68.6665 37.5,68.5C 37.5,67.8333 37.5,67.1667 37.5,66.5 Z"/></g>
<g><path style="opacity:1" fill="#484647" d="M 204.5,53.5 C 206.553,57.8276 208.886,61.9943 211.5,66C 213.318,65.6735 214.652,64.5069 215.5,62.5C 216.833,62.5 217.5,63.1667 217.5,64.5C 216.378,67.4378 214.378,69.4378 211.5,70.5C 210.607,68.703 209.274,67.3696 207.5,66.5C 207.5,65.1667 207.5,63.8333 207.5,62.5C 206.5,62.5 205.5,62.5 204.5,62.5C 204.5,67.5 204.5,72.5 204.5,77.5C 203.5,77.5 202.5,77.5 201.5,77.5C 201.5,69.5 201.5,61.5 201.5,53.5C 202.5,53.5 203.5,53.5 204.5,53.5 Z"/></g>
<g><path style="opacity:1" fill="#cee8ee" d="M 153.5,64.5 C 148.167,64.5 142.833,64.5 137.5,64.5C 132.167,64.5 126.833,64.5 121.5,64.5C 121.5,65.5 121.5,66.5 121.5,67.5C 132.914,67.8106 144.248,67.4773 155.5,66.5C 155.461,67.5832 155.127,68.5832 154.5,69.5C 157.715,74.3793 156.548,76.046 151,74.5C 150.28,72.8876 150.446,71.3876 151.5,70C 143.5,69.3333 135.5,69.3333 127.5,70C 131.901,71.0673 136.235,72.4006 140.5,74C 141.056,74.3826 141.389,74.8826 141.5,75.5C 134.322,73.4473 126.988,71.7806 119.5,70.5C 119.918,69.7784 120.584,69.2784 121.5,69C 119.078,66.888 119.078,64.888 121.5,63C 126.833,62.8333 132.167,62.6667 137.5,62.5C 143.211,62.5051 148.544,63.1718 153.5,64.5 Z"/></g>
<g><path style="opacity:1" fill="#373536" d="M 275.5,76.5 C 274.833,76.5 274.167,76.5 273.5,76.5C 273.5,73.1667 273.5,69.8333 273.5,66.5C 268.305,66.1795 263.305,66.5128 258.5,67.5C 257.681,70.3054 257.181,73.3054 257,76.5C 256.333,69.5 256.333,62.5 257,55.5C 256.947,58.6752 257.78,61.3419 259.5,63.5C 263.97,64.4861 268.637,64.8195 273.5,64.5C 273.18,61.1016 273.513,57.7683 274.5,54.5C 275.497,61.8032 275.831,69.1365 275.5,76.5 Z"/></g>
<g><path style="opacity:1" fill="#c3c2c2" d="M 204.5,53.5 C 203.5,53.5 202.5,53.5 201.5,53.5C 201.5,61.5 201.5,69.5 201.5,77.5C 202.5,77.5 203.5,77.5 204.5,77.5C 204.5,72.5 204.5,67.5 204.5,62.5C 205.5,62.5 206.5,62.5 207.5,62.5C 207.5,63.8333 207.5,65.1667 207.5,66.5C 206.677,69.977 206.177,73.6437 206,77.5C 204.301,78.4061 202.467,78.7394 200.5,78.5C 200.784,76.5853 200.451,74.9187 199.5,73.5C 199.675,71.3792 199.341,69.3792 198.5,67.5C 200.442,62.9443 201.108,57.9443 200.5,52.5C 202.099,52.2322 203.432,52.5655 204.5,53.5 Z"/></g>
<g><path style="opacity:1" fill="#979696" d="M 273.5,76.5 C 272.795,73.7719 272.128,70.9386 271.5,68C 267.514,67.5012 263.514,67.3345 259.5,67.5C 259.5,71.1667 259.5,74.8333 259.5,78.5C 257.901,78.7678 256.568,78.4345 255.5,77.5C 256.5,77.5 257.5,77.5 258.5,77.5C 258.5,74.1667 258.5,70.8333 258.5,67.5C 263.305,66.5128 268.305,66.1795 273.5,66.5C 273.5,69.8333 273.5,73.1667 273.5,76.5 Z"/></g>
<g><path style="opacity:1" fill="#60a8c0" d="M 72.5,74.5 C 61.2837,76.3515 50.2837,79.0181 39.5,82.5C 39.5,80.8333 39.5,79.1667 39.5,77.5C 47.2884,76.3023 54.9551,74.6356 62.5,72.5C 65.8774,72.0405 69.2107,71.3739 72.5,70.5C 72.5,71.8333 72.5,73.1667 72.5,74.5 Z"/></g>
<g><path style="opacity:1" fill="#535252" d="M 198.5,67.5 C 199.341,69.3792 199.675,71.3792 199.5,73.5C 197.616,74.3816 196.283,75.8816 195.5,78C 190.525,79.2263 186.025,78.393 182,75.5C 181.517,74.552 181.351,73.552 181.5,72.5C 185.986,74.1018 190.653,74.7685 195.5,74.5C 195.5,72.5 195.5,70.5 195.5,68.5C 190.3,67.9078 185.8,65.9078 182,62.5C 180.708,58.373 181.875,55.2063 185.5,53C 189.524,52.5027 193.524,52.6693 197.5,53.5C 197.5,54.8333 197.5,56.1667 197.5,57.5C 193.534,56.8379 189.534,56.5045 185.5,56.5C 185.5,58.5 185.5,60.5 185.5,62.5C 188.62,63.8597 191.953,64.6931 195.5,65C 196.373,66.045 197.373,66.8783 198.5,67.5 Z"/></g>
<g><path style="opacity:1" fill="#6bafc6" d="M 119.5,70.5 C 126.988,71.7806 134.322,73.4473 141.5,75.5C 145.286,75.32 148.619,76.32 151.5,78.5C 149.473,78.3379 147.473,78.5045 145.5,79C 146.056,79.3826 146.389,79.8826 146.5,80.5C 137.542,78.5868 128.542,76.5868 119.5,74.5C 119.5,73.1667 119.5,71.8333 119.5,70.5 Z"/></g>
<g><path style="opacity:1" fill="#ddecf1" d="M 72.5,74.5 C 73.5,75.1667 74.5,75.8333 75.5,76.5C 74.1266,76.3433 72.7932,76.51 71.5,77C 67.785,80.3819 63.785,83.3819 59.5,86C 56.1752,85.7751 53.8419,87.1084 52.5,90C 50.1311,90.5359 48.1311,91.7026 46.5,93.5C 47.723,94.6139 49.0563,94.7805 50.5,94C 54.8127,91.4023 59.1461,88.9023 63.5,86.5C 63.5,87.5 63.5,88.5 63.5,89.5C 60.4007,89.0923 58.0674,90.259 56.5,93C 57.8688,94.7189 58.8688,96.5522 59.5,98.5C 59.5,99.1667 59.5,99.8333 59.5,100.5C 57.5393,101.46 55.8726,102.793 54.5,104.5C 53.0821,102.692 51.0821,102.025 48.5,102.5C 48.2865,100.856 48.6198,99.3561 49.5,98C 44.1948,97.2946 43.1948,94.7946 46.5,90.5C 44.9547,89.5481 43.288,89.2148 41.5,89.5C 41.3832,87.5165 42.0499,85.8498 43.5,84.5C 42.0508,83.8281 40.7175,83.1614 39.5,82.5C 50.2837,79.0181 61.2837,76.3515 72.5,74.5 Z"/></g>
<g><path style="opacity:1" fill="#ddecf0" d="M 119.5,74.5 C 128.542,76.5868 137.542,78.5868 146.5,80.5C 148.435,81.1495 150.435,81.4828 152.5,81.5C 152.5,80.5 152.5,79.5 152.5,78.5C 153.451,79.9187 153.784,81.5853 153.5,83.5C 151.801,83.3398 150.134,83.5065 148.5,84C 150.837,85.7981 151.503,87.9647 150.5,90.5C 148.902,89.5153 147.235,89.3486 145.5,90C 148.006,91.5157 148.84,93.6824 148,96.5C 146.644,97.3802 145.144,97.7135 143.5,97.5C 143.5,99.1667 143.5,100.833 143.5,102.5C 142.022,102.762 140.689,102.429 139.5,101.5C 138.833,100.167 137.833,99.1667 136.5,98.5C 135.943,95.7678 135.61,93.1011 135.5,90.5C 138.777,93.7087 142.777,95.3754 147.5,95.5C 147.5,94.5 147.5,93.5 147.5,92.5C 139.337,88.8356 131.67,84.3356 124.5,79C 122.235,77.8822 119.901,77.0488 117.5,76.5C 118.167,75.8333 118.833,75.1667 119.5,74.5 Z"/></g>
<g><path style="opacity:1" fill="#40728f" d="M 151.5,78.5 C 151.833,78.5 152.167,78.5 152.5,78.5C 152.5,79.5 152.5,80.5 152.5,81.5C 150.435,81.4828 148.435,81.1495 146.5,80.5C 146.389,79.8826 146.056,79.3826 145.5,79C 147.473,78.5045 149.473,78.3379 151.5,78.5 Z"/></g>
<g><path style="opacity:1" fill="#58a1bc" d="M 75.5,76.5 C 75.5,77.8333 75.5,79.1667 75.5,80.5C 71.0039,81.5514 67.0039,83.5514 63.5,86.5C 59.1461,88.9023 54.8127,91.4023 50.5,94C 49.0563,94.7805 47.723,94.6139 46.5,93.5C 48.1311,91.7026 50.1311,90.5359 52.5,90C 53.8419,87.1084 56.1752,85.7751 59.5,86C 63.785,83.3819 67.785,80.3819 71.5,77C 72.7932,76.51 74.1266,76.3433 75.5,76.5 Z"/></g>
<g><path style="opacity:1" fill="#5fa5bf" d="M 117.5,76.5 C 119.901,77.0488 122.235,77.8822 124.5,79C 131.67,84.3356 139.337,88.8356 147.5,92.5C 147.5,93.5 147.5,94.5 147.5,95.5C 142.777,95.3754 138.777,93.7087 135.5,90.5C 130.187,87.6672 124.854,84.8339 119.5,82C 117.845,80.5557 117.178,78.7224 117.5,76.5 Z"/></g>
<g><path style="opacity:1" fill="#7f7e7e" d="M 247.5,84.5 C 252.64,83.5119 257.974,83.1786 263.5,83.5C 264.833,84.5 264.833,85.5 263.5,86.5C 258.604,84.5539 253.271,83.8872 247.5,84.5 Z"/></g>
<g><path style="opacity:1" fill="#cccbcc" d="M 263.5,83.5 C 257.974,83.1786 252.64,83.5119 247.5,84.5C 246.883,84.6107 246.383,84.944 246,85.5C 245.333,92.5 245.333,99.5 246,106.5C 246.383,107.056 246.883,107.389 247.5,107.5C 252.64,108.488 257.974,108.821 263.5,108.5C 256.642,109.738 249.642,109.738 242.5,108.5C 242.567,107.041 242.234,105.708 241.5,104.5C 242.5,104.5 243.5,104.5 244.5,104.5C 244.823,98.31 244.49,92.31 243.5,86.5C 243.5,85.5 243.5,84.5 243.5,83.5C 237.31,83.1771 231.31,83.5104 225.5,84.5C 224.344,91.9887 224.178,99.6554 225,107.5C 230.407,108.473 235.907,108.807 241.5,108.5C 235.69,109.49 229.69,109.823 223.5,109.5C 222.836,104.532 222.336,99.5318 222,94.5C 220.67,95.5822 219.17,96.2488 217.5,96.5C 221.419,92.6607 221.419,88.8273 217.5,85C 212.5,84.3333 207.5,84.3333 202.5,85C 201.519,92.4129 201.186,99.9129 201.5,107.5C 200.509,101.021 200.176,94.3543 200.5,87.5C 195.833,87.5 191.167,87.5 186.5,87.5C 186.5,89.5 186.5,91.5 186.5,93.5C 189.713,93.19 192.713,93.5233 195.5,94.5C 197.652,95.0768 197.985,96.2435 196.5,98C 193.183,98.4983 189.85,98.665 186.5,98.5C 186.665,101.85 186.498,105.183 186,108.5C 184.301,109.406 182.467,109.739 180.5,109.5C 180.194,100.446 180.528,91.4458 181.5,82.5C 190.56,81.8433 199.56,81.51 208.5,81.5C 213.696,81.3505 218.196,83.0172 222,86.5C 222.402,85.1279 222.902,83.7946 223.5,82.5C 226.667,82.1667 229.833,81.8333 233,81.5C 240.176,82.7281 247.342,82.7281 254.5,81.5C 257.913,81.517 260.913,82.1836 263.5,83.5 Z"/></g>
<g><path style="opacity:1" fill="#848383" d="M 225.5,84.5 C 231.31,83.5104 237.31,83.1771 243.5,83.5C 243.5,84.5 243.5,85.5 243.5,86.5C 242.833,86.5 242.167,86.5 241.5,86.5C 236.604,84.5539 231.271,83.8872 225.5,84.5 Z"/></g>
<g><path style="opacity:1" fill="#7e7c7d" d="M 182.5,84.5 C 187.975,83.5111 193.642,83.1778 199.5,83.5C 199.737,84.791 199.404,85.791 198.5,86.5C 193.604,84.5539 188.271,83.8872 182.5,84.5 Z"/></g>
<g><path style="opacity:1" fill="#bfbebf" d="M 241.5,86.5 C 237.366,87.4849 233.032,87.8182 228.5,87.5C 228.5,89.5 228.5,91.5 228.5,93.5C 232.371,93.185 236.038,93.5184 239.5,94.5C 235.5,94.5 231.5,94.5 227.5,94.5C 227.5,91.8333 227.5,89.1667 227.5,86.5C 232.167,86.5 236.833,86.5 241.5,86.5 Z"/></g>
<g><path style="opacity:1" fill="#c2c1c1" d="M 263.5,86.5 C 259.366,87.4849 255.032,87.8182 250.5,87.5C 250.5,89.5 250.5,91.5 250.5,93.5C 254.371,93.185 258.038,93.5184 261.5,94.5C 257.5,94.5 253.5,94.5 249.5,94.5C 249.5,91.8333 249.5,89.1667 249.5,86.5C 254.167,86.5 258.833,86.5 263.5,86.5 Z"/></g>
<g><path style="opacity:1" fill="#d9d8d9" d="M 313.5,104.5 C 309.833,104.5 306.167,104.5 302.5,104.5C 302.5,97.8333 302.5,91.1667 302.5,84.5C 301.5,84.5 300.5,84.5 299.5,84.5C 299.5,92.5 299.5,100.5 299.5,108.5C 304.167,108.5 308.833,108.5 313.5,108.5C 306.06,109.508 298.727,109.508 291.5,108.5C 292.833,108.5 294.167,108.5 295.5,108.5C 295.5,100.5 295.5,92.5 295.5,84.5C 297.094,84.0805 298.594,83.4138 300,82.5C 300.873,82.7355 301.707,83.0688 302.5,83.5C 303.497,90.1335 303.83,96.8002 303.5,103.5C 307.042,103.187 310.375,103.521 313.5,104.5 Z"/></g>
<g><path style="opacity:1" fill="#403d3e" d="M 182.5,84.5 C 188.271,83.8872 193.604,84.5539 198.5,86.5C 193.901,86.2 189.401,86.5333 185,87.5C 184.242,89.7695 184.409,91.9361 185.5,94C 188.817,94.4983 192.15,94.665 195.5,94.5C 195.5,95.1667 195.5,95.8333 195.5,96.5C 191.818,96.3347 188.152,96.5014 184.5,97C 184.171,100.892 183.171,104.392 181.5,107.5C 181.175,99.6484 181.508,91.9818 182.5,84.5 Z"/></g>
<g><path style="opacity:1" fill="#403e3f" d="M 217.5,96.5 C 216.414,96.62 215.747,97.2867 215.5,98.5C 216.769,100.064 217.936,101.731 219,103.5C 219.781,104.944 219.614,106.277 218.5,107.5C 216.088,104.438 213.755,101.438 211.5,98.5C 209.807,96.2336 207.64,95.9003 205,97.5C 204.502,100.817 204.335,104.15 204.5,107.5C 203.5,108.833 202.5,108.833 201.5,107.5C 201.186,99.9129 201.519,92.4129 202.5,85C 207.5,84.3333 212.5,84.3333 217.5,85C 221.419,88.8273 221.419,92.6607 217.5,96.5 Z"/></g>
<g><path style="opacity:1" fill="#e9e9e9" d="M 205.5,86.5 C 208.85,86.335 212.183,86.5017 215.5,87C 217.648,89.0749 217.982,91.4082 216.5,94C 212.848,94.4986 209.182,94.6653 205.5,94.5C 205.5,91.8333 205.5,89.1667 205.5,86.5 Z"/></g>
<g><path style="opacity:1" fill="#fbfbfb" d="M 241.5,86.5 C 242.167,86.5 242.833,86.5 243.5,86.5C 244.49,92.31 244.823,98.31 244.5,104.5C 243.5,104.5 242.5,104.5 241.5,104.5C 237.366,103.515 233.032,103.182 228.5,103.5C 228.5,101.833 228.5,100.167 228.5,98.5C 232.514,98.6655 236.514,98.4988 240.5,98C 241.985,96.2435 241.652,95.0768 239.5,94.5C 236.038,93.5184 232.371,93.185 228.5,93.5C 228.5,91.5 228.5,89.5 228.5,87.5C 233.032,87.8182 237.366,87.4849 241.5,86.5 Z"/></g>
<g><path style="opacity:1" fill="#7d7c7c" d="M 295.5,84.5 C 295.5,92.5 295.5,100.5 295.5,108.5C 294.167,108.5 292.833,108.5 291.5,108.5C 291.5,99.8333 291.5,91.1667 291.5,82.5C 293.483,82.1568 294.817,82.8235 295.5,84.5 Z"/></g>
<g><path style="opacity:1" fill="#cbcacb" d="M 316.5,84.5 C 316.175,91.6866 316.509,98.6866 317.5,105.5C 317.5,106.167 317.5,106.833 317.5,107.5C 316.883,107.389 316.383,107.056 316,106.5C 315.583,107.756 314.75,108.423 313.5,108.5C 313.5,107.167 313.5,105.833 313.5,104.5C 315.15,98.0621 316.15,91.3954 316.5,84.5 Z"/></g>
<g><path style="opacity:1" fill="#5fa8c1" d="M 85.5,86.5 C 85.2461,89.0143 84.4127,91.3476 83,93.5C 77.7547,100.314 73.2547,107.647 69.5,115.5C 69.5,115.833 69.5,116.167 69.5,116.5C 68.5,116.5 67.5,116.5 66.5,116.5C 66.7366,113.353 67.5699,110.353 69,107.5C 74.37,101.021 78.5367,94.0211 81.5,86.5C 82.8333,86.5 84.1667,86.5 85.5,86.5 Z"/></g>
<g><path style="opacity:1" fill="#6b6a6b" d="M 205.5,86.5 C 205.5,89.1667 205.5,91.8333 205.5,94.5C 204.252,93.6661 203.585,92.3328 203.5,90.5C 203.585,88.6672 204.252,87.3339 205.5,86.5 Z"/></g>
<g><path style="opacity:1" fill="#969495" d="M 320.5,104.5 C 319.833,97.9881 319.167,91.3214 318.5,84.5C 317.503,91.4684 317.17,98.4684 317.5,105.5C 316.509,98.6866 316.175,91.6866 316.5,84.5C 317.568,83.5655 318.901,83.2322 320.5,83.5C 320.5,90.5 320.5,97.5 320.5,104.5 Z"/></g>
<g><path style="opacity:1" fill="#969595" d="M 345.5,83.5 C 338.457,82.5526 334.79,85.5526 334.5,92.5C 332.844,86.124 335.51,82.7907 342.5,82.5C 343.726,82.5195 344.726,82.8529 345.5,83.5 Z"/></g>
<g><path style="opacity:1" fill="#d6eaf0" d="M 85.5,86.5 C 88.0979,87.8204 90.7646,89.1538 93.5,90.5C 95.5598,88.1084 97.7265,88.1084 100,90.5C 100.278,89.5842 100.778,88.9175 101.5,88.5C 103.424,99.2683 105.757,109.935 108.5,120.5C 107.222,120.782 106.222,121.449 105.5,122.5C 103.365,124.369 100.698,125.036 97.5,124.5C 97.1631,79.1986 96.1631,79.1986 94.5,124.5C 93.1001,123.9 92.1001,122.9 91.5,121.5C 91.8256,117.116 91.4922,112.783 90.5,108.5C 88.0398,112.838 87.0398,117.505 87.5,122.5C 86.8423,121.602 86.1757,120.602 85.5,119.5C 84.8243,120.602 84.1577,121.602 83.5,122.5C 86.1792,111.421 88.8458,100.421 91.5,89.5C 90.1779,89.33 89.0113,89.6634 88,90.5C 84.7195,101.079 81.8861,111.745 79.5,122.5C 78.8386,121.282 78.1719,119.949 77.5,118.5C 73.7691,121.463 72.1024,120.463 72.5,115.5C 71.5,115.5 70.5,115.5 69.5,115.5C 73.2547,107.647 77.7547,100.314 83,93.5C 84.4127,91.3476 85.2461,89.0143 85.5,86.5 Z"/></g>
<g><path style="opacity:1" fill="#444343" d="M 345.5,83.5 C 346.568,84.4345 347.901,84.7678 349.5,84.5C 349.879,87.5669 348.879,88.5669 346.5,87.5C 344.034,86.3659 341.367,86.1993 338.5,87C 337.594,88.6995 337.261,90.5328 337.5,92.5C 342.574,93.5987 347.24,95.5987 351.5,98.5C 351.5,100.833 351.5,103.167 351.5,105.5C 345.163,109.62 339.163,109.287 333.5,104.5C 334.36,102.03 335.694,101.863 337.5,104C 340.833,104.667 344.167,104.667 347.5,104C 350.167,102.333 350.167,100.667 347.5,99C 342.433,98.0494 338.099,95.8827 334.5,92.5C 334.79,85.5526 338.457,82.5526 345.5,83.5 Z"/></g>
<g><path style="opacity:1" fill="#aaaaaa" d="M 287.5,84.5 C 285.598,87.3373 284.931,90.6707 285.5,94.5C 280.637,94.8195 275.97,94.4861 271.5,93.5C 275.5,93.5 279.5,93.5 283.5,93.5C 283.335,90.4816 283.502,87.4816 284,84.5C 285.292,83.2089 286.458,83.2089 287.5,84.5 Z"/></g>
<g><path style="opacity:1" fill="#bebdbd" d="M 346.5,87.5 C 344.143,87.3367 341.81,87.5034 339.5,88C 338.663,89.0113 338.33,90.1779 338.5,91.5C 342.668,92.4663 346.668,93.9663 350.5,96C 351.252,96.6708 351.586,97.5041 351.5,98.5C 347.24,95.5987 342.574,93.5987 337.5,92.5C 337.261,90.5328 337.594,88.6995 338.5,87C 341.367,86.1993 344.034,86.3659 346.5,87.5 Z"/></g>
<g><path style="opacity:1" fill="#403e3f" d="M 292.5,85.5 C 293.821,88.5982 294.488,92.0982 294.5,96C 294.167,99.5 293.833,103 293.5,106.5C 292.503,99.5316 292.17,92.5316 292.5,85.5 Z"/></g>
<g><path style="opacity:1" fill="#67aac3" d="M 57.5,106.5 C 59.4773,104.186 61.4773,101.853 63.5,99.5C 63.1667,99.1667 62.8333,98.8333 62.5,98.5C 61.4822,99.1925 60.4822,99.8592 59.5,100.5C 59.5,99.8333 59.5,99.1667 59.5,98.5C 64.9913,93.5089 70.3246,88.3422 75.5,83C 76.7932,82.51 78.1266,82.3433 79.5,82.5C 78.3853,86.4657 75.8853,89.4657 72,91.5C 68.3136,97.6852 63.4803,102.685 57.5,106.5 Z"/></g>
<g><path style="opacity:1" fill="#413f3f" d="M 271.5,93.5 C 275.97,94.4861 280.637,94.8195 285.5,94.5C 284.931,90.6707 285.598,87.3373 287.5,84.5C 288.132,92.5729 287.465,100.24 285.5,107.5C 285.665,104.482 285.498,101.482 285,98.5C 284.5,98 284,97.5 283.5,97C 281.5,96.8333 279.5,96.6667 277.5,96.5C 275.048,96.5391 273.048,97.2057 271.5,98.5C 270.521,101.625 270.187,104.958 270.5,108.5C 269.209,108.737 268.209,108.404 267.5,107.5C 267.5,99.8333 267.5,92.1667 267.5,84.5C 268.5,84.5 269.5,84.5 270.5,84.5C 270.19,87.7131 270.523,90.7131 271.5,93.5 Z"/></g>
<g><path style="opacity:1" fill="#5299b5" d="M 97.5,124.5 C 96.5,124.5 95.5,124.5 94.5,124.5C 96.1631,79.1986 97.1631,79.1986 97.5,124.5 Z"/></g>
<g><path style="opacity:1" fill="#7e7c7d" d="M 261.5,96.5 C 258.023,97.3227 254.356,97.8227 250.5,98C 249.577,100.041 249.244,102.208 249.5,104.5C 248.186,102.105 248.186,99.6047 249.5,97C 253.486,96.5012 257.486,96.3345 261.5,96.5 Z"/></g>
<g><path style="opacity:1" fill="#61aac2" d="M 83.5,122.5 C 82.1667,122.5 80.8333,122.5 79.5,122.5C 81.8861,111.745 84.7195,101.079 88,90.5C 89.0113,89.6634 90.1779,89.33 91.5,89.5C 88.8458,100.421 86.1792,111.421 83.5,122.5 Z"/></g>
<g><path style="opacity:1" fill="#589db9" d="M 131.5,98.5 C 133.127,100.63 134.96,102.63 137,104.5C 137.591,105.483 137.257,106.15 136,106.5C 133.28,104.27 130.446,102.27 127.5,100.5C 123.919,96.416 120.086,92.416 116,88.5C 114.331,86.8309 113.498,84.8309 113.5,82.5C 114.552,82.3505 115.552,82.5172 116.5,83C 121.703,88.0354 126.703,93.202 131.5,98.5 Z"/></g>
<g><path style="opacity:1" fill="#a4a2a2" d="M 285.5,107.5 C 283.612,105.012 282.945,102.012 283.5,98.5C 279.5,98.5 275.5,98.5 271.5,98.5C 273.048,97.2057 275.048,96.5391 277.5,96.5C 279.5,96.6667 281.5,96.8333 283.5,97C 284,97.5 284.5,98 285,98.5C 285.498,101.482 285.665,104.482 285.5,107.5 Z"/></g>
<g><path style="opacity:1" fill="#73b1c2" d="M 52.5,96.5 C 53.9778,96.238 55.3112,96.5713 56.5,97.5C 54.8862,99.8628 52.8862,100.529 50.5,99.5C 51.1925,98.4822 51.8592,97.4822 52.5,96.5 Z"/></g>
<g><path style="opacity:1" fill="#464445" d="M 247.5,84.5 C 253.271,83.8872 258.604,84.5539 263.5,86.5C 258.833,86.5 254.167,86.5 249.5,86.5C 249.5,89.1667 249.5,91.8333 249.5,94.5C 253.5,94.5 257.5,94.5 261.5,94.5C 261.5,95.1667 261.5,95.8333 261.5,96.5C 257.486,96.3345 253.486,96.5012 249.5,97C 248.186,99.6047 248.186,102.105 249.5,104.5C 249.611,105.117 249.944,105.617 250.5,106C 254.5,106.333 258.5,106.667 262.5,107C 257.511,107.499 252.511,107.666 247.5,107.5C 246.883,107.389 246.383,107.056 246,106.5C 245.333,99.5 245.333,92.5 246,85.5C 246.383,84.944 246.883,84.6107 247.5,84.5 Z"/></g>
<g><path style="opacity:1" fill="#63acc3" d="M 101.5,88.5 C 103.38,88.2291 104.713,88.8958 105.5,90.5C 107.944,101.109 110.61,111.775 113.5,122.5C 112.167,122.5 110.833,122.5 109.5,122.5C 108.662,122.158 108.328,121.492 108.5,120.5C 105.757,109.935 103.424,99.2683 101.5,88.5 Z"/></g>
<g><path style="opacity:1" fill="#3a3839" d="M 225.5,84.5 C 231.271,83.8872 236.604,84.5539 241.5,86.5C 236.833,86.5 232.167,86.5 227.5,86.5C 227.5,89.1667 227.5,91.8333 227.5,94.5C 231.5,94.5 235.5,94.5 239.5,94.5C 235.971,96.4228 231.971,97.0894 227.5,96.5C 227.5,99.1667 227.5,101.833 227.5,104.5C 227.611,105.117 227.944,105.617 228.5,106C 232.833,106.333 237.167,106.667 241.5,107C 236.249,107.804 231.082,107.637 226,106.5C 225.5,99.1742 225.334,91.8409 225.5,84.5 Z"/></g>
<g><path style="opacity:1" fill="#bbbabb" d="M 271.5,93.5 C 270.523,90.7131 270.19,87.7131 270.5,84.5C 269.5,84.5 268.5,84.5 267.5,84.5C 267.5,92.1667 267.5,99.8333 267.5,107.5C 266.508,99.6841 266.174,91.6841 266.5,83.5C 268.167,83.5 269.833,83.5 271.5,83.5C 271.5,86.8333 271.5,90.1667 271.5,93.5 Z"/></g>
<g><path style="opacity:1" fill="#4d7c98" d="M 57.5,106.5 C 56.791,107.404 55.791,107.737 54.5,107.5C 54.5,106.5 54.5,105.5 54.5,104.5C 55.8726,102.793 57.5393,101.46 59.5,100.5C 60.4822,99.8592 61.4822,99.1925 62.5,98.5C 62.8333,98.8333 63.1667,99.1667 63.5,99.5C 61.4773,101.853 59.4773,104.186 57.5,106.5 Z"/></g>
<g><path style="opacity:1" fill="#7f7d7e" d="M 195.5,96.5 C 192.375,97.4794 189.042,97.8128 185.5,97.5C 185.665,100.85 185.498,104.183 185,107.5C 183.708,108.791 182.542,108.791 181.5,107.5C 183.171,104.392 184.171,100.892 184.5,97C 188.152,96.5014 191.818,96.3347 195.5,96.5 Z"/></g>
<g><path style="opacity:1" fill="#c2c1c2" d="M 239.5,94.5 C 241.652,95.0768 241.985,96.2435 240.5,98C 236.514,98.4988 232.514,98.6655 228.5,98.5C 228.5,100.167 228.5,101.833 228.5,103.5C 233.032,103.182 237.366,103.515 241.5,104.5C 236.833,104.5 232.167,104.5 227.5,104.5C 227.5,101.833 227.5,99.1667 227.5,96.5C 231.971,97.0894 235.971,96.4228 239.5,94.5 Z"/></g>
<g><path style="opacity:1" fill="#adcfd9" d="M 131.5,98.5 C 134.056,99.5434 136.223,101.21 138,103.5C 139.238,107.424 138.071,108.757 134.5,107.5C 131.588,104.462 130.588,104.796 131.5,108.5C 131.728,110.355 131.061,111.188 129.5,111C 128.167,108.419 126.334,106.252 124,104.5C 123.517,103.552 123.351,102.552 123.5,101.5C 125.099,101.768 126.432,101.434 127.5,100.5C 130.446,102.27 133.28,104.27 136,106.5C 137.257,106.15 137.591,105.483 137,104.5C 134.96,102.63 133.127,100.63 131.5,98.5 Z"/></g>
<g><path style="opacity:1" fill="#d6eaef" d="M 105.5,90.5 C 106.161,91.7175 106.828,93.0508 107.5,94.5C 108.429,93.3112 108.762,91.9778 108.5,90.5C 114.329,98.6684 119.329,107.335 123.5,116.5C 122.504,116.586 121.671,116.252 121,115.5C 120.768,116.737 120.268,117.737 119.5,118.5C 118.328,119.705 116.995,119.705 115.5,118.5C 114.548,120.045 114.215,121.712 114.5,123.5C 112.585,123.784 110.919,123.451 109.5,122.5C 110.833,122.5 112.167,122.5 113.5,122.5C 110.61,111.775 107.944,101.109 105.5,90.5 Z"/></g>
<g><path style="opacity:1" fill="#599fba" d="M 126.5,116.5 C 125.5,116.5 124.5,116.5 123.5,116.5C 119.329,107.335 114.329,98.6684 108.5,90.5C 107.566,89.4324 107.232,88.099 107.5,86.5C 108.833,86.5 110.167,86.5 111.5,86.5C 111.343,87.8734 111.51,89.2068 112,90.5C 118.352,98.3439 123.185,107.011 126.5,116.5 Z"/></g>
<g><path style="opacity:1" fill="#989797" d="M 211.5,98.5 C 209.5,98.5 207.5,98.5 205.5,98.5C 205.81,101.713 205.477,104.713 204.5,107.5C 204.335,104.15 204.502,100.817 205,97.5C 207.64,95.9003 209.807,96.2336 211.5,98.5 Z"/></g>
<g><path style="opacity:1" fill="#d2d1d1" d="M 287.5,84.5 C 288.493,92.6499 288.826,100.983 288.5,109.5C 286.533,109.739 284.699,109.406 283,108.5C 282.502,105.518 282.335,102.518 282.5,99.5C 279.167,99.5 275.833,99.5 272.5,99.5C 273.055,103.012 272.388,106.012 270.5,108.5C 270.187,104.958 270.521,101.625 271.5,98.5C 275.5,98.5 279.5,98.5 283.5,98.5C 282.945,102.012 283.612,105.012 285.5,107.5C 287.465,100.24 288.132,92.5729 287.5,84.5 Z"/></g>
<g><path style="opacity:1" fill="#81bac9" d="M 65.5,102.5 C 66.675,102.281 67.675,102.614 68.5,103.5C 66.0284,106.115 64.3618,109.115 63.5,112.5C 62.5,112.5 61.5,112.5 60.5,112.5C 60.3433,111.127 60.51,109.793 61,108.5C 62.7615,106.619 64.2615,104.619 65.5,102.5 Z"/></g>
<g><path style="opacity:1" fill="#525151" d="M 313.5,104.5 C 313.5,105.833 313.5,107.167 313.5,108.5C 308.833,108.5 304.167,108.5 299.5,108.5C 299.5,100.5 299.5,92.5 299.5,84.5C 300.5,84.5 301.5,84.5 302.5,84.5C 302.5,91.1667 302.5,97.8333 302.5,104.5C 306.167,104.5 309.833,104.5 313.5,104.5 Z"/></g>
<g><path style="opacity:1" fill="#454344" d="M 320.5,104.5 C 323.962,105.482 327.629,105.815 331.5,105.5C 331.5,106.5 331.5,107.5 331.5,108.5C 326.637,108.819 321.97,108.486 317.5,107.5C 317.5,106.833 317.5,106.167 317.5,105.5C 317.17,98.4684 317.503,91.4684 318.5,84.5C 319.167,91.3214 319.833,97.9881 320.5,104.5 Z"/></g>
<g><path style="opacity:1" fill="#676566" d="M 225.5,84.5 C 225.334,91.8409 225.5,99.1742 226,106.5C 231.082,107.637 236.249,107.804 241.5,107C 237.167,106.667 232.833,106.333 228.5,106C 227.944,105.617 227.611,105.117 227.5,104.5C 232.167,104.5 236.833,104.5 241.5,104.5C 242.234,105.708 242.567,107.041 242.5,108.5C 242.167,108.5 241.833,108.5 241.5,108.5C 235.907,108.807 230.407,108.473 225,107.5C 224.178,99.6554 224.344,91.9887 225.5,84.5 Z"/></g>
<g><path style="opacity:1" fill="#6f6d6e" d="M 249.5,104.5 C 254.5,104.5 259.5,104.5 264.5,104.5C 264.768,106.099 264.434,107.432 263.5,108.5C 257.974,108.821 252.64,108.488 247.5,107.5C 252.511,107.666 257.511,107.499 262.5,107C 258.5,106.667 254.5,106.333 250.5,106C 249.944,105.617 249.611,105.117 249.5,104.5 Z"/></g>
<g><path style="opacity:1" fill="#c1bfc0" d="M 320.5,104.5 C 324.833,104.5 329.167,104.5 333.5,104.5C 339.163,109.287 345.163,109.62 351.5,105.5C 351.489,107.017 350.823,108.184 349.5,109C 344.599,109.965 339.932,109.465 335.5,107.5C 334.151,107.846 332.817,108.179 331.5,108.5C 331.5,107.5 331.5,106.5 331.5,105.5C 327.629,105.815 323.962,105.482 320.5,104.5 Z"/></g>
<g><path style="opacity:1" fill="#86bfcd" d="M 105.5,122.5 C 104.167,122.5 102.833,122.5 101.5,122.5C 101.599,104.092 102.933,104.092 105.5,122.5 Z"/></g>
<g><path style="opacity:1" fill="#7ab8c8" d="M 77.5,107.5 C 79.3442,108.204 79.8442,109.537 79,111.5C 77.883,112.949 77.2163,114.616 77,116.5C 75.5295,118.872 74.3628,118.872 73.5,116.5C 74.9863,113.53 76.3197,110.53 77.5,107.5 Z"/></g>
<g><path style="opacity:1" fill="#78b7c7" d="M 119.5,118.5 C 117.983,118.489 116.816,117.823 116,116.5C 114.648,113.429 113.148,110.429 111.5,107.5C 112.689,106.571 114.022,106.238 115.5,106.5C 116.838,110.528 118.171,114.528 119.5,118.5 Z"/></g>
<g><path style="opacity:1" fill="#8bc2d0" d="M 91.5,121.5 C 90.2921,122.234 88.9587,122.567 87.5,122.5C 87.0398,117.505 88.0398,112.838 90.5,108.5C 91.4922,112.783 91.8256,117.116 91.5,121.5 Z"/></g>
</svg>
