<svg xmlns="http://www.w3.org/2000/svg" width="221.623" height="102.395" viewBox="0 0 221.623 102.395">
    <g id="Group" opacity="0.3">
        <g id="Group_79" data-name="Group 79" transform="translate(0)">
            <path id="Fill_1" data-name="Fill 1" d="M6.7,3.357A3.348,3.348,0,1,1,3.347,0,3.353,3.353,0,0,1,6.7,3.357" transform="translate(0)" fill="#0d71fc"/>
            <path id="Fill_3" data-name="Fill 3" d="M6.7,3.357A3.348,3.348,0,1,1,3.348,0,3.353,3.353,0,0,1,6.7,3.357" transform="translate(20.09)" fill="#0d71fc"/>
            <path id="Fill_5" data-name="Fill 5" d="M6.7,3.357A3.348,3.348,0,1,1,3.348,0,3.353,3.353,0,0,1,6.7,3.357" transform="translate(38.506)" fill="#0d71fc"/>
            <path id="Fill_7" data-name="Fill 7" d="M6.7,3.357A3.348,3.348,0,1,1,3.347,0,3.353,3.353,0,0,1,6.7,3.357" transform="translate(58.596)" fill="#0d71fc"/>
            <path id="Fill_9" data-name="Fill 9" d="M6.7,3.357A3.348,3.348,0,1,1,3.348,0,3.352,3.352,0,0,1,6.7,3.357" transform="translate(77.012)" fill="#0d71fc"/>
            <path id="Fill_14" data-name="Fill 14" d="M6.7,3.357A3.348,3.348,0,1,1,3.347,0,3.353,3.353,0,0,1,6.7,3.357" transform="translate(0 18.465)" fill="#0d71fc"/>
            <path id="Fill_16" data-name="Fill 16" d="M6.7,3.357A3.348,3.348,0,1,1,3.348,0,3.353,3.353,0,0,1,6.7,3.357" transform="translate(20.09 18.465)" fill="#0d71fc"/>
            <path id="Fill_18" data-name="Fill 18" d="M6.7,3.357A3.348,3.348,0,1,1,3.348,0,3.353,3.353,0,0,1,6.7,3.357" transform="translate(38.506 18.465)" fill="#0d71fc"/>
            <path id="Fill_20" data-name="Fill 20" d="M6.7,3.357A3.348,3.348,0,1,1,3.347,0,3.353,3.353,0,0,1,6.7,3.357" transform="translate(58.596 18.465)" fill="#0d71fc"/>
            <path id="Fill_22" data-name="Fill 22" d="M6.7,3.357A3.348,3.348,0,1,1,3.348,0,3.352,3.352,0,0,1,6.7,3.357" transform="translate(77.012 18.465)" fill="#0d71fc"/>
            <path id="Fill_27" data-name="Fill 27" d="M6.7,4.2c0,2.317-1.5,4.2-3.35,4.2S0,6.514,0,4.2,1.5,0,3.347,0,6.7,1.879,6.7,4.2" transform="translate(0 38.608)" fill="#0d71fc"/>
            <path id="Fill_29" data-name="Fill 29" d="M6.7,4.2c0,2.317-1.5,4.2-3.349,4.2S0,6.514,0,4.2,1.5,0,3.348,0,6.7,1.879,6.7,4.2" transform="translate(20.09 38.608)" fill="#0d71fc"/>
            <path id="Fill_31" data-name="Fill 31" d="M6.7,4.2c0,2.317-1.5,4.2-3.348,4.2S0,6.514,0,4.2,1.5,0,3.348,0,6.7,1.879,6.7,4.2" transform="translate(38.506 38.608)" fill="#0d71fc"/>
            <path id="Fill_33" data-name="Fill 33" d="M6.7,4.2c0,2.317-1.5,4.2-3.35,4.2S0,6.514,0,4.2,1.5,0,3.347,0,6.7,1.879,6.7,4.2" transform="translate(58.596 38.608)" fill="#0d71fc"/>
            <path id="Fill_35" data-name="Fill 35" d="M6.7,4.2c0,2.317-1.5,4.2-3.349,4.2S0,6.514,0,4.2,1.5,0,3.348,0,6.7,1.879,6.7,4.2" transform="translate(77.012 38.608)" fill="#0d71fc"/>
            <path id="Fill_40" data-name="Fill 40" d="M6.7,4.2c0,2.318-1.5,4.2-3.35,4.2S0,6.514,0,4.2,1.5,0,3.347,0,6.7,1.879,6.7,4.2" transform="translate(0 57.073)" fill="#0d71fc"/>
            <path id="Fill_42" data-name="Fill 42" d="M6.7,4.2c0,2.318-1.5,4.2-3.349,4.2S0,6.514,0,4.2,1.5,0,3.348,0,6.7,1.879,6.7,4.2" transform="translate(20.09 57.073)" fill="#0d71fc"/>
            <path id="Fill_44" data-name="Fill 44" d="M6.7,4.2c0,2.318-1.5,4.2-3.348,4.2S0,6.514,0,4.2,1.5,0,3.348,0,6.7,1.879,6.7,4.2" transform="translate(38.506 57.073)" fill="#0d71fc"/>
            <path id="Fill_46" data-name="Fill 46" d="M6.7,4.2c0,2.318-1.5,4.2-3.35,4.2S0,6.514,0,4.2,1.5,0,3.347,0,6.7,1.879,6.7,4.2" transform="translate(58.596 57.073)" fill="#0d71fc"/>
            <path id="Fill_48" data-name="Fill 48" d="M6.7,4.2c0,2.318-1.5,4.2-3.349,4.2S0,6.514,0,4.2,1.5,0,3.348,0,6.7,1.879,6.7,4.2" transform="translate(77.012 57.073)" fill="#0d71fc"/>
            <path id="Fill_53" data-name="Fill 53" d="M6.7,3.357A3.348,3.348,0,1,1,3.347,0,3.353,3.353,0,0,1,6.7,3.357" transform="translate(0 77.216)" fill="#0d71fc"/>
            <path id="Fill_55" data-name="Fill 55" d="M6.7,3.357A3.348,3.348,0,1,1,3.348,0,3.353,3.353,0,0,1,6.7,3.357" transform="translate(20.09 77.216)" fill="#0d71fc"/>
            <path id="Fill_57" data-name="Fill 57" d="M6.7,3.357A3.348,3.348,0,1,1,3.348,0,3.353,3.353,0,0,1,6.7,3.357" transform="translate(38.506 77.216)" fill="#0d71fc"/>
            <path id="Fill_59" data-name="Fill 59" d="M6.7,3.357A3.348,3.348,0,1,1,3.347,0,3.353,3.353,0,0,1,6.7,3.357" transform="translate(58.596 77.216)" fill="#0d71fc"/>
            <path id="Fill_61" data-name="Fill 61" d="M6.7,3.357A3.348,3.348,0,1,1,3.348,0,3.353,3.353,0,0,1,6.7,3.357" transform="translate(77.012 77.216)" fill="#0d71fc"/>
            <path id="Fill_66" data-name="Fill 66" d="M6.7,3.357A3.348,3.348,0,1,1,3.347,0,3.353,3.353,0,0,1,6.7,3.357" transform="translate(0 95.681)" fill="#0d71fc"/>
            <path id="Fill_68" data-name="Fill 68" d="M6.7,3.357A3.348,3.348,0,1,1,3.348,0,3.353,3.353,0,0,1,6.7,3.357" transform="translate(20.09 95.681)" fill="#0d71fc"/>
            <path id="Fill_70" data-name="Fill 70" d="M6.7,3.357A3.348,3.348,0,1,1,3.348,0,3.353,3.353,0,0,1,6.7,3.357" transform="translate(38.506 95.681)" fill="#0d71fc"/>
            <path id="Fill_72" data-name="Fill 72" d="M6.7,3.357A3.348,3.348,0,1,1,3.347,0,3.353,3.353,0,0,1,6.7,3.357" transform="translate(58.596 95.681)" fill="#0d71fc"/>
            <path id="Fill_74" data-name="Fill 74" d="M6.7,3.357A3.348,3.348,0,1,1,3.348,0,3.352,3.352,0,0,1,6.7,3.357" transform="translate(77.012 95.681)" fill="#0d71fc"/>
            <path id="Fill_9_Copy" data-name="Fill 9 Copy" d="M6.7,3.357A3.348,3.348,0,1,1,3.348,0,3.352,3.352,0,0,1,6.7,3.357" transform="translate(97.101)" fill="#0d71fc"/>
            <path id="Fill_22_Copy" data-name="Fill 22 Copy" d="M6.7,3.357A3.348,3.348,0,1,1,3.348,0,3.352,3.352,0,0,1,6.7,3.357" transform="translate(97.101 18.465)" fill="#0d71fc"/>
            <path id="Fill_35_Copy" data-name="Fill 35 Copy" d="M6.7,4.2c0,2.317-1.5,4.2-3.349,4.2S0,6.514,0,4.2,1.5,0,3.348,0,6.7,1.879,6.7,4.2" transform="translate(97.101 38.608)" fill="#0d71fc"/>
            <path id="Fill_48_Copy" data-name="Fill 48 Copy" d="M6.7,4.2c0,2.318-1.5,4.2-3.349,4.2S0,6.514,0,4.2,1.5,0,3.348,0,6.7,1.879,6.7,4.2" transform="translate(97.101 57.073)" fill="#0d71fc"/>
            <path id="Fill_61_Copy" data-name="Fill 61 Copy" d="M6.7,3.357A3.348,3.348,0,1,1,3.348,0,3.353,3.353,0,0,1,6.7,3.357" transform="translate(97.101 77.216)" fill="#0d71fc"/>
            <path id="Fill_74_Copy" data-name="Fill 74 Copy" d="M6.7,3.357A3.348,3.348,0,1,1,3.348,0,3.352,3.352,0,0,1,6.7,3.357" transform="translate(97.101 95.681)" fill="#0d71fc"/>
        </g>
        <g id="Group_79_Copy_3" data-name="Group 79 Copy 3" transform="translate(117.825)">
            <path id="Fill_1-2" data-name="Fill 1" d="M6.7,3.357A3.348,3.348,0,1,1,3.347,0,3.353,3.353,0,0,1,6.7,3.357" transform="translate(0)" fill="#0d71fc"/>
            <path id="Fill_3-2" data-name="Fill 3" d="M6.7,3.357A3.348,3.348,0,1,1,3.348,0,3.353,3.353,0,0,1,6.7,3.357" transform="translate(20.09)" fill="#0d71fc"/>
            <path id="Fill_5-2" data-name="Fill 5" d="M6.7,3.357A3.348,3.348,0,1,1,3.348,0,3.353,3.353,0,0,1,6.7,3.357" transform="translate(38.506)" fill="#0d71fc"/>
            <path id="Fill_7-2" data-name="Fill 7" d="M6.7,3.357A3.348,3.348,0,1,1,3.347,0,3.353,3.353,0,0,1,6.7,3.357" transform="translate(58.596)" fill="#0d71fc"/>
            <path id="Fill_9-2" data-name="Fill 9" d="M6.7,3.357A3.348,3.348,0,1,1,3.348,0,3.352,3.352,0,0,1,6.7,3.357" transform="translate(77.012)" fill="#0d71fc"/>
            <path id="Fill_14-2" data-name="Fill 14" d="M6.7,3.357A3.348,3.348,0,1,1,3.347,0,3.353,3.353,0,0,1,6.7,3.357" transform="translate(0 18.465)" fill="#0d71fc"/>
            <path id="Fill_16-2" data-name="Fill 16" d="M6.7,3.357A3.348,3.348,0,1,1,3.348,0,3.353,3.353,0,0,1,6.7,3.357" transform="translate(20.09 18.465)" fill="#0d71fc"/>
            <path id="Fill_18-2" data-name="Fill 18" d="M6.7,3.357A3.348,3.348,0,1,1,3.348,0,3.353,3.353,0,0,1,6.7,3.357" transform="translate(38.506 18.465)" fill="#0d71fc"/>
            <path id="Fill_20-2" data-name="Fill 20" d="M6.7,3.357A3.348,3.348,0,1,1,3.347,0,3.353,3.353,0,0,1,6.7,3.357" transform="translate(58.596 18.465)" fill="#0d71fc"/>
            <path id="Fill_22-2" data-name="Fill 22" d="M6.7,3.357A3.348,3.348,0,1,1,3.348,0,3.352,3.352,0,0,1,6.7,3.357" transform="translate(77.012 18.465)" fill="#0d71fc"/>
            <path id="Fill_27-2" data-name="Fill 27" d="M6.7,4.2c0,2.317-1.5,4.2-3.35,4.2S0,6.514,0,4.2,1.5,0,3.347,0,6.7,1.879,6.7,4.2" transform="translate(0 38.608)" fill="#0d71fc"/>
            <path id="Fill_29-2" data-name="Fill 29" d="M6.7,4.2c0,2.317-1.5,4.2-3.349,4.2S0,6.514,0,4.2,1.5,0,3.348,0,6.7,1.879,6.7,4.2" transform="translate(20.09 38.608)" fill="#0d71fc"/>
            <path id="Fill_31-2" data-name="Fill 31" d="M6.7,4.2c0,2.317-1.5,4.2-3.348,4.2S0,6.514,0,4.2,1.5,0,3.348,0,6.7,1.879,6.7,4.2" transform="translate(38.506 38.608)" fill="#0d71fc"/>
            <path id="Fill_33-2" data-name="Fill 33" d="M6.7,4.2c0,2.317-1.5,4.2-3.35,4.2S0,6.514,0,4.2,1.5,0,3.347,0,6.7,1.879,6.7,4.2" transform="translate(58.596 38.608)" fill="#0d71fc"/>
            <path id="Fill_35-2" data-name="Fill 35" d="M6.7,4.2c0,2.317-1.5,4.2-3.349,4.2S0,6.514,0,4.2,1.5,0,3.348,0,6.7,1.879,6.7,4.2" transform="translate(77.012 38.608)" fill="#0d71fc"/>
            <path id="Fill_40-2" data-name="Fill 40" d="M6.7,4.2c0,2.318-1.5,4.2-3.35,4.2S0,6.514,0,4.2,1.5,0,3.347,0,6.7,1.879,6.7,4.2" transform="translate(0 57.073)" fill="#0d71fc"/>
            <path id="Fill_42-2" data-name="Fill 42" d="M6.7,4.2c0,2.318-1.5,4.2-3.349,4.2S0,6.514,0,4.2,1.5,0,3.348,0,6.7,1.879,6.7,4.2" transform="translate(20.09 57.073)" fill="#0d71fc"/>
            <path id="Fill_44-2" data-name="Fill 44" d="M6.7,4.2c0,2.318-1.5,4.2-3.348,4.2S0,6.514,0,4.2,1.5,0,3.348,0,6.7,1.879,6.7,4.2" transform="translate(38.506 57.073)" fill="#0d71fc"/>
            <path id="Fill_46-2" data-name="Fill 46" d="M6.7,4.2c0,2.318-1.5,4.2-3.35,4.2S0,6.514,0,4.2,1.5,0,3.347,0,6.7,1.879,6.7,4.2" transform="translate(58.596 57.073)" fill="#0d71fc"/>
            <path id="Fill_48-2" data-name="Fill 48" d="M6.7,4.2c0,2.318-1.5,4.2-3.349,4.2S0,6.514,0,4.2,1.5,0,3.348,0,6.7,1.879,6.7,4.2" transform="translate(77.012 57.073)" fill="#0d71fc"/>
            <path id="Fill_53-2" data-name="Fill 53" d="M6.7,3.357A3.348,3.348,0,1,1,3.347,0,3.353,3.353,0,0,1,6.7,3.357" transform="translate(0 77.216)" fill="#0d71fc"/>
            <path id="Fill_55-2" data-name="Fill 55" d="M6.7,3.357A3.348,3.348,0,1,1,3.348,0,3.353,3.353,0,0,1,6.7,3.357" transform="translate(20.09 77.216)" fill="#0d71fc"/>
            <path id="Fill_57-2" data-name="Fill 57" d="M6.7,3.357A3.348,3.348,0,1,1,3.348,0,3.353,3.353,0,0,1,6.7,3.357" transform="translate(38.506 77.216)" fill="#0d71fc"/>
            <path id="Fill_59-2" data-name="Fill 59" d="M6.7,3.357A3.348,3.348,0,1,1,3.347,0,3.353,3.353,0,0,1,6.7,3.357" transform="translate(58.596 77.216)" fill="#0d71fc"/>
            <path id="Fill_61-2" data-name="Fill 61" d="M6.7,3.357A3.348,3.348,0,1,1,3.348,0,3.353,3.353,0,0,1,6.7,3.357" transform="translate(77.012 77.216)" fill="#0d71fc"/>
            <path id="Fill_66-2" data-name="Fill 66" d="M6.7,3.357A3.348,3.348,0,1,1,3.347,0,3.353,3.353,0,0,1,6.7,3.357" transform="translate(0 95.681)" fill="#0d71fc"/>
            <path id="Fill_68-2" data-name="Fill 68" d="M6.7,3.357A3.348,3.348,0,1,1,3.348,0,3.353,3.353,0,0,1,6.7,3.357" transform="translate(20.09 95.681)" fill="#0d71fc"/>
            <path id="Fill_70-2" data-name="Fill 70" d="M6.7,3.357A3.348,3.348,0,1,1,3.348,0,3.353,3.353,0,0,1,6.7,3.357" transform="translate(38.506 95.681)" fill="#0d71fc"/>
            <path id="Fill_72-2" data-name="Fill 72" d="M6.7,3.357A3.348,3.348,0,1,1,3.347,0,3.353,3.353,0,0,1,6.7,3.357" transform="translate(58.596 95.681)" fill="#0d71fc"/>
            <path id="Fill_74-2" data-name="Fill 74" d="M6.7,3.357A3.348,3.348,0,1,1,3.348,0,3.352,3.352,0,0,1,6.7,3.357" transform="translate(77.012 95.681)" fill="#0d71fc"/>
            <path id="Fill_9_Copy-2" data-name="Fill 9 Copy" d="M6.7,3.357A3.348,3.348,0,1,1,3.348,0,3.352,3.352,0,0,1,6.7,3.357" transform="translate(97.101)" fill="#0d71fc"/>
            <path id="Fill_22_Copy-2" data-name="Fill 22 Copy" d="M6.7,3.357A3.348,3.348,0,1,1,3.348,0,3.352,3.352,0,0,1,6.7,3.357" transform="translate(97.101 18.465)" fill="#0d71fc"/>
            <path id="Fill_35_Copy-2" data-name="Fill 35 Copy" d="M6.7,4.2c0,2.317-1.5,4.2-3.349,4.2S0,6.514,0,4.2,1.5,0,3.348,0,6.7,1.879,6.7,4.2" transform="translate(97.101 38.608)" fill="#0d71fc"/>
            <path id="Fill_48_Copy-2" data-name="Fill 48 Copy" d="M6.7,4.2c0,2.318-1.5,4.2-3.349,4.2S0,6.514,0,4.2,1.5,0,3.348,0,6.7,1.879,6.7,4.2" transform="translate(97.101 57.073)" fill="#0d71fc"/>
            <path id="Fill_61_Copy-2" data-name="Fill 61 Copy" d="M6.7,3.357A3.348,3.348,0,1,1,3.348,0,3.353,3.353,0,0,1,6.7,3.357" transform="translate(97.101 77.216)" fill="#0d71fc"/>
            <path id="Fill_74_Copy-2" data-name="Fill 74 Copy" d="M6.7,3.357A3.348,3.348,0,1,1,3.348,0,3.352,3.352,0,0,1,6.7,3.357" transform="translate(97.101 95.681)" fill="#0d71fc"/>
        </g>
    </g>
</svg>