<?xml version="1.0" encoding="UTF-8"?>
<!DOCTYPE svg PUBLIC "-//W3C//DTD SVG 1.1//EN" "http://www.w3.org/Graphics/SVG/1.1/DTD/svg11.dtd">
<svg xmlns="http://www.w3.org/2000/svg" version="1.1" width="482px" height="110px" style="shape-rendering:geometricPrecision; text-rendering:geometricPrecision; image-rendering:optimizeQuality; fill-rule:evenodd; clip-rule:evenodd" xmlns:xlink="http://www.w3.org/1999/xlink">
<g><path style="opacity:1" fill="#fefefe" d="M -0.5,-0.5 C 160.167,-0.5 320.833,-0.5 481.5,-0.5C 481.5,36.1667 481.5,72.8333 481.5,109.5C 320.833,109.5 160.167,109.5 -0.5,109.5C -0.5,72.8333 -0.5,36.1667 -0.5,-0.5 Z"/></g>
<g><path style="opacity:1" fill="#87b8c3" d="M 110.5,18.5 C 110.678,17.3052 111.011,16.1385 111.5,15C 110.824,13.3167 109.824,13.1501 108.5,14.5C 109.505,11.3306 111.505,10.3306 114.5,11.5C 113.524,14.1629 112.19,16.4962 110.5,18.5 Z"/></g>
<g><path style="opacity:1" fill="#7daebb" d="M 108.5,14.5 C 103.583,21.4309 97.2493,26.4309 89.5,29.5C 95.4428,24.0887 101.776,19.0887 108.5,14.5 Z"/></g>
<g><path style="opacity:1" fill="#388096" d="M 110.5,18.5 C 109.25,21.006 108.584,23.6726 108.5,26.5C 104.649,30.8623 101.816,35.8623 100,41.5C 93.051,49.2853 85.8843,56.952 78.5,64.5C 76.8333,65.8333 75.1667,67.1667 73.5,68.5C 69.827,70.0002 66.4937,72.0002 63.5,74.5C 63.1667,75.5 62.5,76.1667 61.5,76.5C 58.2351,76.918 55.2351,78.0847 52.5,80C 50.5273,80.4955 48.5273,80.6621 46.5,80.5C 44.9651,76.5621 43.6318,72.5621 42.5,68.5C 41.0717,65.3844 39.7384,62.2177 38.5,59C 39.0077,57.1074 40.0077,55.6074 41.5,54.5C 48.7331,52.3637 55.7331,49.5304 62.5,46C 71.9302,40.9635 80.9302,35.4635 89.5,29.5C 97.2493,26.4309 103.583,21.4309 108.5,14.5C 109.824,13.1501 110.824,13.3167 111.5,15C 111.011,16.1385 110.678,17.3052 110.5,18.5 Z"/></g>
<g><path style="opacity:1" fill="#cce1e6" d="M 122.5,17.5 C 123.978,17.238 125.311,17.5713 126.5,18.5C 127.05,20.6568 127.717,22.6568 128.5,24.5C 128.666,28.8461 128.499,33.1794 128,37.5C 125.753,46.7191 123.253,55.7191 120.5,64.5C 120.974,57.2837 122.474,50.2837 125,43.5C 125.667,41.1667 125.667,38.8333 125,36.5C 122.453,42.2552 120.453,48.2552 119,54.5C 117.724,57.5994 115.89,60.2661 113.5,62.5C 118.466,49.3459 122.8,36.0126 126.5,22.5C 125.873,20.2127 124.54,18.546 122.5,17.5 Z"/></g>
<g><path style="opacity:1" fill="#78b0be" d="M 146.5,34.5 C 146.833,35.1667 147.167,35.8333 147.5,36.5C 146.417,36.4606 145.417,36.1272 144.5,35.5C 143.479,43.8244 143.479,52.1578 144.5,60.5C 142.754,52.0671 142.088,43.4005 142.5,34.5C 143.833,34.5 145.167,34.5 146.5,34.5 Z"/></g>
<g><path style="opacity:1" fill="#398096" d="M 122.5,17.5 C 124.54,18.546 125.873,20.2127 126.5,22.5C 122.8,36.0126 118.466,49.3459 113.5,62.5C 111.833,66.5 110.167,70.5 108.5,74.5C 108.167,74.5 107.833,74.5 107.5,74.5C 99.1401,74.8312 90.8068,74.4979 82.5,73.5C 89.1537,66.8235 94.8203,59.4902 99.5,51.5C 101.588,49.6644 102.921,47.3311 103.5,44.5C 107.562,41.617 109.562,37.617 109.5,32.5C 110.315,31.5707 111.148,30.5707 112,29.5C 113.605,24.903 115.105,20.2363 116.5,15.5C 118.933,14.5514 120.933,15.2181 122.5,17.5 Z"/></g>
<g><path style="opacity:1" fill="#c7dfe4" d="M 135.5,27.5 C 139.178,29.8498 142.844,32.1831 146.5,34.5C 145.167,34.5 143.833,34.5 142.5,34.5C 142.088,43.4005 142.754,52.0671 144.5,60.5C 144.334,64.5138 144.501,68.5138 145,72.5C 145.278,73.4158 145.778,74.0825 146.5,74.5C 146.709,75.9217 147.209,77.255 148,78.5C 152.171,68.8255 156.837,59.4922 162,50.5C 162.982,47.2253 162.149,44.5586 159.5,42.5C 164.018,43.5365 165.352,46.2032 163.5,50.5C 157.548,59.7859 153.382,69.7859 151,80.5C 149.89,82.0368 148.39,82.7035 146.5,82.5C 146.357,79.9026 145.523,77.5692 144,75.5C 142.435,61.8776 141.435,48.211 141,34.5C 139.906,41.9396 139.406,49.4396 139.5,57C 139.758,64.8648 139.924,72.6981 140,80.5C 139.107,81.0814 138.107,81.4148 137,81.5C 130.132,79.9833 123.299,78.65 116.5,77.5C 116.216,75.5853 116.549,73.9187 117.5,72.5C 117.5,73.8333 117.5,75.1667 117.5,76.5C 123.311,76.2093 128.978,76.876 134.5,78.5C 136.333,78.4146 137.666,77.7479 138.5,76.5C 138.5,63.8333 138.5,51.1667 138.5,38.5C 139.193,34.2473 138.193,30.5807 135.5,27.5 Z"/></g>
<g><path style="opacity:1" fill="#398096" d="M 147.5,36.5 C 150.997,39.5816 154.997,41.5816 159.5,42.5C 162.149,44.5586 162.982,47.2253 162,50.5C 156.837,59.4922 152.171,68.8255 148,78.5C 147.209,77.255 146.709,75.9217 146.5,74.5C 146.877,69.5474 146.211,64.8807 144.5,60.5C 143.479,52.1578 143.479,43.8244 144.5,35.5C 145.417,36.1272 146.417,36.4606 147.5,36.5 Z"/></g>
<g><path style="opacity:1" fill="#398096" d="M 128.5,24.5 C 131.195,24.6815 133.528,25.6815 135.5,27.5C 138.193,30.5807 139.193,34.2473 138.5,38.5C 137.732,39.2625 137.232,40.2625 137,41.5C 136.833,46.3333 136.667,51.1667 136.5,56C 136.303,63.0697 136.97,69.9031 138.5,76.5C 137.666,77.7479 136.333,78.4146 134.5,78.5C 128.978,76.876 123.311,76.2093 117.5,76.5C 117.5,75.1667 117.5,73.8333 117.5,72.5C 118.248,69.8298 119.248,67.1631 120.5,64.5C 123.253,55.7191 125.753,46.7191 128,37.5C 128.499,33.1794 128.666,28.8461 128.5,24.5 Z"/></g>
<g><path style="opacity:1" fill="#bcd8de" d="M 108.5,26.5 C 108.179,27.8175 107.846,29.1508 107.5,30.5C 107.747,31.7133 108.414,32.38 109.5,32.5C 109.562,37.617 107.562,41.617 103.5,44.5C 104.726,41.6756 106.059,38.8422 107.5,36C 107.167,35.1667 106.833,34.3333 106.5,33.5C 106.167,33.6667 105.833,33.8333 105.5,34C 103.057,39.0514 100.224,43.8847 97,48.5C 90.9417,54.0654 84.7751,59.3987 78.5,64.5C 85.8843,56.952 93.051,49.2853 100,41.5C 101.816,35.8623 104.649,30.8623 108.5,26.5 Z"/></g>
<g><path style="opacity:1" fill="#b4b4b3" d="M 372.5,56.5 C 370.313,55.242 367.98,54.242 365.5,53.5C 361.366,52.5151 357.032,52.1818 352.5,52.5C 352.5,62.5 352.5,72.5 352.5,82.5C 351.173,78.049 350.506,73.2157 350.5,68C 350.524,62.7841 350.857,57.6175 351.5,52.5C 357.137,51.3368 362.804,51.1701 368.5,52C 370.384,53.0487 371.718,54.5487 372.5,56.5 Z"/></g>
<g><path style="opacity:1" fill="#c2c2c2" d="M 408.5,54.5 C 404.505,52.4952 400.505,52.1618 396.5,53.5C 393.496,53.722 390.829,54.722 388.5,56.5C 388.712,54.6159 389.712,53.2826 391.5,52.5C 396.833,51.1667 402.167,51.1667 407.5,52.5C 407.863,53.1835 408.196,53.8501 408.5,54.5 Z"/></g>
<g><path style="opacity:1" fill="#565655" d="M 396.5,53.5 C 400.505,52.1618 404.505,52.4952 408.5,54.5C 408.833,55.1667 409.167,55.8333 409.5,56.5C 405.419,54.4744 401.085,53.4744 396.5,53.5 Z"/></g>
<g><path style="opacity:1" fill="#d1d1d0" d="M 428.5,52.5 C 432.981,51.3516 437.648,51.1849 442.5,52C 447.846,55.8406 447.512,59.3406 441.5,62.5C 439.028,61.2335 436.694,61.2335 434.5,62.5C 433.5,62.5 432.5,62.5 431.5,62.5C 431.5,61.5 431.5,60.5 431.5,59.5C 435.49,60.1901 439.49,60.3568 443.5,60C 444.807,58.0565 444.807,56.2232 443.5,54.5C 442.167,54.1667 440.833,53.8333 439.5,53.5C 436.038,52.5184 432.371,52.185 428.5,52.5 Z"/></g>
<g><path style="opacity:1" fill="#dbdbda" d="M 225.5,62.5 C 224.833,62.1667 224.167,61.8333 223.5,61.5C 221.823,59.4602 220.156,57.4602 218.5,55.5C 218.672,54.5084 218.338,53.8417 217.5,53.5C 215.5,52.1667 213.5,52.1667 211.5,53.5C 210.506,62.9856 210.173,72.6522 210.5,82.5C 209.342,72.6753 209.175,62.6753 210,52.5C 214.283,50.7633 218.117,51.43 221.5,54.5C 222.86,57.2198 224.193,59.8864 225.5,62.5 Z"/></g>
<g><path style="opacity:1" fill="#a0a0a0" d="M 329.5,53.5 C 331.527,53.3379 333.527,53.5045 335.5,54C 336.252,54.6708 336.586,55.5041 336.5,56.5C 334.161,55.3657 331.827,54.3657 329.5,53.5 Z"/></g>
<g><path style="opacity:1" fill="#171716" d="M 396.5,53.5 C 401.085,53.4744 405.419,54.4744 409.5,56.5C 410.89,57.8993 411.89,59.5659 412.5,61.5C 413.833,65.5 413.833,69.5 412.5,73.5C 412.5,73.8333 412.5,74.1667 412.5,74.5C 409.5,76.8333 406.833,79.5 404.5,82.5C 400.833,82.5 397.167,82.5 393.5,82.5C 390.261,79.9105 387.594,76.9105 385.5,73.5C 384.662,73.1583 384.328,72.4916 384.5,71.5C 383.672,65.8096 385.006,60.8096 388.5,56.5C 390.829,54.722 393.496,53.722 396.5,53.5 Z"/></g>
<g><path style="opacity:1" fill="#141413" d="M 439.5,53.5 C 440.833,53.8333 442.167,54.1667 443.5,54.5C 443.714,56.1439 443.38,57.6439 442.5,59C 438.541,58.8418 434.541,58.6751 430.5,58.5C 429.425,62.938 431.092,64.938 435.5,64.5C 436.167,64.5 436.833,64.5 437.5,64.5C 439.858,65.98 442.191,67.6466 444.5,69.5C 445.374,71.7466 445.708,74.0799 445.5,76.5C 443.821,77.9163 442.154,79.2497 440.5,80.5C 435.05,80.6354 429.716,79.9687 424.5,78.5C 424.5,77.5 424.5,76.5 424.5,75.5C 425.708,74.7659 427.041,74.4326 428.5,74.5C 429.946,75.9402 431.779,76.6068 434,76.5C 435.385,76.4857 436.551,76.1524 437.5,75.5C 438.801,74.1155 438.801,72.6155 437.5,71C 433.079,71.0176 429.412,69.5176 426.5,66.5C 424.29,56.0418 428.623,51.7085 439.5,53.5 Z"/></g>
<g><path style="opacity:1" fill="#0b0b09" d="M 218.5,55.5 C 220.156,57.4602 221.823,59.4602 223.5,61.5C 224.226,64.2878 225.893,66.2878 228.5,67.5C 229.209,68.404 230.209,68.7373 231.5,68.5C 231.5,63.8333 231.5,59.1667 231.5,54.5C 232.833,54.5 234.167,54.5 235.5,54.5C 235.5,63.1667 235.5,71.8333 235.5,80.5C 234.167,80.5 232.833,80.5 231.5,80.5C 228.74,78.9055 226.907,76.5721 226,73.5C 225.184,72.1772 224.017,71.5106 222.5,71.5C 222.267,69.9382 221.6,68.6049 220.5,67.5C 219.791,66.596 218.791,66.2627 217.5,66.5C 217.5,71.1667 217.5,75.8333 217.5,80.5C 216.167,80.5 214.833,80.5 213.5,80.5C 213.5,71.8333 213.5,63.1667 213.5,54.5C 215.292,54.366 216.958,54.6993 218.5,55.5 Z"/></g>
<g><path style="opacity:1" fill="#0d0d0b" d="M 290.5,70.5 C 288.692,71.9179 288.025,73.9179 288.5,76.5C 292.5,76.5 296.5,76.5 300.5,76.5C 300.5,77.8333 300.5,79.1667 300.5,80.5C 294.5,80.5 288.5,80.5 282.5,80.5C 282.5,71.8333 282.5,63.1667 282.5,54.5C 288.167,54.5 293.833,54.5 299.5,54.5C 299.5,55.5 299.5,56.5 299.5,57.5C 295.833,57.5 292.167,57.5 288.5,57.5C 288.232,60.1194 288.565,62.6194 289.5,65C 292.146,65.4974 294.813,65.6641 297.5,65.5C 297.5,66.8333 297.5,68.1667 297.5,69.5C 294.941,69.1984 292.607,69.5318 290.5,70.5 Z"/></g>
<g><path style="opacity:1" fill="#0f0f0e" d="M 336.5,58.5 C 337.117,58.6107 337.617,58.944 338,59.5C 338.497,62.146 338.664,64.8127 338.5,67.5C 333.314,69.2638 332.314,72.2638 335.5,76.5C 335.5,77.8333 335.5,79.1667 335.5,80.5C 333.833,80.5 332.167,80.5 330.5,80.5C 329.489,78.6284 328.655,76.6284 328,74.5C 326.556,72.8446 324.722,72.178 322.5,72.5C 322.5,75.1667 322.5,77.8333 322.5,80.5C 320.833,80.5 319.167,80.5 317.5,80.5C 317.5,71.8333 317.5,63.1667 317.5,54.5C 324.386,53.6906 330.719,55.024 336.5,58.5 Z"/></g>
<g><path style="opacity:1" fill="#111110" d="M 365.5,53.5 C 367.98,54.242 370.313,55.242 372.5,56.5C 375.602,61.2797 375.102,65.613 371,69.5C 370.204,72.0385 370.371,74.3718 371.5,76.5C 371.5,77.8333 371.5,79.1667 371.5,80.5C 369.833,80.5 368.167,80.5 366.5,80.5C 365.532,77.8997 364.199,75.5664 362.5,73.5C 361.432,72.5655 360.099,72.2322 358.5,72.5C 358.5,75.1667 358.5,77.8333 358.5,80.5C 356.833,80.5 355.167,80.5 353.5,80.5C 353.5,71.5 353.5,62.5 353.5,53.5C 357.5,53.5 361.5,53.5 365.5,53.5 Z"/></g>
<g><path style="opacity:1" fill="#7c7c7a" d="M 230.5,53.5 C 231.103,58.6186 230.436,63.2853 228.5,67.5C 225.893,66.2878 224.226,64.2878 223.5,61.5C 224.167,61.8333 224.833,62.1667 225.5,62.5C 226.283,64.0758 227.45,65.4092 229,66.5C 229.175,61.9805 229.675,57.6472 230.5,53.5 Z"/></g>
<g><path style="opacity:1" fill="#2f2f2f" d="M 230.5,53.5 C 232.5,53.5 234.5,53.5 236.5,53.5C 236.5,63.1667 236.5,72.8333 236.5,82.5C 234.302,82.8799 232.635,82.2132 231.5,80.5C 232.833,80.5 234.167,80.5 235.5,80.5C 235.5,71.8333 235.5,63.1667 235.5,54.5C 234.167,54.5 232.833,54.5 231.5,54.5C 231.5,59.1667 231.5,63.8333 231.5,68.5C 230.209,68.7373 229.209,68.404 228.5,67.5C 230.436,63.2853 231.103,58.6186 230.5,53.5 Z"/></g>
<g><path style="opacity:1" fill="#7b7c79" d="M 329.5,53.5 C 325.167,53.5 320.833,53.5 316.5,53.5C 316.5,63.1667 316.5,72.8333 316.5,82.5C 315.506,72.6806 315.173,62.6806 315.5,52.5C 320.363,52.1805 325.03,52.5139 329.5,53.5 Z"/></g>
<g><path style="opacity:1" fill="#434342" d="M 365.5,53.5 C 361.5,53.5 357.5,53.5 353.5,53.5C 353.5,62.5 353.5,71.5 353.5,80.5C 355.167,80.5 356.833,80.5 358.5,80.5C 358.5,77.8333 358.5,75.1667 358.5,72.5C 360.099,72.2322 361.432,72.5655 362.5,73.5C 361.5,73.5 360.5,73.5 359.5,73.5C 359.5,76.5 359.5,79.5 359.5,82.5C 357.167,82.5 354.833,82.5 352.5,82.5C 352.5,72.5 352.5,62.5 352.5,52.5C 357.032,52.1818 361.366,52.5151 365.5,53.5 Z"/></g>
<g><path style="opacity:1" fill="#777775" d="M 217.5,53.5 C 215.833,53.5 214.167,53.5 212.5,53.5C 212.5,62.5 212.5,71.5 212.5,80.5C 211.507,71.6822 211.173,62.6822 211.5,53.5C 213.5,52.1667 215.5,52.1667 217.5,53.5 Z"/></g>
<g><path style="opacity:1" fill="#737472" d="M 443.5,54.5 C 444.807,56.2232 444.807,58.0565 443.5,60C 439.49,60.3568 435.49,60.1901 431.5,59.5C 431.5,60.5 431.5,61.5 431.5,62.5C 432.5,62.5 433.5,62.5 434.5,62.5C 434.833,63.1667 435.167,63.8333 435.5,64.5C 431.092,64.938 429.425,62.938 430.5,58.5C 434.541,58.6751 438.541,58.8418 442.5,59C 443.38,57.6439 443.714,56.1439 443.5,54.5 Z"/></g>
<g><path style="opacity:1" fill="#dcdcdb" d="M 198.5,82.5 C 198.666,73.1607 198.5,63.8274 198,54.5C 195.302,52.327 192.469,51.9937 189.5,53.5C 188.506,62.9856 188.173,72.6522 188.5,82.5C 187.342,72.6753 187.175,62.6753 188,52.5C 191.667,51.1667 195.333,51.1667 199,52.5C 199.825,62.6753 199.658,72.6753 198.5,82.5 Z"/></g>
<g><path style="opacity:1" fill="#6e6f6c" d="M 198.5,82.5 C 195.833,82.5 193.167,82.5 190.5,82.5C 190.5,81.8333 190.5,81.1667 190.5,80.5C 189.507,71.6822 189.173,62.6822 189.5,53.5C 192.469,51.9937 195.302,52.327 198,54.5C 198.5,63.8274 198.666,73.1607 198.5,82.5 Z"/></g>
<g><path style="opacity:1" fill="#aaaba8" d="M 189.5,53.5 C 189.173,62.6822 189.507,71.6822 190.5,80.5C 190.5,81.1667 190.5,81.8333 190.5,82.5C 189.833,82.5 189.167,82.5 188.5,82.5C 188.173,72.6522 188.506,62.9856 189.5,53.5 Z"/></g>
<g><path style="opacity:1" fill="#1d1e1c" d="M 190.5,80.5 C 190.5,71.8333 190.5,63.1667 190.5,54.5C 192.5,54.5 194.5,54.5 196.5,54.5C 196.5,63.1667 196.5,71.8333 196.5,80.5C 194.5,80.5 192.5,80.5 190.5,80.5 Z"/></g>
<g><path style="opacity:1" fill="#010200" d="M 191.5,55.5 C 192.833,55.5 194.167,55.5 195.5,55.5C 195.5,63.5 195.5,71.5 195.5,79.5C 194.167,79.5 192.833,79.5 191.5,79.5C 191.5,71.5 191.5,63.5 191.5,55.5 Z"/></g>
<g><path style="opacity:1" fill="#b3b3b1" d="M 211.5,53.5 C 211.173,62.6822 211.507,71.6822 212.5,80.5C 212.5,81.1667 212.5,81.8333 212.5,82.5C 211.833,82.5 211.167,82.5 210.5,82.5C 210.173,72.6522 210.506,62.9856 211.5,53.5 Z"/></g>
<g><path style="opacity:1" fill="#9e9e9b" d="M 281.5,53.5 C 281.173,62.6822 281.507,71.6822 282.5,80.5C 282.5,81.1667 282.5,81.8333 282.5,82.5C 281.173,78.049 280.506,73.2157 280.5,68C 280.501,62.9881 280.834,58.1547 281.5,53.5 Z"/></g>
<g><path style="opacity:1" fill="#cdcdcc" d="M 402.5,75.5 C 399.763,75.5987 397.096,75.2653 394.5,74.5C 394.443,73.391 394.11,72.391 393.5,71.5C 396.637,73.4462 399.97,73.7795 403.5,72.5C 404.648,68.8527 404.648,65.186 403.5,61.5C 400.833,61.5 398.167,61.5 395.5,61.5C 395.715,63.1788 395.048,64.1788 393.5,64.5C 393.833,63.1667 394.167,61.8333 394.5,60.5C 398.912,57.4299 402.745,58.0966 406,62.5C 407.461,67.7164 406.295,72.0497 402.5,75.5 Z"/></g>
<g><path style="opacity:1" fill="#4e4e4d" d="M 428.5,52.5 C 432.371,52.185 436.038,52.5184 439.5,53.5C 428.623,51.7085 424.29,56.0418 426.5,66.5C 425.391,66.4431 424.391,66.1098 423.5,65.5C 423.106,64.0328 422.773,62.5328 422.5,61C 423.929,57.7417 425.929,54.9084 428.5,52.5 Z"/></g>
<g><path style="opacity:1" fill="#adcfd7" d="M 41.5,54.5 C 40.0077,55.6074 39.0077,57.1074 38.5,59C 39.7384,62.2177 41.0717,65.3844 42.5,68.5C 38.407,64.8752 36.407,60.2085 36.5,54.5C 38.1667,54.5 39.8333,54.5 41.5,54.5 Z"/></g>
<g><path style="opacity:1" fill="#cececd" d="M 263.5,82.5 C 263.5,74.8333 263.5,67.1667 263.5,59.5C 266.059,59.8016 268.393,59.4682 270.5,58.5C 271.807,56.7768 271.807,54.9435 270.5,53C 262.507,52.5003 254.507,52.3336 246.5,52.5C 246.5,54.5 246.5,56.5 246.5,58.5C 248.948,59.4731 251.615,59.8064 254.5,59.5C 254.5,67.1667 254.5,74.8333 254.5,82.5C 253.508,75.3524 253.175,68.0191 253.5,60.5C 246.345,62.061 243.511,59.3943 245,52.5C 254.333,51.1667 263.667,51.1667 273,52.5C 274.489,59.3943 271.655,62.061 264.5,60.5C 264.825,68.0191 264.492,75.3524 263.5,82.5 Z"/></g>
<g><path style="opacity:1" fill="#0a0a09" d="M 262.5,58.5 C 261.508,65.6476 261.175,72.9809 261.5,80.5C 259.833,80.5 258.167,80.5 256.5,80.5C 255.833,73.1667 255.167,65.8333 254.5,58.5C 252.393,57.5318 250.059,57.1984 247.5,57.5C 247.5,56.5 247.5,55.5 247.5,54.5C 255.167,54.5 262.833,54.5 270.5,54.5C 270.5,55.5 270.5,56.5 270.5,57.5C 267.615,57.1936 264.948,57.5269 262.5,58.5 Z"/></g>
<g><path style="opacity:1" fill="#494948" d="M 270.5,58.5 C 267.833,58.5 265.167,58.5 262.5,58.5C 264.948,57.5269 267.615,57.1936 270.5,57.5C 270.5,56.5 270.5,55.5 270.5,54.5C 262.833,54.5 255.167,54.5 247.5,54.5C 247.5,55.5 247.5,56.5 247.5,57.5C 250.059,57.1984 252.393,57.5318 254.5,58.5C 251.833,58.5 249.167,58.5 246.5,58.5C 246.5,56.5 246.5,54.5 246.5,52.5C 254.507,52.3336 262.507,52.5003 270.5,53C 271.807,54.9435 271.807,56.7768 270.5,58.5 Z"/></g>
<g><path style="opacity:1" fill="#ebeceb" d="M 330.5,60.5 C 330.5,61.8333 330.5,63.1667 330.5,64.5C 330.027,65.9063 329.027,66.573 327.5,66.5C 326.167,66.5 324.833,66.5 323.5,66.5C 323.5,64.1667 323.5,61.8333 323.5,59.5C 325.903,59.448 328.236,59.7814 330.5,60.5 Z"/></g>
<g><path style="opacity:1" fill="#eaeae9" d="M 364.5,59.5 C 364.842,60.3382 365.508,60.6716 366.5,60.5C 366.675,62.6208 366.341,64.6208 365.5,66.5C 363.5,66.5 361.5,66.5 359.5,66.5C 359.5,64.1667 359.5,61.8333 359.5,59.5C 361.167,59.5 362.833,59.5 364.5,59.5 Z"/></g>
<g><path style="opacity:1" fill="#969695" d="M 372.5,56.5 C 374.959,57.8738 375.959,60.0405 375.5,63C 375.333,64.5 375.167,66 375,67.5C 371.513,69.7807 370.68,72.7807 372.5,76.5C 372.167,76.5 371.833,76.5 371.5,76.5C 370.371,74.3718 370.204,72.0385 371,69.5C 375.102,65.613 375.602,61.2797 372.5,56.5 Z"/></g>
<g><path style="opacity:1" fill="#fdfdfd" d="M 393.5,71.5 C 393.5,69.1667 393.5,66.8333 393.5,64.5C 395.048,64.1788 395.715,63.1788 395.5,61.5C 398.167,61.5 400.833,61.5 403.5,61.5C 404.648,65.186 404.648,68.8527 403.5,72.5C 399.97,73.7795 396.637,73.4462 393.5,71.5 Z"/></g>
<g><path style="opacity:1" fill="#9f9f9d" d="M 230.5,53.5 C 232.948,52.5269 235.615,52.1936 238.5,52.5C 239.141,62.8893 238.474,72.8893 236.5,82.5C 236.5,72.8333 236.5,63.1667 236.5,53.5C 234.5,53.5 232.5,53.5 230.5,53.5 Z"/></g>
<g><path style="opacity:1" fill="#363636" d="M 262.5,58.5 C 262.5,66.5 262.5,74.5 262.5,82.5C 260.5,82.5 258.5,82.5 256.5,82.5C 256.5,81.8333 256.5,81.1667 256.5,80.5C 258.167,80.5 259.833,80.5 261.5,80.5C 261.175,72.9809 261.508,65.6476 262.5,58.5 Z"/></g>
<g><path style="opacity:1" fill="#858583" d="M 330.5,60.5 C 328.236,59.7814 325.903,59.448 323.5,59.5C 323.5,61.8333 323.5,64.1667 323.5,66.5C 324.833,66.5 326.167,66.5 327.5,66.5C 326.081,67.4511 324.415,67.7845 322.5,67.5C 322.5,64.5 322.5,61.5 322.5,58.5C 324.857,58.3367 327.19,58.5034 329.5,59C 330.056,59.3826 330.389,59.8826 330.5,60.5 Z"/></g>
<g><path style="opacity:1" fill="#858584" d="M 364.5,59.5 C 362.833,59.5 361.167,59.5 359.5,59.5C 359.5,61.8333 359.5,64.1667 359.5,66.5C 361.5,66.5 363.5,66.5 365.5,66.5C 363.393,67.4682 361.059,67.8016 358.5,67.5C 358.5,64.5 358.5,61.5 358.5,58.5C 360.735,58.2053 362.735,58.5386 364.5,59.5 Z"/></g>
<g><path style="opacity:1" fill="#787976" d="M 246.5,58.5 C 249.167,58.5 251.833,58.5 254.5,58.5C 255.167,65.8333 255.833,73.1667 256.5,80.5C 256.5,81.1667 256.5,81.8333 256.5,82.5C 255.833,82.5 255.167,82.5 254.5,82.5C 254.5,74.8333 254.5,67.1667 254.5,59.5C 251.615,59.8064 248.948,59.4731 246.5,58.5 Z"/></g>
<g><path style="opacity:1" fill="#90908f" d="M 262.5,58.5 C 265.167,58.5 267.833,58.5 270.5,58.5C 268.393,59.4682 266.059,59.8016 263.5,59.5C 263.5,67.1667 263.5,74.8333 263.5,82.5C 263.167,82.5 262.833,82.5 262.5,82.5C 262.5,74.5 262.5,66.5 262.5,58.5 Z"/></g>
<g><path style="opacity:1" fill="#5c5d5b" d="M 330.5,60.5 C 331.586,60.62 332.253,61.2867 332.5,62.5C 332.253,63.7133 331.586,64.38 330.5,64.5C 330.5,63.1667 330.5,61.8333 330.5,60.5 Z"/></g>
<g><path style="opacity:1" fill="#545452" d="M 300.5,52.5 C 300.5,54.5 300.5,56.5 300.5,58.5C 296.894,58.2108 293.394,58.5442 290,59.5C 289.28,61.1124 289.446,62.6124 290.5,64C 293.146,64.4974 295.813,64.6641 298.5,64.5C 298.5,66.5 298.5,68.5 298.5,70.5C 295.833,70.5 293.167,70.5 290.5,70.5C 292.607,69.5318 294.941,69.1984 297.5,69.5C 297.5,68.1667 297.5,66.8333 297.5,65.5C 294.813,65.6641 292.146,65.4974 289.5,65C 288.565,62.6194 288.232,60.1194 288.5,57.5C 292.167,57.5 295.833,57.5 299.5,57.5C 299.5,56.5 299.5,55.5 299.5,54.5C 293.833,54.5 288.167,54.5 282.5,54.5C 282.5,63.1667 282.5,71.8333 282.5,80.5C 281.507,71.6822 281.173,62.6822 281.5,53.5C 287.645,52.5098 293.978,52.1765 300.5,52.5 Z"/></g>
<g><path style="opacity:1" fill="#5e9faf" d="M 138.5,38.5 C 138.5,51.1667 138.5,63.8333 138.5,76.5C 136.97,69.9031 136.303,63.0697 136.5,56C 136.667,51.1667 136.833,46.3333 137,41.5C 137.232,40.2625 137.732,39.2625 138.5,38.5 Z"/></g>
<g><path style="opacity:1" fill="#5b5b59" d="M 366.5,60.5 C 368.377,61.6591 368.877,63.3258 368,65.5C 367.329,66.2524 366.496,66.5858 365.5,66.5C 366.341,64.6208 366.675,62.6208 366.5,60.5 Z"/></g>
<g><path style="opacity:1" fill="#afafae" d="M 437.5,64.5 C 440.064,64.9787 442.564,65.6453 445,66.5C 445.44,68.0762 446.273,69.4096 447.5,70.5C 446.95,72.6568 446.283,74.6568 445.5,76.5C 445.708,74.0799 445.374,71.7466 444.5,69.5C 442.191,67.6466 439.858,65.98 437.5,64.5 Z"/></g>
<g><path style="opacity:1" fill="#acacaa" d="M 388.5,56.5 C 385.006,60.8096 383.672,65.8096 384.5,71.5C 383.191,67.6493 383.191,63.6493 384.5,59.5C 385.283,57.7118 386.616,56.7118 388.5,56.5 Z"/></g>
<g><path style="opacity:1" fill="#8f908e" d="M 394.5,60.5 C 394.167,61.8333 393.833,63.1667 393.5,64.5C 393.5,66.8333 393.5,69.1667 393.5,71.5C 394.11,72.391 394.443,73.391 394.5,74.5C 392.172,72.8339 391.172,70.5005 391.5,67.5C 391.172,64.4995 392.172,62.1661 394.5,60.5 Z"/></g>
<g><path style="opacity:1" fill="#6b6c68" d="M 412.5,61.5 C 413.117,61.6107 413.617,61.944 414,62.5C 414.667,65.8333 414.667,69.1667 414,72.5C 413.617,73.056 413.117,73.3893 412.5,73.5C 413.833,69.5 413.833,65.5 412.5,61.5 Z"/></g>
<g><path style="opacity:1" fill="#2f2f2e" d="M 329.5,53.5 C 331.827,54.3657 334.161,55.3657 336.5,56.5C 336.5,57.1667 336.5,57.8333 336.5,58.5C 330.719,55.024 324.386,53.6906 317.5,54.5C 317.5,63.1667 317.5,71.8333 317.5,80.5C 319.167,80.5 320.833,80.5 322.5,80.5C 322.5,81.1667 322.5,81.8333 322.5,82.5C 320.5,82.5 318.5,82.5 316.5,82.5C 316.5,72.8333 316.5,63.1667 316.5,53.5C 320.833,53.5 325.167,53.5 329.5,53.5 Z"/></g>
<g><path style="opacity:1" fill="#cdcdcc" d="M 423.5,65.5 C 424.391,66.1098 425.391,66.4431 426.5,66.5C 429.412,69.5176 433.079,71.0176 437.5,71C 438.801,72.6155 438.801,74.1155 437.5,75.5C 434.482,75.2962 431.482,74.9629 428.5,74.5C 428.53,73.5028 428.03,72.8361 427,72.5C 425.251,72.7483 424.418,73.7483 424.5,75.5C 424.5,76.5 424.5,77.5 424.5,78.5C 424.833,79.1667 425.167,79.8333 425.5,80.5C 423.879,80.2131 422.879,79.2131 422.5,77.5C 423.154,75.8849 423.654,74.2182 424,72.5C 425.509,71.9103 427.009,71.2436 428.5,70.5C 426.43,69.0971 424.763,67.4304 423.5,65.5 Z"/></g>
<g><path style="opacity:1" fill="#b3d1d8" d="M 73.5,68.5 C 73.719,69.675 73.3857,70.675 72.5,71.5C 69.3805,72.3578 66.3805,73.3578 63.5,74.5C 66.4937,72.0002 69.827,70.0002 73.5,68.5 Z"/></g>
<g><path style="opacity:1" fill="#9fa09d" d="M 338.5,67.5 C 337.741,69.4358 336.741,71.2691 335.5,73C 335.989,74.1385 336.322,75.3052 336.5,76.5C 336.167,76.5 335.833,76.5 335.5,76.5C 332.314,72.2638 333.314,69.2638 338.5,67.5 Z"/></g>
<g><path style="opacity:1" fill="#83b6c3" d="M 144.5,60.5 C 146.211,64.8807 146.877,69.5474 146.5,74.5C 145.778,74.0825 145.278,73.4158 145,72.5C 144.501,68.5138 144.334,64.5138 144.5,60.5 Z"/></g>
<g><path style="opacity:1" fill="#3a3938" d="M 217.5,53.5 C 218.338,53.8417 218.672,54.5084 218.5,55.5C 216.958,54.6993 215.292,54.366 213.5,54.5C 213.5,63.1667 213.5,71.8333 213.5,80.5C 214.833,80.5 216.167,80.5 217.5,80.5C 217.5,75.8333 217.5,71.1667 217.5,66.5C 218.791,66.2627 219.791,66.596 220.5,67.5C 218.558,72.0557 217.892,77.0557 218.5,82.5C 216.5,82.5 214.5,82.5 212.5,82.5C 212.5,81.8333 212.5,81.1667 212.5,80.5C 212.5,71.5 212.5,62.5 212.5,53.5C 214.167,53.5 215.833,53.5 217.5,53.5 Z"/></g>
<g><path style="opacity:1" fill="#a8a8a7" d="M 220.5,67.5 C 221.6,68.6049 222.267,69.9382 222.5,71.5C 221.542,71.0472 220.708,70.3805 220,69.5C 219.825,74.0195 219.325,78.3528 218.5,82.5C 217.892,77.0557 218.558,72.0557 220.5,67.5 Z"/></g>
<g><path style="opacity:1" fill="#cfcfce" d="M 300.5,52.5 C 302.369,54.6353 303.036,57.3019 302.5,60.5C 298.833,60.5 295.167,60.5 291.5,60.5C 291.5,61.5 291.5,62.5 291.5,63.5C 294.777,63.2161 297.943,63.5495 301,64.5C 301.758,66.7695 301.591,68.9361 300.5,71C 297.447,71.1786 294.447,71.6786 291.5,72.5C 294.939,72.9065 297.939,73.9065 300.5,75.5C 297.15,75.665 293.817,75.4983 290.5,75C 289.272,73.5098 289.272,72.0098 290.5,70.5C 293.167,70.5 295.833,70.5 298.5,70.5C 298.5,68.5 298.5,66.5 298.5,64.5C 295.813,64.6641 293.146,64.4974 290.5,64C 289.446,62.6124 289.28,61.1124 290,59.5C 293.394,58.5442 296.894,58.2108 300.5,58.5C 300.5,56.5 300.5,54.5 300.5,52.5 Z"/></g>
<g><path style="opacity:1" fill="#7a7a78" d="M 428.5,74.5 C 427.041,74.4326 425.708,74.7659 424.5,75.5C 424.418,73.7483 425.251,72.7483 427,72.5C 428.03,72.8361 428.53,73.5028 428.5,74.5 Z"/></g>
<g><path style="opacity:1" fill="#7fb2c0" d="M 99.5,51.5 C 94.8203,59.4902 89.1537,66.8235 82.5,73.5C 90.8068,74.4979 99.1401,74.8312 107.5,74.5C 98.8084,75.2059 89.9751,75.8726 81,76.5C 80.5,76.1667 80,75.8333 79.5,75.5C 80.1925,74.4822 80.8592,73.4822 81.5,72.5C 87.7673,65.564 93.7673,58.564 99.5,51.5 Z"/></g>
<g><path style="opacity:1" fill="#787876" d="M 290.5,70.5 C 289.272,72.0098 289.272,73.5098 290.5,75C 293.817,75.4983 297.15,75.665 300.5,75.5C 300.5,75.8333 300.5,76.1667 300.5,76.5C 296.5,76.5 292.5,76.5 288.5,76.5C 288.025,73.9179 288.692,71.9179 290.5,70.5 Z"/></g>
<g><path style="opacity:1" fill="#a7a7a5" d="M 330.5,80.5 C 330.5,81.1667 330.5,81.8333 330.5,82.5C 328.222,80.2334 326.389,77.5668 325,74.5C 325.053,77.6752 324.22,80.3419 322.5,82.5C 322.5,81.8333 322.5,81.1667 322.5,80.5C 322.5,77.8333 322.5,75.1667 322.5,72.5C 324.722,72.178 326.556,72.8446 328,74.5C 328.655,76.6284 329.489,78.6284 330.5,80.5 Z"/></g>
<g><path style="opacity:1" fill="#b3b3b1" d="M 362.5,73.5 C 364.199,75.5664 365.532,77.8997 366.5,80.5C 366.5,81.1667 366.5,81.8333 366.5,82.5C 363.908,80.9639 362.908,78.6305 363.5,75.5C 362.5,75.5 361.5,75.5 360.5,75.5C 360.802,78.0593 360.468,80.3926 359.5,82.5C 359.5,79.5 359.5,76.5 359.5,73.5C 360.5,73.5 361.5,73.5 362.5,73.5 Z"/></g>
<g><path style="opacity:1" fill="#868583" d="M 394.5,74.5 C 397.096,75.2653 399.763,75.5987 402.5,75.5C 401.551,76.1524 400.385,76.4857 399,76.5C 396.992,76.6932 395.492,76.0265 394.5,74.5 Z"/></g>
<g><path style="opacity:1" fill="#767674" d="M 428.5,74.5 C 431.482,74.9629 434.482,75.2962 437.5,75.5C 436.551,76.1524 435.385,76.4857 434,76.5C 431.779,76.6068 429.946,75.9402 428.5,74.5 Z"/></g>
<g><path style="opacity:1" fill="#c4dde3" d="M 81.5,72.5 C 80.8592,73.4822 80.1925,74.4822 79.5,75.5C 80,75.8333 80.5,76.1667 81,76.5C 89.9751,75.8726 98.8084,75.2059 107.5,74.5C 107.833,74.5 108.167,74.5 108.5,74.5C 105.742,75.8182 102.576,76.4848 99,76.5C 91.8369,76.972 84.6702,77.3054 77.5,77.5C 77.3692,74.6333 78.7026,72.9666 81.5,72.5 Z"/></g>
<g><path style="opacity:1" fill="#b9bab8" d="M 385.5,73.5 C 387.594,76.9105 390.261,79.9105 393.5,82.5C 388.67,81.3411 386.004,78.3411 385.5,73.5 Z"/></g>
<g><path style="opacity:1" fill="#7d7d7b" d="M 412.5,74.5 C 410.833,78.1667 408.167,80.8333 404.5,82.5C 406.833,79.5 409.5,76.8333 412.5,74.5 Z"/></g>
<g><path style="opacity:1" fill="#b9d5dd" d="M 61.5,76.5 C 57.9049,79.7936 53.5716,81.7936 48.5,82.5C 47.2867,82.2528 46.62,81.5862 46.5,80.5C 48.5273,80.6621 50.5273,80.4955 52.5,80C 55.2351,78.0847 58.2351,76.918 61.5,76.5 Z"/></g>
<g><path style="opacity:1" fill="#aaaaa9" d="M 445.5,76.5 C 446.019,80.3144 444.353,82.3144 440.5,82.5C 440.5,81.8333 440.5,81.1667 440.5,80.5C 442.154,79.2497 443.821,77.9163 445.5,76.5 Z"/></g>
<g><path style="opacity:1" fill="#4f504c" d="M 300.5,76.5 C 301.461,78.2646 301.795,80.2646 301.5,82.5C 295.167,82.5 288.833,82.5 282.5,82.5C 282.5,81.8333 282.5,81.1667 282.5,80.5C 288.5,80.5 294.5,80.5 300.5,80.5C 300.5,79.1667 300.5,77.8333 300.5,76.5 Z"/></g>
<g><path style="opacity:1" fill="#525251" d="M 335.5,76.5 C 335.833,76.5 336.167,76.5 336.5,76.5C 337.72,78.2821 338.386,80.2821 338.5,82.5C 335.833,82.5 333.167,82.5 330.5,82.5C 330.5,81.8333 330.5,81.1667 330.5,80.5C 332.167,80.5 333.833,80.5 335.5,80.5C 335.5,79.1667 335.5,77.8333 335.5,76.5 Z"/></g>
<g><path style="opacity:1" fill="#4f504d" d="M 371.5,76.5 C 371.833,76.5 372.167,76.5 372.5,76.5C 373.72,78.2821 374.386,80.2821 374.5,82.5C 371.833,82.5 369.167,82.5 366.5,82.5C 366.5,81.8333 366.5,81.1667 366.5,80.5C 368.167,80.5 369.833,80.5 371.5,80.5C 371.5,79.1667 371.5,77.8333 371.5,76.5 Z"/></g>
<g><path style="opacity:1" fill="#3c3c39" d="M 424.5,78.5 C 429.716,79.9687 435.05,80.6354 440.5,80.5C 440.5,81.1667 440.5,81.8333 440.5,82.5C 435.26,82.9065 430.26,82.2398 425.5,80.5C 425.167,79.8333 424.833,79.1667 424.5,78.5 Z"/></g>
</svg>
