<?xml version="1.0" encoding="UTF-8"?>
<!DOCTYPE svg PUBLIC "-//W3C//DTD SVG 1.1//EN" "http://www.w3.org/Graphics/SVG/1.1/DTD/svg11.dtd">
<svg xmlns="http://www.w3.org/2000/svg" version="1.1" width="194px" height="96px" style="shape-rendering:geometricPrecision; text-rendering:geometricPrecision; image-rendering:optimizeQuality; fill-rule:evenodd; clip-rule:evenodd" xmlns:xlink="http://www.w3.org/1999/xlink">
<g><path style="opacity:1" fill="#fcfcfc" d="M -0.5,-0.5 C 64.1667,-0.5 128.833,-0.5 193.5,-0.5C 193.5,31.5 193.5,63.5 193.5,95.5C 128.833,95.5 64.1667,95.5 -0.5,95.5C -0.5,63.5 -0.5,31.5 -0.5,-0.5 Z"/></g>
<g><path style="opacity:1" fill="#7b8e9d" d="M 8.5,10.5 C 16.6499,9.50728 24.9832,9.17395 33.5,9.5C 33.5,10.5 33.5,11.5 33.5,12.5C 32.5,12.5 31.5,12.5 30.5,12.5C 30.9175,11.7784 31.5842,11.2784 32.5,11C 24.5069,10.5003 16.5069,10.3336 8.5,10.5 Z"/></g>
<g><path style="opacity:1" fill="#415b72" d="M 167.5,11.5 C 168.097,16.294 167.43,20.6273 165.5,24.5C 164.394,17.5606 160.394,13.3939 153.5,12C 139.485,10.434 130.985,16.6007 128,30.5C 126.766,39.4383 127.766,48.105 131,56.5C 139.329,68.7014 149.662,70.7014 162,62.5C 164.027,59.7789 165.527,56.7789 166.5,53.5C 167.365,52.4173 168.365,52.2506 169.5,53C 168.859,57.452 168.192,61.952 167.5,66.5C 154.722,71.9657 142.055,71.799 129.5,66C 116.334,52.4779 114.167,37.3112 123,20.5C 129.679,12.2702 138.346,8.27024 149,8.5C 155.369,8.52811 161.536,9.52811 167.5,11.5 Z"/></g>
<g><path style="opacity:1" fill="#3d576f" d="M 8.5,10.5 C 16.5069,10.3336 24.5069,10.5003 32.5,11C 31.5842,11.2784 30.9175,11.7784 30.5,12.5C 28.2776,12.178 26.4443,12.8446 25,14.5C 24.3333,30.8333 24.3333,47.1667 25,63.5C 25.5,64 26,64.5 26.5,65C 33.2494,65.8773 39.9161,65.544 46.5,64C 49.4012,61.0327 51.4012,57.5327 52.5,53.5C 53.4941,58.456 53.8275,63.456 53.5,68.5C 38.4852,68.8327 23.4852,68.4993 8.5,67.5C 11.2572,66.9708 13.7572,65.9708 16,64.5C 16.6667,47.8333 16.6667,31.1667 16,14.5C 13.268,13.3352 10.768,12.0019 8.5,10.5 Z"/></g>
<g><path style="opacity:1" fill="#405b72" d="M 55.5,9.5 C 67.5046,9.33346 79.5046,9.50013 91.5,10C 107.14,12.475 115.14,21.6416 115.5,37.5C 115.898,53.912 108.231,64.0787 92.5,68C 80.1532,68.8326 67.8198,68.6659 55.5,67.5C 58.1451,66.8081 60.6451,65.8081 63,64.5C 63.6667,47.8333 63.6667,31.1667 63,14.5C 60.8646,12.7215 58.3646,12.0548 55.5,12.5C 55.5,11.5 55.5,10.5 55.5,9.5 Z"/></g>
<g><path style="opacity:1" fill="#fbfbfc" d="M 73.5,12.5 C 81.9663,11.7435 89.9663,13.2435 97.5,17C 103.586,22.81 106.252,29.9766 105.5,38.5C 105.698,60.2528 95.0318,69.0861 73.5,65C 72.8742,64.2496 72.3742,63.4162 72,62.5C 71.3333,46.5 71.3333,30.5 72,14.5C 72.7172,13.9558 73.2172,13.2891 73.5,12.5 Z"/></g>
<g><path style="opacity:1" fill="#7b8e9d" d="M 167.5,11.5 C 168.486,15.97 168.819,20.6367 168.5,25.5C 167.209,25.7373 166.209,25.404 165.5,24.5C 167.43,20.6273 168.097,16.294 167.5,11.5 Z"/></g>
<g><path style="opacity:1" fill="#6ba14a" d="M 174.5,58.5 C 182.605,59.5434 184.272,63.3767 179.5,70C 173.171,70.6675 170.671,67.8342 172,61.5C 173.045,60.6266 173.878,59.6266 174.5,58.5 Z"/></g>
<g><path style="opacity:1" fill="#89b56d" d="M 69.5,76.5 C 72.7181,76.6509 73.0515,77.4842 70.5,79C 70.9574,79.414 71.2907,79.914 71.5,80.5C 70.9399,82.8537 70.2733,85.187 69.5,87.5C 68.4138,83.8449 68.4138,80.1782 69.5,76.5 Z"/></g>
<g><path style="opacity:1" fill="#68a345" d="M 15.5,85.5 C 14.0813,86.4511 12.4147,86.7845 10.5,86.5C 10.3354,83.4816 10.502,80.4816 11,77.5C 11.4974,80.146 11.6641,82.8127 11.5,85.5C 12.8333,85.5 14.1667,85.5 15.5,85.5 Z"/></g>
<g><path style="opacity:1" fill="#7cad5e" d="M 42.5,77.5 C 49.5644,77.4752 51.2311,80.4752 47.5,86.5C 45.9291,87.3094 44.2624,87.6427 42.5,87.5C 42.5,84.1667 42.5,80.8333 42.5,77.5 Z"/></g>
<g><path style="opacity:1" fill="#f9fbf8" d="M 44.5,78.5 C 46.7224,78.5587 47.7224,79.7253 47.5,82C 47.6125,83.6624 46.9458,84.8291 45.5,85.5C 44.5258,83.2573 44.1924,80.924 44.5,78.5 Z"/></g>
<g><path style="opacity:1" fill="#78ac58" d="M 127.5,80.5 C 127.5,82.5 127.5,84.5 127.5,86.5C 126.167,86.5 124.833,86.5 123.5,86.5C 122.115,85.0527 122.448,84.0527 124.5,83.5C 124.918,82.7784 125.584,82.2784 126.5,82C 123.258,81.7167 122.924,80.8834 125.5,79.5C 126.183,79.8627 126.85,80.1961 127.5,80.5 Z"/></g>
<g><path style="opacity:1" fill="#c6dbb8" d="M 23.5,79.5 C 23.5,81.5 23.5,83.5 23.5,85.5C 22.8333,85.5 22.1667,85.5 21.5,85.5C 22.8333,83.8333 22.8333,82.1667 21.5,80.5C 22.1667,80.1667 22.8333,79.8333 23.5,79.5 Z"/></g>
<g><path style="opacity:1" fill="#72a951" d="M 23.5,79.5 C 24.4614,81.2646 24.7947,83.2646 24.5,85.5C 25.5,85.5 26.5,85.5 27.5,85.5C 27.2053,83.2646 27.5386,81.2646 28.5,79.5C 28.8016,82.0593 28.4682,84.3926 27.5,86.5C 25.7367,87.9538 24.4033,87.6204 23.5,85.5C 23.5,83.5 23.5,81.5 23.5,79.5 Z"/></g>
<g><path style="opacity:1" fill="#b2cf9f" d="M 27.5,86.5 C 28.4682,84.3926 28.8016,82.0593 28.5,79.5C 29.4733,78.016 30.8067,77.516 32.5,78C 31.8747,80.8003 31.208,83.6336 30.5,86.5C 29.3132,87.6527 28.3132,87.6527 27.5,86.5 Z"/></g>
<g><path style="opacity:1" fill="#8db773" d="M 54.5,81.5 C 52.9642,83.0251 51.9642,85.0251 51.5,87.5C 50.52,84.9135 50.1866,82.2469 50.5,79.5C 52.4832,79.1568 53.8166,79.8235 54.5,81.5 Z"/></g>
<g><path style="opacity:1" fill="#7bad5c" d="M 62.5,83.5 C 62.1667,82.8333 61.8333,82.1667 61.5,81.5C 61.56,80.9569 61.8933,80.6236 62.5,80.5C 63.2508,81.376 63.7508,82.376 64,83.5C 64.4186,82.3279 65.0853,81.3279 66,80.5C 66.139,83.5752 65.639,86.5752 64.5,89.5C 60.9007,89.7381 60.5673,88.7381 63.5,86.5C 62.8728,85.5832 62.5394,84.5832 62.5,83.5 Z"/></g>
<g><path style="opacity:1" fill="#77ab57" d="M 73.5,79.5 C 74.4614,81.2646 74.7947,83.2646 74.5,85.5C 75.5,85.5 76.5,85.5 77.5,85.5C 77.3379,83.4727 77.5045,81.4727 78,79.5C 79.1018,82.905 78.2685,85.5717 75.5,87.5C 72.4263,85.4711 71.7596,82.8045 73.5,79.5 Z"/></g>
<g><path style="opacity:1" fill="#81af64" d="M 104.5,79.5 C 107.672,79.9281 110.672,80.0948 113.5,80C 114.777,82.4659 114.777,84.9659 113.5,87.5C 112.167,79.5 110.833,79.5 109.5,87.5C 108.833,85.5 108.167,83.5 107.5,81.5C 106.833,83.1667 106.167,84.8333 105.5,86.5C 104.526,84.2573 104.192,81.924 104.5,79.5 Z"/></g>
<g><path style="opacity:1" fill="#d2e3c7" d="M 129.5,79.5 C 129.337,81.8568 129.503,84.1902 130,86.5C 130.198,84.6183 130.698,82.9516 131.5,81.5C 131.5,83.5 131.5,85.5 131.5,87.5C 128.615,87.8064 125.948,87.4731 123.5,86.5C 124.833,86.5 126.167,86.5 127.5,86.5C 127.5,84.5 127.5,82.5 127.5,80.5C 128.167,80.1667 128.833,79.8333 129.5,79.5 Z"/></g>
<g><path style="opacity:1" fill="#72a751" d="M 21.5,80.5 C 22.8333,82.1667 22.8333,83.8333 21.5,85.5C 20.4324,86.4345 19.099,86.7678 17.5,86.5C 17.5,86.1667 17.5,85.8333 17.5,85.5C 16.5655,84.4324 16.2322,83.099 16.5,81.5C 17.8786,79.4031 19.5453,79.0698 21.5,80.5 Z"/></g>
<g><path style="opacity:1" fill="#ebf2e6" d="M 17.5,85.5 C 17.5,84.1667 17.5,82.8333 17.5,81.5C 18.5,81.5 19.5,81.5 20.5,81.5C 20.5,82.8333 20.5,84.1667 20.5,85.5C 19.5,85.5 18.5,85.5 17.5,85.5 Z"/></g>
<g><path style="opacity:1" fill="#7eaf5f" d="M 60.5,81.5 C 60.631,82.2389 60.4643,82.9056 60,83.5C 59.2904,82.0267 58.1238,81.3601 56.5,81.5C 56.5,82.8333 56.5,84.1667 56.5,85.5C 58.099,85.2322 59.4324,85.5655 60.5,86.5C 56.062,87.5749 54.062,85.9083 54.5,81.5C 56.6409,78.9814 58.6409,78.9814 60.5,81.5 Z"/></g>
<g><path style="opacity:1" fill="#c7dcba" d="M 60.5,81.5 C 60.8333,81.5 61.1667,81.5 61.5,81.5C 61.8333,82.1667 62.1667,82.8333 62.5,83.5C 61.8333,84.5 61.1667,85.5 60.5,86.5C 59.4324,85.5655 58.099,85.2322 56.5,85.5C 56.5,84.1667 56.5,82.8333 56.5,81.5C 58.1238,81.3601 59.2904,82.0267 60,83.5C 60.4643,82.9056 60.631,82.2389 60.5,81.5 Z"/></g>
<g><path style="opacity:1" fill="#75a955" d="M 98.5,79.5 C 103.328,79.3852 104.661,81.5519 102.5,86C 100.888,86.7203 99.3876,86.5536 98,85.5C 97.5099,83.4546 97.6765,81.4546 98.5,79.5 Z"/></g>
<g><path style="opacity:1" fill="#eef4ea" d="M 99.5,81.5 C 100.5,81.5 101.5,81.5 102.5,81.5C 102.778,83.3464 102.111,84.6798 100.5,85.5C 99.5713,84.3112 99.238,82.9778 99.5,81.5 Z"/></g>
<g><path style="opacity:1" fill="#ebf2e7" d="M 124.5,83.5 C 126.337,83.6395 126.67,84.3061 125.5,85.5C 124.702,85.0431 124.369,84.3764 124.5,83.5 Z"/></g>
<g><path style="opacity:1" fill="#8eb973" d="M 81.5,79.5 C 86.658,80.4837 86.658,81.3171 81.5,82C 83.2226,82.5232 84.556,83.5232 85.5,85C 84.1255,88.0691 82.4588,88.2358 80.5,85.5C 80.4647,83.5575 80.7981,81.5575 81.5,79.5 Z"/></g>
<g><path style="opacity:1" fill="#80af62" d="M 129.5,79.5 C 132.011,79.838 134.345,79.838 136.5,79.5C 137.584,80.6651 138.417,81.9984 139,83.5C 139.29,81.9559 139.956,80.6226 141,79.5C 141.121,83.3043 139.954,86.6376 137.5,89.5C 137.731,87.0089 137.231,84.3423 136,81.5C 135.808,83.5767 135.308,85.5767 134.5,87.5C 134.036,85.0251 133.036,83.0251 131.5,81.5C 130.698,82.9516 130.198,84.6183 130,86.5C 129.503,84.1902 129.337,81.8568 129.5,79.5 Z"/></g>
<g><path style="opacity:1" fill="#7bad5d" d="M 90.5,77.5 C 92.9775,77.0508 94.9775,77.7175 96.5,79.5C 95.2438,78.9698 93.7438,78.9698 92,79.5C 91.5045,81.4727 91.3379,83.4727 91.5,85.5C 93.3904,85.7035 94.8904,85.0368 96,83.5C 95.3554,87.7158 93.3554,88.3824 90,85.5C 89.2782,82.7395 89.4448,80.0728 90.5,77.5 Z"/></g>
<g><path style="opacity:1" fill="#85b369" d="M 115.5,79.5 C 121.245,78.8255 122.911,81.1588 120.5,86.5C 119.052,87.3539 117.719,88.3539 116.5,89.5C 115.513,86.2317 115.18,82.8984 115.5,79.5 Z"/></g>
<g><path style="opacity:1" fill="#fdfefd" d="M 117.5,81.5 C 118.586,81.62 119.253,82.2867 119.5,83.5C 119.167,84.1667 118.833,84.8333 118.5,85.5C 117.571,84.3112 117.238,82.9778 117.5,81.5 Z"/></g>
<g><path style="opacity:1" fill="#b8d2a7" d="M 16.5,81.5 C 16.2322,83.099 16.5655,84.4324 17.5,85.5C 17.5,85.8333 17.5,86.1667 17.5,86.5C 15.059,87.7563 12.7257,87.7563 10.5,86.5C 12.4147,86.7845 14.0813,86.4511 15.5,85.5C 15.2322,83.901 15.5655,82.5676 16.5,81.5 Z"/></g>
<g><path style="opacity:1" fill="#87b46b" d="M 34.5,79.5 C 39.658,80.4837 39.658,81.3171 34.5,82C 36.2226,82.5232 37.556,83.5232 38.5,85C 37.3688,87.8193 35.7021,88.1526 33.5,86C 34.5,85.6667 35.5,85.3333 36.5,85C 33.7669,83.7719 33.1002,81.9386 34.5,79.5 Z"/></g>
</svg>
