<?xml version="1.0" encoding="UTF-8"?> <svg xmlns="http://www.w3.org/2000/svg" width="1094" height="200" viewBox="0 0 1094 200" fill="none"><g clip-path="url(#clip0_307_240)"><path d="M1077.95 73.1812C1080.06 75.1569 1082.03 76.2782 1084.01 76.2782C1088.25 76.2782 1091.62 72.8875 1091.62 68.8026C1091.62 67.1206 1091.06 65.5453 1090.2 64.2905C1084.57 56.2542 1072.29 51.0212 1058.16 51.0212C1035.71 51.0212 1025.7 62.8755 1025.7 76.8389C1025.7 110.853 1077.23 101.402 1077.23 122.013C1077.23 130.77 1071.01 134.989 1058.16 134.989C1048.42 134.989 1040.94 130.183 1035.02 124.256C1033.6 122.841 1031.92 121.159 1028.8 121.159C1024.71 121.159 1021.32 124.549 1021.32 128.768C1021.32 130.183 1021.75 131.598 1022.44 132.719C1027.94 141.61 1041.34 149.94 1058.16 149.94C1081.45 149.94 1093.59 139.207 1093.59 121.986C1093.59 86.6907 1042.07 95.3144 1042.07 76.8122C1042.07 71.1788 1046.44 65.6521 1058.16 65.6521C1066.2 65.6521 1073.54 68.9094 1077.92 73.1278M963.598 132.986C966.428 132.986 969.098 131.571 970.513 129.035L992.673 89.6543V141.023C992.673 145.401 996.331 149.059 1000.71 149.059C1005.09 149.059 1008.75 145.401 1008.75 141.023V59.8585C1008.75 55.4799 1005.09 51.8222 1000.71 51.8222C997.185 51.8222 994.916 53.7979 993.501 56.3343L963.571 109.972L933.642 56.3343C932.227 53.7979 929.984 51.8222 926.433 51.8222C922.055 51.8222 918.397 55.4799 918.397 59.8585V141.023C918.397 145.401 922.055 149.059 926.433 149.059C930.812 149.059 934.47 145.401 934.47 141.023V89.6543L956.63 129.035C958.045 131.571 960.715 132.986 963.545 132.986M900.456 67.3608C904.407 67.3608 907.664 64.1036 907.664 60.1522C907.664 56.2008 904.407 52.9435 900.456 52.9435H840.891C836.939 52.9435 833.682 56.2008 833.682 60.1522C833.682 64.1036 836.939 67.3608 840.891 67.3608H862.49V140.889C862.49 145.401 866.148 149.086 870.687 149.086C875.225 149.086 878.883 145.428 878.883 140.889V67.3608H900.456V67.3608Z" fill="#F47524"></path><path fill-rule="evenodd" clip-rule="evenodd" d="M763.998 23.0792C765.953 23.0792 767.538 24.6639 767.538 26.6187V174.369C767.538 176.324 765.953 177.909 763.998 177.909C762.044 177.909 760.459 176.324 760.459 174.369V26.6187C760.459 24.6639 762.044 23.0792 763.998 23.0792Z" fill="#3B3751"></path><path d="M371.263 85.7104V120.579C371.263 124.763 367.921 127.842 363.737 127.842C359.263 127.842 356.211 124.763 356.211 120.579V88.4999C356.211 80.5525 353 75.1052 343.947 75.1052C333.895 75.1052 330 80.5525 330 88.342V120.553C330 124.737 326.658 127.816 322.474 127.816C318 127.816 314.947 124.737 314.947 120.553V88.4736C314.947 80.5262 311.737 75.0788 302.684 75.0788C292.237 75.0788 288.737 81.2104 288.737 89.4473V120.553C288.737 124.737 285.526 127.816 281.211 127.816C276.895 127.816 273.684 124.737 273.684 120.553V69.7894C273.684 65.6052 277.026 62.2631 281.211 62.2631C285.395 62.2631 288.737 65.6052 288.737 69.7894C291.395 65.7368 297.237 61.421 306.579 61.421C318.026 61.421 323.737 65.0526 327.211 70.4999C331.684 64.4999 337.684 61.421 347.158 61.421C366.132 61.421 371.289 73.5526 371.289 85.6841" fill="#3B3751"></path><path d="M397.21 87.8158H424.816C424.816 80.9737 420.921 74.2894 411.842 74.2894C403.763 74.2894 397.895 78.8947 397.184 87.8158H397.21ZM411.842 61.4473C435.421 61.4473 439.737 79.5789 439.737 89.2105C439.737 94.3684 439.737 100.368 431.21 100.368H396.763C396.763 110.421 403.868 115.026 413.079 115.026C419.21 115.026 423.526 112.921 426.895 110.71C428.421 109.737 429.553 109.184 431.368 109.184C435 109.184 437.921 112.105 437.921 115.737C437.921 117.974 436.816 119.789 435.553 120.895C433.184 123.132 425.789 128.579 413.105 128.579C393.71 128.579 381.71 118.105 381.71 94.8157C381.71 73.4736 392.868 61.4736 411.842 61.4736" fill="#3B3751"></path><path d="M547.842 85.7104V120.579C547.842 124.763 544.5 127.842 540.316 127.842C535.842 127.842 532.79 124.763 532.79 120.579V88.4999C532.79 80.5525 529.579 75.1052 520.526 75.1052C510.474 75.1052 506.579 80.5525 506.579 88.342V120.553C506.579 124.737 503.237 127.816 499.053 127.816C494.579 127.816 491.526 124.737 491.526 120.553V88.4736C491.526 80.5262 488.316 75.0788 479.263 75.0788C468.816 75.0788 465.316 81.2104 465.316 89.4473V120.553C465.316 124.737 462.105 127.816 457.79 127.816C453.474 127.816 450.263 124.737 450.263 120.553V69.7894C450.263 65.6052 453.605 62.2631 457.79 62.2631C461.974 62.2631 465.316 65.6052 465.316 69.7894C467.974 65.7368 473.816 61.421 483.184 61.421C494.632 61.421 500.342 65.0526 503.816 70.4999C508.29 64.4999 514.289 61.421 523.763 61.421C542.737 61.421 547.895 73.5526 547.895 85.6841" fill="#3B3751"></path><path d="M588.711 74.2894C578.658 74.2894 573.368 81.2631 573.368 95.0789C573.368 108.895 578.658 115.737 588.711 115.737C598.763 115.737 604.053 108.763 604.053 95.0789C604.053 81.3947 598.763 74.2894 588.711 74.2894ZM588.711 128.553C569.868 128.553 558.158 117.816 558.158 95.0789C558.158 72.342 569.868 61.4736 588.711 61.4736C607.553 61.4736 619.263 72.2105 619.263 95.0789C619.263 117.947 607.553 128.553 588.711 128.553Z" fill="#3B3751"></path><path d="M671.132 89.3421C671.132 79.7105 665.421 74.2894 657.316 74.2894C647.684 74.2894 642.395 81.2631 642.395 94.921C642.395 108.579 647.842 115.71 657.316 115.71C665.684 115.71 671.132 108.605 671.132 108.605V89.3684V89.3421ZM627.474 94.921C627.474 72.1842 638.5 61.4473 657.316 61.4473C674.184 61.4473 686.184 70.7894 686.184 89.3421V147.237C686.184 151.421 682.842 154.763 678.658 154.763C674.474 154.763 671.132 151.421 671.132 147.237V122.974C668.342 125.763 662.474 128.553 655.789 128.553C638.21 128.553 627.474 117.658 627.474 94.9473" fill="#3B3751"></path><path d="M134.239 99.9999C134.239 88.3112 132.217 77.0925 128.507 66.6666H128.495C122.18 48.9262 110.971 33.4834 96.4778 21.9406C96.4527 21.9209 96.4278 21.9009 96.4026 21.8811C94.9888 20.7572 93.5434 19.6709 92.0688 18.6227C92.0066 18.5786 91.9442 18.5349 91.882 18.491C91.1721 17.9889 90.4563 17.4947 89.7328 17.0107C89.7168 16.9997 89.7007 16.9888 89.6844 16.9781C88.9471 16.4853 88.2018 16.0026 87.4507 15.529C87.3614 15.4728 87.2714 15.4173 87.1819 15.3614C86.512 14.9415 85.8365 14.5297 85.1558 14.1252C85.063 14.0701 84.971 14.0141 84.8779 13.9592C84.137 13.5221 83.39 13.0946 82.637 12.6762C82.5314 12.6175 82.4248 12.5604 82.3187 12.5022C81.6637 12.1411 81.004 11.788 80.3402 11.4414C80.1941 11.3652 80.0487 11.2881 79.9023 11.2126C79.152 10.8254 78.397 10.4462 77.6359 10.0777C77.5321 10.0272 77.4268 9.97895 77.3227 9.92901C76.6586 9.6099 75.99 9.29902 75.3179 8.99417C75.1348 8.91103 74.9519 8.82789 74.7682 8.74585C74.0032 8.40451 73.2347 8.0703 72.4598 7.74735C72.3855 7.71634 72.3103 7.68726 72.2358 7.65625C71.5291 7.36403 70.8177 7.08086 70.1031 6.80428C69.9009 6.72608 69.6984 6.64815 69.4953 6.57104C68.7086 6.27251 67.9187 5.97974 67.1229 5.70013H67.1223C28.0187 19.4273 0 56.4607 0 100.001C0 111.69 2.02604 122.907 5.73695 133.334C19.559 94.4962 56.8443 66.6674 100.679 66.6674C119.214 66.6666 134.239 81.5903 134.239 99.9999Z" fill="url(#paint0_linear_307_240)"></path><path d="M67.1646 101.73C67.1353 101.157 67.1193 100.58 67.1193 99.9999C67.1193 99.9823 67.1231 99.9661 67.1231 99.9486C67.1491 81.5643 82.1599 66.6677 100.675 66.6669C99.2713 66.6669 97.8745 66.6973 96.4852 66.7539H96.4847C93.8738 66.86 91.2892 67.0667 88.7336 67.3671C88.7142 67.3693 88.6943 67.3707 88.6742 67.3731C86.1876 67.6667 83.7312 68.0578 81.3032 68.5281C81.1955 68.5492 81.0855 68.5654 80.9778 68.5865C78.6197 69.0513 76.2945 69.6064 73.9988 70.2317C73.8311 70.2776 73.6606 70.3176 73.4935 70.3643C71.2534 70.9868 69.0478 71.6929 66.8734 72.4628C66.6623 72.5374 66.4488 72.6074 66.2383 72.6834C64.1067 73.4544 62.0122 74.3015 59.9505 75.2086C59.7154 75.3123 59.4778 75.4116 59.2436 75.517C57.217 76.4277 55.2285 77.4084 53.2754 78.4458C53.0251 78.5789 52.7734 78.7092 52.5245 78.8442C50.6007 79.8872 48.7172 80.9941 46.8724 82.1556C46.6169 82.3164 46.3605 82.4766 46.1061 82.6399C44.2834 83.8107 42.5018 85.0394 40.7622 86.3213C40.5133 86.5049 40.265 86.689 40.018 86.8748C38.2945 88.1693 36.6149 89.5171 34.9805 90.9168C34.7435 91.1198 34.5092 91.3251 34.2736 91.5303C32.652 92.9459 31.074 94.4106 29.5469 95.9258C29.332 96.139 29.1201 96.3555 28.9071 96.5709C27.3852 98.1085 25.9092 99.6909 24.4887 101.324C24.3022 101.538 24.1213 101.756 23.9362 101.972C22.5168 103.632 21.1455 105.334 19.8361 107.084C19.6808 107.292 19.5311 107.504 19.3775 107.713C18.0653 109.496 16.8036 111.318 15.6094 113.188C15.4903 113.375 15.3776 113.567 15.2591 113.755C14.0555 115.667 12.9076 117.618 11.8338 119.615C11.754 119.763 11.6808 119.914 11.6015 120.063C10.5117 122.115 9.48321 124.203 8.53511 126.336C8.49505 126.426 8.45997 126.518 8.41991 126.608C7.44916 128.811 6.54912 131.051 5.73694 133.333C19.5587 172.172 56.8443 200 100.68 200C112.448 200 130.044 200 142.629 200C104.046 186.453 68.1113 144.667 67.1646 101.73Z" fill="url(#paint1_linear_307_240)"></path><path d="M134.239 99.9999C134.239 118.14 119.648 132.885 101.489 133.313C101.548 133.326 101.358 133.333 100.68 133.333H130.044C151.247 133.333 170.14 143.108 182.441 158.356C194.344 141.933 201.359 121.781 201.359 99.9999C201.359 99.1981 201.347 98.3991 201.328 97.6017C201.322 97.3314 201.311 97.0623 201.302 96.7925C201.285 96.2679 201.267 95.7433 201.242 95.2206C201.226 94.8959 201.208 94.5722 201.189 94.2484C201.163 93.785 201.134 93.3221 201.1 92.8603C201.076 92.5101 201.049 92.1603 201.021 91.8113C200.986 91.3819 200.946 90.9535 200.906 90.5255C200.871 90.1578 200.837 89.7904 200.798 89.4238C200.756 89.0273 200.709 88.6328 200.662 88.2374C200.616 87.8472 200.573 87.4562 200.522 87.0677C200.516 87.0221 200.509 86.9771 200.503 86.9318C200.348 85.7498 200.167 84.5754 199.971 83.4068C199.934 83.1892 199.9 82.9707 199.862 82.754C199.77 82.2313 199.672 81.7113 199.572 81.1916C199.532 80.9823 199.493 80.7726 199.451 80.5635C199.345 80.0255 199.233 79.4896 199.118 78.9548C199.081 78.7852 199.044 78.6162 199.006 78.4472C198.879 77.8723 198.748 77.2989 198.611 76.7279C198.594 76.6546 198.575 76.5816 198.557 76.5086C187.918 32.6158 148.136 0 100.68 0C88.9113 0 77.6175 2.01237 67.1199 5.69823C106.222 19.4267 134.239 56.4604 134.239 99.9999Z" fill="url(#paint2_linear_307_240)"></path><path d="M130.044 133.333H100.68C82.7295 133.333 68.0715 119.335 67.1646 101.731C68.011 140.099 96.8013 177.532 130.45 194.733C131.249 195.141 132.051 195.541 132.855 195.927C133.177 196.081 133.501 196.23 133.824 196.381C134.559 196.725 135.295 197.064 136.034 197.388C136.543 197.611 137.055 197.821 137.566 198.034C138.137 198.273 138.707 198.518 139.279 198.744C140.393 199.184 141.51 199.607 142.629 199.999H197.164C197.164 163.181 167.113 133.333 130.044 133.333Z" fill="url(#paint3_linear_307_240)"></path></g><defs><linearGradient id="paint0_linear_307_240" x1="94.7697" y1="15.6904" x2="46.8652" y2="148.201" gradientUnits="userSpaceOnUse"><stop stop-color="#EF3F3F"></stop><stop offset="1" stop-color="#F47623"></stop></linearGradient><linearGradient id="paint1_linear_307_240" x1="45.8892" y1="80.0395" x2="95.4255" y2="217.064" gradientUnits="userSpaceOnUse"><stop stop-color="#EF3F3F"></stop><stop offset="1" stop-color="#F47623"></stop></linearGradient><linearGradient id="paint2_linear_307_240" x1="134.239" y1="158.356" x2="134.239" y2="0" gradientUnits="userSpaceOnUse"><stop stop-color="#EF3F3F"></stop><stop offset="1" stop-color="#F47623"></stop></linearGradient><linearGradient id="paint3_linear_307_240" x1="67.1646" y1="150.865" x2="197.164" y2="150.865" gradientUnits="userSpaceOnUse"><stop stop-color="#EF3F3F"></stop><stop offset="1" stop-color="#F47623"></stop></linearGradient><clipPath id="clip0_307_240"><rect width="1093.59" height="200" fill="white"></rect></clipPath></defs></svg> 