<?xml version="1.0" encoding="UTF-8"?>
<!DOCTYPE svg PUBLIC "-//W3C//DTD SVG 1.1//EN" "http://www.w3.org/Graphics/SVG/1.1/DTD/svg11.dtd">
<svg xmlns="http://www.w3.org/2000/svg" version="1.1" width="196px" height="94px" style="shape-rendering:geometricPrecision; text-rendering:geometricPrecision; image-rendering:optimizeQuality; fill-rule:evenodd; clip-rule:evenodd" xmlns:xlink="http://www.w3.org/1999/xlink">
<g><path style="opacity:1" fill="#efeee8" d="M -0.5,-0.5 C 9.16667,-0.5 18.8333,-0.5 28.5,-0.5C 28.5,3.16667 28.5,6.83333 28.5,10.5C 27.014,14.8124 25.514,19.1457 24,23.5C 22.3914,19.29 20.5581,15.29 18.5,11.5C 17.791,10.596 16.791,10.2627 15.5,10.5C 15.1786,16.0262 15.5119,21.3595 16.5,26.5C 17.3247,22.3528 17.8247,18.0195 18,13.5C 19.5494,17.9899 21.3827,22.3232 23.5,26.5C 25.7342,23.7793 27.4009,20.7793 28.5,17.5C 28.7445,26.2075 28.4112,34.8742 27.5,43.5C 25.1667,43.5 22.8333,43.5 20.5,43.5C 16.9137,46.6564 15.747,50.6564 17,55.5C 20.054,58.3092 20.2207,61.3092 17.5,64.5C 16.8902,65.391 16.5569,66.391 16.5,67.5C 14.1602,68.5718 13.8269,70.2385 15.5,72.5C 16.723,73.6139 18.0563,73.7805 19.5,73C 21.0613,70.2726 22.3946,67.4393 23.5,64.5C 23.8333,64.5 24.1667,64.5 24.5,64.5C 24.5,65.5 24.5,66.5 24.5,67.5C 25.5,67.5 26.5,67.5 27.5,67.5C 27.3284,68.4916 27.6618,69.1583 28.5,69.5C 28.5106,71.0174 29.1772,72.1841 30.5,73C 31.816,73.5281 32.4827,73.0281 32.5,71.5C 34.0481,71.1788 34.7148,70.1788 34.5,68.5C 35.1667,68.5 35.5,68.8333 35.5,69.5C 35.5,71.1667 35.5,72.8333 35.5,74.5C 32.8333,74.5 30.1667,74.5 27.5,74.5C 27.958,69.1393 26.1246,67.8059 22,70.5C 19.9279,78.2134 17.7613,85.88 15.5,93.5C 10.1667,93.5 4.83333,93.5 -0.5,93.5C -0.5,62.1667 -0.5,30.8333 -0.5,-0.5 Z"/></g>
<g><path style="opacity:1" fill="#f4f3ee" d="M 28.5,-0.5 C 84.1667,-0.5 139.833,-0.5 195.5,-0.5C 195.5,30.8333 195.5,62.1667 195.5,93.5C 135.5,93.5 75.5,93.5 15.5,93.5C 17.7613,85.88 19.9279,78.2134 22,70.5C 26.1246,67.8059 27.958,69.1393 27.5,74.5C 30.1667,74.5 32.8333,74.5 35.5,74.5C 35.5,72.8333 35.5,71.1667 35.5,69.5C 36.5,69.5 37.5,69.5 38.5,69.5C 38.081,65.2273 38.7476,61.2273 40.5,57.5C 40.5,56.5 40.5,55.5 40.5,54.5C 38.5,54.5 36.5,54.5 34.5,54.5C 34.7709,52.6203 34.1042,51.287 32.5,50.5C 32.7148,48.8212 32.0481,47.8212 30.5,47.5C 29.8776,45.8784 28.8776,44.5451 27.5,43.5C 28.4112,34.8742 28.7445,26.2075 28.5,17.5C 29.3532,19.087 30.0199,22.087 30.5,26.5C 31.4948,21.2079 31.8282,15.8746 31.5,10.5C 30.5,10.5 29.5,10.5 28.5,10.5C 28.5,6.83333 28.5,3.16667 28.5,-0.5 Z"/></g>
<g><path style="opacity:1" fill="#b6b6b3" d="M 18.5,11.5 C 16.5583,16.0557 15.8917,21.0557 16.5,26.5C 15.5119,21.3595 15.1786,16.0262 15.5,10.5C 16.791,10.2627 17.791,10.596 18.5,11.5 Z"/></g>
<g><path style="opacity:1" fill="#929291" d="M 76.5,11.5 C 77.8086,13.5706 78.4752,16.0706 78.5,19C 78.1667,21.5 77.8333,24 77.5,26.5C 76.5108,22.8927 76.1774,19.226 76.5,15.5C 75.0222,15.762 73.6888,15.4287 72.5,14.5C 74.3316,13.9432 75.6649,12.9432 76.5,11.5 Z"/></g>
<g><path style="opacity:1" fill="#8d8d8c" d="M 134.5,19.5 C 135.748,16.0044 137.748,13.0044 140.5,10.5C 140.935,14.612 141.935,18.4453 143.5,22C 142.141,23.2045 141.141,24.7045 140.5,26.5C 139.571,25.3112 139.238,23.9778 139.5,22.5C 137.076,22.8076 134.743,22.4742 132.5,21.5C 132.855,20.4777 133.522,19.811 134.5,19.5 Z"/></g>
<g><path style="opacity:1" fill="#8c8c8b" d="M 98.5,11.5 C 103.993,10.178 106.493,12.178 106,17.5C 103.78,20.021 101.28,22.1877 98.5,24C 101.226,24.1816 103.893,24.6816 106.5,25.5C 103.232,26.487 99.8984,26.8204 96.5,26.5C 96.7939,22.6996 98.7939,20.1996 102.5,19C 105.409,16.1606 105.075,13.9939 101.5,12.5C 99.3368,12.9224 98.0034,14.2557 97.5,16.5C 96.3482,14.6029 96.6815,12.9362 98.5,11.5 Z"/></g>
<g><path style="opacity:1" fill="#8c8c8c" d="M 110.5,11.5 C 113.394,11.0423 115.894,11.709 118,13.5C 118.667,17.1667 118.667,20.8333 118,24.5C 114.195,27.5388 111.195,26.8721 109,22.5C 108.112,18.5979 108.612,14.9312 110.5,11.5 Z"/></g>
<g><path style="opacity:1" fill="#f2f1ec" d="M 112.5,12.5 C 113.822,12.33 114.989,12.6634 116,13.5C 116.667,16.8333 116.667,20.1667 116,23.5C 111.693,24.9961 109.86,23.3294 110.5,18.5C 110.363,16.1595 111.03,14.1595 112.5,12.5 Z"/></g>
<g><path style="opacity:1" fill="#8a8a8a" d="M 46.5,15.5 C 48.4584,15.908 50.4584,16.2413 52.5,16.5C 51.3717,17.2621 50.2051,17.9288 49,18.5C 48.8184,21.2263 48.3184,23.8929 47.5,26.5C 46.5108,22.8927 46.1774,19.226 46.5,15.5 Z"/></g>
<g><path style="opacity:1" fill="#ebeae5" d="M 134.5,19.5 C 136.451,18.2842 137.951,16.6175 139,14.5C 139.497,16.8098 139.663,19.1432 139.5,21.5C 137.219,21.9227 135.552,21.256 134.5,19.5 Z"/></g>
<g><path style="opacity:1" fill="#8c8b8b" d="M 61.5,11.5 C 67.8983,10.2521 70.2316,12.5854 68.5,18.5C 66.1667,20.3333 63.8333,22.1667 61.5,24C 64.2263,24.1816 66.8929,24.6816 69.5,25.5C 66.2317,26.487 62.8984,26.8204 59.5,26.5C 60.6556,22.4999 63.1556,19.4999 67,17.5C 66.4732,11.1761 64.3065,10.8427 60.5,16.5C 59.3482,14.6029 59.6815,12.9362 61.5,11.5 Z"/></g>
<g><path style="opacity:1" fill="#8c8b8b" d="M 122.5,11.5 C 128.898,10.2521 131.232,12.5854 129.5,18.5C 127.167,20.3333 124.833,22.1667 122.5,24C 125.226,24.1816 127.893,24.6816 130.5,25.5C 127.232,26.487 123.898,26.8204 120.5,26.5C 121.656,22.4999 124.156,19.4999 128,17.5C 127.473,11.1761 125.307,10.8427 121.5,16.5C 120.348,14.6029 120.681,12.9362 122.5,11.5 Z"/></g>
<g><path style="opacity:1" fill="#8f8f8e" d="M 37.5,14.5 C 39.2624,14.3573 40.9291,14.6906 42.5,15.5C 43.2396,18.8363 43.9062,22.1696 44.5,25.5C 41.4967,26.3029 38.33,26.3029 35,25.5C 34.4786,20.964 36.6452,18.964 41.5,19.5C 41.5,18.5 41.5,17.5 41.5,16.5C 39.2776,16.178 37.4443,16.8446 36,18.5C 35.516,16.8067 36.016,15.4733 37.5,14.5 Z"/></g>
<g><path style="opacity:1" fill="#f3f2ed" d="M 37.5,21.5 C 38.8333,21.5 40.1667,21.5 41.5,21.5C 41.5,22.5 41.5,23.5 41.5,24.5C 39.712,24.7852 38.0453,24.4519 36.5,23.5C 36.8627,22.8165 37.1961,22.1499 37.5,21.5 Z"/></g>
<g><path style="opacity:1" fill="#888888" d="M 28.5,10.5 C 29.5,10.5 30.5,10.5 31.5,10.5C 31.8282,15.8746 31.4948,21.2079 30.5,26.5C 30.0199,22.087 29.3532,19.087 28.5,17.5C 27.4009,20.7793 25.7342,23.7793 23.5,26.5C 21.3827,22.3232 19.5494,17.9899 18,13.5C 17.8247,18.0195 17.3247,22.3528 16.5,26.5C 15.8917,21.0557 16.5583,16.0557 18.5,11.5C 20.5581,15.29 22.3914,19.29 24,23.5C 25.514,19.1457 27.014,14.8124 28.5,10.5 Z"/></g>
<g><path style="opacity:1" fill="#a3a3a1" d="M 85.5,24.5 C 88.0628,25.9979 88.0628,27.6646 85.5,29.5C 86.3093,28.1127 86.3093,26.446 85.5,24.5 Z"/></g>
<g><path style="opacity:1" fill="#7b6379" d="M 20.5,43.5 C 22.8333,43.5 25.1667,43.5 27.5,43.5C 28.8776,44.5451 29.8776,45.8784 30.5,47.5C 29.8333,47.5 29.1667,47.5 28.5,47.5C 25.8333,47.5 23.1667,47.5 20.5,47.5C 20.7036,49.6854 21.3702,51.6854 22.5,53.5C 22.1667,54.1667 21.8333,54.8333 21.5,55.5C 21.1667,55.5 20.8333,55.5 20.5,55.5C 18.2776,55.4413 17.2776,54.2747 17.5,52C 18.0208,48.934 19.0208,46.1007 20.5,43.5 Z"/></g>
<g><path style="opacity:1" fill="#4f4d4a" d="M 48.5,46.5 C 50.7925,46.2436 52.9592,46.5769 55,47.5C 56.3333,51.5 57.6667,55.5 59,59.5C 60.3314,55.5115 61.6647,51.5115 63,47.5C 65.0408,46.5769 67.2075,46.2436 69.5,46.5C 69.5,53.1667 69.5,59.8333 69.5,66.5C 68.1667,66.5 66.8333,66.5 65.5,66.5C 65.6657,62.1539 65.499,57.8206 65,53.5C 63.9455,58.3576 61.9455,62.6909 59,66.5C 58.228,66.3552 57.5613,66.0219 57,65.5C 53.1314,50.7015 51.6314,51.0348 52.5,66.5C 51.1667,66.5 49.8333,66.5 48.5,66.5C 48.5,59.8333 48.5,53.1667 48.5,46.5 Z"/></g>
<g><path style="opacity:1" fill="#514f4c" d="M 115.5,46.5 C 116.833,46.5 118.167,46.5 119.5,46.5C 121.494,61.155 123.494,61.155 125.5,46.5C 127.167,46.5 128.833,46.5 130.5,46.5C 132.524,61.1297 134.524,61.1297 136.5,46.5C 137.833,46.5 139.167,46.5 140.5,46.5C 139.337,51.8193 138.171,57.1526 137,62.5C 135.789,66.4625 133.789,67.1291 131,64.5C 130,60.8333 129,57.1667 128,53.5C 126.375,57.3321 125.375,61.3321 125,65.5C 123.333,66.8333 121.667,66.8333 120,65.5C 118.332,59.1627 116.832,52.8294 115.5,46.5 Z"/></g>
<g><path style="opacity:1" fill="#53514e" d="M 91.5,47.5 C 92.8333,47.5 94.1667,47.5 95.5,47.5C 95.5,48.8333 95.5,50.1667 95.5,51.5C 96.5,51.5 97.5,51.5 98.5,51.5C 98.5,52.5 98.5,53.5 98.5,54.5C 97.5,54.5 96.5,54.5 95.5,54.5C 95.5,57.5 95.5,60.5 95.5,63.5C 96.5,63.5 97.5,63.5 98.5,63.5C 98.5,64.5 98.5,65.5 98.5,66.5C 96.2075,66.7564 94.0408,66.4231 92,65.5C 92.0032,61.2581 91.1699,57.2581 89.5,53.5C 91.1045,51.8211 91.7711,49.8211 91.5,47.5 Z"/></g>
<g><path style="opacity:1" fill="#d8d2d1" d="M 28.5,47.5 C 28.5,48.8333 28.5,50.1667 28.5,51.5C 26.7179,52.7196 24.7179,53.3862 22.5,53.5C 21.3702,51.6854 20.7036,49.6854 20.5,47.5C 23.1667,47.5 25.8333,47.5 28.5,47.5 Z"/></g>
<g><path style="opacity:1" fill="#c09a58" d="M 28.5,47.5 C 29.1667,47.5 29.8333,47.5 30.5,47.5C 32.0481,47.8212 32.7148,48.8212 32.5,50.5C 31.1667,51.5 29.8333,52.5 28.5,53.5C 28.5,52.8333 28.5,52.1667 28.5,51.5C 28.5,50.1667 28.5,48.8333 28.5,47.5 Z"/></g>
<g><path style="opacity:1" fill="#52504d" d="M 77.5,51.5 C 87.047,51.8855 89.7137,56.3855 85.5,65C 76.2487,68.4162 72.4154,65.2495 74,55.5C 74.6897,53.6498 75.8564,52.3164 77.5,51.5 Z"/></g>
<g><path style="opacity:1" fill="#565450" d="M 103.5,51.5 C 107.192,50.9712 110.358,51.9712 113,54.5C 113.499,58.4862 113.666,62.4862 113.5,66.5C 109.573,65.9336 105.573,65.7669 101.5,66C 99.6751,64.5341 99.1751,62.7008 100,60.5C 102.896,58.3913 106.062,56.8913 109.5,56C 108.737,55.0565 107.737,54.5565 106.5,54.5C 104.666,55.7545 102.666,56.4211 100.5,56.5C 100.721,54.3364 101.721,52.6697 103.5,51.5 Z"/></g>
<g><path style="opacity:1" fill="#565451" d="M 144.5,51.5 C 152.656,50.8211 156.156,54.4878 155,62.5C 150.333,67.8333 145.667,67.8333 141,62.5C 139.662,57.9597 140.829,54.293 144.5,51.5 Z"/></g>
<g><path style="opacity:1" fill="#4f4d4a" d="M 164.5,51.5 C 165.5,51.5 166.5,51.5 167.5,51.5C 167.5,52.8333 167.5,54.1667 167.5,55.5C 165.856,55.2865 164.356,55.6198 163,56.5C 162.502,59.8168 162.335,63.1501 162.5,66.5C 161.167,66.5 159.833,66.5 158.5,66.5C 158.5,61.8333 158.5,57.1667 158.5,52.5C 160.124,52.3601 161.29,53.0267 162,54.5C 163.045,53.6266 163.878,52.6266 164.5,51.5 Z"/></g>
<g><path style="opacity:1" fill="#514f4c" d="M 178.5,46.5 C 179.833,46.5 181.167,46.5 182.5,46.5C 182.5,53.1667 182.5,59.8333 182.5,66.5C 178.974,66.0607 175.307,65.894 171.5,66C 168.098,62.281 167.598,58.1143 170,53.5C 172.667,50.8333 175.333,50.8333 178,53.5C 178.497,51.1902 178.663,48.8568 178.5,46.5 Z"/></g>
<g><path style="opacity:1" fill="#a8845e" d="M 28.5,51.5 C 28.5,52.1667 28.5,52.8333 28.5,53.5C 26.5615,55.1628 24.2282,55.8294 21.5,55.5C 21.8333,54.8333 22.1667,54.1667 22.5,53.5C 24.7179,53.3862 26.7179,52.7196 28.5,51.5 Z"/></g>
<g><path style="opacity:1" fill="#bbb0b4" d="M 20.5,43.5 C 19.0208,46.1007 18.0208,48.934 17.5,52C 17.2776,54.2747 18.2776,55.4413 20.5,55.5C 20.5,56.1667 20.5,56.8333 20.5,57.5C 20.5,58.1667 20.5,58.8333 20.5,59.5C 20.7271,61.9328 19.7271,63.5994 17.5,64.5C 20.2207,61.3092 20.054,58.3092 17,55.5C 15.747,50.6564 16.9137,46.6564 20.5,43.5 Z"/></g>
<g><path style="opacity:1" fill="#eae9e4" d="M 78.5,54.5 C 80.451,54.2267 81.951,54.8934 83,56.5C 84.6698,63.1798 82.6698,64.8465 77,61.5C 76.1668,58.829 76.6668,56.4957 78.5,54.5 Z"/></g>
<g><path style="opacity:1" fill="#edece7" d="M 146.5,54.5 C 151.383,55.4655 152.717,58.2988 150.5,63C 145.33,63.8653 143.497,61.6987 145,56.5C 145.717,55.9558 146.217,55.2891 146.5,54.5 Z"/></g>
<g><path style="opacity:1" fill="#e9e8e3" d="M 173.5,54.5 C 175.144,54.2865 176.644,54.6198 178,55.5C 178.769,58.0991 178.602,60.5991 177.5,63C 171.229,62.8627 169.896,60.0294 173.5,54.5 Z"/></g>
<g><path style="opacity:1" fill="#dfb352" d="M 32.5,50.5 C 34.1042,51.287 34.7709,52.6203 34.5,54.5C 36.5,54.5 38.5,54.5 40.5,54.5C 40.5,55.5 40.5,56.5 40.5,57.5C 36.3397,59.7534 35.3397,63.0867 37.5,67.5C 36.5,67.5 35.5,67.5 34.5,67.5C 33.8333,67.5 33.1667,67.5 32.5,67.5C 32.5,67.1667 32.5,66.8333 32.5,66.5C 32.5,66.1667 32.5,65.8333 32.5,65.5C 30.139,65.6741 27.8056,66.0074 25.5,66.5C 25.8016,63.9407 25.4682,61.6074 24.5,59.5C 22.9382,59.2671 21.6049,58.6005 20.5,57.5C 20.5,56.8333 20.5,56.1667 20.5,55.5C 20.8333,55.5 21.1667,55.5 21.5,55.5C 24.2282,55.8294 26.5615,55.1628 28.5,53.5C 29.8333,52.5 31.1667,51.5 32.5,50.5 Z"/></g>
<g><path style="opacity:1" fill="#f1c352" d="M 32.5,65.5 C 31.4479,63.744 29.7812,63.0773 27.5,63.5C 27.822,61.2776 27.1554,59.4443 25.5,58C 26.8333,57.6667 28.1667,57.3333 29.5,57C 30.1466,55.3905 30.98,53.8905 32,52.5C 32.4828,53.448 32.6495,54.448 32.5,55.5C 34.4835,55.3832 36.1502,56.0499 37.5,57.5C 37.1543,58.6956 36.6543,58.6956 36,57.5C 35.5026,60.146 35.3359,62.8127 35.5,65.5C 34.5,65.5 33.5,65.5 32.5,65.5 Z"/></g>
<g><path style="opacity:1" fill="#86665d" d="M 20.5,57.5 C 21.6049,58.6005 22.9382,59.2671 24.5,59.5C 24.5,61.1667 24.5,62.8333 24.5,64.5C 24.1667,64.5 23.8333,64.5 23.5,64.5C 23.7593,62.0107 22.7593,60.344 20.5,59.5C 20.5,58.8333 20.5,58.1667 20.5,57.5 Z"/></g>
<g><path style="opacity:1" fill="#dbdad5" d="M 105.5,59.5 C 106.833,59.5 108.167,59.5 109.5,59.5C 109.047,64.3461 107.047,65.3461 103.5,62.5C 104.193,61.4822 104.859,60.4822 105.5,59.5 Z"/></g>
<g><path style="opacity:1" fill="#ebdbb2" d="M 40.5,57.5 C 38.7476,61.2273 38.081,65.2273 38.5,69.5C 37.5,69.5 36.5,69.5 35.5,69.5C 35.5,68.8333 35.1667,68.5 34.5,68.5C 34.5,68.1667 34.5,67.8333 34.5,67.5C 35.5,67.5 36.5,67.5 37.5,67.5C 35.3397,63.0867 36.3397,59.7534 40.5,57.5 Z"/></g>
<g><path style="opacity:1" fill="#6c5370" d="M 20.5,59.5 C 22.7593,60.344 23.7593,62.0107 23.5,64.5C 21.1111,66.887 19.1111,69.5537 17.5,72.5C 16.5481,70.9547 16.2148,69.288 16.5,67.5C 16.5569,66.391 16.8902,65.391 17.5,64.5C 19.7271,63.5994 20.7271,61.9328 20.5,59.5 Z"/></g>
<g><path style="opacity:1" fill="#b69258" d="M 24.5,59.5 C 25.4682,61.6074 25.8016,63.9407 25.5,66.5C 27.8056,66.0074 30.139,65.6741 32.5,65.5C 32.5,65.8333 32.5,66.1667 32.5,66.5C 30.7839,66.6287 29.1172,66.962 27.5,67.5C 26.5,67.5 25.5,67.5 24.5,67.5C 24.5,66.5 24.5,65.5 24.5,64.5C 24.5,62.8333 24.5,61.1667 24.5,59.5 Z"/></g>
<g><path style="opacity:1" fill="#6f5773" d="M 32.5,66.5 C 32.5,66.8333 32.5,67.1667 32.5,67.5C 32.5,68.8333 32.5,70.1667 32.5,71.5C 30.9382,71.2671 29.6049,70.6005 28.5,69.5C 27.6618,69.1583 27.3284,68.4916 27.5,67.5C 29.1172,66.962 30.7839,66.6287 32.5,66.5 Z"/></g>
<g><path style="opacity:1" fill="#a396a4" d="M 28.5,69.5 C 29.6049,70.6005 30.9382,71.2671 32.5,71.5C 32.4827,73.0281 31.816,73.5281 30.5,73C 29.1772,72.1841 28.5106,71.0174 28.5,69.5 Z"/></g>
<g><path style="opacity:1" fill="#b4a4a6" d="M 32.5,67.5 C 33.1667,67.5 33.8333,67.5 34.5,67.5C 34.5,67.8333 34.5,68.1667 34.5,68.5C 34.7148,70.1788 34.0481,71.1788 32.5,71.5C 32.5,70.1667 32.5,68.8333 32.5,67.5 Z"/></g>
<g><path style="opacity:1" fill="#ac9fa9" d="M 23.5,64.5 C 22.3946,67.4393 21.0613,70.2726 19.5,73C 18.0563,73.7805 16.723,73.6139 15.5,72.5C 13.8269,70.2385 14.1602,68.5718 16.5,67.5C 16.2148,69.288 16.5481,70.9547 17.5,72.5C 19.1111,69.5537 21.1111,66.887 23.5,64.5 Z"/></g>
</svg>
