<?xml version="1.0" encoding="UTF-8"?>
<!DOCTYPE svg PUBLIC "-//W3C//DTD SVG 1.1//EN" "http://www.w3.org/Graphics/SVG/1.1/DTD/svg11.dtd">
<svg xmlns="http://www.w3.org/2000/svg" version="1.1" width="258px" height="132px" style="shape-rendering:geometricPrecision; text-rendering:geometricPrecision; image-rendering:optimizeQuality; fill-rule:evenodd; clip-rule:evenodd" xmlns:xlink="http://www.w3.org/1999/xlink">
<g><path style="opacity:1" fill="#fcfdfe" d="M -0.5,-0.5 C 85.5,-0.5 171.5,-0.5 257.5,-0.5C 257.5,43.5 257.5,87.5 257.5,131.5C 171.5,131.5 85.5,131.5 -0.5,131.5C -0.5,87.5 -0.5,43.5 -0.5,-0.5 Z"/></g>
<g><path style="opacity:1" fill="#93dcf6" d="M 168.5,11.5 C 167.778,11.9175 167.278,12.5842 167,13.5C 165.246,11.75 163.079,11.0833 160.5,11.5C 160.5,12.5 160.5,13.5 160.5,14.5C 157.606,14.9577 155.106,14.291 153,12.5C 152.667,13.1667 152.333,13.8333 152,14.5C 148.195,11.8515 144.529,12.1848 141,15.5C 136.251,14.6948 131.418,14.1948 126.5,14C 128.955,12.6884 131.455,11.5218 134,10.5C 134.483,11.448 134.649,12.448 134.5,13.5C 137.797,13.6713 138.131,13.0046 135.5,11.5C 138.167,10.3655 140.833,9.36551 143.5,8.5C 143.833,12.5 144.167,12.5 144.5,8.5C 149.322,7.93466 153.822,8.60133 158,10.5C 158.667,7.83333 159.333,7.83333 160,10.5C 160.333,9.83333 160.667,9.16667 161,8.5C 163.334,10.02 165.834,11.02 168.5,11.5 Z"/></g>
<g><path style="opacity:1" fill="#65c9f1" d="M 168.5,11.5 C 174.771,13.138 180.438,16.138 185.5,20.5C 187.69,22.0069 189.024,24.0069 189.5,26.5C 192.36,27.0177 194.36,28.6843 195.5,31.5C 200.059,38.7766 203.059,46.6099 204.5,55C 202.728,56.4868 200.728,56.8201 198.5,56C 196.13,43.0912 189.797,32.5912 179.5,24.5C 178.614,23.675 178.281,22.675 178.5,21.5C 172.228,19.7238 166.228,17.3905 160.5,14.5C 160.5,13.5 160.5,12.5 160.5,11.5C 163.079,11.0833 165.246,11.75 167,13.5C 167.278,12.5842 167.778,11.9175 168.5,11.5 Z"/></g>
<g><path style="opacity:1" fill="#beeaf9" d="M 99.5,22.5 C 98.4107,24.1171 96.744,24.9504 94.5,25C 95.448,25.4828 96.448,25.6495 97.5,25.5C 97.5,26.5 97.5,27.5 97.5,28.5C 95.8333,28.5 94.1667,28.5 92.5,28.5C 92.5,26.5 92.5,24.5 92.5,22.5C 94.8333,22.5 97.1667,22.5 99.5,22.5 Z"/></g>
<g><path style="opacity:1" fill="#7dc6e8" d="M 99.5,22.5 C 100.167,23.1667 100.833,23.8333 101.5,24.5C 102.919,25.4511 104.585,25.7845 106.5,25.5C 106.5,26.8333 106.5,28.1667 106.5,29.5C 105.5,29.5 104.5,29.5 103.5,29.5C 102.531,28.6906 101.698,27.6906 101,26.5C 100.026,28.8776 99.3589,28.5443 99,25.5C 98.7679,26.7375 98.2679,27.7375 97.5,28.5C 97.5,27.5 97.5,26.5 97.5,25.5C 96.448,25.6495 95.448,25.4828 94.5,25C 96.744,24.9504 98.4107,24.1171 99.5,22.5 Z"/></g>
<g><path style="opacity:1" fill="#4988c4" d="M 107.5,32.5 C 105.5,32.5 103.5,32.5 101.5,32.5C 102.952,31.6981 104.618,31.1981 106.5,31C 105.263,30.7679 104.263,30.2679 103.5,29.5C 104.5,29.5 105.5,29.5 106.5,29.5C 106.5,28.1667 106.5,26.8333 106.5,25.5C 104.585,25.7845 102.919,25.4511 101.5,24.5C 101.97,23.3065 102.97,22.6399 104.5,22.5C 105.994,22.7092 107.161,23.3759 108,24.5C 108.333,23.8333 108.667,23.1667 109,22.5C 109.768,26.0745 109.268,29.4079 107.5,32.5 Z"/></g>
<g><path style="opacity:1" fill="#3979bb" d="M 142.5,26.5 C 148.167,26.5 153.833,26.5 159.5,26.5C 159.5,27.5 159.5,28.5 159.5,29.5C 157.901,29.2322 156.568,29.5655 155.5,30.5C 151.167,30.5 146.833,30.5 142.5,30.5C 142.167,30.5 141.833,30.5 141.5,30.5C 139.473,30.6621 137.473,30.4955 135.5,30C 137.81,29.5034 140.143,29.3367 142.5,29.5C 142.5,28.5 142.5,27.5 142.5,26.5 Z"/></g>
<g><path style="opacity:1" fill="#a2a6c6" d="M 166.5,29.5 C 168.153,29.6596 169.486,30.3263 170.5,31.5C 168.143,31.6633 165.81,31.4966 163.5,31C 164.737,30.7679 165.737,30.2679 166.5,29.5 Z"/></g>
<g><path style="opacity:1" fill="#97d6f0" d="M 142.5,30.5 C 146.833,30.5 151.167,30.5 155.5,30.5C 156.5,30.5 157.5,30.5 158.5,30.5C 158.5,31.1667 158.5,31.8333 158.5,32.5C 154.087,32.3394 149.253,32.3394 144,32.5C 142.97,32.1639 142.47,31.4972 142.5,30.5 Z"/></g>
<g><path style="opacity:1" fill="#e03e5b" d="M 155.5,30.5 C 156.568,29.5655 157.901,29.2322 159.5,29.5C 161.833,29.5 164.167,29.5 166.5,29.5C 165.737,30.2679 164.737,30.7679 163.5,31C 165.81,31.4966 168.143,31.6633 170.5,31.5C 170.082,32.2216 169.416,32.7216 168.5,33C 172.79,33.4661 175.79,35.6328 177.5,39.5C 177.631,40.2389 177.464,40.9056 177,41.5C 176.583,40.244 175.75,39.5774 174.5,39.5C 174.38,38.4138 173.713,37.7472 172.5,37.5C 171.287,37.7472 170.62,38.4138 170.5,39.5C 170.631,40.2389 170.464,40.9056 170,41.5C 169.5,40.3333 168.667,39.5 167.5,39C 169.283,37.9335 169.783,36.4335 169,34.5C 168.617,35.056 168.117,35.3893 167.5,35.5C 167.587,32.4017 167.087,32.0684 166,34.5C 164.667,33.1667 163.333,31.8333 162,30.5C 161.667,31.1667 161.333,31.8333 161,32.5C 160.583,31.244 159.75,30.5774 158.5,30.5C 157.5,30.5 156.5,30.5 155.5,30.5 Z"/></g>
<g><path style="opacity:1" fill="#7188b8" d="M 158.5,30.5 C 159.75,30.5774 160.583,31.244 161,32.5C 161.333,31.8333 161.667,31.1667 162,30.5C 163.333,31.8333 164.667,33.1667 166,34.5C 167.087,32.0684 167.587,32.4017 167.5,35.5C 166.5,35.5 165.5,35.5 164.5,35.5C 162.456,34.478 160.456,33.478 158.5,32.5C 158.5,31.8333 158.5,31.1667 158.5,30.5 Z"/></g>
<g><path style="opacity:1" fill="#8ad3f1" d="M 142.5,26.5 C 142.5,27.5 142.5,28.5 142.5,29.5C 140.143,29.3367 137.81,29.5034 135.5,30C 137.473,30.4955 139.473,30.6621 141.5,30.5C 141.5,31.5 141.5,32.5 141.5,33.5C 136.141,34.9097 130.975,36.9097 126,39.5C 125.5,39.3333 125,39.1667 124.5,39C 126.192,37.5993 126.859,35.7659 126.5,33.5C 127.873,33.6567 129.207,33.49 130.5,33C 129.833,32.6667 129.167,32.3333 128.5,32C 132.821,29.2547 137.487,27.4213 142.5,26.5 Z"/></g>
<g><path style="opacity:1" fill="#a04e7d" d="M 174.5,39.5 C 173.5,39.5 172.5,39.5 171.5,39.5C 171.167,39.5 170.833,39.5 170.5,39.5C 170.62,38.4138 171.287,37.7472 172.5,37.5C 173.713,37.7472 174.38,38.4138 174.5,39.5 Z"/></g>
<g><path style="opacity:1" fill="#cbeffb" d="M 97.5,35.5 C 97.5,36.5 97.5,37.5 97.5,38.5C 96.448,38.3505 95.448,38.5172 94.5,39C 101.167,39.6667 101.167,40.3333 94.5,41C 98.449,41.8068 98.449,42.3068 94.5,42.5C 94.5,43.8333 94.5,45.1667 94.5,46.5C 93.596,47.209 93.2627,48.209 93.5,49.5C 95.7812,49.0773 97.4479,49.744 98.5,51.5C 97.1667,51.5 95.8333,51.5 94.5,51.5C 94.5,52.8333 94.5,54.1667 94.5,55.5C 92.4091,54.1346 90.0758,53.4679 87.5,53.5C 87.5,52.1667 87.5,50.8333 87.5,49.5C 91.3107,49.4042 91.3107,48.7376 87.5,47.5C 88.6853,46.147 90.0186,44.9803 91.5,44C 89.0194,42.1314 86.3527,40.4648 83.5,39C 85.9913,38.3741 85.9913,37.5407 83.5,36.5C 88.1196,35.5067 92.7863,35.1734 97.5,35.5 Z"/></g>
<g><path style="opacity:1" fill="#6eccf1" d="M 101.5,32.5 C 103.5,32.5 105.5,32.5 107.5,32.5C 107.374,34.1998 106.707,35.6998 105.5,37C 105.833,37.5 106.167,38 106.5,38.5C 110.305,39.801 113.972,42.1343 117.5,45.5C 120.056,49.458 122.723,53.2913 125.5,57C 122.937,57.9181 120.77,57.4181 119,55.5C 118.667,56.1667 118.333,56.8333 118,57.5C 114.078,49.2401 107.745,43.9067 99,41.5C 98.3289,44.0004 96.8289,45.6671 94.5,46.5C 94.5,45.1667 94.5,43.8333 94.5,42.5C 98.449,42.3068 98.449,41.8068 94.5,41C 101.167,40.3333 101.167,39.6667 94.5,39C 95.448,38.5172 96.448,38.3505 97.5,38.5C 97.5,37.5 97.5,36.5 97.5,35.5C 99.1216,34.8776 100.455,33.8776 101.5,32.5 Z"/></g>
<g><path style="opacity:1" fill="#7cc1e2" d="M 170.5,39.5 C 170.833,39.5 171.167,39.5 171.5,39.5C 171.833,40.1667 172.167,40.8333 172.5,41.5C 169.965,43.2994 167.299,44.9661 164.5,46.5C 163.833,46.3333 163.167,46.1667 162.5,46C 163.624,45.7508 164.624,45.2508 165.5,44.5C 164.397,44.0024 163.397,43.6691 162.5,43.5C 163.833,41.5 165.167,39.5 166.5,37.5C 165.757,36.8182 165.091,36.1515 164.5,35.5C 165.5,35.5 166.5,35.5 167.5,35.5C 168.117,35.3893 168.617,35.056 169,34.5C 169.783,36.4335 169.283,37.9335 167.5,39C 168.667,39.5 169.5,40.3333 170,41.5C 170.464,40.9056 170.631,40.2389 170.5,39.5 Z"/></g>
<g><path style="opacity:1" fill="#d3c9dc" d="M 57.5,50.5 C 57.2792,53.0972 56.7792,53.0972 56,50.5C 55.6012,50.7284 55.4346,51.0618 55.5,51.5C 53.8008,51.6602 52.1341,51.4935 50.5,51C 51.1667,50.6667 51.8333,50.3333 52.5,50C 51.0267,49.2904 50.3601,48.1238 50.5,46.5C 51.7357,46.9885 53.2357,46.9885 55,46.5C 55.6667,49.1667 56.3333,49.1667 57,46.5C 57.49,47.7932 57.6567,49.1266 57.5,50.5 Z"/></g>
<g><path style="opacity:1" fill="#5586be" d="M 171.5,39.5 C 172.5,39.5 173.5,39.5 174.5,39.5C 175.75,39.5774 176.583,40.244 177,41.5C 177.464,40.9056 177.631,40.2389 177.5,39.5C 178.5,39.5 179.5,39.5 180.5,39.5C 182.363,42.569 183.697,45.9024 184.5,49.5C 184.5,51.5 184.5,53.5 184.5,55.5C 183.167,55.5 181.833,55.5 180.5,55.5C 180.072,52.4359 179.406,49.4359 178.5,46.5C 177.325,46.719 176.325,46.3857 175.5,45.5C 174.965,43.739 173.965,42.4057 172.5,41.5C 172.167,40.8333 171.833,40.1667 171.5,39.5 Z"/></g>
<g><path style="opacity:1" fill="#de7897" d="M 57.5,50.5 C 59.1548,51.9302 61.1548,52.7635 63.5,53C 62.5,53.3333 61.5,53.6667 60.5,54C 62.1341,54.4935 63.8008,54.6602 65.5,54.5C 65.6932,58.449 66.1932,58.449 67,54.5C 67.6667,57.1667 68.3333,57.1667 69,54.5C 69.4828,55.448 69.6495,56.448 69.5,57.5C 73.449,57.6932 73.449,58.1932 69.5,59C 70.448,59.4828 71.448,59.6495 72.5,59.5C 71.7375,60.2679 70.7375,60.7679 69.5,61C 73.0416,61.8817 72.7083,62.715 68.5,63.5C 67.9249,61.7975 67.0915,60.1309 66,58.5C 64.7012,58.9662 63.2012,58.9662 61.5,58.5C 61.6495,57.448 61.4828,56.448 61,55.5C 60.6667,55.8333 60.3333,56.1667 60,56.5C 59.6411,53.4557 58.9745,53.1224 58,55.5C 57.3021,54.3094 56.4687,53.3094 55.5,52.5C 55.5,52.1667 55.5,51.8333 55.5,51.5C 55.4346,51.0618 55.6012,50.7284 56,50.5C 56.7792,53.0972 57.2792,53.0972 57.5,50.5 Z"/></g>
<g><path style="opacity:1" fill="#83d7f5" d="M 98.5,51.5 C 103.048,51.9708 106.048,54.3041 107.5,58.5C 104.68,58.7525 102.014,58.2525 99.5,57C 100.167,56.6667 100.833,56.3333 101.5,56C 99.1902,55.5034 96.8568,55.3367 94.5,55.5C 94.5,54.1667 94.5,52.8333 94.5,51.5C 95.8333,51.5 97.1667,51.5 98.5,51.5 Z"/></g>
<g><path style="opacity:1" fill="#92c4e4" d="M 184.5,49.5 C 185.771,51.1086 186.771,52.9419 187.5,55C 186.167,55.6667 186.167,56.3333 187.5,57C 186.263,57.2321 185.263,57.7321 184.5,58.5C 184.167,58.5 183.833,58.5 183.5,58.5C 182.1,57.8999 181.1,56.8999 180.5,55.5C 181.833,55.5 183.167,55.5 184.5,55.5C 184.5,53.5 184.5,51.5 184.5,49.5 Z"/></g>
<g><path style="opacity:1" fill="#2d62ac" d="M 115.5,59.5 C 127.197,57.6907 131.697,62.3574 129,73.5C 123.301,78.746 117.634,78.746 112,73.5C 109.432,67.9094 110.599,63.2427 115.5,59.5 Z"/></g>
<g><path style="opacity:1" fill="#7da4cf" d="M 183.5,59.5 C 179.03,60.4861 174.363,60.8195 169.5,60.5C 169.5,61.8333 169.5,63.1667 169.5,64.5C 168.549,63.0813 168.216,61.4147 168.5,59.5C 173.5,59.5 178.5,59.5 183.5,59.5 Z"/></g>
<g><path style="opacity:1" fill="#2e63ac" d="M 89.5,59.5 C 91.5,59.5 93.5,59.5 95.5,59.5C 95.5,61.5 95.5,63.5 95.5,65.5C 97.8333,65.5 100.167,65.5 102.5,65.5C 102.5,63.5 102.5,61.5 102.5,59.5C 104.5,59.5 106.5,59.5 108.5,59.5C 108.5,65.1667 108.5,70.8333 108.5,76.5C 106.5,76.5 104.5,76.5 102.5,76.5C 102.5,74.5 102.5,72.5 102.5,70.5C 100.167,70.5 97.8333,70.5 95.5,70.5C 95.5,72.5 95.5,74.5 95.5,76.5C 93.5,76.5 91.5,76.5 89.5,76.5C 89.5,70.8333 89.5,65.1667 89.5,59.5 Z"/></g>
<g><path style="opacity:1" fill="#2b61ab" d="M 132.5,59.5 C 137.628,59.1115 142.628,59.6115 147.5,61C 148.982,63.5918 148.648,65.9251 146.5,68C 149.932,70.367 150.265,73.0337 147.5,76C 142.511,76.4993 137.511,76.6659 132.5,76.5C 132.5,70.8333 132.5,65.1667 132.5,59.5 Z"/></g>
<g><path style="opacity:1" fill="#3365ae" d="M 156.5,59.5 C 159.448,59.2229 162.281,59.5562 165,60.5C 166.641,65.759 168.475,70.9257 170.5,76C 167.041,76.5636 163.708,76.0636 160.5,74.5C 157.248,76.2488 153.915,76.5821 150.5,75.5C 152.516,70.1412 154.516,64.8079 156.5,59.5 Z"/></g>
<g><path style="opacity:1" fill="#285faa" d="M 183.5,58.5 C 183.833,58.5 184.167,58.5 184.5,58.5C 184.81,59.7383 185.31,59.7383 186,58.5C 186.495,60.4727 186.662,62.4727 186.5,64.5C 184.5,64.5 182.5,64.5 180.5,64.5C 180.5,68.5 180.5,72.5 180.5,76.5C 178.5,76.5 176.5,76.5 174.5,76.5C 174.5,72.5 174.5,68.5 174.5,64.5C 172.833,64.5 171.167,64.5 169.5,64.5C 169.5,63.1667 169.5,61.8333 169.5,60.5C 174.363,60.8195 179.03,60.4861 183.5,59.5C 183.5,59.1667 183.5,58.8333 183.5,58.5 Z"/></g>
<g><path style="opacity:1" fill="#3567ae" d="M 187.5,59.5 C 191.637,59.1463 195.637,59.6463 199.5,61C 204.833,66 204.833,71 199.5,76C 195.605,77.2662 191.605,77.7662 187.5,77.5C 187.5,75.8333 187.5,74.1667 187.5,72.5C 190.722,72.8919 193.722,72.3919 196.5,71C 194.19,70.5034 191.857,70.3367 189.5,70.5C 189.5,69.1667 189.5,67.8333 189.5,66.5C 191.924,66.8076 194.257,66.4742 196.5,65.5C 193.807,63.7298 190.807,63.0632 187.5,63.5C 187.5,62.1667 187.5,60.8333 187.5,59.5 Z"/></g>
<g><path style="opacity:1" fill="#2e62ab" d="M 205.5,76.5 C 205.5,71.1667 205.5,65.8333 205.5,60.5C 207.167,60.5 208.833,60.5 210.5,60.5C 210.216,62.4147 210.549,64.0813 211.5,65.5C 213.179,64.0003 214.512,62.167 215.5,60C 217.579,59.1923 219.579,59.359 221.5,60.5C 219.722,62.9446 218.389,65.6112 217.5,68.5C 218.564,70.9587 219.898,73.292 221.5,75.5C 219.579,76.641 217.579,76.8077 215.5,76C 212.577,70.1606 211.243,70.3273 211.5,76.5C 209.5,76.5 207.5,76.5 205.5,76.5 Z"/></g>
<g><path style="opacity:1" fill="#7ea5cf" d="M 211.5,65.5 C 210.549,64.0813 210.216,62.4147 210.5,60.5C 208.833,60.5 207.167,60.5 205.5,60.5C 205.5,65.8333 205.5,71.1667 205.5,76.5C 204.511,71.0247 204.178,65.358 204.5,59.5C 206.833,59.5 209.167,59.5 211.5,59.5C 211.5,61.5 211.5,63.5 211.5,65.5 Z"/></g>
<g><path style="opacity:1" fill="#99c9e6" d="M 32.5,62.5 C 33.154,63.1847 33.154,64.1847 32.5,65.5C 32.8178,66.6473 33.4844,67.4806 34.5,68C 33.8333,68.3333 33.1667,68.6667 32.5,69C 33.4158,69.2784 34.0825,69.7784 34.5,70.5C 31.9028,70.7208 31.9028,71.2208 34.5,72C 31.8333,73.6667 31.8333,75.3333 34.5,77C 31.8333,77.6667 31.8333,78.3333 34.5,79C 33.5842,79.2784 32.9175,79.7784 32.5,80.5C 31.7611,80.631 31.0944,80.4643 30.5,80C 31.5841,74.5384 31.5841,69.3718 30.5,64.5C 30.8555,63.4777 31.5222,62.811 32.5,62.5 Z"/></g>
<g><path style="opacity:1" fill="#edf2f8" d="M 119.5,63.5 C 122.465,63.73 123.798,65.3966 123.5,68.5C 121.5,75.1667 119.5,75.1667 117.5,68.5C 117.437,66.4861 118.103,64.8194 119.5,63.5 Z"/></g>
<g><path style="opacity:1" fill="#d799b5" d="M 72.5,59.5 C 73.7773,60.6936 74.4439,62.3603 74.5,64.5C 73.8162,67.8612 73.1495,71.1945 72.5,74.5C 70.0901,74.9209 68.2568,76.2542 67,78.5C 66.6012,78.2716 66.4346,77.9382 66.5,77.5C 66.9777,75.0829 67.9777,72.9162 69.5,71C 69.2716,70.6012 68.9382,70.4346 68.5,70.5C 68.5,70.1667 68.5,69.8333 68.5,69.5C 68.7583,67.8098 68.7583,65.8098 68.5,63.5C 72.7083,62.715 73.0416,61.8817 69.5,61C 70.7375,60.7679 71.7375,60.2679 72.5,59.5 Z"/></g>
<g><path style="opacity:1" fill="#cfdeed" d="M 138.5,63.5 C 139.833,63.5 141.167,63.5 142.5,63.5C 142.5,64.5 142.5,65.5 142.5,66.5C 141.167,66.5 139.833,66.5 138.5,66.5C 138.5,65.5 138.5,64.5 138.5,63.5 Z"/></g>
<g><path style="opacity:1" fill="#d1e6f3" d="M 33.5,51.5 C 33.2625,54.2116 33.2625,56.7116 33.5,59C 32.001,59.8382 31.6676,60.6715 32.5,61.5C 32.5,61.8333 32.5,62.1667 32.5,62.5C 31.5222,62.811 30.8555,63.4777 30.5,64.5C 31.5841,69.3718 31.5841,74.5384 30.5,80C 31.0944,80.4643 31.7611,80.631 32.5,80.5C 34.3435,82.2789 35.0102,84.6122 34.5,87.5C 37.3085,87.6933 39.9752,88.36 42.5,89.5C 44.1667,89.5 45.8333,89.5 47.5,89.5C 47.5875,92.5983 47.0875,92.9316 46,90.5C 44.2949,91.7633 42.6282,92.0966 41,91.5C 40.0855,95.1851 39.4189,94.8518 39,90.5C 38.6667,91.1667 38.3333,91.8333 38,92.5C 36.0245,91.5721 34.1911,90.4054 32.5,89C 33.6537,88.0862 33.487,87.2529 32,86.5C 31.0862,87.6537 30.2529,87.487 29.5,86C 31.1397,83.2242 30.473,81.2242 27.5,80C 30.1667,79.3333 30.1667,78.6667 27.5,78C 28.1667,77.6667 28.8333,77.3333 29.5,77C 26.8333,75.3333 26.8333,73.6667 29.5,72C 26.8333,71.3333 26.8333,70.6667 29.5,70C 26.8333,69.3333 26.8333,68.6667 29.5,68C 28.4844,67.4806 27.8178,66.6473 27.5,65.5C 28.1984,64.1374 28.1984,62.9707 27.5,62C 28.0611,60.324 29.0611,58.9906 30.5,58C 29.7539,55.9068 29.4205,53.9068 29.5,52C 30.7932,51.51 32.1266,51.3433 33.5,51.5 Z"/></g>
<g><path style="opacity:1" fill="#53a3d5" d="M 55.5,52.5 C 56.4687,53.3094 57.3021,54.3094 58,55.5C 58.9745,53.1224 59.6411,53.4557 60,56.5C 60.3333,56.1667 60.6667,55.8333 61,55.5C 61.4828,56.448 61.6495,57.448 61.5,58.5C 63.2012,58.9662 64.7012,58.9662 66,58.5C 67.0915,60.1309 67.9249,61.7975 68.5,63.5C 68.7583,65.8098 68.7583,67.8098 68.5,69.5C 66.8031,67.6948 65.9698,65.3615 66,62.5C 65.5034,64.8098 65.3367,67.1432 65.5,69.5C 63.4727,69.6621 61.4727,69.4955 59.5,69C 62.1667,66.6667 62.1667,64.3333 59.5,62C 61.1667,61.6667 62.8333,61.3333 64.5,61C 59.8333,60.6667 55.1667,60.3333 50.5,60C 51.1667,59.6667 51.8333,59.3333 52.5,59C 49.8333,57.3333 49.8333,55.6667 52.5,54C 51.8333,53.6667 51.1667,53.3333 50.5,53C 52.1341,52.5065 53.8008,52.3398 55.5,52.5 Z"/></g>
<g><path style="opacity:1" fill="#eaf1f7" d="M 159.5,65.5 C 161.213,66.6354 161.88,68.302 161.5,70.5C 160.448,70.6495 159.448,70.4828 158.5,70C 159.38,68.6439 159.714,67.1439 159.5,65.5 Z"/></g>
<g><path style="opacity:1" fill="#53bbe8" d="M 50.5,46.5 C 50.3601,48.1238 51.0267,49.2904 52.5,50C 51.8333,50.3333 51.1667,50.6667 50.5,51C 52.1341,51.4935 53.8008,51.6602 55.5,51.5C 55.5,51.8333 55.5,52.1667 55.5,52.5C 53.8008,52.3398 52.1341,52.5065 50.5,53C 51.1667,53.3333 51.8333,53.6667 52.5,54C 49.8333,55.6667 49.8333,57.3333 52.5,59C 51.8333,59.3333 51.1667,59.6667 50.5,60C 55.1667,60.3333 59.8333,60.6667 64.5,61C 62.8333,61.3333 61.1667,61.6667 59.5,62C 62.1667,64.3333 62.1667,66.6667 59.5,69C 61.4727,69.4955 63.4727,69.6621 65.5,69.5C 65.3367,67.1432 65.5034,64.8098 66,62.5C 65.9698,65.3615 66.8031,67.6948 68.5,69.5C 68.5,69.8333 68.5,70.1667 68.5,70.5C 65.4816,70.3354 62.4816,70.502 59.5,71C 61.2826,72.0665 61.7826,73.5665 61,75.5C 60.6667,74.5 60.3333,73.5 60,72.5C 59.5065,74.1341 59.3398,75.8008 59.5,77.5C 58.5,77.5 57.5,77.5 56.5,77.5C 56.5,75.1667 56.5,72.8333 56.5,70.5C 54.5,70.5 52.5,70.5 50.5,70.5C 50.3379,72.5273 50.5045,74.5273 51,76.5C 52.0076,71.4591 52.5076,71.7924 52.5,77.5C 50.8561,77.2865 49.3561,77.6198 48,78.5C 47.6667,76.5 47.3333,74.5 47,72.5C 46.6667,73.8333 46.3333,75.1667 46,76.5C 45.8008,74.5975 44.9675,73.0975 43.5,72C 48.5081,71.1307 48.1748,70.4641 42.5,70C 44.1341,69.5065 45.8008,69.3398 47.5,69.5C 47.5,66.8333 47.5,64.1667 47.5,61.5C 45.4727,61.3379 43.4727,61.5045 41.5,62C 42.1667,62.3333 42.8333,62.6667 43.5,63C 40.8333,64.6667 40.8333,66.3333 43.5,68C 42.552,68.4828 41.552,68.6495 40.5,68.5C 40.6633,66.1432 40.4966,63.8098 40,61.5C 39.6667,62.1667 39.3333,62.8333 39,63.5C 37.2458,61.75 35.0792,61.0833 32.5,61.5C 31.6676,60.6715 32.001,59.8382 33.5,59C 33.2625,56.7116 33.2625,54.2116 33.5,51.5C 33.5,49.1667 33.5,46.8333 33.5,44.5C 35.451,44.2267 36.951,44.8934 38,46.5C 38.6667,43.8333 39.3333,43.8333 40,46.5C 40.6667,43.8333 41.3333,43.8333 42,46.5C 43.0665,44.7174 44.5665,44.2174 46.5,45C 42.551,45.8068 42.551,46.3068 46.5,46.5C 46.6932,50.449 47.1932,50.449 48,46.5C 48.3333,47.5 48.6667,48.5 49,49.5C 49.2321,48.2625 49.7321,47.2625 50.5,46.5 Z"/></g>
<g><path style="opacity:1" fill="#b5cbe3" d="M 138.5,69.5 C 140.665,69.1159 142.332,69.7826 143.5,71.5C 142.332,73.2174 140.665,73.8841 138.5,73.5C 138.5,72.1667 138.5,70.8333 138.5,69.5 Z"/></g>
<g><path style="opacity:1" fill="#3577ba" d="M 34.5,70.5 C 38.8383,70.6219 39.1716,70.9553 35.5,71.5C 35.5,72.8333 35.5,74.1667 35.5,75.5C 39.449,75.6932 39.449,76.1932 35.5,77C 42.1667,77.6667 42.1667,78.3333 35.5,79C 37.1341,79.4935 38.8008,79.6602 40.5,79.5C 40.6768,86.1344 41.1768,86.1344 42,79.5C 43.4007,81.1922 45.2341,81.8588 47.5,81.5C 47.6932,85.449 48.1932,85.449 49,81.5C 49.6667,85.5 50.3333,85.5 51,81.5C 51.7805,82.9437 51.6139,84.277 50.5,85.5C 47.5771,86.6848 44.9105,88.0181 42.5,89.5C 39.9752,88.36 37.3085,87.6933 34.5,87.5C 35.0102,84.6122 34.3435,82.2789 32.5,80.5C 32.9175,79.7784 33.5842,79.2784 34.5,79C 31.8333,78.3333 31.8333,77.6667 34.5,77C 31.8333,75.3333 31.8333,73.6667 34.5,72C 31.9028,71.2208 31.9028,70.7208 34.5,70.5 Z"/></g>
<g><path style="opacity:1" fill="#55aede" d="M 32.5,62.5 C 32.5,62.1667 32.5,61.8333 32.5,61.5C 35.0792,61.0833 37.2458,61.75 39,63.5C 39.3333,62.8333 39.6667,62.1667 40,61.5C 40.4966,63.8098 40.6633,66.1432 40.5,68.5C 41.552,68.6495 42.552,68.4828 43.5,68C 40.8333,66.3333 40.8333,64.6667 43.5,63C 42.8333,62.6667 42.1667,62.3333 41.5,62C 43.4727,61.5045 45.4727,61.3379 47.5,61.5C 47.5,64.1667 47.5,66.8333 47.5,69.5C 45.8008,69.3398 44.1341,69.5065 42.5,70C 48.1748,70.4641 48.5081,71.1307 43.5,72C 44.9675,73.0975 45.8008,74.5975 46,76.5C 46.3333,75.1667 46.6667,73.8333 47,72.5C 47.3333,74.5 47.6667,76.5 48,78.5C 49.3561,77.6198 50.8561,77.2865 52.5,77.5C 52.5076,71.7924 52.0076,71.4591 51,76.5C 50.5045,74.5273 50.3379,72.5273 50.5,70.5C 52.5,70.5 54.5,70.5 56.5,70.5C 56.5,72.8333 56.5,75.1667 56.5,77.5C 57.5,77.5 58.5,77.5 59.5,77.5C 59.3398,75.8008 59.5065,74.1341 60,72.5C 60.3333,73.5 60.6667,74.5 61,75.5C 61.7826,73.5665 61.2826,72.0665 59.5,71C 62.4816,70.502 65.4816,70.3354 68.5,70.5C 68.9382,70.4346 69.2716,70.6012 69.5,71C 67.9777,72.9162 66.9777,75.0829 66.5,77.5C 63.9976,79.1624 61.8309,81.1624 60,83.5C 58.2513,82.701 56.918,83.3676 56,85.5C 55.6667,85.1667 55.3333,84.8333 55,84.5C 52.3585,86.7688 49.8585,88.4355 47.5,89.5C 45.8333,89.5 44.1667,89.5 42.5,89.5C 44.9105,88.0181 47.5771,86.6848 50.5,85.5C 51.6139,84.277 51.7805,82.9437 51,81.5C 50.3333,85.5 49.6667,85.5 49,81.5C 48.1932,85.449 47.6932,85.449 47.5,81.5C 45.2341,81.8588 43.4007,81.1922 42,79.5C 41.1768,86.1344 40.6768,86.1344 40.5,79.5C 38.8008,79.6602 37.1341,79.4935 35.5,79C 42.1667,78.3333 42.1667,77.6667 35.5,77C 39.449,76.1932 39.449,75.6932 35.5,75.5C 35.5,74.1667 35.5,72.8333 35.5,71.5C 39.1716,70.9553 38.8383,70.6219 34.5,70.5C 34.0825,69.7784 33.4158,69.2784 32.5,69C 33.1667,68.6667 33.8333,68.3333 34.5,68C 33.4844,67.4806 32.8178,66.6473 32.5,65.5C 33.154,64.1847 33.154,63.1847 32.5,62.5 Z"/></g>
<g><path style="opacity:1" fill="#70cef3" d="M 169.5,114.5 C 169.5,112.5 169.5,110.5 169.5,108.5C 173.966,105.81 178.633,103.31 183.5,101C 183.043,100.586 182.709,100.086 182.5,99.5C 189.169,93.994 193.502,86.994 195.5,78.5C 197.924,78.1924 200.257,78.5258 202.5,79.5C 201.975,80.1924 201.308,80.6924 200.5,81C 201.554,82.3876 201.72,83.8876 201,85.5C 193.367,99.3432 182.867,109.01 169.5,114.5 Z"/></g>
<g><path style="opacity:1" fill="#74d0f3" d="M 119.5,78.5 C 121.924,78.1924 124.257,78.5258 126.5,79.5C 124.697,84.8552 122.364,89.8552 119.5,94.5C 115.543,97.1043 111.543,99.7709 107.5,102.5C 104.701,103.004 102.201,104.004 100,105.5C 99.1932,101.551 98.6932,101.551 98.5,105.5C 96.5,105.5 94.5,105.5 92.5,105.5C 92.3068,101.551 91.8068,101.551 91,105.5C 90.1932,101.551 89.6932,101.551 89.5,105.5C 88.1667,105.5 86.8333,105.5 85.5,105.5C 85.5,104.167 85.5,102.833 85.5,101.5C 89.5138,101.666 93.5138,101.499 97.5,101C 96.5,100.667 95.5,100.333 94.5,100C 107.633,98.3646 115.966,91.198 119.5,78.5 Z"/></g>
<g><path style="opacity:1" fill="#87d8f5" d="M 178.5,78.5 C 179.833,78.5 181.167,78.5 182.5,78.5C 182.058,81.3426 181.058,84.0093 179.5,86.5C 178.675,87.3857 177.675,87.719 176.5,87.5C 176.5,86.5 176.5,85.5 176.5,84.5C 172.5,84.1667 172.5,83.8333 176.5,83.5C 176.343,82.1266 176.51,80.7932 177,79.5C 178.087,81.9316 178.587,81.5983 178.5,78.5 Z"/></g>
<g><path style="opacity:1" fill="#8cd9f5" d="M 103.5,78.5 C 105.5,78.5 107.5,78.5 109.5,78.5C 107.308,87.5042 101.475,91.8375 92,91.5C 89.8333,91.3333 87.6667,91.1667 85.5,91C 87.1667,90.6667 88.8333,90.3333 90.5,90C 88.1902,89.5034 85.8568,89.3367 83.5,89.5C 83.5,88.1667 83.5,86.8333 83.5,85.5C 84.8734,85.3433 86.2068,85.51 87.5,86C 86.2888,86.8928 86.2888,87.7261 87.5,88.5C 88.5976,84.6395 89.4309,84.6395 90,88.5C 90.3589,85.4557 91.0255,85.1224 92,87.5C 92.9745,85.1224 93.6411,85.4557 94,88.5C 94.4828,87.552 94.6495,86.552 94.5,85.5C 97.5641,85.0725 100.564,84.4058 103.5,83.5C 103.5,81.8333 103.5,80.1667 103.5,78.5 Z"/></g>
<g><path style="opacity:1" fill="#78d1f3" d="M 130.5,89.5 C 131.931,89.8807 132.764,90.8807 133,92.5C 133.333,91.8333 133.667,91.1667 134,90.5C 135.38,93.0578 136.88,93.0578 138.5,90.5C 138.833,90.8333 139.167,91.1667 139.5,91.5C 140.102,93.6079 140.435,95.7746 140.5,98C 140.695,100.793 140.029,103.293 138.5,105.5C 137.808,104.975 137.308,104.308 137,103.5C 136.502,100.518 136.335,97.5184 136.5,94.5C 134.169,94.4977 132.169,95.331 130.5,97C 131.167,97.3333 131.833,97.6667 132.5,98C 130.808,99.4007 130.141,101.234 130.5,103.5C 128.876,103.36 127.71,104.027 127,105.5C 126.833,104.833 126.667,104.167 126.5,103.5C 127.728,98.6831 129.061,94.0164 130.5,89.5 Z"/></g>
<g><path style="opacity:1" fill="#73cff3" d="M 149.5,89.5 C 151.284,90.956 153.284,91.956 155.5,92.5C 155.5,94.8333 155.5,97.1667 155.5,99.5C 152.482,99.3354 149.482,99.502 146.5,100C 149.372,101.451 152.372,101.618 155.5,100.5C 155.5,101.5 155.5,102.5 155.5,103.5C 153.535,104.129 151.535,104.796 149.5,105.5C 143.455,103.021 141.455,99.0208 143.5,93.5C 145.167,92.1667 146.833,92.1667 148.5,93.5C 145.724,95.2787 146.057,96.2787 149.5,96.5C 150.5,96.1667 151.5,95.8333 152.5,95.5C 151.754,94.2638 151.421,92.9305 151.5,91.5C 149.801,91.6602 148.134,91.4935 146.5,91C 147.737,90.7679 148.737,90.2679 149.5,89.5 Z"/></g>
<g><path style="opacity:1" fill="#76d1f3" d="M 162.5,90.5 C 164.451,90.2267 165.951,90.8934 167,92.5C 167.763,89.9365 168.263,89.9365 168.5,92.5C 167.528,94.9539 166.195,97.1206 164.5,99C 167.167,99.6667 167.167,100.333 164.5,101C 165.167,101.333 165.833,101.667 166.5,102C 165.23,102.9 164.23,104.066 163.5,105.5C 163.014,101.303 162.014,97.303 160.5,93.5C 161.612,92.7348 162.279,91.7348 162.5,90.5 Z"/></g>
<g><path style="opacity:1" fill="#b5e8f9" d="M 169.5,108.5 C 169.5,110.5 169.5,112.5 169.5,114.5C 166.813,114.336 164.146,114.503 161.5,115C 162.5,115.333 163.5,115.667 164.5,116C 157.174,116.5 149.841,116.666 142.5,116.5C 142.5,115.167 142.5,113.833 142.5,112.5C 149.2,112.83 155.866,112.497 162.5,111.5C 164.939,110.593 167.272,109.593 169.5,108.5 Z"/></g>
</svg>
