<?xml version="1.0" encoding="UTF-8"?>
<!DOCTYPE svg PUBLIC "-//W3C//DTD SVG 1.1//EN" "http://www.w3.org/Graphics/SVG/1.1/DTD/svg11.dtd">
<svg xmlns="http://www.w3.org/2000/svg" version="1.1" width="396px" height="122px" style="shape-rendering:geometricPrecision; text-rendering:geometricPrecision; image-rendering:optimizeQuality; fill-rule:evenodd; clip-rule:evenodd" xmlns:xlink="http://www.w3.org/1999/xlink">
<g><path style="opacity:1" fill="#fafbfb" d="M -0.5,-0.5 C 131.5,-0.5 263.5,-0.5 395.5,-0.5C 395.5,33.8333 395.5,68.1667 395.5,102.5C 366.083,102.107 336.749,102.107 307.5,102.5C 305.167,102.333 302.833,102.167 300.5,102C 299.359,101.259 299.359,100.425 300.5,99.5C 297.833,98.1667 295.167,98.1667 292.5,99.5C 294.5,100.167 296.5,100.833 298.5,101.5C 295.167,101.833 291.833,102.167 288.5,102.5C 260.752,101.869 233.086,101.869 205.5,102.5C 203.167,102.333 200.833,102.167 198.5,102C 197.359,101.259 197.359,100.425 198.5,99.5C 195.833,98.1667 193.167,98.1667 190.5,99.5C 192.5,100.167 194.5,100.833 196.5,101.5C 193.167,101.833 189.833,102.167 186.5,102.5C 157.235,101.765 127.901,101.765 98.5,102.5C 102.205,101.123 104.539,98.456 105.5,94.5C 106.5,94.5 107.5,94.5 108.5,94.5C 108.433,93.0413 108.766,91.7079 109.5,90.5C 110.855,86.6041 112.689,82.9374 115,79.5C 115.49,78.2068 115.657,76.8734 115.5,75.5C 115.5,74.5 115.5,73.5 115.5,72.5C 116.404,71.791 116.737,70.791 116.5,69.5C 119.713,69.81 122.713,69.4767 125.5,68.5C 125.5,64.5 125.5,60.5 125.5,56.5C 123.342,54.78 120.675,53.9467 117.5,54C 116.901,52.3775 116.234,50.8775 115.5,49.5C 115.5,48.5 115.5,47.5 115.5,46.5C 115.486,42.7494 114.153,39.7494 111.5,37.5C 109.294,32.953 106.294,28.953 102.5,25.5C 102.586,24.5041 102.252,23.6708 101.5,23C 97.4796,20.2757 93.1463,18.4424 88.5,17.5C 77.4821,14.9199 66.4821,14.9199 55.5,17.5C 52.2524,17.6639 49.2524,18.6639 46.5,20.5C 45.3881,21.2652 44.7214,22.2652 44.5,23.5C 37.9571,27.0424 33.6238,32.3757 31.5,39.5C 30.8333,39.5 30.5,39.8333 30.5,40.5C 26.9933,43.9104 25.66,48.2437 26.5,53.5C 23.2869,53.19 20.2869,53.5233 17.5,54.5C 16.8969,59.6186 17.5636,64.2853 19.5,68.5C 22.0529,69.2549 24.7196,69.9216 27.5,70.5C 27.2938,73.4951 27.9605,76.1617 29.5,78.5C 30.031,81.237 30.8644,83.9036 32,86.5C 34.0586,88.5038 35.5586,90.8372 36.5,93.5C 36.7031,95.0443 37.3698,96.3777 38.5,97.5C 37.8333,98.1667 37.1667,98.8333 36.5,99.5C 38.4244,99.567 40.4244,99.9003 42.5,100.5C 41.9747,101.192 41.3081,101.692 40.5,102C 26.8323,102.262 13.1657,102.429 -0.5,102.5C -0.5,68.1667 -0.5,33.8333 -0.5,-0.5 Z"/></g>
<g><path style="opacity:1" fill="#a2d4d1" d="M 304.5,14.5 C 304.806,11.6146 304.473,8.9479 303.5,6.5C 300.833,6.5 298.167,6.5 295.5,6.5C 295.5,8.83333 295.5,11.1667 295.5,13.5C 297.948,14.4731 300.615,14.8064 303.5,14.5C 300.713,15.4767 297.713,15.81 294.5,15.5C 294.5,11.8333 294.5,8.16667 294.5,4.5C 298.167,4.5 301.833,4.5 305.5,4.5C 305.813,8.04185 305.479,11.3752 304.5,14.5 Z"/></g>
<g><path style="opacity:1" fill="#479e96" d="M 303.5,6.5 C 303.5,8.83333 303.5,11.1667 303.5,13.5C 300.833,13.5 298.167,13.5 295.5,13.5C 295.5,11.1667 295.5,8.83333 295.5,6.5C 298.167,6.5 300.833,6.5 303.5,6.5 Z"/></g>
<g><path style="opacity:1" fill="#6dbab4" d="M 303.5,6.5 C 304.473,8.9479 304.806,11.6146 304.5,14.5C 304.167,14.5 303.833,14.5 303.5,14.5C 300.615,14.8064 297.948,14.4731 295.5,13.5C 298.167,13.5 300.833,13.5 303.5,13.5C 303.5,11.1667 303.5,8.83333 303.5,6.5 Z"/></g>
<g><path style="opacity:1" fill="#72bbb5" d="M 88.5,17.5 C 88.5,17.8333 88.5,18.1667 88.5,18.5C 75.9284,16.7646 63.5951,17.4313 51.5,20.5C 52.4475,19.0221 53.7809,18.0221 55.5,17.5C 66.4821,14.9199 77.4821,14.9199 88.5,17.5 Z"/></g>
<g><path style="opacity:1" fill="#c8e5e3" d="M 55.5,17.5 C 53.7809,18.0221 52.4475,19.0221 51.5,20.5C 49.2779,21.6876 46.9446,22.6876 44.5,23.5C 44.7214,22.2652 45.3881,21.2652 46.5,20.5C 49.2524,18.6639 52.2524,17.6639 55.5,17.5 Z"/></g>
<g><path style="opacity:1" fill="#449c94" d="M 88.5,18.5 C 92.0361,19.2316 95.0361,20.8982 97.5,23.5C 98.9732,26.16 101.14,28.16 104,29.5C 106.962,33.5387 109.462,37.8721 111.5,42.5C 112.183,42.8627 112.85,43.1961 113.5,43.5C 113.427,45.0269 114.094,46.0269 115.5,46.5C 115.5,47.5 115.5,48.5 115.5,49.5C 115.5,51.5 115.5,53.5 115.5,55.5C 118.939,55.2529 122.272,55.5863 125.5,56.5C 125.5,60.5 125.5,64.5 125.5,68.5C 122.167,68.5 118.833,68.5 115.5,68.5C 115.5,69.8333 115.5,71.1667 115.5,72.5C 115.5,73.5 115.5,74.5 115.5,75.5C 112.832,80.2217 110.498,85.2217 108.5,90.5C 107.122,91.5451 106.122,92.8784 105.5,94.5C 102.443,97.2226 99.1099,99.556 95.5,101.5C 92.4285,102.495 89.4285,103.662 86.5,105C 74.2228,106.272 62.2228,105.438 50.5,102.5C 49.8333,102.5 49.1667,102.5 48.5,102.5C 47.0783,102.291 45.745,101.791 44.5,101C 41.99,98.323 39.3233,95.823 36.5,93.5C 35.5586,90.8372 34.0586,88.5038 32,86.5C 30.8644,83.9036 30.031,81.237 29.5,78.5C 29.4349,75.5718 28.7682,72.9052 27.5,70.5C 25.3647,68.631 22.6981,67.9644 19.5,68.5C 19.5,64.1667 19.5,59.8333 19.5,55.5C 22.3854,55.8064 25.0521,55.4731 27.5,54.5C 27.5,53.8333 27.5,53.1667 27.5,52.5C 30.0747,48.6988 31.408,44.3655 31.5,39.5C 35.018,33.634 39.3514,28.3007 44.5,23.5C 46.9446,22.6876 49.2779,21.6876 51.5,20.5C 63.5951,17.4313 75.9284,16.7646 88.5,18.5 Z"/></g>
<g><path style="opacity:1" fill="#bce0de" d="M 167.5,20.5 C 161.404,18.4712 155.071,17.9712 148.5,19C 145.986,19.8809 143.986,21.3809 142.5,23.5C 141.833,23.8333 141.167,24.1667 140.5,24.5C 140.859,22.629 141.859,21.129 143.5,20C 150.49,16.2114 157.823,15.5447 165.5,18C 166.381,18.7083 167.047,19.5416 167.5,20.5 Z"/></g>
<g><path style="opacity:1" fill="#abd8d5" d="M 204.5,18.5 C 200.351,17.9197 196.684,18.5864 193.5,20.5C 192.833,20.5 192.167,20.5 191.5,20.5C 191.804,19.8501 192.137,19.1835 192.5,18.5C 196.649,17.1905 200.649,17.1905 204.5,18.5 Z"/></g>
<g><path style="opacity:1" fill="#69b6b0" d="M 204.5,18.5 C 206.38,18.2291 207.713,18.8958 208.5,20.5C 203.469,19.2171 198.469,19.2171 193.5,20.5C 196.684,18.5864 200.351,17.9197 204.5,18.5 Z"/></g>
<g><path style="opacity:1" fill="#6ebab4" d="M 269.5,24.5 C 267.661,23.4923 266.328,21.9923 265.5,20C 262.5,19.3333 259.5,19.3333 256.5,20C 257.252,20.6708 257.586,21.5041 257.5,22.5C 255.896,21.713 255.229,20.3797 255.5,18.5C 259.5,18.5 263.5,18.5 267.5,18.5C 267.704,20.6854 268.37,22.6854 269.5,24.5 Z"/></g>
<g><path style="opacity:1" fill="#6ab7b1" d="M 277.5,18.5 C 281.555,18.1758 285.555,18.5091 289.5,19.5C 289.145,20.5223 288.478,21.189 287.5,21.5C 285.012,19.6122 282.012,18.9455 278.5,19.5C 277.361,22.0037 276.694,24.6703 276.5,27.5C 275.5,27.5 274.5,27.5 273.5,27.5C 273.557,26.391 273.89,25.391 274.5,24.5C 276.346,22.9699 277.346,20.9699 277.5,18.5 Z"/></g>
<g><path style="opacity:1" fill="#5eb0a9" d="M 355.5,18.5 C 356.492,18.3284 357.158,18.6618 357.5,19.5C 354.428,19.1826 351.428,19.5159 348.5,20.5C 345.924,21.4295 343.424,22.4295 341,23.5C 338.673,23.1777 337.506,21.8444 337.5,19.5C 340.564,22.1637 343.564,21.997 346.5,19C 349.482,18.502 352.482,18.3354 355.5,18.5 Z"/></g>
<g><path style="opacity:1" fill="#4ba19a" d="M 167.5,20.5 C 169.127,22.6298 170.96,24.6298 173,26.5C 173.483,27.448 173.649,28.448 173.5,29.5C 174.022,35.7482 173.355,41.7482 171.5,47.5C 171.573,49.0269 170.906,50.0269 169.5,50.5C 167.264,51.5462 165.264,52.8795 163.5,54.5C 156.469,56.4149 149.803,55.5816 143.5,52C 142.177,51.1841 141.511,50.0174 141.5,48.5C 139.728,45.0835 138.728,41.4169 138.5,37.5C 139.622,32.7652 140.955,28.0985 142.5,23.5C 143.986,21.3809 145.986,19.8809 148.5,19C 155.071,17.9712 161.404,18.4712 167.5,20.5 Z"/></g>
<g><path style="opacity:1" fill="#59aea7" d="M 181.5,19.5 C 181.5,30.8333 181.5,42.1667 181.5,53.5C 183.833,53.5 186.167,53.5 188.5,53.5C 187.865,44.7663 188.532,36.4329 190.5,28.5C 189.53,37.0823 189.197,45.7489 189.5,54.5C 186.5,54.5 183.5,54.5 180.5,54.5C 180.172,42.6547 180.505,30.988 181.5,19.5 Z"/></g>
<g><path style="opacity:1" fill="#459d95" d="M 181.5,19.5 C 185.073,19.0412 188.073,20.0412 190.5,22.5C 191.298,22.0431 191.631,21.3764 191.5,20.5C 192.167,20.5 192.833,20.5 193.5,20.5C 198.469,19.2171 203.469,19.2171 208.5,20.5C 208.461,21.7562 208.961,22.7562 210,23.5C 210.5,33.4944 210.666,43.4944 210.5,53.5C 208.5,53.5 206.5,53.5 204.5,53.5C 204.826,44.9832 204.493,36.6499 203.5,28.5C 202.833,28.1667 202.167,27.8333 201.5,27.5C 197.717,25.9935 194.05,26.3268 190.5,28.5C 188.532,36.4329 187.865,44.7663 188.5,53.5C 186.167,53.5 183.833,53.5 181.5,53.5C 181.5,42.1667 181.5,30.8333 181.5,19.5 Z"/></g>
<g><path style="opacity:1" fill="#4aa199" d="M 241.5,18.5 C 245.293,19.2894 248.293,21.2894 250.5,24.5C 250.796,26.403 251.463,28.0697 252.5,29.5C 252.81,32.7131 252.477,35.7131 251.5,38.5C 243.5,38.5 235.5,38.5 227.5,38.5C 227.216,40.4147 227.549,42.0813 228.5,43.5C 228.833,43.5 229.167,43.5 229.5,43.5C 229.5,44.1667 229.5,44.8333 229.5,45.5C 229.953,46.4584 230.619,47.2917 231.5,48C 234.367,48.8007 237.034,48.6341 239.5,47.5C 239.5,47.1667 239.5,46.8333 239.5,46.5C 243.227,44.7476 247.227,44.081 251.5,44.5C 251.5,45.5 251.5,46.5 251.5,47.5C 249.793,48.8726 248.46,50.5393 247.5,52.5C 245.181,52.9925 243.181,53.9925 241.5,55.5C 236.009,55.8503 230.676,55.1836 225.5,53.5C 224.449,52.7777 223.782,51.7777 223.5,50.5C 220.391,42.4418 219.724,34.1084 221.5,25.5C 223.051,23.0771 225.051,21.0771 227.5,19.5C 232.12,18.5067 236.786,18.1734 241.5,18.5 Z"/></g>
<g><path style="opacity:1" fill="#4ca29a" d="M 269.5,24.5 C 270.637,25.7888 271.97,26.7888 273.5,27.5C 274.5,27.5 275.5,27.5 276.5,27.5C 276.694,24.6703 277.361,22.0037 278.5,19.5C 282.012,18.9455 285.012,19.6122 287.5,21.5C 285.18,24.9811 283.18,28.6477 281.5,32.5C 279.698,33.3155 278.698,34.8155 278.5,37C 278.639,38.301 279.305,39.1344 280.5,39.5C 281.11,40.391 281.443,41.391 281.5,42.5C 282.546,44.7359 283.879,46.7359 285.5,48.5C 287.5,48.5 288.5,49.5 288.5,51.5C 288.5,51.8333 288.5,52.1667 288.5,52.5C 285.316,54.4136 281.649,55.0803 277.5,54.5C 277.002,51.6737 275.669,49.3403 273.5,47.5C 273.225,45.2417 272.225,44.9084 270.5,46.5C 268.962,48.2433 267.962,50.2433 267.5,52.5C 263.76,54.6726 259.76,55.006 255.5,53.5C 256.95,52.1502 257.617,50.4835 257.5,48.5C 260.313,45.5541 262.646,42.2208 264.5,38.5C 265.613,37.0536 265.78,35.3869 265,33.5C 262.759,30.2209 260.259,27.2209 257.5,24.5C 257.5,23.8333 257.5,23.1667 257.5,22.5C 257.586,21.5041 257.252,20.6708 256.5,20C 259.5,19.3333 262.5,19.3333 265.5,20C 266.328,21.9923 267.661,23.4923 269.5,24.5 Z"/></g>
<g><path style="opacity:1" fill="#a5d6d3" d="M 303.5,18.5 C 300.833,18.5 298.167,18.5 295.5,18.5C 295.5,30.5 295.5,42.5 295.5,54.5C 294.505,42.6783 294.172,30.6783 294.5,18.5C 297.5,17.1667 300.5,17.1667 303.5,18.5 Z"/></g>
<g><path style="opacity:1" fill="#60b1aa" d="M 303.5,18.5 C 303.833,18.5 304.167,18.5 304.5,18.5C 304.5,30.5 304.5,42.5 304.5,54.5C 301.396,55.7752 298.396,55.7752 295.5,54.5C 295.5,42.5 295.5,30.5 295.5,18.5C 298.167,18.5 300.833,18.5 303.5,18.5 Z"/></g>
<g><path style="opacity:1" fill="#439b92" d="M 296.5,19.5 C 298.5,19.5 300.5,19.5 302.5,19.5C 302.5,30.8333 302.5,42.1667 302.5,53.5C 300.5,53.5 298.5,53.5 296.5,53.5C 296.5,42.1667 296.5,30.8333 296.5,19.5 Z"/></g>
<g><path style="opacity:1" fill="#cfe8e7" d="M 304.5,18.5 C 305.829,24.1275 306.496,30.1275 306.5,36.5C 306.5,42.6762 306.166,48.6762 305.5,54.5C 305.167,54.5 304.833,54.5 304.5,54.5C 304.5,42.5 304.5,30.5 304.5,18.5 Z"/></g>
<g><path style="opacity:1" fill="#aad7d5" d="M 313.5,18.5 C 313.5,18.8333 313.5,19.1667 313.5,19.5C 312.505,30.988 312.172,42.6547 312.5,54.5C 312.167,54.5 311.833,54.5 311.5,54.5C 310.854,42.1201 311.521,30.1201 313.5,18.5 Z"/></g>
<g><path style="opacity:1" fill="#7ec3bd" d="M 313.5,19.5 C 313.172,31.0123 313.505,42.3456 314.5,53.5C 316.607,54.4682 318.941,54.8016 321.5,54.5C 318.5,55.8333 315.5,55.8333 312.5,54.5C 312.172,42.6547 312.505,30.988 313.5,19.5 Z"/></g>
<g><path style="opacity:1" fill="#c2e3e0" d="M 355.5,18.5 C 352.482,18.3354 349.482,18.502 346.5,19C 343.564,21.997 340.564,22.1637 337.5,19.5C 337.5,19.1667 337.5,18.8333 337.5,18.5C 343.47,17.7061 349.47,17.7061 355.5,18.5 Z"/></g>
<g><path style="opacity:1" fill="#489f97" d="M 337.5,19.5 C 337.506,21.8444 338.673,23.1777 341,23.5C 343.424,22.4295 345.924,21.4295 348.5,20.5C 351.428,19.5159 354.428,19.1826 357.5,19.5C 358.391,20.1098 359.391,20.4431 360.5,20.5C 360.461,21.7562 360.961,22.7562 362,23.5C 362.5,33.4944 362.666,43.4944 362.5,53.5C 360.5,53.5 358.5,53.5 356.5,53.5C 356.831,44.8078 356.498,36.1411 355.5,27.5C 354.817,27.1373 354.15,26.8039 353.5,26.5C 349.993,25.9935 346.826,26.6602 344,28.5C 343.5,37.1603 343.334,45.8269 343.5,54.5C 343.167,54.5 342.833,54.5 342.5,54.5C 339.833,54.5 337.167,54.5 334.5,54.5C 334.825,46.9809 334.492,39.6476 333.5,32.5C 333.5,31.1667 333.5,29.8333 333.5,28.5C 333.586,27.5041 333.252,26.6708 332.5,26C 329.447,25.8214 326.447,25.3214 323.5,24.5C 324.5,23.1667 325.5,21.8333 326.5,20.5C 330.107,19.5108 333.774,19.1774 337.5,19.5 Z"/></g>
<g><path style="opacity:1" fill="#cbe7e5" d="M 88.5,18.5 C 88.5,18.1667 88.5,17.8333 88.5,17.5C 93.1463,18.4424 97.4796,20.2757 101.5,23C 102.252,23.6708 102.586,24.5041 102.5,25.5C 100.833,24.8333 99.1667,24.1667 97.5,23.5C 95.0361,20.8982 92.0361,19.2316 88.5,18.5 Z"/></g>
<g><path style="opacity:1" fill="#c2e3e1" d="M 277.5,18.5 C 277.346,20.9699 276.346,22.9699 274.5,24.5C 274.654,22.0301 275.654,20.0301 277.5,18.5 Z"/></g>
<g><path style="opacity:1" fill="#aad8d5" d="M 241.5,18.5 C 236.786,18.1734 232.12,18.5067 227.5,19.5C 225.051,21.0771 223.051,23.0771 221.5,25.5C 221.167,25.5 220.833,25.5 220.5,25.5C 221.752,22.5769 223.752,20.2436 226.5,18.5C 231.652,17.1863 236.652,17.1863 241.5,18.5 Z"/></g>
<g><path style="opacity:1" fill="#66b4ad" d="M 337.5,18.5 C 337.5,18.8333 337.5,19.1667 337.5,19.5C 333.774,19.1774 330.107,19.5108 326.5,20.5C 325.5,21.8333 324.5,23.1667 323.5,24.5C 326.447,25.3214 329.447,25.8214 332.5,26C 333.252,26.6708 333.586,27.5041 333.5,28.5C 332.833,28.1667 332.167,27.8333 331.5,27.5C 329.052,26.5269 326.385,26.1936 323.5,26.5C 322.912,35.9768 322.245,45.3101 321.5,54.5C 318.941,54.8016 316.607,54.4682 314.5,53.5C 313.505,42.3456 313.172,31.0123 313.5,19.5C 313.5,19.1667 313.5,18.8333 313.5,18.5C 316.167,18.5 318.833,18.5 321.5,18.5C 321.5,19.5 321.5,20.5 321.5,21.5C 323.38,21.7709 324.713,21.1042 325.5,19.5C 329.242,17.2716 333.242,16.9383 337.5,18.5 Z"/></g>
<g><path style="opacity:1" fill="#a4d5d2" d="M 321.5,18.5 C 322.708,19.2341 324.041,19.5674 325.5,19.5C 324.713,21.1042 323.38,21.7709 321.5,21.5C 321.5,20.5 321.5,19.5 321.5,18.5 Z"/></g>
<g><path style="opacity:1" fill="#439b93" d="M 314.5,53.5 C 314.5,42.1667 314.5,30.8333 314.5,19.5C 316.5,19.5 318.5,19.5 320.5,19.5C 320.855,22.0667 321.521,24.5667 322.5,27C 320.593,35.6737 319.926,44.5071 320.5,53.5C 318.5,53.5 316.5,53.5 314.5,53.5 Z"/></g>
<g><path style="opacity:1" fill="#6bb8b2" d="M 153.5,26.5 C 159.833,23.7379 163.5,25.7379 164.5,32.5C 162.815,27.1906 159.148,25.1906 153.5,26.5 Z"/></g>
<g><path style="opacity:1" fill="#c0e2e0" d="M 153.5,26.5 C 159.148,25.1906 162.815,27.1906 164.5,32.5C 164.884,36.4885 164.217,40.1552 162.5,43.5C 162.666,39.1539 162.499,34.8206 162,30.5C 157.501,26.5413 153.001,26.5413 148.5,30.5C 148.967,27.7026 150.633,26.3692 153.5,26.5 Z"/></g>
<g><path style="opacity:1" fill="#86c7c2" d="M 191.5,20.5 C 191.631,21.3764 191.298,22.0431 190.5,22.5C 188.073,20.0412 185.073,19.0412 181.5,19.5C 180.505,30.988 180.172,42.6547 180.5,54.5C 183.5,54.5 186.5,54.5 189.5,54.5C 186.375,55.4794 183.042,55.8128 179.5,55.5C 179.5,43.1667 179.5,30.8333 179.5,18.5C 183.813,17.9905 187.813,18.6571 191.5,20.5 Z"/></g>
<g><path style="opacity:1" fill="#99cfcb" d="M 44.5,23.5 C 39.3514,28.3007 35.018,33.634 31.5,39.5C 33.6238,32.3757 37.9571,27.0424 44.5,23.5 Z"/></g>
<g><path style="opacity:1" fill="#f9fbfb" d="M 162.5,43.5 C 161.738,45.2624 160.404,46.2624 158.5,46.5C 155.37,46.3003 152.37,45.6336 149.5,44.5C 148.617,39.8969 148.283,35.2303 148.5,30.5C 153.001,26.5413 157.501,26.5413 162,30.5C 162.499,34.8206 162.666,39.1539 162.5,43.5 Z"/></g>
<g><path style="opacity:1" fill="#abd8d5" d="M 211.5,24.5 C 212.117,24.6107 212.617,24.944 213,25.5C 213.5,35.1609 213.666,44.8276 213.5,54.5C 213.167,54.5 212.833,54.5 212.5,54.5C 212.784,44.4478 212.45,34.4478 211.5,24.5 Z"/></g>
<g><path style="opacity:1" fill="#fbfcfc" d="M 232.5,27.5 C 235.908,26.828 238.575,27.828 240.5,30.5C 237.232,31.487 233.898,31.8204 230.5,31.5C 230.5,30.5 230.5,29.5 230.5,28.5C 231.167,28.1667 231.833,27.8333 232.5,27.5 Z"/></g>
<g><path style="opacity:1" fill="#b3dcd9" d="M 140.5,24.5 C 140.088,26.8867 139.088,28.8867 137.5,30.5C 137.621,27.8952 138.621,25.8952 140.5,24.5 Z"/></g>
<g><path style="opacity:1" fill="#63b3ac" d="M 208.5,20.5 C 210.262,21.2623 211.262,22.5956 211.5,24.5C 212.45,34.4478 212.784,44.4478 212.5,54.5C 209.396,55.7752 206.396,55.7752 203.5,54.5C 203.5,45.8333 203.5,37.1667 203.5,28.5C 204.493,36.6499 204.826,44.9832 204.5,53.5C 206.5,53.5 208.5,53.5 210.5,53.5C 210.666,43.4944 210.5,33.4944 210,23.5C 208.961,22.7562 208.461,21.7562 208.5,20.5 Z"/></g>
<g><path style="opacity:1" fill="#6ab6af" d="M 360.5,20.5 C 362.727,21.4006 363.727,23.0672 363.5,25.5C 363.5,35.1667 363.5,44.8333 363.5,54.5C 360.77,55.8166 357.937,55.8166 355,54.5C 354.83,45.657 354.33,36.9903 353.5,28.5C 353.5,27.8333 353.5,27.1667 353.5,26.5C 354.15,26.8039 354.817,27.1373 355.5,27.5C 356.498,36.1411 356.831,44.8078 356.5,53.5C 358.5,53.5 360.5,53.5 362.5,53.5C 362.666,43.4944 362.5,33.4944 362,23.5C 360.961,22.7562 360.461,21.7562 360.5,20.5 Z"/></g>
<g><path style="opacity:1" fill="#8ac9c4" d="M 363.5,25.5 C 364.268,26.2625 364.768,27.2625 365,28.5C 365.5,37.1603 365.666,45.8269 365.5,54.5C 364.833,54.5 364.167,54.5 363.5,54.5C 363.5,44.8333 363.5,35.1667 363.5,25.5 Z"/></g>
<g><path style="opacity:1" fill="#e4f2f1" d="M 200.5,28.5 C 200.833,28.5 201.167,28.5 201.5,28.5C 202.14,37.2658 202.807,45.9324 203.5,54.5C 206.396,55.7752 209.396,55.7752 212.5,54.5C 212.833,54.5 213.167,54.5 213.5,54.5C 213.5,55.5 213.5,56.5 213.5,57.5C 209.003,58.0555 204.836,57.3888 201,55.5C 200.5,46.5062 200.334,37.5062 200.5,28.5 Z"/></g>
<g><path style="opacity:1" fill="#9bd2ce" d="M 201.5,27.5 C 202.167,27.8333 202.833,28.1667 203.5,28.5C 203.5,37.1667 203.5,45.8333 203.5,54.5C 202.807,45.9324 202.14,37.2658 201.5,28.5C 201.5,28.1667 201.5,27.8333 201.5,27.5 Z"/></g>
<g><path style="opacity:1" fill="#d0e9e7" d="M 232.5,27.5 C 234.607,26.5318 236.941,26.1984 239.5,26.5C 239.833,27.5 240.5,28.1667 241.5,28.5C 241.5,29.8333 241.5,31.1667 241.5,32.5C 237.5,32.5 233.5,32.5 229.5,32.5C 229.232,30.901 229.566,29.5676 230.5,28.5C 230.5,29.5 230.5,30.5 230.5,31.5C 233.898,31.8204 237.232,31.487 240.5,30.5C 238.575,27.828 235.908,26.828 232.5,27.5 Z"/></g>
<g><path style="opacity:1" fill="#60b1aa" d="M 220.5,25.5 C 220.833,25.5 221.167,25.5 221.5,25.5C 219.724,34.1084 220.391,42.4418 223.5,50.5C 222.624,50.6309 221.957,50.2975 221.5,49.5C 220.246,46.8061 219.246,44.1394 218.5,41.5C 218.467,37.1311 218.8,32.7978 219.5,28.5C 219.557,27.391 219.89,26.391 220.5,25.5 Z"/></g>
<g><path style="opacity:1" fill="#81c4be" d="M 239.5,26.5 C 236.941,26.1984 234.607,26.5318 232.5,27.5C 231.833,27.8333 231.167,28.1667 230.5,28.5C 229.566,29.5676 229.232,30.901 229.5,32.5C 233.5,32.5 237.5,32.5 241.5,32.5C 241.5,31.1667 241.5,29.8333 241.5,28.5C 242.931,29.7804 243.598,31.4471 243.5,33.5C 238.5,33.5 233.5,33.5 228.5,33.5C 228.781,25.8895 232.447,23.5562 239.5,26.5 Z"/></g>
<g><path style="opacity:1" fill="#d4ebe9" d="M 257.5,24.5 C 260.259,27.2209 262.759,30.2209 265,33.5C 265.78,35.3869 265.613,37.0536 264.5,38.5C 262.164,33.8206 259.831,29.154 257.5,24.5 Z"/></g>
<g><path style="opacity:1" fill="#deefee" d="M 331.5,27.5 C 329.167,27.5 326.833,27.5 324.5,27.5C 324.832,36.8571 324.498,46.1904 323.5,55.5C 321.392,56.1018 319.225,56.4351 317,56.5C 314.705,56.4535 312.871,55.7868 311.5,54.5C 311.833,54.5 312.167,54.5 312.5,54.5C 315.5,55.8333 318.5,55.8333 321.5,54.5C 322.245,45.3101 322.912,35.9768 323.5,26.5C 326.385,26.1936 329.052,26.5269 331.5,27.5 Z"/></g>
<g><path style="opacity:1" fill="#5daea7" d="M 97.5,23.5 C 99.1667,24.1667 100.833,24.8333 102.5,25.5C 106.294,28.953 109.294,32.953 111.5,37.5C 112.72,39.2821 113.386,41.2821 113.5,43.5C 112.85,43.1961 112.183,42.8627 111.5,42.5C 109.462,37.8721 106.962,33.5387 104,29.5C 101.14,28.16 98.9732,26.16 97.5,23.5 Z"/></g>
<g><path style="opacity:1" fill="#6ab7b1" d="M 142.5,23.5 C 140.955,28.0985 139.622,32.7652 138.5,37.5C 138.728,41.4169 139.728,45.0835 141.5,48.5C 139.926,48.0629 138.759,47.0629 138,45.5C 137.501,40.5111 137.334,35.5111 137.5,30.5C 139.088,28.8867 140.088,26.8867 140.5,24.5C 141.167,24.1667 141.833,23.8333 142.5,23.5 Z"/></g>
<g><path style="opacity:1" fill="#c1e2e0" d="M 201.5,27.5 C 201.5,27.8333 201.5,28.1667 201.5,28.5C 201.167,28.5 200.833,28.5 200.5,28.5C 196.927,26.8005 193.761,27.4672 191,30.5C 190.829,38.6772 190.329,46.6772 189.5,54.5C 189.197,45.7489 189.53,37.0823 190.5,28.5C 194.05,26.3268 197.717,25.9935 201.5,27.5 Z"/></g>
<g><path style="opacity:1" fill="#acd9d6" d="M 219.5,28.5 C 218.8,32.7978 218.467,37.1311 218.5,41.5C 217.839,39.866 217.506,38.0326 217.5,36C 217.3,33.1345 217.967,30.6345 219.5,28.5 Z"/></g>
<g><path style="opacity:1" fill="#cee7e6" d="M 331.5,27.5 C 332.167,27.8333 332.833,28.1667 333.5,28.5C 333.5,29.8333 333.5,31.1667 333.5,32.5C 333.5,39.8333 333.5,47.1667 333.5,54.5C 332.781,45.63 332.114,36.63 331.5,27.5 Z"/></g>
<g><path style="opacity:1" fill="#cae6e4" d="M 353.5,26.5 C 353.5,27.1667 353.5,27.8333 353.5,28.5C 350.418,26.9312 347.585,27.2645 345,29.5C 344.829,38.0101 344.329,46.3434 343.5,54.5C 343.334,45.8269 343.5,37.1603 344,28.5C 346.826,26.6602 349.993,25.9935 353.5,26.5 Z"/></g>
<g><path style="opacity:1" fill="#8ac9c4" d="M 333.5,32.5 C 334.492,39.6476 334.825,46.9809 334.5,54.5C 337.167,54.5 339.833,54.5 342.5,54.5C 339.5,55.8333 336.5,55.8333 333.5,54.5C 333.5,47.1667 333.5,39.8333 333.5,32.5 Z"/></g>
<g><path style="opacity:1" fill="#7cc1bb" d="M 77.5,35.5 C 73.8183,35.3347 70.1516,35.5014 66.5,36C 64.0904,36.5995 62.0904,37.7662 60.5,39.5C 58.8333,40.8333 57.1667,42.1667 55.5,43.5C 57.1353,40.0311 59.6353,37.3645 63,35.5C 67.9883,34.2798 72.8216,34.2798 77.5,35.5 Z"/></g>
<g><path style="opacity:1" fill="#badfdc" d="M 148.5,30.5 C 148.283,35.2303 148.617,39.8969 149.5,44.5C 148.195,42.6028 147.529,40.2695 147.5,37.5C 147.503,34.9746 147.837,32.6413 148.5,30.5 Z"/></g>
<g><path style="opacity:1" fill="#c2e2e1" d="M 281.5,32.5 C 280.631,34.717 280.298,37.0504 280.5,39.5C 279.305,39.1344 278.639,38.301 278.5,37C 278.698,34.8155 279.698,33.3155 281.5,32.5 Z"/></g>
<g><path style="opacity:1" fill="#fbfcfc" d="M 89.5,45.5 C 90.2653,48.0961 90.5987,50.7628 90.5,53.5C 77.8289,53.6666 65.1623,53.4999 52.5,53C 54.063,50.0261 55.063,46.8594 55.5,43.5C 57.1667,42.1667 58.8333,40.8333 60.5,39.5C 68.4781,36.6745 76.4781,36.8412 84.5,40C 85.8334,42.1906 87.5,44.024 89.5,45.5 Z"/></g>
<g><path style="opacity:1" fill="#cde7e6" d="M 77.5,35.5 C 79.8958,37.0233 82.5625,38.0233 85.5,38.5C 87.0981,40.6979 88.4314,43.0313 89.5,45.5C 87.5,44.024 85.8334,42.1906 84.5,40C 76.4781,36.8412 68.4781,36.6745 60.5,39.5C 62.0904,37.7662 64.0904,36.5995 66.5,36C 70.1516,35.5014 73.8183,35.3347 77.5,35.5 Z"/></g>
<g><path style="opacity:1" fill="#c4e3e1" d="M 111.5,37.5 C 114.153,39.7494 115.486,42.7494 115.5,46.5C 114.094,46.0269 113.427,45.0269 113.5,43.5C 113.386,41.2821 112.72,39.2821 111.5,37.5 Z"/></g>
<g><path style="opacity:1" fill="#77bfb9" d="M 251.5,38.5 C 244.018,39.492 236.352,39.8254 228.5,39.5C 228.5,40.8333 228.5,42.1667 228.5,43.5C 227.549,42.0813 227.216,40.4147 227.5,38.5C 235.5,38.5 243.5,38.5 251.5,38.5 Z"/></g>
<g><path style="opacity:1" fill="#abd8d5" d="M 252.5,29.5 C 253.82,32.8987 253.82,36.3987 252.5,40C 244.841,40.4997 237.174,40.6664 229.5,40.5C 229.5,41.5 229.5,42.5 229.5,43.5C 229.167,43.5 228.833,43.5 228.5,43.5C 228.5,42.1667 228.5,40.8333 228.5,39.5C 236.352,39.8254 244.018,39.492 251.5,38.5C 252.477,35.7131 252.81,32.7131 252.5,29.5 Z"/></g>
<g><path style="opacity:1" fill="#e8f4f3" d="M 250.5,24.5 C 253.294,27.1182 254.627,30.4515 254.5,34.5C 253.88,38.8458 253.214,42.8458 252.5,46.5C 252.5,45.5 252.5,44.5 252.5,43.5C 248.818,43.3347 245.152,43.5014 241.5,44C 240.619,44.7083 239.953,45.5416 239.5,46.5C 239.5,46.8333 239.5,47.1667 239.5,47.5C 235.885,47.845 232.552,47.1783 229.5,45.5C 229.5,44.8333 229.5,44.1667 229.5,43.5C 229.5,42.5 229.5,41.5 229.5,40.5C 237.174,40.6664 244.841,40.4997 252.5,40C 253.82,36.3987 253.82,32.8987 252.5,29.5C 251.463,28.0697 250.796,26.403 250.5,24.5 Z"/></g>
<g><path style="opacity:1" fill="#aad8d5" d="M 252.5,46.5 C 252.5,47.1667 252.167,47.5 251.5,47.5C 251.5,46.5 251.5,45.5 251.5,44.5C 247.227,44.081 243.227,44.7476 239.5,46.5C 239.953,45.5416 240.619,44.7083 241.5,44C 245.152,43.5014 248.818,43.3347 252.5,43.5C 252.5,44.5 252.5,45.5 252.5,46.5 Z"/></g>
<g><path style="opacity:1" fill="#a9d7d4" d="M 173.5,29.5 C 174.651,34.6503 174.817,39.9836 174,45.5C 173.292,46.3805 172.458,47.0472 171.5,47.5C 173.355,41.7482 174.022,35.7482 173.5,29.5 Z"/></g>
<g><path style="opacity:1" fill="#b1dbd8" d="M 149.5,44.5 C 152.37,45.6336 155.37,46.3003 158.5,46.5C 156.372,47.6291 154.039,47.7958 151.5,47C 150.244,46.5831 149.577,45.7498 149.5,44.5 Z"/></g>
<g><path style="opacity:1" fill="#badfdc" d="M 273.5,47.5 C 272.5,47.5 271.5,47.5 270.5,47.5C 270.727,49.9328 269.727,51.5994 267.5,52.5C 267.962,50.2433 268.962,48.2433 270.5,46.5C 272.225,44.9084 273.225,45.2417 273.5,47.5 Z"/></g>
<g><path style="opacity:1" fill="#85c6c1" d="M 281.5,42.5 C 284.086,43.4866 285.419,45.4866 285.5,48.5C 283.879,46.7359 282.546,44.7359 281.5,42.5 Z"/></g>
<g><path style="opacity:1" fill="#90ccc8" d="M 229.5,45.5 C 232.552,47.1783 235.885,47.845 239.5,47.5C 237.034,48.6341 234.367,48.8007 231.5,48C 230.619,47.2917 229.953,46.4584 229.5,45.5 Z"/></g>
<g><path style="opacity:1" fill="#81c3be" d="M 31.5,39.5 C 31.408,44.3655 30.0747,48.6988 27.5,52.5C 28.0966,48.3811 29.0966,44.3811 30.5,40.5C 30.5,39.8333 30.8333,39.5 31.5,39.5 Z"/></g>
<g><path style="opacity:1" fill="#d7ebeb" d="M 30.5,40.5 C 29.0966,44.3811 28.0966,48.3811 27.5,52.5C 27.5,53.1667 27.5,53.8333 27.5,54.5C 24.1667,54.5 20.8333,54.5 17.5,54.5C 20.2869,53.5233 23.2869,53.19 26.5,53.5C 25.66,48.2437 26.9933,43.9104 30.5,40.5 Z"/></g>
<g><path style="opacity:1" fill="#cae5e4" d="M 55.5,43.5 C 55.063,46.8594 54.063,50.0261 52.5,53C 65.1623,53.4999 77.8289,53.6666 90.5,53.5C 90.5987,50.7628 90.2653,48.0961 89.5,45.5C 90.1174,45.6107 90.6174,45.944 91,46.5C 91.4974,49.146 91.6641,51.8127 91.5,54.5C 78.1667,54.5 64.8333,54.5 51.5,54.5C 52.0233,51.1102 52.8566,47.7769 54,44.5C 54.3826,43.944 54.8826,43.6107 55.5,43.5 Z"/></g>
<g><path style="opacity:1" fill="#a3d4d1" d="M 169.5,50.5 C 168.366,53.0338 166.366,54.3671 163.5,54.5C 165.264,52.8795 167.264,51.5462 169.5,50.5 Z"/></g>
<g><path style="opacity:1" fill="#c5e4e2" d="M 273.5,47.5 C 275.669,49.3403 277.002,51.6737 277.5,54.5C 281.649,55.0803 285.316,54.4136 288.5,52.5C 289.434,53.5676 289.768,54.901 289.5,56.5C 285.434,56.693 281.434,56.3597 277.5,55.5C 274.871,53.6192 273.537,50.9526 273.5,47.5 Z"/></g>
<g><path style="opacity:1" fill="#89c8c3" d="M 115.5,49.5 C 116.234,50.8775 116.901,52.3775 117.5,54C 120.675,53.9467 123.342,54.78 125.5,56.5C 122.272,55.5863 118.939,55.2529 115.5,55.5C 115.5,53.5 115.5,51.5 115.5,49.5 Z"/></g>
<g><path style="opacity:1" fill="#bee0de" d="M 247.5,52.5 C 246.313,54.9754 244.313,55.9754 241.5,55.5C 243.181,53.9925 245.181,52.9925 247.5,52.5 Z"/></g>
<g><path style="opacity:1" fill="#addad7" d="M 257.5,48.5 C 257.617,50.4835 256.95,52.1502 255.5,53.5C 259.76,55.006 263.76,54.6726 267.5,52.5C 267.5,53.5 267.5,54.5 267.5,55.5C 263.167,55.5 258.833,55.5 254.5,55.5C 254.182,52.5185 255.182,50.1852 257.5,48.5 Z"/></g>
<g><path style="opacity:1" fill="#e5f2f2" d="M 294.5,18.5 C 294.172,30.6783 294.505,42.6783 295.5,54.5C 298.396,55.7752 301.396,55.7752 304.5,54.5C 304.833,54.5 305.167,54.5 305.5,54.5C 304.393,56.9311 302.393,57.9311 299.5,57.5C 297.192,57.6353 295.192,56.9686 293.5,55.5C 290.778,57.0626 287.778,57.7292 284.5,57.5C 281.731,57.4714 279.397,56.8048 277.5,55.5C 281.434,56.3597 285.434,56.693 289.5,56.5C 289.768,54.901 289.434,53.5676 288.5,52.5C 288.5,52.1667 288.5,51.8333 288.5,51.5C 289.859,52.0065 290.859,53.0065 291.5,54.5C 291.845,42.1386 292.845,30.1386 294.5,18.5 Z"/></g>
<g><path style="opacity:1" fill="#b2dbd8" d="M 225.5,53.5 C 230.676,55.1836 236.009,55.8503 241.5,55.5C 237.689,56.6453 233.689,56.8119 229.5,56C 227.68,55.7996 226.347,54.9663 225.5,53.5 Z"/></g>
<g><path style="opacity:1" fill="#5aaca5" d="M 85.5,38.5 C 87.8531,40.1013 90.0198,42.1013 92,44.5C 92.4069,47.682 92.9069,50.8486 93.5,54C 93.4148,55.1074 93.0814,56.1074 92.5,57C 78.8374,57.4999 65.1707,57.6666 51.5,57.5C 51.5,56.5 51.5,55.5 51.5,54.5C 64.8333,54.5 78.1667,54.5 91.5,54.5C 91.6641,51.8127 91.4974,49.146 91,46.5C 90.6174,45.944 90.1174,45.6107 89.5,45.5C 88.4314,43.0313 87.0981,40.6979 85.5,38.5 Z"/></g>
<g><path style="opacity:1" fill="#e0f0ef" d="M 353.5,28.5 C 354.33,36.9903 354.83,45.657 355,54.5C 357.937,55.8166 360.77,55.8166 363.5,54.5C 364.167,54.5 364.833,54.5 365.5,54.5C 365.5,55.5 365.5,56.5 365.5,57.5C 361.5,57.5 357.5,57.5 353.5,57.5C 353.5,47.8333 353.5,38.1667 353.5,28.5 Z"/></g>
<g><path style="opacity:1" fill="#8bc9c4" d="M 17.5,54.5 C 20.8333,54.5 24.1667,54.5 27.5,54.5C 25.0521,55.4731 22.3854,55.8064 19.5,55.5C 19.5,59.8333 19.5,64.1667 19.5,68.5C 17.5636,64.2853 16.8969,59.6186 17.5,54.5 Z"/></g>
<g><path style="opacity:1" fill="#9cd2ce" d="M 19.5,68.5 C 22.6981,67.9644 25.3647,68.631 27.5,70.5C 24.7196,69.9216 22.0529,69.2549 19.5,68.5 Z"/></g>
<g><path style="opacity:1" fill="#99d1cd" d="M 91.5,72.5 C 91.5,71.5 91.5,70.5 91.5,69.5C 78.5,69.5 65.5,69.5 52.5,69.5C 52.5172,71.5648 52.8505,73.5648 53.5,75.5C 52.8333,75.1667 52.1667,74.8333 51.5,74.5C 51.5,72.5 51.5,70.5 51.5,68.5C 65.1667,68.5 78.8333,68.5 92.5,68.5C 92.7678,70.099 92.4345,71.4324 91.5,72.5 Z"/></g>
<g><path style="opacity:1" fill="#99d0cc" d="M 125.5,68.5 C 122.713,69.4767 119.713,69.81 116.5,69.5C 116.737,70.791 116.404,71.791 115.5,72.5C 115.5,71.1667 115.5,69.8333 115.5,68.5C 118.833,68.5 122.167,68.5 125.5,68.5 Z"/></g>
<g><path style="opacity:1" fill="#9ad0cc" d="M 289.5,68.5 C 291.167,68.5 292.833,68.5 294.5,68.5C 294.795,70.7354 294.461,72.7354 293.5,74.5C 293.5,72.8333 293.5,71.1667 293.5,69.5C 291.516,69.3832 289.85,70.0499 288.5,71.5C 286.591,70.6518 284.591,70.3184 282.5,70.5C 283.919,69.5489 285.585,69.2155 287.5,69.5C 288.492,69.6716 289.158,69.3382 289.5,68.5 Z"/></g>
<g><path style="opacity:1" fill="#9bd0cc" d="M 313.5,70.5 C 310.221,69.5078 306.888,69.3412 303.5,70C 301.119,70.2233 299.453,71.39 298.5,73.5C 297.833,74.5 297.167,75.5 296.5,76.5C 296.253,74.1417 296.919,72.1417 298.5,70.5C 302.943,68.5344 307.61,68.0344 312.5,69C 313.056,69.3826 313.389,69.8826 313.5,70.5 Z"/></g>
<g><path style="opacity:1" fill="#e1f0ef" d="M 91.5,72.5 C 91.5,73.1667 91.5,73.8333 91.5,74.5C 91.1667,74.5 90.8333,74.5 90.5,74.5C 90.5,73.5 90.5,72.5 90.5,71.5C 78.5,71.5 66.5,71.5 54.5,71.5C 54.5578,74.6644 55.2245,77.6644 56.5,80.5C 54.7215,79.3303 53.7215,77.6636 53.5,75.5C 52.8505,73.5648 52.5172,71.5648 52.5,69.5C 65.5,69.5 78.5,69.5 91.5,69.5C 91.5,70.5 91.5,71.5 91.5,72.5 Z"/></g>
<g><path style="opacity:1" fill="#f8f9f9" d="M 90.5,74.5 C 89.6993,76.0418 89.366,77.7085 89.5,79.5C 88.0937,79.9731 87.427,80.9731 87.5,82.5C 84.752,84.5725 81.752,86.2391 78.5,87.5C 69.9271,88.5264 62.5938,86.1931 56.5,80.5C 55.2245,77.6644 54.5578,74.6644 54.5,71.5C 66.5,71.5 78.5,71.5 90.5,71.5C 90.5,72.5 90.5,73.5 90.5,74.5 Z"/></g>
<g><path style="opacity:1" fill="#6cb8b2" d="M 277.5,94.5 C 276.833,94.8333 276.167,95.1667 275.5,95.5C 276.44,87.2212 276.773,78.8878 276.5,70.5C 273.879,70.4772 272.545,71.8105 272.5,74.5C 272.94,79.5077 273.273,84.5077 273.5,89.5C 273.36,91.0296 272.693,92.0296 271.5,92.5C 271.715,90.8212 271.048,89.8212 269.5,89.5C 269.953,88.5416 270.619,87.7083 271.5,87C 269.292,86.8091 267.292,86.3091 265.5,85.5C 267.292,85.634 268.958,85.3007 270.5,84.5C 271.479,81.3752 271.813,78.0419 271.5,74.5C 269.5,74.5 267.5,74.5 265.5,74.5C 265.574,72.5891 266.574,71.4224 268.5,71C 266.527,70.5045 264.527,70.3379 262.5,70.5C 263.152,69.2749 264.319,68.6083 266,68.5C 269.804,69.2048 273.637,69.5381 277.5,69.5C 277.5,77.8333 277.5,86.1667 277.5,94.5 Z"/></g>
<g><path style="opacity:1" fill="#87c7c2" d="M 282.5,70.5 C 282.5,76.8333 282.5,83.1667 282.5,89.5C 284.167,89.5 285.833,89.5 287.5,89.5C 285.5,90.8333 283.5,90.8333 281.5,89.5C 281.177,82.9779 281.51,76.6446 282.5,70.5 Z"/></g>
<g><path style="opacity:1" fill="#98cfcb" d="M 331.5,84.5 C 329.923,87.0168 328.09,87.0168 326,84.5C 325.501,79.8452 325.334,75.1785 325.5,70.5C 324.167,70.5 322.833,70.5 321.5,70.5C 321.5,76.1667 321.5,81.8333 321.5,87.5C 321.167,87.5 320.833,87.5 320.5,87.5C 319.593,81.8936 319.26,76.227 319.5,70.5C 321.419,68.4776 323.586,68.1443 326,69.5C 326.333,74.1667 326.667,78.8333 327,83.5C 328.356,84.3802 329.856,84.7135 331.5,84.5 Z"/></g>
<g><path style="opacity:1" fill="#4da49d" d="M 331.5,84.5 C 332.167,84.5 332.5,84.1667 332.5,83.5C 333.167,79.1667 333.833,74.8333 334.5,70.5C 335.833,70.5 337.167,70.5 338.5,70.5C 338.5,76.8333 338.5,83.1667 338.5,89.5C 336.409,89.6816 334.409,89.3482 332.5,88.5C 331.261,88.9424 330.261,89.6091 329.5,90.5C 326.058,91.1717 323.391,90.1717 321.5,87.5C 321.5,81.8333 321.5,76.1667 321.5,70.5C 322.833,70.5 324.167,70.5 325.5,70.5C 325.334,75.1785 325.501,79.8452 326,84.5C 328.09,87.0168 329.923,87.0168 331.5,84.5 Z"/></g>
<g><path style="opacity:1" fill="#8bc9c4" d="M 334.5,70.5 C 335.919,69.5489 337.585,69.2155 339.5,69.5C 339.5,76.1667 339.5,82.8333 339.5,89.5C 336.375,90.4794 333.042,90.8128 329.5,90.5C 330.261,89.6091 331.261,88.9424 332.5,88.5C 334.409,89.3482 336.409,89.6816 338.5,89.5C 338.5,83.1667 338.5,76.8333 338.5,70.5C 337.167,70.5 335.833,70.5 334.5,70.5 Z"/></g>
<g><path style="opacity:1" fill="#66b5ae" d="M 360.5,70.5 C 360.5,71.1667 360.5,71.8333 360.5,72.5C 359.033,71.7084 357.7,71.7084 356.5,72.5C 358.18,74.7005 359.18,77.2005 359.5,80C 359.316,81.3756 358.649,82.2089 357.5,82.5C 357.663,80.1432 357.497,77.8098 357,75.5C 356.617,74.944 356.117,74.6107 355.5,74.5C 354.432,73.5655 353.099,73.2322 351.5,73.5C 351.631,72.6236 351.298,71.9569 350.5,71.5C 348.584,72.2483 346.584,72.2483 344.5,71.5C 344.5,79.8333 344.5,88.1667 344.5,96.5C 345.833,96.5 347.167,96.5 348.5,96.5C 348.5,93.8333 348.5,91.1667 348.5,88.5C 349.791,88.2627 350.791,88.596 351.5,89.5C 349.631,91.6353 348.964,94.3019 349.5,97.5C 347.5,98.8333 345.5,98.8333 343.5,97.5C 343.334,88.4938 343.5,79.4938 344,70.5C 345.756,69.4519 347.59,69.4519 349.5,70.5C 353.225,67.962 356.892,67.962 360.5,70.5 Z"/></g>
<g><path style="opacity:1" fill="#cee7e6" d="M 339.5,89.5 C 339.5,82.8333 339.5,76.1667 339.5,69.5C 337.585,69.2155 335.919,69.5489 334.5,70.5C 333.833,74.8333 333.167,79.1667 332.5,83.5C 332.334,78.4889 332.501,73.4889 333,68.5C 335.064,67.4086 337.231,67.2419 339.5,68C 340.827,75.2652 340.827,82.4319 339.5,89.5 Z"/></g>
<g><path style="opacity:1" fill="#51a69f" d="M 260.5,70.5 C 261.167,70.5 261.833,70.5 262.5,70.5C 264.527,70.3379 266.527,70.5045 268.5,71C 266.574,71.4224 265.574,72.5891 265.5,74.5C 264.883,74.6107 264.383,74.944 264,75.5C 263.199,78.367 263.366,81.0336 264.5,83.5C 264.833,84.1667 265.167,84.8333 265.5,85.5C 267.292,86.3091 269.292,86.8091 271.5,87C 270.619,87.7083 269.953,88.5416 269.5,89.5C 266.373,90.9601 263.373,90.6268 260.5,88.5C 259.833,88.5 259.5,88.1667 259.5,87.5C 256.667,81.662 257,75.9954 260.5,70.5 Z"/></g>
<g><path style="opacity:1" fill="#96cecb" d="M 27.5,70.5 C 28.7682,72.9052 29.4349,75.5718 29.5,78.5C 27.9605,76.1617 27.2938,73.4951 27.5,70.5 Z"/></g>
<g><path style="opacity:1" fill="#f2f7f6" d="M 270.5,84.5 C 268.958,85.3007 267.292,85.634 265.5,85.5C 265.167,84.8333 264.833,84.1667 264.5,83.5C 264.337,81.1432 264.503,78.8098 265,76.5C 266.699,75.5939 268.533,75.2606 270.5,75.5C 270.5,78.5 270.5,81.5 270.5,84.5 Z"/></g>
<g><path style="opacity:1" fill="#c9e5e3" d="M 260.5,70.5 C 257,75.9954 256.667,81.662 259.5,87.5C 256.988,85.763 255.988,83.263 256.5,80C 255.907,75.8354 257.24,72.6687 260.5,70.5 Z"/></g>
<g><path style="opacity:1" fill="#6ab6b0" d="M 298.5,73.5 C 298.283,78.2303 298.617,82.8969 299.5,87.5C 295.655,84.5509 294.655,80.8842 296.5,76.5C 297.167,75.5 297.833,74.5 298.5,73.5 Z"/></g>
<g><path style="opacity:1" fill="#c0e0de" d="M 360.5,70.5 C 361.794,71.2899 362.961,72.2899 364,73.5C 364.667,77.8333 364.667,82.1667 364,86.5C 362.516,88.9337 360.349,90.267 357.5,90.5C 362.865,86.553 364.699,81.2196 363,74.5C 362.292,73.6195 361.458,72.9528 360.5,72.5C 360.5,71.8333 360.5,71.1667 360.5,70.5 Z"/></g>
<g><path style="opacity:1" fill="#95cec9" d="M 313.5,70.5 C 315.5,70.5 316.5,71.5 316.5,73.5C 317.589,77.0779 317.755,80.7446 317,84.5C 316.617,85.056 316.117,85.3893 315.5,85.5C 317.204,80.1262 316.537,75.1262 313.5,70.5 Z"/></g>
<g><path style="opacity:1" fill="#7abfba" d="M 90.5,74.5 C 90.8333,74.5 91.1667,74.5 91.5,74.5C 91.8799,76.698 91.2132,78.3646 89.5,79.5C 89.366,77.7085 89.6993,76.0418 90.5,74.5 Z"/></g>
<g><path style="opacity:1" fill="#53a8a1" d="M 293.5,74.5 C 291.278,74.178 289.444,74.8446 288,76.5C 287.501,80.8206 287.334,85.1539 287.5,89.5C 285.833,89.5 284.167,89.5 282.5,89.5C 282.5,83.1667 282.5,76.8333 282.5,70.5C 284.591,70.3184 286.591,70.6518 288.5,71.5C 289.85,70.0499 291.516,69.3832 293.5,69.5C 293.5,71.1667 293.5,72.8333 293.5,74.5 Z"/></g>
<g><path style="opacity:1" fill="#c8e4e3" d="M 360.5,70.5 C 356.892,67.962 353.225,67.962 349.5,70.5C 347.59,69.4519 345.756,69.4519 344,70.5C 343.5,79.4938 343.334,88.4938 343.5,97.5C 342.342,88.0089 342.175,78.3422 343,68.5C 348.446,67.1941 353.946,67.1941 359.5,68.5C 359.863,69.1835 360.196,69.8501 360.5,70.5 Z"/></g>
<g><path style="opacity:1" fill="#60b0a9" d="M 51.5,74.5 C 52.1667,74.8333 52.8333,75.1667 53.5,75.5C 53.7215,77.6636 54.7215,79.3303 56.5,80.5C 57.5535,83.6821 59.5535,86.0154 62.5,87.5C 58.6688,86.7508 55.6688,84.7508 53.5,81.5C 52.5793,79.2235 51.9126,76.8901 51.5,74.5 Z"/></g>
<g><path style="opacity:1" fill="#cbe6e4" d="M 265.5,74.5 C 267.5,74.5 269.5,74.5 271.5,74.5C 271.813,78.0419 271.479,81.3752 270.5,84.5C 270.5,81.5 270.5,78.5 270.5,75.5C 268.533,75.2606 266.699,75.5939 265,76.5C 264.503,78.8098 264.337,81.1432 264.5,83.5C 263.366,81.0336 263.199,78.367 264,75.5C 264.383,74.944 264.883,74.6107 265.5,74.5 Z"/></g>
<g><path style="opacity:1" fill="#cfe7e6" d="M 287.5,69.5 C 285.585,69.2155 283.919,69.5489 282.5,70.5C 281.51,76.6446 281.177,82.9779 281.5,89.5C 280.509,82.6866 280.175,75.6866 280.5,68.5C 283.059,68.1984 285.393,68.5318 287.5,69.5 Z"/></g>
<g><path style="opacity:1" fill="#daeceb" d="M 289.5,68.5 C 291.607,67.5318 293.941,67.1984 296.5,67.5C 296.285,69.1788 296.952,70.1788 298.5,70.5C 296.919,72.1417 296.253,74.1417 296.5,76.5C 294.655,80.8842 295.655,84.5509 299.5,87.5C 299.833,88.1667 300.167,88.8333 300.5,89.5C 299.167,89.5 297.833,89.5 296.5,89.5C 294.893,85.059 294.226,80.3923 294.5,75.5C 292.278,75.178 290.444,75.8446 289,77.5C 288.824,81.6877 288.324,85.6877 287.5,89.5C 287.334,85.1539 287.501,80.8206 288,76.5C 289.444,74.8446 291.278,74.178 293.5,74.5C 294.461,72.7354 294.795,70.7354 294.5,68.5C 292.833,68.5 291.167,68.5 289.5,68.5 Z"/></g>
<g><path style="opacity:1" fill="#cae5e4" d="M 277.5,94.5 C 277.5,86.1667 277.5,77.8333 277.5,69.5C 273.637,69.5381 269.804,69.2048 266,68.5C 264.319,68.6083 263.152,69.2749 262.5,70.5C 261.833,70.5 261.167,70.5 260.5,70.5C 260.804,69.8501 261.137,69.1835 261.5,68.5C 267.054,67.1941 272.554,67.1941 278,68.5C 278.824,77.3433 278.657,86.0099 277.5,94.5 Z"/></g>
<g><path style="opacity:1" fill="#deeeed" d="M 319.5,70.5 C 319.26,76.227 319.593,81.8936 320.5,87.5C 319.417,87.4606 318.417,87.1272 317.5,86.5C 316.735,87.6119 315.735,88.2786 314.5,88.5C 314.833,87.8333 315.167,87.1667 315.5,86.5C 315.5,86.1667 315.5,85.8333 315.5,85.5C 316.117,85.3893 316.617,85.056 317,84.5C 317.755,80.7446 317.589,77.0779 316.5,73.5C 317.9,72.9002 318.9,71.9002 319.5,70.5 Z"/></g>
<g><path style="opacity:1" fill="#83c4bf" d="M 115.5,75.5 C 115.657,76.8734 115.49,78.2068 115,79.5C 112.689,82.9374 110.855,86.6041 109.5,90.5C 109.167,90.5 108.833,90.5 108.5,90.5C 110.498,85.2217 112.832,80.2217 115.5,75.5 Z"/></g>
<g><path style="opacity:1" fill="#4fa59e" d="M 313.5,70.5 C 316.537,75.1262 317.204,80.1262 315.5,85.5C 315.5,85.8333 315.5,86.1667 315.5,86.5C 313.264,87.5462 311.264,88.8795 309.5,90.5C 306.391,90.7359 303.391,90.4025 300.5,89.5C 300.167,88.8333 299.833,88.1667 299.5,87.5C 298.617,82.8969 298.283,78.2303 298.5,73.5C 299.453,71.39 301.119,70.2233 303.5,70C 306.888,69.3412 310.221,69.5078 313.5,70.5 Z"/></g>
<g><path style="opacity:1" fill="#a6d6d2" d="M 309.5,75.5 C 307.833,75.5 306.167,75.5 304.5,75.5C 303.883,75.6107 303.383,75.944 303,76.5C 302.505,78.4727 302.338,80.4727 302.5,82.5C 301.371,80.3718 301.204,78.0385 302,75.5C 304.792,73.0649 307.292,73.0649 309.5,75.5 Z"/></g>
<g><path style="opacity:1" fill="#f8f9f9" d="M 304.5,75.5 C 306.167,75.5 307.833,75.5 309.5,75.5C 310.167,75.5 310.5,75.8333 310.5,76.5C 310.5,78.5 310.5,80.5 310.5,82.5C 308.738,82.3573 307.071,82.6906 305.5,83.5C 304.52,80.9135 304.187,78.2469 304.5,75.5 Z"/></g>
<g><path style="opacity:1" fill="#dbedec" d="M 304.5,75.5 C 304.187,78.2469 304.52,80.9135 305.5,83.5C 307.071,82.6906 308.738,82.3573 310.5,82.5C 310.5,80.5 310.5,78.5 310.5,76.5C 312.304,80.5889 311.137,83.5889 307,85.5C 305.019,85.1015 303.519,84.1015 302.5,82.5C 302.338,80.4727 302.505,78.4727 303,76.5C 303.383,75.944 303.883,75.6107 304.5,75.5 Z"/></g>
<g><path style="opacity:1" fill="#4ca39b" d="M 351.5,73.5 C 350.542,73.9528 349.708,74.6195 349,75.5C 348.204,78.0385 348.371,80.3718 349.5,82.5C 352.077,86.4673 354.744,86.4673 357.5,82.5C 358.649,82.2089 359.316,81.3756 359.5,80C 359.18,77.2005 358.18,74.7005 356.5,72.5C 357.7,71.7084 359.033,71.7084 360.5,72.5C 361.458,72.9528 362.292,73.6195 363,74.5C 364.699,81.2196 362.865,86.553 357.5,90.5C 355.265,90.7947 353.265,90.4614 351.5,89.5C 350.791,88.596 349.791,88.2627 348.5,88.5C 348.5,91.1667 348.5,93.8333 348.5,96.5C 347.167,96.5 345.833,96.5 344.5,96.5C 344.5,88.1667 344.5,79.8333 344.5,71.5C 346.584,72.2483 348.584,72.2483 350.5,71.5C 351.298,71.9569 351.631,72.6236 351.5,73.5 Z"/></g>
<g><path style="opacity:1" fill="#e9f3f2" d="M 355.5,74.5 C 356.117,74.6107 356.617,74.944 357,75.5C 357.497,77.8098 357.663,80.1432 357.5,82.5C 354.744,86.4673 352.077,86.4673 349.5,82.5C 348.185,77.164 350.185,74.4974 355.5,74.5 Z"/></g>
<g><path style="opacity:1" fill="#92ccc8" d="M 351.5,73.5 C 353.099,73.2322 354.432,73.5655 355.5,74.5C 350.185,74.4974 348.185,77.164 349.5,82.5C 348.371,80.3718 348.204,78.0385 349,75.5C 349.708,74.6195 350.542,73.9528 351.5,73.5 Z"/></g>
<g><path style="opacity:1" fill="#badedc" d="M 56.5,80.5 C 62.5938,86.1931 69.9271,88.5264 78.5,87.5C 73.2663,88.8021 67.9329,88.8021 62.5,87.5C 59.5535,86.0154 57.5535,83.6821 56.5,80.5 Z"/></g>
<g><path style="opacity:1" fill="#5fb0aa" d="M 87.5,82.5 C 85.7059,84.7966 83.7059,86.9633 81.5,89C 78.3333,89.1667 75.1667,89.3333 72,89.5C 68.4242,89.4848 65.2575,88.8182 62.5,87.5C 67.9329,88.8021 73.2663,88.8021 78.5,87.5C 81.752,86.2391 84.752,84.5725 87.5,82.5 Z"/></g>
<g><path style="opacity:1" fill="#9cd1cd" d="M 315.5,86.5 C 315.167,87.1667 314.833,87.8333 314.5,88.5C 313.07,89.5375 311.403,90.2041 309.5,90.5C 311.264,88.8795 313.264,87.5462 315.5,86.5 Z"/></g>
<g><path style="opacity:1" fill="#d2e9e7" d="M 260.5,88.5 C 263.373,90.6268 266.373,90.9601 269.5,89.5C 271.048,89.8212 271.715,90.8212 271.5,92.5C 269.417,94.6044 267.083,94.9377 264.5,93.5C 262.735,92.5386 260.735,92.2053 258.5,92.5C 258.392,94.5138 259.058,96.1805 260.5,97.5C 259.504,97.5858 258.671,97.2524 258,96.5C 257.506,94.8659 257.34,93.1992 257.5,91.5C 258.873,91.6567 260.207,91.49 261.5,91C 260.748,90.3292 260.414,89.4959 260.5,88.5 Z"/></g>
<g><path style="opacity:1" fill="#c9e4e3" d="M 351.5,89.5 C 353.265,90.4614 355.265,90.7947 357.5,90.5C 355.393,91.4682 353.059,91.8016 350.5,91.5C 350.795,93.7354 350.461,95.7354 349.5,97.5C 348.964,94.3019 349.631,91.6353 351.5,89.5 Z"/></g>
<g><path style="opacity:1" fill="#77beb8" d="M 264.5,93.5 C 260.473,93.2808 259.806,94.4475 262.5,97C 266.554,97.6936 270.554,97.5269 274.5,96.5C 274.389,97.1174 274.056,97.6174 273.5,98C 269.514,98.4988 265.514,98.6655 261.5,98.5C 261.5,97.8333 261.167,97.5 260.5,97.5C 259.058,96.1805 258.392,94.5138 258.5,92.5C 260.735,92.2053 262.735,92.5386 264.5,93.5 Z"/></g>
<g><path style="opacity:1" fill="#c0e1df" d="M 108.5,90.5 C 108.833,90.5 109.167,90.5 109.5,90.5C 108.766,91.7079 108.433,93.0413 108.5,94.5C 107.5,94.5 106.5,94.5 105.5,94.5C 106.122,92.8784 107.122,91.5451 108.5,90.5 Z"/></g>
<g><path style="opacity:1" fill="#4aa199" d="M 275.5,95.5 C 275.5,96.1667 275.167,96.5 274.5,96.5C 270.554,97.5269 266.554,97.6936 262.5,97C 259.806,94.4475 260.473,93.2808 264.5,93.5C 267.083,94.9377 269.417,94.6044 271.5,92.5C 272.693,92.0296 273.36,91.0296 273.5,89.5C 273.273,84.5077 272.94,79.5077 272.5,74.5C 272.545,71.8105 273.879,70.4772 276.5,70.5C 276.773,78.8878 276.44,87.2212 275.5,95.5 Z"/></g>
<g><path style="opacity:1" fill="#f8f8f8" d="M 36.5,93.5 C 39.3233,95.823 41.99,98.323 44.5,101C 45.745,101.791 47.0783,102.291 48.5,102.5C 50.7117,105.358 53.7117,106.691 57.5,106.5C 58.1667,106.5 58.8333,106.5 59.5,106.5C 60.1834,108.176 61.5168,108.843 63.5,108.5C 72.4886,109.245 81.1553,108.245 89.5,105.5C 93.0774,105.855 96.0774,104.855 98.5,102.5C 127.901,101.765 157.235,101.765 186.5,102.5C 189.833,102.167 193.167,101.833 196.5,101.5C 194.5,100.833 192.5,100.167 190.5,99.5C 193.167,98.1667 195.833,98.1667 198.5,99.5C 197.359,100.425 197.359,101.259 198.5,102C 200.833,102.167 203.167,102.333 205.5,102.5C 233.086,101.869 260.752,101.869 288.5,102.5C 291.833,102.167 295.167,101.833 298.5,101.5C 296.5,100.833 294.5,100.167 292.5,99.5C 295.167,98.1667 297.833,98.1667 300.5,99.5C 299.359,100.425 299.359,101.259 300.5,102C 302.833,102.167 305.167,102.333 307.5,102.5C 336.749,102.107 366.083,102.107 395.5,102.5C 395.5,108.833 395.5,115.167 395.5,121.5C 263.5,121.5 131.5,121.5 -0.5,121.5C -0.5,115.167 -0.5,108.833 -0.5,102.5C 13.1657,102.429 26.8323,102.262 40.5,102C 41.3081,101.692 41.9747,101.192 42.5,100.5C 40.4244,99.9003 38.4244,99.567 36.5,99.5C 37.1667,98.8333 37.8333,98.1667 38.5,97.5C 37.3698,96.3777 36.7031,95.0443 36.5,93.5 Z"/></g>
<g><path style="opacity:1" fill="#d6ebe9" d="M 277.5,94.5 C 277.141,96.371 276.141,97.871 274.5,99C 269.98,99.8136 265.646,99.647 261.5,98.5C 265.514,98.6655 269.514,98.4988 273.5,98C 274.056,97.6174 274.389,97.1174 274.5,96.5C 275.167,96.5 275.5,96.1667 275.5,95.5C 276.167,95.1667 276.833,94.8333 277.5,94.5 Z"/></g>
<g><path style="opacity:1" fill="#d4e9e8" d="M 105.5,94.5 C 104.539,98.456 102.205,101.123 98.5,102.5C 96.0774,104.855 93.0774,105.855 89.5,105.5C 91.8046,104.677 93.8046,103.344 95.5,101.5C 99.1099,99.556 102.443,97.2226 105.5,94.5 Z"/></g>
<g><path style="opacity:1" fill="#a9d7d3" d="M 48.5,102.5 C 49.1667,102.5 49.8333,102.5 50.5,102.5C 52.7205,103.979 55.0538,105.312 57.5,106.5C 53.7117,106.691 50.7117,105.358 48.5,102.5 Z"/></g>
<g><path style="opacity:1" fill="#5dafa8" d="M 95.5,101.5 C 93.8046,103.344 91.8046,104.677 89.5,105.5C 81.1553,108.245 72.4886,109.245 63.5,108.5C 62.8166,106.824 61.4832,106.157 59.5,106.5C 58.8333,106.5 58.1667,106.5 57.5,106.5C 55.0538,105.312 52.7205,103.979 50.5,102.5C 62.2228,105.438 74.2228,106.272 86.5,105C 89.4285,103.662 92.4285,102.495 95.5,101.5 Z"/></g>
<g><path style="opacity:1" fill="#aad8d5" d="M 59.5,106.5 C 61.4832,106.157 62.8166,106.824 63.5,108.5C 61.5168,108.843 60.1834,108.176 59.5,106.5 Z"/></g>
</svg>
