<?xml version="1.0" encoding="UTF-8"?>
<!DOCTYPE svg PUBLIC "-//W3C//DTD SVG 1.1//EN" "http://www.w3.org/Graphics/SVG/1.1/DTD/svg11.dtd">
<svg xmlns="http://www.w3.org/2000/svg" version="1.1" width="226px" height="84px" style="shape-rendering:geometricPrecision; text-rendering:geometricPrecision; image-rendering:optimizeQuality; fill-rule:evenodd; clip-rule:evenodd" xmlns:xlink="http://www.w3.org/1999/xlink">
<g><path style="opacity:1" fill="#f0efe9" d="M -0.5,-0.5 C 8.5,-0.5 17.5,-0.5 26.5,-0.5C 26.2088,5.92302 26.5422,12.2564 27.5,18.5C 25.1576,21.7712 24.8243,25.4378 26.5,29.5C 26.5,36.1667 26.5,42.8333 26.5,49.5C 16.5717,49.0235 12.405,53.6902 14,63.5C 16.4412,68.9267 20.6079,70.9267 26.5,69.5C 25.3768,74.1116 25.3768,78.7782 26.5,83.5C 17.5,83.5 8.5,83.5 -0.5,83.5C -0.5,55.5 -0.5,27.5 -0.5,-0.5 Z"/></g>
<g><path style="opacity:1" fill="#f5f4ef" d="M 26.5,-0.5 C 92.8333,-0.5 159.167,-0.5 225.5,-0.5C 225.5,27.5 225.5,55.5 225.5,83.5C 159.167,83.5 92.8333,83.5 26.5,83.5C 25.3768,78.7782 25.3768,74.1116 26.5,69.5C 33.7378,65.439 35.2378,59.7724 31,52.5C 29.7292,51.1175 28.2292,50.1175 26.5,49.5C 26.5,42.8333 26.5,36.1667 26.5,29.5C 29.1667,29.5 31.8333,29.5 34.5,29.5C 34.8242,25.4454 34.4909,21.4454 33.5,17.5C 32.513,20.7683 32.1796,24.1016 32.5,27.5C 30.8333,27.5 29.1667,27.5 27.5,27.5C 27.5,24.5 27.5,21.5 27.5,18.5C 26.5422,12.2564 26.2088,5.92302 26.5,-0.5 Z"/></g>
<g><path style="opacity:1" fill="#959594" d="M 37.5,13.5 C 38.8117,15.7432 39.4783,18.4098 39.5,21.5C 39.1667,24.1667 38.8333,26.8333 38.5,29.5C 37.5052,24.2079 37.1718,18.8746 37.5,13.5 Z"/></g>
<g><path style="opacity:1" fill="#8a8a8a" d="M 128.5,13.5 C 128.919,17.4665 129.919,21.2999 131.5,25C 130.033,26.0975 129.199,27.5975 129,29.5C 128.51,28.2068 128.343,26.8734 128.5,25.5C 126.167,25.5 123.833,25.5 121.5,25.5C 122.964,21.026 125.297,17.026 128.5,13.5 Z"/></g>
<g><path style="opacity:1" fill="#8c8c8b" d="M 62.5,14.5 C 67.9933,13.178 70.4933,15.178 70,20.5C 67.7802,23.021 65.2802,25.1877 62.5,27C 65.2263,27.1816 67.8929,27.6816 70.5,28.5C 67.2317,29.487 63.8984,29.8204 60.5,29.5C 60.7939,25.6996 62.7939,23.1996 66.5,22C 69.4086,19.1606 69.0753,16.9939 65.5,15.5C 63.3368,15.9224 62.0034,17.2557 61.5,19.5C 60.3482,17.6029 60.6815,15.9362 62.5,14.5 Z"/></g>
<g><path style="opacity:1" fill="#898989" d="M 98.5,14.5 C 106.515,13.7996 109.348,17.4662 107,25.5C 104.805,29.8721 101.805,30.5388 98,27.5C 97.2938,23.1132 97.4604,18.7799 98.5,14.5 Z"/></g>
<g><path style="opacity:1" fill="#ecebe7" d="M 100.5,15.5 C 102.39,15.2965 103.89,15.9632 105,17.5C 105.667,20.1667 105.667,22.8333 105,25.5C 103.507,27.5598 101.674,27.8932 99.5,26.5C 98.0509,22.6505 98.3842,18.9839 100.5,15.5 Z"/></g>
<g><path style="opacity:1" fill="#919190" d="M 26.5,29.5 C 24.8243,25.4378 25.1576,21.7712 27.5,18.5C 27.5,21.5 27.5,24.5 27.5,27.5C 29.1667,27.5 30.8333,27.5 32.5,27.5C 32.1796,24.1016 32.513,20.7683 33.5,17.5C 34.4909,21.4454 34.8242,25.4454 34.5,29.5C 31.8333,29.5 29.1667,29.5 26.5,29.5 Z"/></g>
<g><path style="opacity:1" fill="#ecebe6" d="M 126.5,18.5 C 127.461,20.2646 127.795,22.2646 127.5,24.5C 126.022,24.762 124.689,24.4287 123.5,23.5C 124.26,21.6396 125.26,19.973 126.5,18.5 Z"/></g>
<g><path style="opacity:1" fill="#8d8d8c" d="M 86.5,14.5 C 92.8983,13.2521 95.2316,15.5854 93.5,21.5C 91.1667,23.3333 88.8333,25.1667 86.5,27C 89.2263,27.1816 91.8929,27.6816 94.5,28.5C 91.2317,29.487 87.8984,29.8204 84.5,29.5C 85.6556,25.4999 88.1556,22.4999 92,20.5C 91.4732,14.1761 89.3065,13.8427 85.5,19.5C 84.3482,17.6029 84.6815,15.9362 86.5,14.5 Z"/></g>
<g><path style="opacity:1" fill="#90908f" d="M 50.5,14.5 C 56.6739,13.1729 58.8406,15.5062 57,21.5C 54.5551,22.9771 52.3884,24.8104 50.5,27C 53.2263,27.1816 55.8929,27.6816 58.5,28.5C 54.8333,29.8333 51.1667,29.8333 47.5,28.5C 50.2574,24.9532 53.2574,21.6198 56.5,18.5C 53.6019,14.3498 51.2685,14.6831 49.5,19.5C 48.3482,17.6029 48.6815,15.9362 50.5,14.5 Z"/></g>
<g><path style="opacity:1" fill="#90908f" d="M 111.5,14.5 C 117.674,13.1729 119.841,15.5062 118,21.5C 115.555,22.9771 113.388,24.8104 111.5,27C 114.226,27.1816 116.893,27.6816 119.5,28.5C 115.833,29.8333 112.167,29.8333 108.5,28.5C 111.257,24.9532 114.257,21.6198 117.5,18.5C 114.602,14.3498 112.269,14.6831 110.5,19.5C 109.348,17.6029 109.681,15.9362 111.5,14.5 Z"/></g>
<g><path style="opacity:1" fill="#959493" d="M 19.5,13.5 C 20.5,13.5 21.5,13.5 22.5,13.5C 22.6658,18.1785 22.4992,22.8452 22,27.5C 19.8471,29.4439 17.3471,29.9439 14.5,29C 13.2528,27.5064 13.2528,26.0064 14.5,24.5C 15.3857,25.325 15.719,26.325 15.5,27.5C 16.8333,27.5 18.1667,27.5 19.5,27.5C 19.5,22.8333 19.5,18.1667 19.5,13.5 Z"/></g>
<g><path style="opacity:1" fill="#414141" d="M 76.5,47.5 C 77.8734,47.3433 79.2068,47.51 80.5,48C 79.3204,49.8961 77.8204,51.3961 76,52.5C 75.5,52.1667 75,51.8333 74.5,51.5C 75.6302,50.3777 76.2969,49.0443 76.5,47.5 Z"/></g>
<g><path style="opacity:1" fill="#3f3f3f" d="M 26.5,49.5 C 28.2292,50.1175 29.7292,51.1175 31,52.5C 35.2378,59.7724 33.7378,65.439 26.5,69.5C 20.6079,70.9267 16.4412,68.9267 14,63.5C 12.405,53.6902 16.5717,49.0235 26.5,49.5 Z"/></g>
<g><path style="opacity:1" fill="#9b9a97" d="M 56.5,49.5 C 57.1667,51.5 57.8333,53.5 58.5,55.5C 58.44,56.0431 58.1067,56.3764 57.5,56.5C 56.5258,54.2573 56.1924,51.924 56.5,49.5 Z"/></g>
<g><path style="opacity:1" fill="#373737" d="M 85.5,49.5 C 86.8333,49.5 88.1667,49.5 89.5,49.5C 89.5,56.1667 89.5,62.8333 89.5,69.5C 88.1667,69.5 86.8333,69.5 85.5,69.5C 85.5,62.8333 85.5,56.1667 85.5,49.5 Z"/></g>
<g><path style="opacity:1" fill="#333333" d="M 93.5,49.5 C 94.5,49.5 95.5,49.5 96.5,49.5C 96.5,50.5 96.5,51.5 96.5,52.5C 95.5,52.5 94.5,52.5 93.5,52.5C 93.5,51.5 93.5,50.5 93.5,49.5 Z"/></g>
<g><path style="opacity:1" fill="#3e3e3e" d="M 137.5,63.5 C 138.043,63.44 138.376,63.1067 138.5,62.5C 137.167,61.8333 135.833,61.1667 134.5,60.5C 136.743,59.5258 139.076,59.1924 141.5,59.5C 141.5,62.8333 141.5,66.1667 141.5,69.5C 140.265,69.2786 139.265,68.6119 138.5,67.5C 129.84,71.8555 124.84,69.1888 123.5,59.5C 124.854,50.6501 129.854,47.6501 138.5,50.5C 140.415,52.0712 141.415,54.0712 141.5,56.5C 138.503,55.8588 135.837,54.5255 133.5,52.5C 131.617,52.8757 130.117,53.8757 129,55.5C 127.773,59.5913 128.606,63.0913 131.5,66C 134.294,66.9724 136.294,66.1391 137.5,63.5 Z"/></g>
<g><path style="opacity:1" fill="#393939" d="M 145.5,49.5 C 146.833,49.5 148.167,49.5 149.5,49.5C 149.5,50.5 149.5,51.5 149.5,52.5C 148.167,52.5 146.833,52.5 145.5,52.5C 145.5,51.5 145.5,50.5 145.5,49.5 Z"/></g>
<g><path style="opacity:1" fill="#333333" d="M 197.5,49.5 C 198.5,49.5 199.5,49.5 200.5,49.5C 200.5,50.5 200.5,51.5 200.5,52.5C 199.5,52.5 198.5,52.5 197.5,52.5C 197.5,51.5 197.5,50.5 197.5,49.5 Z"/></g>
<g><path style="opacity:1" fill="#ebeae5" d="M 21.5,52.5 C 28.1094,53.2584 30.2761,56.9251 28,63.5C 25,67.5 22,67.5 19,63.5C 17.8118,59.2586 18.6451,55.5919 21.5,52.5 Z"/></g>
<g><path style="opacity:1" fill="#6e6d6b" d="M 39.5,55.5 C 38.5,55.5 37.5,55.5 36.5,55.5C 36.5,61.8333 36.5,68.1667 36.5,74.5C 35.5093,68.021 35.176,61.3543 35.5,54.5C 37.099,54.2322 38.4324,54.5655 39.5,55.5 Z"/></g>
<g><path style="opacity:1" fill="#3b3b3a" d="M 36.5,74.5 C 36.5,68.1667 36.5,61.8333 36.5,55.5C 37.5,55.5 38.5,55.5 39.5,55.5C 43.2876,53.6603 46.7876,54.6603 50,58.5C 51.9228,66.2289 49.0895,69.7289 41.5,69C 41,68.5 40.5,68 40,67.5C 39.5034,69.8098 39.3367,72.1432 39.5,74.5C 38.5,74.5 37.5,74.5 36.5,74.5 Z"/></g>
<g><path style="opacity:1" fill="#383838" d="M 56.5,49.5 C 56.1924,51.924 56.5258,54.2573 57.5,56.5C 58.1067,56.3764 58.44,56.0431 58.5,55.5C 61.0514,54.0515 63.3848,54.3848 65.5,56.5C 66.4386,60.7649 66.7719,65.0983 66.5,69.5C 65.1667,69.5 63.8333,69.5 62.5,69.5C 62.6653,65.8183 62.4986,62.1516 62,58.5C 60.0624,57.1398 58.3957,57.4732 57,59.5C 56.5017,62.8168 56.335,66.1501 56.5,69.5C 55.5,69.5 54.5,69.5 53.5,69.5C 53.5,62.8333 53.5,56.1667 53.5,49.5C 54.5,49.5 55.5,49.5 56.5,49.5 Z"/></g>
<g><path style="opacity:1" fill="#3d3d3d" d="M 82.5,59.5 C 82.5,60.5 82.5,61.5 82.5,62.5C 79.1667,62.5 75.8333,62.5 72.5,62.5C 72.2627,63.791 72.596,64.791 73.5,65.5C 76.3348,66.2006 79.3348,66.3673 82.5,66C 78.527,70.4231 74.3604,70.5898 70,66.5C 68.0421,57.1226 71.5421,53.6226 80.5,56C 81.8228,56.8159 82.4894,57.9826 82.5,59.5 Z"/></g>
<g><path style="opacity:1" fill="#828280" d="M 96.5,55.5 C 95.5,55.5 94.5,55.5 93.5,55.5C 93.5,60.1667 93.5,64.8333 93.5,69.5C 92.5128,64.6946 92.1795,59.6946 92.5,54.5C 94.099,54.2322 95.4324,54.5655 96.5,55.5 Z"/></g>
<g><path style="opacity:1" fill="#323332" d="M 96.5,55.5 C 96.5,60.1667 96.5,64.8333 96.5,69.5C 95.5,69.5 94.5,69.5 93.5,69.5C 93.5,64.8333 93.5,60.1667 93.5,55.5C 94.5,55.5 95.5,55.5 96.5,55.5 Z"/></g>
<g><path style="opacity:1" fill="#414140" d="M 103.5,54.5 C 110.063,54.0675 113.396,57.0675 113.5,63.5C 110.102,63.1796 106.768,63.513 103.5,64.5C 105.605,66.8152 108.105,67.1485 111,65.5C 112.726,66.6479 112.559,67.8145 110.5,69C 101.667,70.8333 98.1667,67.3333 100,58.5C 101.376,57.2949 102.542,55.9616 103.5,54.5 Z"/></g>
<g><path style="opacity:1" fill="#323332" d="M 145.5,55.5 C 146.5,55.5 147.5,55.5 148.5,55.5C 148.5,60.1667 148.5,64.8333 148.5,69.5C 147.5,69.5 146.5,69.5 145.5,69.5C 145.5,64.8333 145.5,60.1667 145.5,55.5 Z"/></g>
<g><path style="opacity:1" fill="#5d5d5b" d="M 145.5,55.5 C 146.568,54.5655 147.901,54.2322 149.5,54.5C 149.821,59.6946 149.487,64.6946 148.5,69.5C 148.5,64.8333 148.5,60.1667 148.5,55.5C 147.5,55.5 146.5,55.5 145.5,55.5 Z"/></g>
<g><path style="opacity:1" fill="#414040" d="M 156.5,54.5 C 164.986,54.1607 168.152,58.1607 166,66.5C 156.423,72.5005 152.09,69.8339 153,58.5C 154.102,57.051 155.269,55.7177 156.5,54.5 Z"/></g>
<g><path style="opacity:1" fill="#3a3a39" d="M 175.5,54.5 C 176.5,54.5 177.5,54.5 178.5,54.5C 178.5,55.8333 178.5,57.1667 178.5,58.5C 176.61,58.2965 175.11,58.9632 174,60.5C 173.502,63.4816 173.335,66.4816 173.5,69.5C 172.167,69.5 170.833,69.5 169.5,69.5C 169.5,64.8333 169.5,60.1667 169.5,55.5C 171.144,55.2865 172.644,55.6198 174,56.5C 174.717,55.9558 175.217,55.2891 175.5,54.5 Z"/></g>
<g><path style="opacity:1" fill="#3c3c3b" d="M 182.5,54.5 C 185.044,54.1043 187.211,54.771 189,56.5C 190.356,55.6198 191.856,55.2865 193.5,55.5C 193.666,60.5111 193.499,65.5111 193,70.5C 191.982,73.6829 189.815,75.0162 186.5,74.5C 183.333,74.9165 180.999,73.7498 179.5,71C 182.076,70.3942 184.41,70.8942 186.5,72.5C 189.246,71.9037 190.08,70.2371 189,67.5C 181.002,69.9258 178.002,66.9258 180,58.5C 180.662,57.0161 181.496,55.6828 182.5,54.5 Z"/></g>
<g><path style="opacity:1" fill="#828280" d="M 200.5,55.5 C 199.5,55.5 198.5,55.5 197.5,55.5C 197.5,60.1667 197.5,64.8333 197.5,69.5C 196.513,64.6946 196.179,59.6946 196.5,54.5C 198.099,54.2322 199.432,54.5655 200.5,55.5 Z"/></g>
<g><path style="opacity:1" fill="#323332" d="M 200.5,55.5 C 200.5,60.1667 200.5,64.8333 200.5,69.5C 199.5,69.5 198.5,69.5 197.5,69.5C 197.5,64.8333 197.5,60.1667 197.5,55.5C 198.5,55.5 199.5,55.5 200.5,55.5 Z"/></g>
<g><path style="opacity:1" fill="#444443" d="M 206.5,54.5 C 210.192,53.9712 213.358,54.9712 216,57.5C 216.432,58.6001 215.932,59.2668 214.5,59.5C 212.833,58.8333 211.167,58.1667 209.5,57.5C 208.833,57.8333 208.167,58.1667 207.5,58.5C 210.146,60.0181 212.979,61.3514 216,62.5C 216.896,65.025 216.396,67.1917 214.5,69C 211.5,69.6667 208.5,69.6667 205.5,69C 203.963,67.8904 203.297,66.3904 203.5,64.5C 206.139,64.5708 208.306,65.5708 210,67.5C 211.28,67.3865 212.113,66.7199 212.5,65.5C 209.772,63.747 206.939,62.0804 204,60.5C 203.333,59.5 203.333,58.5 204,57.5C 205.045,56.6266 205.878,55.6266 206.5,54.5 Z"/></g>
<g><path style="opacity:1" fill="#eae9e4" d="M 41.5,57.5 C 46.3373,58.2375 47.6707,60.9042 45.5,65.5C 41.8951,67.0911 39.8951,65.9244 39.5,62C 39.5186,60.167 40.1852,58.667 41.5,57.5 Z"/></g>
<g><path style="opacity:1" fill="#e6e5e0" d="M 74.5,57.5 C 76.3464,57.2222 77.6798,57.8888 78.5,59.5C 76.5787,60.641 74.5787,60.8077 72.5,60C 73.3805,59.2917 74.0472,58.4584 74.5,57.5 Z"/></g>
<g><path style="opacity:1" fill="#deddd8" d="M 104.5,57.5 C 106.665,57.1159 108.332,57.7826 109.5,59.5C 107.5,60.8333 105.5,60.8333 103.5,59.5C 103.863,58.8165 104.196,58.1499 104.5,57.5 Z"/></g>
<g><path style="opacity:1" fill="#70706e" d="M 141.5,69.5 C 141.5,66.1667 141.5,62.8333 141.5,59.5C 139.076,59.1924 136.743,59.5258 134.5,60.5C 135.833,61.1667 137.167,61.8333 138.5,62.5C 138.376,63.1067 138.043,63.44 137.5,63.5C 136.432,62.5655 135.099,62.2322 133.5,62.5C 133.5,61.1667 133.5,59.8333 133.5,58.5C 136.5,58.5 139.5,58.5 142.5,58.5C 142.815,62.3714 142.482,66.0381 141.5,69.5 Z"/></g>
<g><path style="opacity:1" fill="#eeede8" d="M 157.5,57.5 C 159.144,57.2865 160.644,57.6198 162,58.5C 162.769,61.0991 162.602,63.5991 161.5,66C 159.888,66.7203 158.388,66.5536 157,65.5C 156.278,62.7395 156.445,60.0728 157.5,57.5 Z"/></g>
<g><path style="opacity:1" fill="#edece7" d="M 184.5,57.5 C 189.258,58.0217 190.592,60.5217 188.5,65C 186.888,65.7203 185.388,65.5536 184,64.5C 183.297,62.0709 183.463,59.7375 184.5,57.5 Z"/></g>
<g><path style="opacity:1" fill="#717170" d="M 82.5,59.5 C 83.4345,60.5676 83.7678,61.901 83.5,63.5C 79.6707,62.931 76.3373,63.5977 73.5,65.5C 72.596,64.791 72.2627,63.791 72.5,62.5C 75.8333,62.5 79.1667,62.5 82.5,62.5C 82.5,61.5 82.5,60.5 82.5,59.5 Z"/></g>
</svg>
