<?xml version="1.0" encoding="UTF-8"?>
<!DOCTYPE svg PUBLIC "-//W3C//DTD SVG 1.1//EN" "http://www.w3.org/Graphics/SVG/1.1/DTD/svg11.dtd">
<svg xmlns="http://www.w3.org/2000/svg" version="1.1" width="324px" height="78px" style="shape-rendering:geometricPrecision; text-rendering:geometricPrecision; image-rendering:optimizeQuality; fill-rule:evenodd; clip-rule:evenodd" xmlns:xlink="http://www.w3.org/1999/xlink">
<g><path style="opacity:1" fill="#fdfdfd" d="M -0.5,-0.5 C 107.5,-0.5 215.5,-0.5 323.5,-0.5C 323.5,25.5 323.5,51.5 323.5,77.5C 215.5,77.5 107.5,77.5 -0.5,77.5C -0.5,51.5 -0.5,25.5 -0.5,-0.5 Z"/></g>
<g><path style="opacity:1" fill="#55bdeb" d="M 30.5,8.5 C 55.9755,7.80832 68.1422,20.1417 67,45.5C 60.9388,62.8931 48.7721,70.3931 30.5,68C 13.2218,61.9558 5.7218,49.7891 8,31.5C 11.684,19.9837 19.184,12.3171 30.5,8.5 Z"/></g>
<g><path style="opacity:1" fill="#f9fdfe" d="M 28.5,19.5 C 31.2465,19.9276 32.9132,21.5943 33.5,24.5C 24.8018,29.2383 22.3018,36.2383 26,45.5C 28.3785,47.709 30.5452,50.0424 32.5,52.5C 32.2237,54.3302 31.557,55.9968 30.5,57.5C 21.8035,53.9477 17.4702,47.4477 17.5,38C 17.9958,29.8264 21.6625,23.6598 28.5,19.5 Z"/></g>
<g><path style="opacity:1" fill="#f9fdfe" d="M 43.5,19.5 C 52.6883,22.3722 57.355,28.7056 57.5,38.5C 57.3837,47.7363 53.0503,54.0696 44.5,57.5C 43.218,55.8208 42.218,53.9874 41.5,52C 50.8276,46.6244 52.9943,39.1244 48,29.5C 45.9205,27.8767 43.7538,26.3767 41.5,25C 42.464,23.2745 43.1307,21.4412 43.5,19.5 Z"/></g>
<g><path style="opacity:1" fill="#2a2d33" d="M 89.5,24.5 C 103.874,24.6948 109.374,31.6948 106,45.5C 98.3028,54.3817 90.3028,54.715 82,46.5C 77.3993,36.7085 79.8993,29.3752 89.5,24.5 Z"/></g>
<g><path style="opacity:1" fill="#25282f" d="M 108.5,25.5 C 116.5,25.5 124.5,25.5 132.5,25.5C 132.5,27.1667 132.5,28.8333 132.5,30.5C 129.5,30.5 126.5,30.5 123.5,30.5C 123.5,37.5 123.5,44.5 123.5,51.5C 121.5,51.5 119.5,51.5 117.5,51.5C 117.5,44.5 117.5,37.5 117.5,30.5C 114.5,30.5 111.5,30.5 108.5,30.5C 108.5,28.8333 108.5,27.1667 108.5,25.5 Z"/></g>
<g><path style="opacity:1" fill="#23262d" d="M 144.5,41.5 C 143.791,40.596 142.791,40.2627 141.5,40.5C 141.5,44.1667 141.5,47.8333 141.5,51.5C 139.833,51.5 138.167,51.5 136.5,51.5C 136.5,42.8333 136.5,34.1667 136.5,25.5C 138.167,25.5 139.833,25.5 141.5,25.5C 141.5,28.8333 141.5,32.1667 141.5,35.5C 146.143,33.706 149.81,30.5393 152.5,26C 154.902,25.1859 157.235,25.3526 159.5,26.5C 155.98,30.1855 152.647,34.0188 149.5,38C 153.167,42.3333 156.833,46.6667 160.5,51C 158.167,51.6667 155.833,51.6667 153.5,51C 150.368,47.8546 147.368,44.6879 144.5,41.5 Z"/></g>
<g><path style="opacity:1" fill="#262930" d="M 171.5,49.5 C 171.44,48.9569 171.107,48.6236 170.5,48.5C 169.507,53.1196 169.173,57.7863 169.5,62.5C 167.833,62.5 166.167,62.5 164.5,62.5C 164.5,50.1667 164.5,37.8333 164.5,25.5C 166.167,25.5 167.833,25.5 169.5,25.5C 169.351,26.552 169.517,27.552 170,28.5C 178.821,22.3268 185.821,23.9934 191,33.5C 192.521,39.8767 191.021,45.3767 186.5,50C 181.231,53.4577 176.231,53.291 171.5,49.5 Z"/></g>
<g><path style="opacity:1" fill="#25282f" d="M 196.5,25.5 C 198.167,25.5 199.833,25.5 201.5,25.5C 201.5,28.1667 201.5,30.8333 201.5,33.5C 206.08,33.1134 210.414,33.9468 214.5,36C 219.096,42.0865 218.096,47.0865 211.5,51C 206.511,51.4993 201.511,51.6659 196.5,51.5C 196.5,42.8333 196.5,34.1667 196.5,25.5 Z"/></g>
<g><path style="opacity:1" fill="#2a2d34" d="M 220.5,25.5 C 222.5,25.5 224.5,25.5 226.5,25.5C 226.5,34.1667 226.5,42.8333 226.5,51.5C 224.5,51.5 222.5,51.5 220.5,51.5C 220.5,42.8333 220.5,34.1667 220.5,25.5 Z"/></g>
<g><path style="opacity:1" fill="#1f2329" d="M 230.5,25.5 C 238.167,25.5 245.833,25.5 253.5,25.5C 253.5,27.1667 253.5,28.8333 253.5,30.5C 250.5,30.5 247.5,30.5 244.5,30.5C 244.5,37.5 244.5,44.5 244.5,51.5C 242.833,51.5 241.167,51.5 239.5,51.5C 239.5,44.5 239.5,37.5 239.5,30.5C 236.5,30.5 233.5,30.5 230.5,30.5C 230.5,28.8333 230.5,27.1667 230.5,25.5 Z"/></g>
<g><path style="opacity:1" fill="#292c33" d="M 257.5,25.5 C 259.5,25.5 261.5,25.5 263.5,25.5C 263.334,30.8437 263.501,36.1771 264,41.5C 268.287,36.4248 272.453,31.2582 276.5,26C 278.134,25.5065 279.801,25.3398 281.5,25.5C 281.5,34.1667 281.5,42.8333 281.5,51.5C 279.5,51.5 277.5,51.5 275.5,51.5C 275.666,46.1563 275.499,40.8229 275,35.5C 271.193,40.9411 267.027,46.1078 262.5,51C 260.866,51.4935 259.199,51.6602 257.5,51.5C 257.5,42.8333 257.5,34.1667 257.5,25.5 Z"/></g>
<g><path style="opacity:1" fill="#272a31" d="M 312.5,39.5 C 305.5,39.5 298.5,39.5 291.5,39.5C 291.263,40.791 291.596,41.791 292.5,42.5C 293.29,43.7942 294.29,44.9609 295.5,46C 299.918,46.9763 304.085,46.4763 308,44.5C 312.701,47.3457 312.201,49.5123 306.5,51C 291.805,54.3055 285.305,48.4722 287,33.5C 291.564,24.3201 298.397,22.1534 307.5,27C 311.023,30.3975 312.689,34.5642 312.5,39.5 Z"/></g>
<g><path style="opacity:1" fill="#f6f6f6" d="M 296.5,29.5 C 301.254,28.5432 304.587,30.2098 306.5,34.5C 301.88,35.4933 297.214,35.8266 292.5,35.5C 292.351,34.448 292.517,33.448 293,32.5C 294.518,31.8366 295.685,30.8366 296.5,29.5 Z"/></g>
<g><path style="opacity:1" fill="#fbfbfb" d="M 89.5,30.5 C 98.6571,29.4892 102.49,33.4892 101,42.5C 96,47.8333 91,47.8333 86,42.5C 84.5934,37.6427 85.76,33.6427 89.5,30.5 Z"/></g>
<g><path style="opacity:1" fill="#f7f7f7" d="M 173.5,30.5 C 182.491,28.9934 186.325,32.66 185,41.5C 182.565,46.2238 178.731,47.7238 173.5,46C 168.221,40.8361 168.221,35.6694 173.5,30.5 Z"/></g>
<g><path style="opacity:1" fill="#f2f2f3" d="M 201.5,38.5 C 204.187,38.3359 206.854,38.5026 209.5,39C 212.167,41.3333 212.167,43.6667 209.5,46C 206.854,46.4974 204.187,46.6641 201.5,46.5C 201.5,43.8333 201.5,41.1667 201.5,38.5 Z"/></g>
<g><path style="opacity:1" fill="#55585d" d="M 312.5,39.5 C 305.605,39.8498 298.938,40.8498 292.5,42.5C 291.596,41.791 291.263,40.791 291.5,39.5C 298.5,39.5 305.5,39.5 312.5,39.5 Z"/></g>
<g><path style="opacity:1" fill="#8b8d91" d="M 144.5,41.5 C 142.881,44.5479 141.881,47.8812 141.5,51.5C 141.5,47.8333 141.5,44.1667 141.5,40.5C 142.791,40.2627 143.791,40.596 144.5,41.5 Z"/></g>
<g><path style="opacity:1" fill="#56585d" d="M 171.5,49.5 C 170.833,53.8333 170.167,58.1667 169.5,62.5C 169.173,57.7863 169.507,53.1196 170.5,48.5C 171.107,48.6236 171.44,48.9569 171.5,49.5 Z"/></g>
</svg>
