<?xml version="1.0" encoding="UTF-8"?>
<!DOCTYPE svg PUBLIC "-//W3C//DTD SVG 1.1//EN" "http://www.w3.org/Graphics/SVG/1.1/DTD/svg11.dtd">
<svg xmlns="http://www.w3.org/2000/svg" version="1.1" width="264px" height="100px" style="shape-rendering:geometricPrecision; text-rendering:geometricPrecision; image-rendering:optimizeQuality; fill-rule:evenodd; clip-rule:evenodd" xmlns:xlink="http://www.w3.org/1999/xlink">
<g><path style="opacity:1" fill="#fdfdfd" d="M -0.5,-0.5 C 87.5,-0.5 175.5,-0.5 263.5,-0.5C 263.5,32.8333 263.5,66.1667 263.5,99.5C 175.5,99.5 87.5,99.5 -0.5,99.5C -0.5,66.1667 -0.5,32.8333 -0.5,-0.5 Z"/></g>
<g><path style="opacity:1" fill="#f9e34d" d="M 18.5,6.5 C 38.5028,6.33338 58.5028,6.50005 78.5,7C 83.9634,8.46331 87.4634,11.9633 89,17.5C 89.6667,36.8333 89.6667,56.1667 89,75.5C 87.5,81 84,84.5 78.5,86C 58.8333,86.6667 39.1667,86.6667 19.5,86C 13.9128,84.6415 10.7461,81.1415 10,75.5C 9.33333,55.8333 9.33333,36.1667 10,16.5C 11.2613,11.7452 14.0947,8.41184 18.5,6.5 Z"/></g>
<g><path style="opacity:1" fill="#33353a" d="M 159.5,17.5 C 159.5,18.8333 159.5,20.1667 159.5,21.5C 158.209,21.2627 157.209,21.596 156.5,22.5C 156.5,24.1667 156.5,25.8333 156.5,27.5C 158.5,27.5 160.5,27.5 162.5,27.5C 161.412,20.2944 164.412,16.9611 171.5,17.5C 171.5,18.8333 171.5,20.1667 171.5,21.5C 167.932,21.7593 166.599,23.7593 167.5,27.5C 168.833,27.5 170.167,27.5 171.5,27.5C 171.5,28.8333 171.5,30.1667 171.5,31.5C 170.167,31.5 168.833,31.5 167.5,31.5C 167.5,35.5 167.5,39.5 167.5,43.5C 165.833,43.5 164.167,43.5 162.5,43.5C 162.5,39.5 162.5,35.5 162.5,31.5C 160.5,31.5 158.5,31.5 156.5,31.5C 155.518,34.9619 155.185,38.6286 155.5,42.5C 154.167,42.5 152.833,42.5 151.5,42.5C 151.891,37.9886 151.225,33.6553 149.5,29.5C 150.906,26.6632 151.739,23.6632 152,20.5C 153.848,17.9586 156.348,16.9586 159.5,17.5 Z"/></g>
<g><path style="opacity:1" fill="#2f3136" d="M 142.5,18.5 C 146.676,17.8307 148.009,19.3307 146.5,23C 145.207,23.49 143.873,23.6567 142.5,23.5C 142.5,21.8333 142.5,20.1667 142.5,18.5 Z"/></g>
<g><path style="opacity:1" fill="#323439" d="M 191.5,18.5 C 193.167,18.5 194.833,18.5 196.5,18.5C 197.167,22.5 195.5,24.1667 191.5,23.5C 191.5,21.8333 191.5,20.1667 191.5,18.5 Z"/></g>
<g><path style="opacity:1" fill="#2e2f31" d="M 36.5,33.5 C 36.44,32.9569 36.1067,32.6236 35.5,32.5C 34.5258,34.7427 34.1924,37.076 34.5,39.5C 33.7494,40.5735 32.7494,40.7401 31.5,40C 28.6667,37.1667 25.8333,34.3333 23,31.5C 22.6667,31.8333 22.3333,32.1667 22,32.5C 22.5698,22.2679 27.7365,18.7679 37.5,22C 40.3333,24.8333 43.1667,27.6667 46,30.5C 46.5074,31.9961 46.0074,33.1627 44.5,34C 46.0175,35.6851 47.6841,37.1851 49.5,38.5C 51.3159,37.1851 52.9825,35.6851 54.5,34C 52.9926,33.1627 52.4926,31.9961 53,30.5C 56.1667,27.3333 59.3333,24.1667 62.5,21C 71.8195,19.3285 76.6528,23.1618 77,32.5C 76.2825,31.5494 75.4491,31.3828 74.5,32C 72.3209,35.5125 69.4875,38.3458 66,40.5C 65.228,40.3552 64.5613,40.0219 64,39.5C 63.6667,37.1667 63.3333,34.8333 63,32.5C 62.3333,33.1667 61.6667,33.8333 61,34.5C 61.2375,39.0196 60.0708,43.0196 57.5,46.5C 63.5,52.8333 69.5,59.1667 75.5,65.5C 73.5,68.1667 71.1667,70.5 68.5,72.5C 62.1667,66.5 55.8333,60.5 49.5,54.5C 43.3479,60.1518 37.3479,65.9851 31.5,72C 28.2148,70.9099 25.5481,68.7432 23.5,65.5C 29.5,59.1667 35.5,52.8333 41.5,46.5C 38.9292,43.0196 37.7625,39.0196 38,34.5C 37.6174,33.944 37.1174,33.6107 36.5,33.5 Z"/></g>
<g><path style="opacity:1" fill="#313338" d="M 102.5,20.5 C 106.846,20.3343 111.179,20.501 115.5,21C 119.957,26.1348 119.29,30.4681 113.5,34C 115.833,37 118.167,40 120.5,43C 118.5,43.6667 116.5,43.6667 114.5,43C 112.333,40.1667 110.167,37.3333 108,34.5C 107.502,37.4816 107.335,40.4816 107.5,43.5C 105.833,43.5 104.167,43.5 102.5,43.5C 102.5,35.8333 102.5,28.1667 102.5,20.5 Z"/></g>
<g><path style="opacity:1" fill="#98999c" d="M 159.5,17.5 C 160.451,18.9187 160.784,20.5853 160.5,22.5C 159.167,22.5 157.833,22.5 156.5,22.5C 157.209,21.596 158.209,21.2627 159.5,21.5C 159.5,20.1667 159.5,18.8333 159.5,17.5 Z"/></g>
<g><path style="opacity:1" fill="#dededf" d="M 107.5,23.5 C 113.016,23.4734 114.349,25.64 111.5,30C 110.207,30.49 108.873,30.6567 107.5,30.5C 107.5,28.1667 107.5,25.8333 107.5,23.5 Z"/></g>
<g><path style="opacity:1" fill="#2f3136" d="M 138.5,27.5 C 138.5,32.5 138.5,37.5 138.5,42.5C 136.259,42.0461 134.259,42.0461 132.5,42.5C 123.94,44.1039 120.44,40.4372 122,31.5C 122.833,30 124,28.8333 125.5,28C 129.972,28.1144 134.305,27.9477 138.5,27.5 Z"/></g>
<g><path style="opacity:1" fill="#949598" d="M 138.5,27.5 C 139.488,32.6405 139.821,37.9738 139.5,43.5C 137.05,43.702 134.717,43.3686 132.5,42.5C 134.259,42.0461 136.259,42.0461 138.5,42.5C 138.5,37.5 138.5,32.5 138.5,27.5 Z"/></g>
<g><path style="opacity:1" fill="#323439" d="M 142.5,27.5 C 144.167,27.5 145.833,27.5 147.5,27.5C 147.5,32.8333 147.5,38.1667 147.5,43.5C 145.833,43.5 144.167,43.5 142.5,43.5C 142.5,38.1667 142.5,32.8333 142.5,27.5 Z"/></g>
<g><path style="opacity:1" fill="#34353a" d="M 175.5,27.5 C 183.688,25.4016 188.022,28.4016 188.5,36.5C 184.774,36.1774 181.107,36.5108 177.5,37.5C 178.171,38.9458 179.338,39.6125 181,39.5C 188.415,37.2556 189.581,38.4223 184.5,43C 172.172,43.4792 169.172,38.3126 175.5,27.5 Z"/></g>
<g><path style="opacity:1" fill="#303237" d="M 191.5,27.5 C 193.167,27.5 194.833,27.5 196.5,27.5C 196.5,32.8333 196.5,38.1667 196.5,43.5C 194.833,43.5 193.167,43.5 191.5,43.5C 191.5,38.1667 191.5,32.8333 191.5,27.5 Z"/></g>
<g><path style="opacity:1" fill="#313338" d="M 202.5,27.5 C 205.167,27.5 207.833,27.5 210.5,27.5C 210.808,30.7129 209.641,31.7129 207,30.5C 205.941,30.6301 205.108,31.1301 204.5,32C 211.48,33.1646 213.146,36.6646 209.5,42.5C 205.731,44.1769 202.398,43.6769 199.5,41C 199.613,39.7202 200.28,38.8869 201.5,38.5C 203.198,39.6808 204.865,39.6808 206.5,38.5C 200.423,36.3781 199.089,32.7115 202.5,27.5 Z"/></g>
<g><path style="opacity:1" fill="#36383d" d="M 217.5,27.5 C 225.432,25.4442 229.766,28.4442 230.5,36.5C 226.445,36.1758 222.445,36.5091 218.5,37.5C 219.171,38.9458 220.338,39.6125 222,39.5C 224.549,38.4812 227.049,38.4812 229.5,39.5C 226.367,43.24 222.367,44.4067 217.5,43C 212.197,37.7603 212.197,32.5936 217.5,27.5 Z"/></g>
<g><path style="opacity:1" fill="#303237" d="M 247.5,30.5 C 247.5,34.5 247.5,38.5 247.5,42.5C 246.167,42.5 244.833,42.5 243.5,42.5C 243.813,38.9581 243.479,35.6248 242.5,32.5C 241.116,31.1991 239.616,31.1991 238,32.5C 237.501,36.1516 237.335,39.8183 237.5,43.5C 235.833,43.5 234.167,43.5 232.5,43.5C 232.5,38.1667 232.5,32.8333 232.5,27.5C 236.695,27.9477 241.028,28.1144 245.5,28C 246.381,28.7083 247.047,29.5416 247.5,30.5 Z"/></g>
<g><path style="opacity:1" fill="#eff0f0" d="M 128.5,31.5 C 133.486,31.3049 135.152,33.4716 133.5,38C 131.105,40.1451 128.938,39.9784 127,37.5C 126.252,35.1599 126.752,33.1599 128.5,31.5 Z"/></g>
<g><path style="opacity:1" fill="#6a642e" d="M 36.5,33.5 C 35.8333,35.5 35.1667,37.5 34.5,39.5C 34.1924,37.076 34.5258,34.7427 35.5,32.5C 36.1067,32.6236 36.44,32.9569 36.5,33.5 Z"/></g>
<g><path style="opacity:1" fill="#6c6d72" d="M 156.5,31.5 C 156.5,35.5 156.5,39.5 156.5,43.5C 154.585,43.7845 152.919,43.4511 151.5,42.5C 152.833,42.5 154.167,42.5 155.5,42.5C 155.185,38.6286 155.518,34.9619 156.5,31.5 Z"/></g>
<g><path style="opacity:1" fill="#cdcecf" d="M 178.5,30.5 C 181.022,30.1281 183.022,30.9614 184.5,33C 182.098,33.8141 179.765,33.6474 177.5,32.5C 177.863,31.8165 178.196,31.1499 178.5,30.5 Z"/></g>
<g><path style="opacity:1" fill="#cfd0d1" d="M 220.5,30.5 C 222.681,30.2837 224.347,31.117 225.5,33C 223.098,33.8141 220.765,33.6474 218.5,32.5C 219.243,31.8182 219.909,31.1515 220.5,30.5 Z"/></g>
<g><path style="opacity:1" fill="#838488" d="M 247.5,30.5 C 248.485,34.6344 248.818,38.9677 248.5,43.5C 246.5,43.5 244.5,43.5 242.5,43.5C 242.5,39.8333 242.5,36.1667 242.5,32.5C 243.479,35.6248 243.813,38.9581 243.5,42.5C 244.833,42.5 246.167,42.5 247.5,42.5C 247.5,38.5 247.5,34.5 247.5,30.5 Z"/></g>
<g><path style="opacity:1" fill="#898a8e" d="M 167.5,61.5 C 167.44,62.0431 167.107,62.3764 166.5,62.5C 165.507,57.8804 165.173,53.2137 165.5,48.5C 164.167,48.5 162.833,48.5 161.5,48.5C 161.5,56.5 161.5,64.5 161.5,72.5C 162.833,72.5 164.167,72.5 165.5,72.5C 164.081,73.4511 162.415,73.7845 160.5,73.5C 160.5,64.8333 160.5,56.1667 160.5,47.5C 162.5,47.5 164.5,47.5 166.5,47.5C 166.181,52.3633 166.514,57.03 167.5,61.5 Z"/></g>
<g><path style="opacity:1" fill="#2d2f34" d="M 167.5,61.5 C 168.962,60.5423 170.295,59.3756 171.5,58C 173.5,57.3333 175.5,57.3333 177.5,58C 175.316,60.0165 173.316,62.1831 171.5,64.5C 173.281,67.0912 175.281,69.4245 177.5,71.5C 175.735,72.4614 173.735,72.7947 171.5,72.5C 169.873,70.3702 168.04,68.3702 166,66.5C 165.505,68.4727 165.338,70.4727 165.5,72.5C 164.167,72.5 162.833,72.5 161.5,72.5C 161.5,64.5 161.5,56.5 161.5,48.5C 162.833,48.5 164.167,48.5 165.5,48.5C 165.173,53.2137 165.507,57.8804 166.5,62.5C 167.107,62.3764 167.44,62.0431 167.5,61.5 Z"/></g>
<g><path style="opacity:1" fill="#35363b" d="M 102.5,49.5 C 106.637,49.1463 110.637,49.6463 114.5,51C 118.035,53.8384 118.368,57.0051 115.5,60.5C 120.908,64.9994 120.575,69.1661 114.5,73C 110.514,73.4988 106.514,73.6655 102.5,73.5C 102.5,65.5 102.5,57.5 102.5,49.5 Z"/></g>
<g><path style="opacity:1" fill="#d8d8d9" d="M 107.5,53.5 C 112.159,53.0146 113.492,54.848 111.5,59C 110.207,59.49 108.873,59.6567 107.5,59.5C 107.5,57.5 107.5,55.5 107.5,53.5 Z"/></g>
<g><path style="opacity:1" fill="#323439" d="M 125.5,57.5 C 129.979,58.1129 134.312,58.1129 138.5,57.5C 138.5,62.8333 138.5,68.1667 138.5,73.5C 134.205,72.6409 129.872,72.4743 125.5,73C 120.227,67.7433 120.227,62.5766 125.5,57.5 Z"/></g>
<g><path style="opacity:1" fill="#7c7e81" d="M 142.5,57.5 C 142.5,62.5 142.5,67.5 142.5,72.5C 143.833,72.5 145.167,72.5 146.5,72.5C 145.081,73.4511 143.415,73.7845 141.5,73.5C 141.179,67.9738 141.512,62.6405 142.5,57.5 Z"/></g>
<g><path style="opacity:1" fill="#313338" d="M 142.5,57.5 C 144.451,57.2267 145.951,57.8934 147,59.5C 149.76,57.297 152.76,56.9637 156,58.5C 157.388,63.3722 157.888,68.3722 157.5,73.5C 155.833,73.5 154.167,73.5 152.5,73.5C 152.665,69.8183 152.499,66.1516 152,62.5C 149.978,61.0091 148.312,61.3424 147,63.5C 146.502,66.4816 146.335,69.4816 146.5,72.5C 145.167,72.5 143.833,72.5 142.5,72.5C 142.5,67.5 142.5,62.5 142.5,57.5 Z"/></g>
<g><path style="opacity:1" fill="#ececed" d="M 127.5,61.5 C 133.729,61.0267 135.395,63.36 132.5,68.5C 126.805,69.4458 125.138,67.1125 127.5,61.5 Z"/></g>
<g><path style="opacity:1" fill="#fafafa" d="M 108.5,63.5 C 111.261,62.9147 112.927,63.9147 113.5,66.5C 113.253,67.7133 112.586,68.38 111.5,68.5C 110.5,68.5 109.5,68.5 108.5,68.5C 108.5,66.8333 108.5,65.1667 108.5,63.5 Z"/></g>
<g><path style="opacity:1" fill="#8f9093" d="M 108.5,63.5 C 108.5,65.1667 108.5,66.8333 108.5,68.5C 109.5,68.5 110.5,68.5 111.5,68.5C 110.432,69.4345 109.099,69.7678 107.5,69.5C 107.205,67.2646 107.539,65.2646 108.5,63.5 Z"/></g>
<g><path style="opacity:1" fill="#9a9b9e" d="M 177.5,71.5 C 178.043,71.56 178.376,71.8933 178.5,72.5C 176.027,73.7969 173.693,73.7969 171.5,72.5C 173.735,72.7947 175.735,72.4614 177.5,71.5 Z"/></g>
</svg>
