<?xml version="1.0" encoding="UTF-8"?>
<!DOCTYPE svg PUBLIC "-//W3C//DTD SVG 1.1//EN" "http://www.w3.org/Graphics/SVG/1.1/DTD/svg11.dtd">
<svg xmlns="http://www.w3.org/2000/svg" version="1.1" width="370px" height="132px" style="shape-rendering:geometricPrecision; text-rendering:geometricPrecision; image-rendering:optimizeQuality; fill-rule:evenodd; clip-rule:evenodd" xmlns:xlink="http://www.w3.org/1999/xlink">
<g><path style="opacity:1" fill="#fefdfd" d="M -0.5,-0.5 C 122.833,-0.5 246.167,-0.5 369.5,-0.5C 369.5,43.5 369.5,87.5 369.5,131.5C 246.167,131.5 122.833,131.5 -0.5,131.5C -0.5,87.5 -0.5,43.5 -0.5,-0.5 Z"/></g>
<g><path style="opacity:1" fill="#c2497b" d="M 27.5,10.5 C 35.5069,10.3336 43.5069,10.5003 51.5,11C 62.5547,15.0381 64.2214,21.3715 56.5,30C 54.3686,30.5431 52.3686,31.3764 50.5,32.5C 55.1799,37.3491 59.5132,42.5158 63.5,48C 65.7693,50.0229 68.4359,50.8563 71.5,50.5C 71.5,51.5 71.5,52.5 71.5,53.5C 67.4862,53.6655 63.4862,53.4988 59.5,53C 54.5,46.6667 49.5,40.3333 44.5,34C 43.2068,33.51 41.8734,33.3433 40.5,33.5C 40.334,38.8437 40.5006,44.1771 41,49.5C 42.9162,50.9278 45.0829,51.9278 47.5,52.5C 40.8333,53.8333 34.1667,53.8333 27.5,52.5C 29.0777,51.7022 30.7444,51.2022 32.5,51C 33.1258,50.2496 33.6258,49.4162 34,48.5C 34.6667,37.5 34.6667,26.5 34,15.5C 32.2458,13.75 30.0792,13.0833 27.5,13.5C 27.5,12.5 27.5,11.5 27.5,10.5 Z"/></g>
<g><path style="opacity:1" fill="#c44f7f" d="M 163.5,10.5 C 168.493,10.997 169.493,13.1637 166.5,17C 161.4,16.8873 160.4,14.7206 163.5,10.5 Z"/></g>
<g><path style="opacity:1" fill="#fcf7f9" d="M 40.5,12.5 C 48.3817,10.74 53.0483,13.74 54.5,21.5C 54.373,24.3873 53.373,26.8873 51.5,29C 48.0769,30.9039 44.4102,31.7372 40.5,31.5C 40.5,25.1667 40.5,18.8333 40.5,12.5 Z"/></g>
<g><path style="opacity:1" fill="#c24a7c" d="M 136.5,26.5 C 141.765,25.5706 146.265,26.9039 150,30.5C 150.333,37.1667 150.667,43.8333 151,50.5C 151.718,51.4506 152.551,51.6172 153.5,51C 154.071,49.7949 154.738,48.6283 155.5,47.5C 156.527,52.9503 154.193,54.7837 148.5,53C 147.299,52.0975 146.465,50.9308 146,49.5C 141.333,53.6443 136.333,54.3109 131,51.5C 129.817,47.7261 130.651,44.5594 133.5,42C 137.635,39.5965 141.968,37.7632 146.5,36.5C 146.68,30.1803 143.68,27.6803 137.5,29C 136.13,30.4413 135.13,32.108 134.5,34C 130.466,34.438 129.633,32.938 132,29.5C 133.652,28.6006 135.152,27.6006 136.5,26.5 Z"/></g>
<g><path style="opacity:1" fill="#c55281" d="M 164.5,26.5 C 165.5,26.5 166.5,26.5 167.5,26.5C 167.334,34.5069 167.5,42.5069 168,50.5C 169.509,51.0897 171.009,51.7564 172.5,52.5C 167.833,53.8333 163.167,53.8333 158.5,52.5C 159.628,51.7379 160.795,51.0712 162,50.5C 162.5,43.8417 162.666,37.175 162.5,30.5C 161.167,30.5 159.833,30.5 158.5,30.5C 158.5,29.5 158.5,28.5 158.5,27.5C 160.735,27.7947 162.735,27.4614 164.5,26.5 Z"/></g>
<g><path style="opacity:1" fill="#c44e7e" d="M 294.5,26.5 C 298.605,26.2338 302.605,26.7338 306.5,28C 309.303,30.2217 309.137,32.0551 306,33.5C 304.133,32.6233 302.966,31.1233 302.5,29C 297.232,27.5501 293.732,29.3835 292,34.5C 290.804,40.0524 291.637,45.2191 294.5,50C 300.29,52.8696 304.957,51.703 308.5,46.5C 308.814,50.3998 306.814,52.8998 302.5,54C 289.31,54.126 284.143,47.626 287,34.5C 289.028,31.3078 291.528,28.6411 294.5,26.5 Z"/></g>
<g><path style="opacity:1" fill="#c34b7c" d="M 93.5,34.5 C 88.2649,36.45 82.5982,37.1167 76.5,36.5C 76.19,39.7131 76.5233,42.7131 77.5,45.5C 81.2679,54.0163 86.2679,54.683 92.5,47.5C 93.2824,49.3293 92.6157,50.8293 90.5,52C 81.0576,56.1999 74.5576,53.3665 71,43.5C 69.9565,34.2179 73.9565,28.5512 83,26.5C 88.6968,26.3709 92.1968,29.0376 93.5,34.5 Z"/></g>
<g><path style="opacity:1" fill="#c44f7f" d="M 101.5,26.5 C 104.329,26.3249 105.996,27.6582 106.5,30.5C 112.465,24.8572 117.965,25.1905 123,31.5C 123.333,37.8333 123.667,44.1667 124,50.5C 125.205,51.0712 126.372,51.7379 127.5,52.5C 122.833,53.8333 118.167,53.8333 113.5,52.5C 114.914,51.376 116.414,50.376 118,49.5C 118.667,43.5 118.667,37.5 118,31.5C 113.431,28.4392 109.431,29.1059 106,33.5C 105.333,39.1667 105.333,44.8333 106,50.5C 107.205,51.0712 108.372,51.7379 109.5,52.5C 105.167,53.8333 100.833,53.8333 96.5,52.5C 97.3279,51.5853 98.3279,50.9186 99.5,50.5C 100.497,43.8665 100.83,37.1998 100.5,30.5C 99.1667,30.5 97.8333,30.5 96.5,30.5C 96.5,29.5 96.5,28.5 96.5,27.5C 98.4147,27.7845 100.081,27.4511 101.5,26.5 Z"/></g>
<g><path style="opacity:1" fill="#c24b7c" d="M 180.5,26.5 C 184.342,26.2391 188.009,26.9058 191.5,28.5C 192.478,28.0233 193.311,27.3567 194,26.5C 194.667,29.1667 194.667,31.8333 194,34.5C 191.241,29.3963 187.074,27.5629 181.5,29C 178.659,32.1588 179.326,34.4922 183.5,36C 188.201,37.2271 192.368,39.3938 196,42.5C 197.643,47.4276 196.143,50.9276 191.5,53C 186.97,53.9474 182.636,53.4474 178.5,51.5C 177.833,52.1667 177.167,52.8333 176.5,53.5C 175.348,50.8938 175.182,48.2272 176,45.5C 177.833,47.3333 179.667,49.1667 181.5,51C 184.5,51.6667 187.5,51.6667 190.5,51C 193.192,48.3676 192.859,46.0342 189.5,44C 184.971,42.4861 180.805,40.3194 177,37.5C 174.851,32.804 176.018,29.1374 180.5,26.5 Z"/></g>
<g><path style="opacity:1" fill="#c34c7d" d="M 205.5,26.5 C 209.342,26.2391 213.009,26.9058 216.5,28.5C 217.478,28.0233 218.311,27.3567 219,26.5C 219.667,29.1667 219.667,31.8333 219,34.5C 216.241,29.3963 212.074,27.5629 206.5,29C 203.659,32.1588 204.326,34.4922 208.5,36C 212.644,37.2656 216.477,39.0989 220,41.5C 222.601,46.5018 221.434,50.3351 216.5,53C 211.97,53.9474 207.636,53.4474 203.5,51.5C 202.522,51.9767 201.689,52.6433 201,53.5C 200.182,50.7728 200.348,48.1062 201.5,45.5C 204.594,51.1361 209.26,52.9694 215.5,51C 218.192,48.3676 217.859,46.0342 214.5,44C 209.971,42.4861 205.805,40.3194 202,37.5C 199.851,32.804 201.018,29.1374 205.5,26.5 Z"/></g>
<g><path style="opacity:1" fill="#c55180" d="M 258.5,26.5 C 261.48,26.2411 263.313,27.5744 264,30.5C 269.409,25.2566 274.742,25.2566 280,30.5C 280.333,37.1667 280.667,43.8333 281,50.5C 282.205,51.0712 283.372,51.7379 284.5,52.5C 280.167,53.8333 275.833,53.8333 271.5,52.5C 272.628,51.7379 273.795,51.0712 275,50.5C 275.667,43.8333 275.667,37.1667 275,30.5C 270.489,28.5688 266.822,29.5688 264,33.5C 263.333,39.1667 263.333,44.8333 264,50.5C 265.205,51.0712 266.372,51.7379 267.5,52.5C 263.167,53.8333 258.833,53.8333 254.5,52.5C 255.628,51.7379 256.795,51.0712 258,50.5C 258.667,44.1667 258.667,37.8333 258,31.5C 256.989,30.6634 255.822,30.33 254.5,30.5C 254.5,29.5 254.5,28.5 254.5,27.5C 256.099,27.7678 257.432,27.4345 258.5,26.5 Z"/></g>
<g><path style="opacity:1" fill="#c34e7e" d="M 334.5,34.5 C 329.265,36.45 323.598,37.1167 317.5,36.5C 317.19,39.7131 317.523,42.7131 318.5,45.5C 322.268,54.0163 327.268,54.683 333.5,47.5C 334.282,49.3293 333.616,50.8293 331.5,52C 324.703,55.9492 318.87,54.7826 314,48.5C 309.298,37.2473 312.632,29.914 324,26.5C 329.697,26.3709 333.197,29.0376 334.5,34.5 Z"/></g>
<g><path style="opacity:1" fill="#fcf6f9" d="M 88.5,34.5 C 84.6286,34.815 80.9619,34.4816 77.5,33.5C 77.8854,30.2826 79.7187,28.616 83,28.5C 86.749,28.7488 88.5823,30.7488 88.5,34.5 Z"/></g>
<g><path style="opacity:1" fill="#fdf8fa" d="M 321.5,28.5 C 326.56,27.6684 329.227,29.6684 329.5,34.5C 325.833,34.5 322.167,34.5 318.5,34.5C 318.615,32.0532 319.615,30.0532 321.5,28.5 Z"/></g>
<g><path style="opacity:1" fill="#dc9ab6" d="M 77.5,33.5 C 80.9619,34.4816 84.6286,34.815 88.5,34.5C 84.6493,35.8095 80.6493,35.8095 76.5,34.5C 76.6236,33.8933 76.9569,33.56 77.5,33.5 Z"/></g>
<g><path style="opacity:1" fill="#eeccda" d="M 93.5,34.5 C 94.404,35.209 94.7373,36.209 94.5,37.5C 88.8333,37.5 83.1667,37.5 77.5,37.5C 77.5,40.1667 77.5,42.8333 77.5,45.5C 76.5233,42.7131 76.19,39.7131 76.5,36.5C 82.5982,37.1167 88.2649,36.45 93.5,34.5 Z"/></g>
<g><path style="opacity:1" fill="#edc9d8" d="M 334.5,34.5 C 335.404,35.209 335.737,36.209 335.5,37.5C 329.833,37.5 324.167,37.5 318.5,37.5C 318.5,40.1667 318.5,42.8333 318.5,45.5C 317.523,42.7131 317.19,39.7131 317.5,36.5C 323.598,37.1167 329.265,36.45 334.5,34.5 Z"/></g>
<g><path style="opacity:1" fill="#faf1f4" d="M 143.5,38.5 C 144.5,38.5 145.5,38.5 146.5,38.5C 148.436,45.5331 145.936,49.8664 139,51.5C 135.795,50.2018 134.795,47.8684 136,44.5C 138.086,41.9061 140.586,39.9061 143.5,38.5 Z"/></g>
<g><path style="opacity:1" fill="#c45080" d="M 232.5,26.5 C 237.677,25.7031 242.177,27.0364 246,30.5C 246.333,37.1667 246.667,43.8333 247,50.5C 247.414,50.9574 247.914,51.2907 248.5,51.5C 249.333,50.5 250.167,49.5 251,48.5C 251.513,51.8266 250.013,53.4933 246.5,53.5C 244.069,53.5633 242.235,52.5633 241,50.5C 236.918,53.2906 232.418,54.1239 227.5,53C 224.431,48.675 225.098,45.0083 229.5,42C 233.167,40.1667 236.833,38.3333 240.5,36.5C 242.758,31.6576 241.258,28.9909 236,28.5C 232.251,28.7488 230.418,30.7488 230.5,34.5C 229.167,34.5 227.833,34.5 226.5,34.5C 226.343,33.1266 226.51,31.7932 227,30.5C 228.812,29.0229 230.645,27.6896 232.5,26.5 Z"/></g>
<g><path style="opacity:1" fill="#fdf8fa" d="M 239.5,38.5 C 240.777,39.6936 241.444,41.3603 241.5,43.5C 241.233,48.601 238.567,51.101 233.5,51C 230.941,48.0747 230.941,45.0747 233.5,42C 235.727,41.059 237.727,39.8923 239.5,38.5 Z"/></g>
<g><path style="opacity:1" fill="#777a77" d="M 38.5,64.5 C 46.4191,63.3148 53.5858,64.9815 60,69.5C 60.7393,67.7795 61.5726,66.1128 62.5,64.5C 63.8333,69.8333 63.8333,75.1667 62.5,80.5C 58.1134,66.0435 49.6134,62.7101 37,70.5C 33.0959,79.184 32.4292,88.184 35,97.5C 42.2892,107.21 50.2892,107.876 59,99.5C 60.2663,96.5338 61.4329,93.5338 62.5,90.5C 63.8333,95.5 63.8333,100.5 62.5,105.5C 61.4164,104.335 60.5831,103.002 60,101.5C 53.1123,107.545 45.279,109.045 36.5,106C 27.1583,99.9887 23.6583,91.4887 26,80.5C 27.7777,73.2308 31.9444,67.8974 38.5,64.5 Z"/></g>
<g><path style="opacity:1" fill="#787b77" d="M 133.5,64.5 C 138.328,64.3852 139.661,66.5519 137.5,71C 132.791,71.082 131.458,68.9154 133.5,64.5 Z"/></g>
<g><path style="opacity:1" fill="#737672" d="M 205.5,106.5 C 200.968,106.818 196.634,106.485 192.5,105.5C 193.822,105.67 194.989,105.337 196,104.5C 196.667,92.5 196.667,80.5 196,68.5C 194.795,67.9288 193.628,67.2621 192.5,66.5C 195.157,65.7408 197.823,65.0742 200.5,64.5C 201.499,77.8167 201.833,91.15 201.5,104.5C 203.483,104.157 204.817,104.824 205.5,106.5 Z"/></g>
<g><path style="opacity:1" fill="#767975" d="M 150.5,73.5 C 152.369,75.6353 153.036,78.3019 152.5,81.5C 161.833,81.8333 161.833,82.1667 152.5,82.5C 152.334,89.5079 152.5,96.5079 153,103.5C 155.632,106.192 157.966,105.859 160,102.5C 160.5,103 161,103.5 161.5,104C 156.265,109.096 151.765,108.596 148,102.5C 147.5,95.8417 147.334,89.175 147.5,82.5C 146.448,82.6495 145.448,82.4828 144.5,82C 148.323,80.359 150.323,77.5257 150.5,73.5 Z"/></g>
<g><path style="opacity:1" fill="#787b77" d="M 74.5,80.5 C 78.1817,80.3347 81.8484,80.5014 85.5,81C 86.4162,81.3742 87.2496,81.8742 88,82.5C 89.2597,89.3938 89.9263,96.3938 90,103.5C 91.0113,104.337 92.1779,104.67 93.5,104.5C 93.281,103.325 93.6143,102.325 94.5,101.5C 95.2985,104.904 93.7985,106.904 90,107.5C 87.463,107.3 85.7963,105.967 85,103.5C 80.2991,107.423 75.2991,108.089 70,105.5C 68,103.167 68,100.833 70,98.5C 74.0792,94.3789 78.9125,91.7122 84.5,90.5C 85.3273,83.4973 82.3273,80.9973 75.5,83C 75.074,86.5921 73.074,88.0921 69.5,87.5C 70.0025,84.3315 71.6691,81.9981 74.5,80.5 Z"/></g>
<g><path style="opacity:1" fill="#757874" d="M 100.5,80.5 C 102.167,80.5 103.833,80.5 105.5,80.5C 105.281,81.675 105.614,82.675 106.5,83.5C 117.771,77.3035 124.438,80.4702 126.5,93C 125.962,103.87 120.295,108.537 109.5,107C 108.069,106.535 106.903,105.701 106,104.5C 105.333,109.5 105.333,114.5 106,119.5C 107.509,120.09 109.009,120.756 110.5,121.5C 105.833,122.833 101.167,122.833 96.5,121.5C 97.914,120.376 99.414,119.376 101,118.5C 101.667,107.167 101.667,95.8333 101,84.5C 99.4905,83.9103 97.9905,83.2436 96.5,82.5C 97.9492,81.8281 99.2825,81.1614 100.5,80.5 Z"/></g>
<g><path style="opacity:1" fill="#797c78" d="M 169.5,80.5 C 173.182,80.3347 176.848,80.5014 180.5,81C 181.931,81.4652 183.097,82.2986 184,83.5C 185.425,90.3846 185.925,97.3846 185.5,104.5C 187.592,104.439 189.092,103.439 190,101.5C 190.105,106.552 187.605,108.385 182.5,107C 181.789,105.745 180.956,104.579 180,103.5C 175.299,107.423 170.299,108.089 165,105.5C 164.333,103.167 164.333,100.833 165,98.5C 169.549,94.76 174.549,91.76 180,89.5C 180.896,86.975 180.396,84.8083 178.5,83C 175.773,82.1816 173.106,82.3483 170.5,83.5C 169.754,84.7362 169.421,86.0695 169.5,87.5C 168.167,87.5 166.833,87.5 165.5,87.5C 165.187,84.1626 166.52,81.8293 169.5,80.5 Z"/></g>
<g><path style="opacity:1" fill="#7f827e" d="M 134.5,80.5 C 135.833,80.5 137.167,80.5 138.5,80.5C 138.5,88.5 138.5,96.5 138.5,104.5C 139.833,104.5 141.167,104.5 142.5,104.5C 142.5,105.5 142.5,106.5 142.5,107.5C 137.786,107.827 133.12,107.493 128.5,106.5C 129.914,105.376 131.414,104.376 133,103.5C 133.667,97.1667 133.667,90.8333 133,84.5C 131.491,83.9103 129.991,83.2436 128.5,82.5C 130.631,81.8313 132.631,81.1646 134.5,80.5 Z"/></g>
<g><path style="opacity:1" fill="#fcfcfc" d="M 110.5,82.5 C 114.794,82.1975 117.961,83.8642 120,87.5C 121.223,93.3792 120.389,98.8792 117.5,104C 113.286,106.269 109.453,105.769 106,102.5C 105.333,97.1667 105.333,91.8333 106,86.5C 107.397,84.9297 108.897,83.5964 110.5,82.5 Z"/></g>
<g><path style="opacity:1" fill="#f7f7f7" d="M 84.5,91.5 C 88.1915,100.57 85.1915,104.736 75.5,104C 74.4238,102.274 74.2571,100.441 75,98.5C 77.7517,95.5471 80.9184,93.2137 84.5,91.5 Z"/></g>
<g><path style="opacity:1" fill="#f5f5f5" d="M 179.5,91.5 C 183.192,100.57 180.192,104.736 170.5,104C 169.203,101.455 169.369,98.9554 171,96.5C 173.746,94.5446 176.58,92.8779 179.5,91.5 Z"/></g>
<g><path style="opacity:1" fill="#b9bbb9" d="M 192.5,105.5 C 196.634,106.485 200.968,106.818 205.5,106.5C 200.985,107.812 196.318,107.812 191.5,106.5C 191.624,105.893 191.957,105.56 192.5,105.5 Z"/></g>
</svg>
