<?xml version="1.0" encoding="UTF-8"?>
<!DOCTYPE svg PUBLIC "-//W3C//DTD SVG 1.1//EN" "http://www.w3.org/Graphics/SVG/1.1/DTD/svg11.dtd">
<svg xmlns="http://www.w3.org/2000/svg" version="1.1" width="226px" height="52px" style="shape-rendering:geometricPrecision; text-rendering:geometricPrecision; image-rendering:optimizeQuality; fill-rule:evenodd; clip-rule:evenodd" xmlns:xlink="http://www.w3.org/1999/xlink">
<g><path style="opacity:1" fill="#fdfefd" d="M -0.5,-0.5 C 74.8333,-0.5 150.167,-0.5 225.5,-0.5C 225.5,16.8333 225.5,34.1667 225.5,51.5C 150.167,51.5 74.8333,51.5 -0.5,51.5C -0.5,34.1667 -0.5,16.8333 -0.5,-0.5 Z"/></g>
<g><path style="opacity:1" fill="#4696dd" d="M 18.5,15.5 C 17.5987,14.7095 16.9321,13.7095 16.5,12.5C 22.3046,8.54017 28.138,8.54017 34,12.5C 34.6123,14.2373 33.9457,15.2373 32,15.5C 27.52,12.8704 23.02,12.8704 18.5,15.5 Z"/></g>
<g><path style="opacity:1" fill="#5eb0db" d="M 16.5,12.5 C 16.9321,13.7095 17.5987,14.7095 18.5,15.5C 18.1667,16.5 17.5,17.1667 16.5,17.5C 15.1667,17.5 13.8333,17.5 12.5,17.5C 13.0798,15.2512 14.4131,13.5846 16.5,12.5 Z"/></g>
<g><path style="opacity:1" fill="#5aa556" d="M 57.5,15.5 C 59.8568,15.3367 62.1902,15.5034 64.5,16C 68.3776,17.5718 68.3776,19.0718 64.5,20.5C 57.2553,18.3688 54.0886,21.0355 55,28.5C 55.8333,29.3333 56.6667,30.1667 57.5,31C 60.8818,31.1764 64.2152,31.6764 67.5,32.5C 60.6137,37.32 55.1137,35.9867 51,28.5C 49.973,22.554 52.1396,18.2207 57.5,15.5 Z"/></g>
<g><path style="opacity:1" fill="#57a453" d="M 71.5,15.5 C 76.8437,15.334 82.1771,15.5006 87.5,16C 84.2258,19.2162 80.2258,20.3829 75.5,19.5C 75.5,20.8333 75.5,22.1667 75.5,23.5C 83.8102,21.3368 87.6435,24.3368 87,32.5C 85.8289,33.8932 84.3289,34.7265 82.5,35C 78.8484,35.4986 75.1817,35.6653 71.5,35.5C 71.5,28.8333 71.5,22.1667 71.5,15.5 Z"/></g>
<g><path style="opacity:1" fill="#5ea85a" d="M 105.5,32.5 C 101.285,34.4364 96.6186,35.1031 91.5,34.5C 91.5,28.1667 91.5,21.8333 91.5,15.5C 96.1785,15.3342 100.845,15.5008 105.5,16C 102.93,19.118 99.5963,20.2847 95.5,19.5C 95.5,20.8333 95.5,22.1667 95.5,23.5C 98.5,23.5 101.5,23.5 104.5,23.5C 104.5,24.8333 104.5,26.1667 104.5,27.5C 101.5,27.5 98.5,27.5 95.5,27.5C 95.5,28.8333 95.5,30.1667 95.5,31.5C 99.0419,31.1872 102.375,31.5206 105.5,32.5 Z"/></g>
<g><path style="opacity:1" fill="#7bba7c" d="M 120.5,16.5 C 117.167,16.5 113.833,16.5 110.5,16.5C 110.5,22.5 110.5,28.5 110.5,34.5C 111.5,34.5 112.5,34.5 113.5,34.5C 112.432,35.4345 111.099,35.7678 109.5,35.5C 109.5,28.8333 109.5,22.1667 109.5,15.5C 113.371,15.185 117.038,15.5184 120.5,16.5 Z"/></g>
<g><path style="opacity:1" fill="#50a04c" d="M 120.5,16.5 C 125.662,18.6973 126.829,22.364 124,27.5C 120.757,29.2625 117.257,29.9292 113.5,29.5C 113.5,31.1667 113.5,32.8333 113.5,34.5C 112.5,34.5 111.5,34.5 110.5,34.5C 110.5,28.5 110.5,22.5 110.5,16.5C 113.833,16.5 117.167,16.5 120.5,16.5 Z"/></g>
<g><path style="opacity:1" fill="#53a24f" d="M 134.5,16.5 C 139.5,16.5 144.5,16.5 149.5,16.5C 149.5,17.5 149.5,18.5 149.5,19.5C 145.833,19.5 142.167,19.5 138.5,19.5C 138.5,20.8333 138.5,22.1667 138.5,23.5C 142.839,22.8461 146.673,23.8461 150,26.5C 151.266,30.8011 149.766,33.6344 145.5,35C 141.848,35.4986 138.182,35.6653 134.5,35.5C 134.5,29.1667 134.5,22.8333 134.5,16.5 Z"/></g>
<g><path style="opacity:1" fill="#56a351" d="M 159.5,16.5 C 161.467,16.2606 163.301,16.5939 165,17.5C 167.209,23.2913 169.709,28.958 172.5,34.5C 170.955,35.4519 169.288,35.7852 167.5,35.5C 167.427,32.0504 165.594,30.717 162,31.5C 158.666,32.5876 155.499,33.9209 152.5,35.5C 154.548,29.0684 156.882,22.7351 159.5,16.5 Z"/></g>
<g><path style="opacity:1" fill="#9bcc9e" d="M 175.5,16.5 C 175.5,22.5 175.5,28.5 175.5,34.5C 176.5,34.5 177.5,34.5 178.5,34.5C 178.198,31.9407 178.532,29.6074 179.5,27.5C 179.5,30.1667 179.5,32.8333 179.5,35.5C 177.833,35.5 176.167,35.5 174.5,35.5C 174.177,28.9779 174.51,22.6446 175.5,16.5 Z"/></g>
<g><path style="opacity:1" fill="#54a24f" d="M 175.5,16.5 C 176.833,16.5 178.167,16.5 179.5,16.5C 179.5,18.8333 179.5,21.1667 179.5,23.5C 182.167,23.5 184.833,23.5 187.5,23.5C 187.5,21.1667 187.5,18.8333 187.5,16.5C 188.833,16.5 190.167,16.5 191.5,16.5C 191.5,22.5 191.5,28.5 191.5,34.5C 190.5,34.5 189.5,34.5 188.5,34.5C 188.802,31.9407 188.468,29.6074 187.5,27.5C 184.833,27.5 182.167,27.5 179.5,27.5C 178.532,29.6074 178.198,31.9407 178.5,34.5C 177.5,34.5 176.5,34.5 175.5,34.5C 175.5,28.5 175.5,22.5 175.5,16.5 Z"/></g>
<g><path style="opacity:1" fill="#96c999" d="M 191.5,16.5 C 192.49,22.6446 192.823,28.9779 192.5,35.5C 190.833,35.5 189.167,35.5 187.5,35.5C 187.5,32.8333 187.5,30.1667 187.5,27.5C 188.468,29.6074 188.802,31.9407 188.5,34.5C 189.5,34.5 190.5,34.5 191.5,34.5C 191.5,28.5 191.5,22.5 191.5,16.5 Z"/></g>
<g><path style="opacity:1" fill="#b1d7b3" d="M 201.5,16.5 C 200.167,16.5 198.833,16.5 197.5,16.5C 197.5,22.8333 197.5,29.1667 197.5,35.5C 196.509,29.021 196.176,22.3543 196.5,15.5C 198.415,15.2155 200.081,15.5489 201.5,16.5 Z"/></g>
<g><path style="opacity:1" fill="#57a453" d="M 197.5,35.5 C 197.5,29.1667 197.5,22.8333 197.5,16.5C 198.833,16.5 200.167,16.5 201.5,16.5C 201.187,19.2469 201.52,21.9135 202.5,24.5C 204.992,21.8369 207.326,19.0036 209.5,16C 210.944,15.2195 212.277,15.3861 213.5,16.5C 211.68,19.4826 209.68,22.3159 207.5,25C 209.441,28.8628 212.107,32.1961 215.5,35C 213.421,35.8077 211.421,35.641 209.5,34.5C 207.37,31.3579 204.703,29.0246 201.5,27.5C 201.5,30.1667 201.5,32.8333 201.5,35.5C 200.167,35.5 198.833,35.5 197.5,35.5 Z"/></g>
<g><path style="opacity:1" fill="#56a352" d="M 36.5,16.5 C 38.6859,16.5106 39.5192,17.5106 39,19.5C 34.9232,22.788 30.7565,25.9547 26.5,29C 21.2241,29.125 19.0575,26.625 20,21.5C 21.3513,23.0097 23.018,24.0097 25,24.5C 29.4942,22.6789 33.3275,20.0123 36.5,16.5 Z"/></g>
<g><path style="opacity:1" fill="#70b8a8" d="M 12.5,17.5 C 13.8333,17.5 15.1667,17.5 16.5,17.5C 15.4884,18.8717 14.4884,20.205 13.5,21.5C 12.791,20.596 11.791,20.2627 10.5,20.5C 10.9321,19.2905 11.5987,18.2905 12.5,17.5 Z"/></g>
<g><path style="opacity:1" fill="#f4f9f4" d="M 113.5,19.5 C 115.527,19.3379 117.527,19.5045 119.5,20C 122.033,21.916 122.033,23.916 119.5,26C 117.527,26.4955 115.527,26.6621 113.5,26.5C 113.5,24.1667 113.5,21.8333 113.5,19.5 Z"/></g>
<g><path style="opacity:1" fill="#edf6ee" d="M 161.5,21.5 C 163.448,23.3204 164.448,25.6538 164.5,28.5C 162.833,28.5 161.167,28.5 159.5,28.5C 159.878,26.079 160.545,23.7457 161.5,21.5 Z"/></g>
<g><path style="opacity:1" fill="#a9cd77" d="M 10.5,20.5 C 11.791,20.2627 12.791,20.596 13.5,21.5C 13.5,22.5 13.5,23.5 13.5,24.5C 12.5,24.5 11.5,24.5 10.5,24.5C 10.5,26.5 10.5,28.5 10.5,30.5C 9.21846,27.2693 9.21846,23.9359 10.5,20.5 Z"/></g>
<g><path style="opacity:1" fill="#61a956" d="M 29.5,40.5 C 27.9519,40.1788 27.2852,39.1788 27.5,37.5C 33.9276,36.2302 37.4276,32.2302 38,25.5C 39,24.5 40,23.5 41,22.5C 41.7833,29.1088 39.6166,34.6088 34.5,39C 32.9751,40.0086 31.3084,40.5086 29.5,40.5 Z"/></g>
<g><path style="opacity:1" fill="#c0dfc1" d="M 81.5,27.5 C 79.8333,27.5 78.1667,27.5 76.5,27.5C 76.5,28.8333 76.5,30.1667 76.5,31.5C 78.5,31.5 80.5,31.5 82.5,31.5C 80.3926,32.4682 78.0593,32.8016 75.5,32.5C 75.5,30.5 75.5,28.5 75.5,26.5C 77.7354,26.2053 79.7354,26.5386 81.5,27.5 Z"/></g>
<g><path style="opacity:1" fill="#fbfdfb" d="M 81.5,27.5 C 82.5862,27.62 83.2528,28.2867 83.5,29.5C 83.4573,30.4164 83.1239,31.0831 82.5,31.5C 80.5,31.5 78.5,31.5 76.5,31.5C 76.5,30.1667 76.5,28.8333 76.5,27.5C 78.1667,27.5 79.8333,27.5 81.5,27.5 Z"/></g>
<g><path style="opacity:1" fill="#ecf5ed" d="M 138.5,26.5 C 140.527,26.3379 142.527,26.5045 144.5,27C 147.167,28.6667 147.167,30.3333 144.5,32C 142.527,32.4955 140.527,32.6621 138.5,32.5C 138.5,30.5 138.5,28.5 138.5,26.5 Z"/></g>
<g><path style="opacity:1" fill="#dfe156" d="M 13.5,24.5 C 13.3103,31.141 16.3103,35.4744 22.5,37.5C 24.129,39.1959 23.7957,40.1959 21.5,40.5C 15.9417,39.2762 12.275,35.9428 10.5,30.5C 10.5,28.5 10.5,26.5 10.5,24.5C 11.5,24.5 12.5,24.5 13.5,24.5 Z"/></g>
<g><path style="opacity:1" fill="#79b97b" d="M 105.5,32.5 C 106.404,33.209 106.737,34.209 106.5,35.5C 101.305,35.8205 96.3054,35.4872 91.5,34.5C 96.6186,35.1031 101.285,34.4364 105.5,32.5 Z"/></g>
<g><path style="opacity:1" fill="#b6d167" d="M 22.5,37.5 C 24.1667,37.5 25.8333,37.5 27.5,37.5C 27.2852,39.1788 27.9519,40.1788 29.5,40.5C 26.8333,41.8333 24.1667,41.8333 21.5,40.5C 23.7957,40.1959 24.129,39.1959 22.5,37.5 Z"/></g>
</svg>
