<?xml version="1.0" encoding="UTF-8"?>
<!DOCTYPE svg PUBLIC "-//W3C//DTD SVG 1.1//EN" "http://www.w3.org/Graphics/SVG/1.1/DTD/svg11.dtd">
<svg xmlns="http://www.w3.org/2000/svg" version="1.1" width="438px" height="184px" style="shape-rendering:geometricPrecision; text-rendering:geometricPrecision; image-rendering:optimizeQuality; fill-rule:evenodd; clip-rule:evenodd" xmlns:xlink="http://www.w3.org/1999/xlink">
<g><path style="opacity:1" fill="#b64b3d" d="M -0.5,-0.5 C 140.833,-0.5 282.167,-0.5 423.5,-0.5C 423.5,-0.166667 423.5,0.166667 423.5,0.5C 282.833,0.5 142.167,0.5 1.5,0.5C 1.5,61.5 1.5,122.5 1.5,183.5C 0.833333,183.5 0.166667,183.5 -0.5,183.5C -0.5,122.167 -0.5,60.8333 -0.5,-0.5 Z"/></g>
<g><path style="opacity:1" fill="#dcafaa" d="M 423.5,0.5 C 423.5,0.166667 423.5,-0.166667 423.5,-0.5C 425.5,-0.5 427.5,-0.5 429.5,-0.5C 429.833,0.166667 430.167,0.833333 430.5,1.5C 428.236,0.781382 425.903,0.448049 423.5,0.5 Z"/></g>
<g><path style="opacity:1" fill="#f2e8e7" d="M 429.5,-0.5 C 432.167,-0.5 434.833,-0.5 437.5,-0.5C 437.5,2.83333 437.5,6.16667 437.5,9.5C 435.628,6.41809 433.295,3.75143 430.5,1.5C 430.167,0.833333 429.833,0.166667 429.5,-0.5 Z"/></g>
<g><path style="opacity:1" fill="#af3c2d" d="M 423.5,0.5 C 425.903,0.448049 428.236,0.781382 430.5,1.5C 433.295,3.75143 435.628,6.41809 437.5,9.5C 437.5,64.1667 437.5,118.833 437.5,173.5C 435.75,174.659 434.75,176.326 434.5,178.5C 433.29,178.932 432.29,179.599 431.5,180.5C 429.456,181.508 427.456,182.508 425.5,183.5C 284.167,183.5 142.833,183.5 1.5,183.5C 1.5,122.5 1.5,61.5 1.5,0.5C 142.167,0.5 282.833,0.5 423.5,0.5 Z"/></g>
<g><path style="opacity:1" fill="#d08e86" d="M 117.5,31.5 C 118.947,30.1148 119.947,30.4482 120.5,32.5C 119.609,31.8902 118.609,31.5569 117.5,31.5 Z"/></g>
<g><path style="opacity:1" fill="#faf4f3" d="M 116.5,34.5 C 117.473,35.7914 118.473,35.7914 119.5,34.5C 121.039,39.3698 123.039,44.0365 125.5,48.5C 126.141,49.9935 127.141,50.9935 128.5,51.5C 128.5,51.8333 128.5,52.1667 128.5,52.5C 128.427,54.0269 129.094,55.0269 130.5,55.5C 131.985,59.141 133.485,62.8076 135,66.5C 136.129,68.1412 137.629,69.1412 139.5,69.5C 139.973,70.9063 140.973,71.573 142.5,71.5C 149.876,76.6943 155.543,83.3609 159.5,91.5C 159.557,92.609 159.89,93.609 160.5,94.5C 160.259,96.8984 160.926,98.8984 162.5,100.5C 164.181,108.882 163.514,117.215 160.5,125.5C 161.178,127.516 161.844,129.516 162.5,131.5C 162.511,133.547 162.844,135.547 163.5,137.5C 165.352,141.928 167.352,146.261 169.5,150.5C 169.043,151.298 168.376,151.631 167.5,151.5C 165.883,150.962 164.216,150.629 162.5,150.5C 162.027,149.094 161.027,148.427 159.5,148.5C 158.833,148.5 158.167,148.5 157.5,148.5C 156.393,146.031 154.393,145.031 151.5,145.5C 147.096,143.872 143.43,144.872 140.5,148.5C 140.167,148.5 139.833,148.5 139.5,148.5C 136.895,148.621 134.895,149.621 133.5,151.5C 132.833,151.5 132.167,151.5 131.5,151.5C 129.102,151.259 127.102,151.926 125.5,153.5C 112.606,154.926 100.939,151.926 90.5,144.5C 89.4163,144.685 88.4163,145.018 87.5,145.5C 85.302,145.12 83.6354,145.787 82.5,147.5C 81.391,147.557 80.391,147.89 79.5,148.5C 77.302,148.12 75.6354,148.787 74.5,150.5C 73.1667,150.833 71.8333,151.167 70.5,151.5C 69.448,151.649 68.448,151.483 67.5,151C 69.0163,149.103 69.683,146.936 69.5,144.5C 72.9644,141.375 74.631,137.375 74.5,132.5C 75.4972,132.53 76.1639,132.03 76.5,131C 77.0367,129.208 77.3701,127.375 77.5,125.5C 75.9492,117.238 75.2825,108.905 75.5,100.5C 75.5,99.8333 75.5,99.1667 75.5,98.5C 77.0739,96.8984 77.7406,94.8984 77.5,92.5C 78.3764,92.6309 79.0431,92.2975 79.5,91.5C 81.1934,88.6338 82.5268,85.6338 83.5,82.5C 85.5,79.1667 88.1667,76.5 91.5,74.5C 93.0269,74.573 94.0269,73.9063 94.5,72.5C 96.0269,72.573 97.0269,71.9063 97.5,70.5C 100.285,71.0838 101.952,70.0838 102.5,67.5C 102.833,66.1667 103.167,64.8333 103.5,63.5C 104.906,63.0269 105.573,62.0269 105.5,60.5C 107.245,58.9674 108.245,56.9674 108.5,54.5C 110.213,53.3646 110.88,51.698 110.5,49.5C 111.11,48.609 111.443,47.609 111.5,46.5C 111.5,46.1667 111.5,45.8333 111.5,45.5C 115.003,42.8185 116.67,39.1519 116.5,34.5 Z"/></g>
<g><path style="opacity:1" fill="#e9c8c4" d="M 117.5,31.5 C 118.609,31.5569 119.609,31.8902 120.5,32.5C 123.44,38.7137 126.107,45.0471 128.5,51.5C 127.141,50.9935 126.141,49.9935 125.5,48.5C 123.039,44.0365 121.039,39.3698 119.5,34.5C 118.473,35.7914 117.473,35.7914 116.5,34.5C 116.557,33.391 116.89,32.391 117.5,31.5 Z"/></g>
<g><path style="opacity:1" fill="#e5beb9" d="M 116.5,34.5 C 116.67,39.1519 115.003,42.8185 111.5,45.5C 112.93,41.6456 114.597,37.9789 116.5,34.5 Z"/></g>
<g><path style="opacity:1" fill="#d3958d" d="M 117.5,47.5 C 118.947,46.1148 119.947,46.4482 120.5,48.5C 119.609,47.8902 118.609,47.5569 117.5,47.5 Z"/></g>
<g><path style="opacity:1" fill="#c87a70" d="M 111.5,46.5 C 111.443,47.609 111.11,48.609 110.5,49.5C 110.167,49.5 109.833,49.5 109.5,49.5C 109.427,47.9731 110.094,46.9731 111.5,46.5 Z"/></g>
<g><path style="opacity:1" fill="#e6c2bd" d="M 109.5,49.5 C 109.833,49.5 110.167,49.5 110.5,49.5C 110.88,51.698 110.213,53.3646 108.5,54.5C 108.366,52.7085 108.699,51.0418 109.5,49.5 Z"/></g>
<g><path style="opacity:1" fill="#d79d96" d="M 117.5,48.5 C 117.088,50.8867 116.088,52.8867 114.5,54.5C 114.621,51.8952 115.621,49.8952 117.5,48.5 Z"/></g>
<g><path style="opacity:1" fill="#af3b2c" d="M 117.5,47.5 C 118.609,47.5569 119.609,47.8902 120.5,48.5C 121.167,50.5 121.833,52.5 122.5,54.5C 122.755,56.9674 123.755,58.9674 125.5,60.5C 125.5,61.1667 125.5,61.8333 125.5,62.5C 123.603,63.8048 121.269,64.4714 118.5,64.5C 115.975,64.4966 113.641,64.1633 111.5,63.5C 112.213,60.4061 113.213,57.4061 114.5,54.5C 116.088,52.8867 117.088,50.8867 117.5,48.5C 117.5,48.1667 117.5,47.8333 117.5,47.5 Z"/></g>
<g><path style="opacity:1" fill="#ca7d75" d="M 128.5,52.5 C 129.906,52.9731 130.573,53.9731 130.5,55.5C 129.094,55.0269 128.427,54.0269 128.5,52.5 Z"/></g>
<g><path style="opacity:1" fill="#dfb0ab" d="M 108.5,54.5 C 108.245,56.9674 107.245,58.9674 105.5,60.5C 105.755,58.0326 106.755,56.0326 108.5,54.5 Z"/></g>
<g><path style="opacity:1" fill="#d59891" d="M 122.5,54.5 C 124.245,56.0326 125.245,58.0326 125.5,60.5C 123.755,58.9674 122.755,56.9674 122.5,54.5 Z"/></g>
<g><path style="opacity:1" fill="#c97b71" d="M 105.5,60.5 C 105.573,62.0269 104.906,63.0269 103.5,63.5C 103.427,61.9731 104.094,60.9731 105.5,60.5 Z"/></g>
<g><path style="opacity:1" fill="#ba584d" d="M 125.5,62.5 C 126.167,62.5 126.5,62.8333 126.5,63.5C 124.257,64.8117 121.59,65.4783 118.5,65.5C 115.41,65.4783 112.743,64.8117 110.5,63.5C 110.833,63.5 111.167,63.5 111.5,63.5C 113.641,64.1633 115.975,64.4966 118.5,64.5C 121.269,64.4714 123.603,63.8048 125.5,62.5 Z"/></g>
<g><path style="opacity:1" fill="#ddb1ac" d="M 110.5,63.5 C 112.743,64.8117 115.41,65.4783 118.5,65.5C 121.59,65.4783 124.257,64.8117 126.5,63.5C 127.404,64.209 127.737,65.209 127.5,66.5C 121.5,66.5 115.5,66.5 109.5,66.5C 109.263,65.209 109.596,64.209 110.5,63.5 Z"/></g>
<g><path style="opacity:1" fill="#e8c7c3" d="M 102.5,67.5 C 101.952,70.0838 100.285,71.0838 97.5,70.5C 98.9649,69.2632 100.632,68.2632 102.5,67.5 Z"/></g>
<g><path style="opacity:1" fill="#c36d63" d="M 139.5,69.5 C 141.027,69.427 142.027,70.0937 142.5,71.5C 140.973,71.573 139.973,70.9063 139.5,69.5 Z"/></g>
<g><path style="opacity:1" fill="#e1b6b1" d="M 97.5,70.5 C 97.0269,71.9063 96.0269,72.573 94.5,72.5C 94.9731,71.0937 95.9731,70.427 97.5,70.5 Z"/></g>
<g><path style="opacity:1" fill="#dfb3ad" d="M 94.5,72.5 C 94.0269,73.9063 93.0269,74.573 91.5,74.5C 91.9731,73.0937 92.9731,72.427 94.5,72.5 Z"/></g>
<g><path style="opacity:1" fill="#d08e86" d="M 106.5,75.5 C 108.607,74.5318 110.941,74.1984 113.5,74.5C 113.83,92.6744 113.497,110.674 112.5,128.5C 112.5,110.833 112.5,93.1667 112.5,75.5C 110.5,75.5 108.5,75.5 106.5,75.5 Z"/></g>
<g><path style="opacity:1" fill="#e8c7c3" d="M 144.5,79.5 C 142.9,78.748 141.4,77.748 140,76.5C 140.429,79.1715 141.263,81.8381 142.5,84.5C 139.47,82.4093 138.136,79.4093 138.5,75.5C 141.608,75.3746 143.608,76.7079 144.5,79.5 Z"/></g>
<g><path style="opacity:1" fill="#cf8c84" d="M 351.5,78.5 C 346.009,78.1497 340.676,78.8164 335.5,80.5C 336.347,79.0337 337.68,78.2004 339.5,78C 343.689,77.1881 347.689,77.3547 351.5,78.5 Z"/></g>
<g><path style="opacity:1" fill="#af3c2c" d="M 106.5,75.5 C 108.5,75.5 110.5,75.5 112.5,75.5C 112.5,93.1667 112.5,110.833 112.5,128.5C 112.167,128.5 111.833,128.5 111.5,128.5C 109.597,128.796 107.93,129.463 106.5,130.5C 103.833,131.5 101.167,132.5 98.5,133.5C 97.1667,133.833 95.8333,134.167 94.5,134.5C 92.9731,134.427 91.9731,135.094 91.5,136.5C 89.7839,136.629 88.1172,136.962 86.5,137.5C 84.7615,138.434 83.0948,138.434 81.5,137.5C 82.3094,135.929 82.6427,134.262 82.5,132.5C 83.555,128.725 84.8883,125.058 86.5,121.5C 88.0879,119.887 89.0879,117.887 89.5,115.5C 90.7866,112.594 91.7866,109.594 92.5,106.5C 93.9063,106.027 94.573,105.027 94.5,103.5C 94.8333,102.167 95.1667,100.833 95.5,99.5C 96.9063,99.0269 97.573,98.0269 97.5,96.5C 97.5,96.1667 97.5,95.8333 97.5,95.5C 99.0879,93.8867 100.088,91.8867 100.5,89.5C 101.213,86.4061 102.213,83.4061 103.5,80.5C 104.906,80.0269 105.573,79.0269 105.5,77.5C 105.328,76.5084 105.662,75.8417 106.5,75.5 Z"/></g>
<g><path style="opacity:1" fill="#dcada7" d="M 131.5,75.5 C 128.881,75.2317 126.381,75.565 124,76.5C 123.5,93.4967 123.333,110.497 123.5,127.5C 122.338,110.338 122.171,93.0049 123,75.5C 125.937,74.1834 128.77,74.1834 131.5,75.5 Z"/></g>
<g><path style="opacity:1" fill="#b03d2e" d="M 131.5,75.5 C 133.04,77.9221 134.04,80.5888 134.5,83.5C 134.427,85.0269 135.094,86.0269 136.5,86.5C 136.5,87.1667 136.5,87.8333 136.5,88.5C 136.755,90.9674 137.755,92.9674 139.5,94.5C 139.5,94.8333 139.5,95.1667 139.5,95.5C 139.755,97.9674 140.755,99.9674 142.5,101.5C 142.5,101.833 142.5,102.167 142.5,102.5C 142.796,104.403 143.463,106.07 144.5,107.5C 145.338,107.842 145.672,108.508 145.5,109.5C 145.427,111.027 146.094,112.027 147.5,112.5C 148.038,114.117 148.371,115.784 148.5,117.5C 148.427,119.027 149.094,120.027 150.5,120.5C 150.833,121.833 151.167,123.167 151.5,124.5C 151.427,126.027 152.094,127.027 153.5,127.5C 154.787,130.406 155.787,133.406 156.5,136.5C 156.414,137.496 156.748,138.329 157.5,139C 156.906,139.464 156.239,139.631 155.5,139.5C 154.833,139.5 154.167,139.5 153.5,139.5C 151.967,137.755 149.967,136.755 147.5,136.5C 145.898,134.926 143.898,134.259 141.5,134.5C 135.143,132.759 129.143,130.426 123.5,127.5C 123.333,110.497 123.5,93.4967 124,76.5C 126.381,75.565 128.881,75.2317 131.5,75.5 Z"/></g>
<g><path style="opacity:1" fill="#d69a93" d="M 238.5,80.5 C 237.167,79.1667 235.833,79.1667 234.5,80.5C 235.833,76.5 237.167,76.5 238.5,80.5 Z"/></g>
<g><path style="opacity:1" fill="#dfb2ac" d="M 313.5,79.5 C 308.5,79.5 303.5,79.5 298.5,79.5C 298.611,78.8826 298.944,78.3826 299.5,78C 301.5,77.8333 303.5,77.6667 305.5,77.5C 308.527,77.2865 311.193,77.9532 313.5,79.5 Z"/></g>
<g><path style="opacity:1" fill="#d3958d" d="M 105.5,77.5 C 105.573,79.0269 104.906,80.0269 103.5,80.5C 103.427,78.9731 104.094,77.9731 105.5,77.5 Z"/></g>
<g><path style="opacity:1" fill="#faf4f3" d="M 297.5,79.5 C 297.833,79.5 298.167,79.5 298.5,79.5C 303.5,79.5 308.5,79.5 313.5,79.5C 315.117,80.038 316.784,80.3713 318.5,80.5C 319.01,83.3878 318.344,85.7211 316.5,87.5C 314.883,86.962 313.216,86.6287 311.5,86.5C 311.5,86.1667 311.5,85.8333 311.5,85.5C 309.696,84.838 307.696,84.5046 305.5,84.5C 303.048,84.5391 301.048,85.2057 299.5,86.5C 297.973,86.427 296.973,87.0937 296.5,88.5C 293.972,90.0727 291.972,92.0727 290.5,94.5C 289.355,98.3112 289.188,102.311 290,106.5C 290.708,107.381 291.542,108.047 292.5,108.5C 299.455,116.065 307.455,117.398 316.5,112.5C 318.344,114.279 319.01,116.612 318.5,119.5C 317.22,120.931 315.553,121.598 313.5,121.5C 308.821,121.666 304.155,121.499 299.5,121C 296.936,119.604 294.269,118.437 291.5,117.5C 288.81,115.807 286.81,113.473 285.5,110.5C 285.573,108.973 284.906,107.973 283.5,107.5C 283.5,106.833 283.5,106.167 283.5,105.5C 283.437,100.797 283.771,96.1304 284.5,91.5C 287.375,89.5232 289.375,86.8566 290.5,83.5C 291.167,83.1667 291.833,82.8333 292.5,82.5C 294.848,82.4077 296.514,81.4077 297.5,79.5 Z"/></g>
<g><path style="opacity:1" fill="#f9f2f1" d="M 351.5,78.5 C 356.713,80.2698 361.047,83.2698 364.5,87.5C 364.427,89.0269 365.094,90.0269 366.5,90.5C 367.222,90.9175 367.722,91.5842 368,92.5C 368.167,94.8333 368.333,97.1667 368.5,99.5C 368.685,103.141 368.019,106.474 366.5,109.5C 365.326,110.514 364.66,111.847 364.5,113.5C 364.5,114.167 364.167,114.5 363.5,114.5C 361.833,116.167 360.167,117.833 358.5,119.5C 356.703,120.73 354.703,121.396 352.5,121.5C 346.797,121.625 341.13,121.292 335.5,120.5C 328.841,117.173 324.841,111.84 323.5,104.5C 323.294,100.102 323.627,95.7685 324.5,91.5C 324.328,90.5084 324.662,89.8417 325.5,89.5C 327.587,88.4154 328.92,86.7488 329.5,84.5C 331.027,84.573 332.027,83.9063 332.5,82.5C 332.973,81.0937 333.973,80.427 335.5,80.5C 340.676,78.8164 346.009,78.1497 351.5,78.5 Z"/></g>
<g><path style="opacity:1" fill="#bd5e54" d="M 95.5,77.5 C 96.3764,77.3691 97.0431,77.7025 97.5,78.5C 97.0576,79.7387 96.3909,80.7387 95.5,81.5C 95.631,80.7611 95.4643,80.0944 95,79.5C 94.1841,80.8228 93.0174,81.4894 91.5,81.5C 92.5,79.8333 93.8333,78.5 95.5,77.5 Z"/></g>
<g><path style="opacity:1" fill="#f5e9e8" d="M 191.5,79.5 C 199.833,79.5 208.167,79.5 216.5,79.5C 216.5,81.5 216.5,83.5 216.5,85.5C 213.5,85.5 210.5,85.5 207.5,85.5C 209.948,84.5269 212.615,84.1936 215.5,84.5C 215.5,83.5 215.5,82.5 215.5,81.5C 207.833,81.5 200.167,81.5 192.5,81.5C 192.5,82.5 192.5,83.5 192.5,84.5C 195.385,84.1936 198.052,84.5269 200.5,85.5C 197.5,85.5 194.5,85.5 191.5,85.5C 191.5,83.5 191.5,81.5 191.5,79.5 Z"/></g>
<g><path style="opacity:1" fill="#e9c8c5" d="M 94.5,85.5 C 94.8333,84.1667 95.1667,82.8333 95.5,81.5C 96.3909,80.7387 97.0576,79.7387 97.5,78.5C 97.0431,77.7025 96.3764,77.3691 95.5,77.5C 96.1834,75.8235 97.5168,75.1568 99.5,75.5C 99.5939,79.8381 97.9272,83.1714 94.5,85.5 Z"/></g>
<g><path style="opacity:1" fill="#fcfafa" d="M 207.5,85.5 C 207.5,85.8333 207.5,86.1667 207.5,86.5C 206.505,97.6544 206.172,108.988 206.5,120.5C 204.833,120.5 203.167,120.5 201.5,120.5C 201.828,108.988 201.495,97.6544 200.5,86.5C 200.5,86.1667 200.5,85.8333 200.5,85.5C 198.052,84.5269 195.385,84.1936 192.5,84.5C 192.5,83.5 192.5,82.5 192.5,81.5C 200.167,81.5 207.833,81.5 215.5,81.5C 215.5,82.5 215.5,83.5 215.5,84.5C 212.615,84.1936 209.948,84.5269 207.5,85.5 Z"/></g>
<g><path style="opacity:1" fill="#d39990" d="M 267.5,79.5 C 266.833,79.5 266.167,79.5 265.5,79.5C 264.167,79.5 262.833,79.5 261.5,79.5C 261.171,93.3435 261.504,107.01 262.5,120.5C 262.5,120.833 262.5,121.167 262.5,121.5C 261.833,121.5 261.167,121.5 260.5,121.5C 260.5,107.167 260.5,92.8333 260.5,78.5C 263.059,78.1984 265.393,78.5318 267.5,79.5 Z"/></g>
<g><path style="opacity:1" fill="#fcf9f8" d="M 265.5,79.5 C 266.167,79.5 266.833,79.5 267.5,79.5C 267.172,91.3453 267.505,103.012 268.5,114.5C 272.298,115.483 276.298,115.817 280.5,115.5C 280.5,117.167 280.5,118.833 280.5,120.5C 274.5,120.5 268.5,120.5 262.5,120.5C 262.5,107.167 262.5,93.8333 262.5,80.5C 263.791,80.7373 264.791,80.404 265.5,79.5 Z"/></g>
<g><path style="opacity:1" fill="#e4bfba" d="M 297.5,79.5 C 296.514,81.4077 294.848,82.4077 292.5,82.5C 293.659,80.7497 295.326,79.7497 297.5,79.5 Z"/></g>
<g><path style="opacity:1" fill="#faf4f3" d="M 240.5,85.5 C 240.031,88.3933 241.031,90.3933 243.5,91.5C 243.328,92.4916 243.662,93.1583 244.5,93.5C 244.12,95.698 244.787,97.3646 246.5,98.5C 246.166,101.491 247.166,103.824 249.5,105.5C 249.557,106.609 249.89,107.609 250.5,108.5C 250.343,109.873 250.51,111.207 251,112.5C 252.427,115.1 253.927,117.6 255.5,120C 253.071,120.703 250.738,120.537 248.5,119.5C 248.5,119.167 248.5,118.833 248.5,118.5C 248.573,116.973 247.906,115.973 246.5,115.5C 246.461,114.417 246.127,113.417 245.5,112.5C 239.5,111.167 233.5,111.167 227.5,112.5C 226.754,113.736 226.421,115.07 226.5,116.5C 224.799,117.211 223.799,118.545 223.5,120.5C 221.265,120.795 219.265,120.461 217.5,119.5C 219.834,117.824 220.834,115.491 220.5,112.5C 222.834,110.824 223.834,108.491 223.5,105.5C 225.245,103.967 226.245,101.967 226.5,99.5C 226.5,99.1667 226.5,98.8333 226.5,98.5C 228.074,98.0629 229.241,97.0629 230,95.5C 230.93,90.5908 232.763,86.0908 235.5,82C 236.167,81.3333 236.833,81.3333 237.5,82C 238.163,83.5185 239.163,84.6851 240.5,85.5 Z"/></g>
<g><path style="opacity:1" fill="#f1e1de" d="M 265.5,79.5 C 264.791,80.404 263.791,80.7373 262.5,80.5C 262.5,93.8333 262.5,107.167 262.5,120.5C 261.504,107.01 261.171,93.3435 261.5,79.5C 262.833,79.5 264.167,79.5 265.5,79.5 Z"/></g>
<g><path style="opacity:1" fill="#dfb0aa" d="M 332.5,82.5 C 332.027,83.9063 331.027,84.573 329.5,84.5C 329.973,83.0937 330.973,82.427 332.5,82.5 Z"/></g>
<g><path style="opacity:1" fill="#c56e64" d="M 91.5,81.5 C 90.5806,84.0892 88.914,86.0892 86.5,87.5C 87.4194,84.9108 89.086,82.9108 91.5,81.5 Z"/></g>
<g><path style="opacity:1" fill="#e5c4bf" d="M 311.5,85.5 C 307.4,85.2367 303.4,85.5701 299.5,86.5C 301.048,85.2057 303.048,84.5391 305.5,84.5C 307.696,84.5046 309.696,84.838 311.5,85.5 Z"/></g>
<g><path style="opacity:1" fill="#daa6a0" d="M 134.5,83.5 C 135.906,83.9731 136.573,84.9731 136.5,86.5C 135.094,86.0269 134.427,85.0269 134.5,83.5 Z"/></g>
<g><path style="opacity:1" fill="#e0b7b2" d="M 191.5,79.5 C 191.5,81.5 191.5,83.5 191.5,85.5C 194.5,85.5 197.5,85.5 200.5,85.5C 200.5,85.8333 200.5,86.1667 200.5,86.5C 197.167,86.5 193.833,86.5 190.5,86.5C 190.198,83.9407 190.532,81.6074 191.5,79.5 Z"/></g>
<g><path style="opacity:1" fill="#dfb4af" d="M 216.5,79.5 C 217.468,81.6074 217.802,83.9407 217.5,86.5C 214.167,86.5 210.833,86.5 207.5,86.5C 207.5,86.1667 207.5,85.8333 207.5,85.5C 210.5,85.5 213.5,85.5 216.5,85.5C 216.5,83.5 216.5,81.5 216.5,79.5 Z"/></g>
<g><path style="opacity:1" fill="#bc5b4e" d="M 311.5,85.5 C 311.5,85.8333 311.5,86.1667 311.5,86.5C 306.341,86.1817 301.341,86.8483 296.5,88.5C 296.973,87.0937 297.973,86.427 299.5,86.5C 303.4,85.5701 307.4,85.2367 311.5,85.5 Z"/></g>
<g><path style="opacity:1" fill="#daa7a1" d="M 318.5,80.5 C 319.473,82.9479 319.806,85.6146 319.5,88.5C 318.209,88.7373 317.209,88.404 316.5,87.5C 318.344,85.7211 319.01,83.3878 318.5,80.5 Z"/></g>
<g><path style="opacity:1" fill="#ddaca5" d="M 329.5,84.5 C 328.92,86.7488 327.587,88.4154 325.5,89.5C 326.08,87.2512 327.413,85.5846 329.5,84.5 Z"/></g>
<g><path style="opacity:1" fill="#bc594b" d="M 350.5,86.5 C 345.633,86.1179 340.966,86.7846 336.5,88.5C 336.881,87.0689 337.881,86.2355 339.5,86C 343.358,85.1901 347.024,85.3567 350.5,86.5 Z"/></g>
<g><path style="opacity:1" fill="#e4bcb7" d="M 83.5,82.5 C 82.5268,85.6338 81.1934,88.6338 79.5,91.5C 79.0431,92.2975 78.3764,92.6309 77.5,92.5C 78.4977,88.4945 80.4977,85.1612 83.5,82.5 Z"/></g>
<g><path style="opacity:1" fill="#e5bfba" d="M 290.5,83.5 C 289.375,86.8566 287.375,89.5232 284.5,91.5C 285.738,88.2623 287.738,85.5956 290.5,83.5 Z"/></g>
<g><path style="opacity:1" fill="#e5bdb8" d="M 238.5,80.5 C 239.537,81.9303 240.204,83.597 240.5,85.5C 239.163,84.6851 238.163,83.5185 237.5,82C 236.833,81.3333 236.167,81.3333 235.5,82C 232.763,86.0908 230.93,90.5908 230,95.5C 229.241,97.0629 228.074,98.0629 226.5,98.5C 228.637,92.2293 231.304,86.2293 234.5,80.5C 235.833,79.1667 237.167,79.1667 238.5,80.5 Z"/></g>
<g><path style="opacity:1" fill="#e3b7b2" d="M 240.5,85.5 C 242.008,87.1815 243.008,89.1815 243.5,91.5C 241.031,90.3933 240.031,88.3933 240.5,85.5 Z"/></g>
<g><path style="opacity:1" fill="#b03e2f" d="M 350.5,86.5 C 353.849,87.1695 356.516,88.8361 358.5,91.5C 358.427,93.0269 359.094,94.0269 360.5,94.5C 362.968,101.588 361.302,107.588 355.5,112.5C 353.456,113.508 351.456,114.508 349.5,115.5C 346.14,115.384 342.807,115.051 339.5,114.5C 330.307,109.59 327.64,102.257 331.5,92.5C 332.774,90.5486 334.44,89.2152 336.5,88.5C 340.966,86.7846 345.633,86.1179 350.5,86.5 Z"/></g>
<g><path style="opacity:1" fill="#c26b60" d="M 190.5,86.5 C 193.833,86.5 197.167,86.5 200.5,86.5C 200.5,98.1667 200.5,109.833 200.5,121.5C 199.505,110.346 199.172,99.0123 199.5,87.5C 196.287,87.81 193.287,87.4767 190.5,86.5 Z"/></g>
<g><path style="opacity:1" fill="#bd5f53" d="M 207.5,86.5 C 210.833,86.5 214.167,86.5 217.5,86.5C 214.713,87.4767 211.713,87.81 208.5,87.5C 208.828,99.0123 208.495,110.346 207.5,121.5C 207.5,109.833 207.5,98.1667 207.5,86.5 Z"/></g>
<g><path style="opacity:1" fill="#dcaba4" d="M 364.5,87.5 C 365.906,87.9731 366.573,88.9731 366.5,90.5C 365.094,90.0269 364.427,89.0269 364.5,87.5 Z"/></g>
<g><path style="opacity:1" fill="#dba69f" d="M 94.5,87.5 C 94.2503,89.674 93.2503,91.3406 91.5,92.5C 91.5923,90.1523 92.5923,88.4856 94.5,87.5 Z"/></g>
<g><path style="opacity:1" fill="#d8a19a" d="M 143.5,88.5 C 144.906,88.9731 145.573,89.9731 145.5,91.5C 144.094,91.0269 143.427,90.0269 143.5,88.5 Z"/></g>
<g><path style="opacity:1" fill="#e7c9c5" d="M 200.5,86.5 C 201.495,97.6544 201.828,108.988 201.5,120.5C 203.167,120.5 204.833,120.5 206.5,120.5C 206.172,108.988 206.505,97.6544 207.5,86.5C 207.5,98.1667 207.5,109.833 207.5,121.5C 205.167,121.5 202.833,121.5 200.5,121.5C 200.5,109.833 200.5,98.1667 200.5,86.5 Z"/></g>
<g><path style="opacity:1" fill="#c16559" d="M 86.5,87.5 C 86.4077,89.8477 85.4077,91.5144 83.5,92.5C 83.7497,90.326 84.7497,88.6594 86.5,87.5 Z"/></g>
<g><path style="opacity:1" fill="#af3b2c" d="M 144.5,79.5 C 150.591,84.9216 154.591,91.5883 156.5,99.5C 156.96,102.977 157.293,106.477 157.5,110C 157.467,112.61 156.8,114.777 155.5,116.5C 154.25,110.013 151.917,104.013 148.5,98.5C 148.204,96.597 147.537,94.9303 146.5,93.5C 145.662,93.1583 145.328,92.4916 145.5,91.5C 145.573,89.9731 144.906,88.9731 143.5,88.5C 143.167,87.1667 142.833,85.8333 142.5,84.5C 141.263,81.8381 140.429,79.1715 140,76.5C 141.4,77.748 142.9,78.748 144.5,79.5 Z"/></g>
<g><path style="opacity:1" fill="#ae392a" d="M 95.5,81.5 C 95.1667,82.8333 94.8333,84.1667 94.5,85.5C 94.5,86.1667 94.5,86.8333 94.5,87.5C 92.5923,88.4856 91.5923,90.1523 91.5,92.5C 89.5969,95.9789 87.9302,99.6456 86.5,103.5C 86.0435,106.406 85.0435,109.072 83.5,111.5C 81.7868,112.635 81.1201,114.302 81.5,116.5C 80.5119,111.36 80.1786,106.026 80.5,100.5C 80.2627,99.209 80.596,98.209 81.5,97.5C 82.6737,96.4863 83.3404,95.153 83.5,93.5C 83.5,93.1667 83.5,92.8333 83.5,92.5C 85.4077,91.5144 86.4077,89.8477 86.5,87.5C 88.914,86.0892 90.5806,84.0892 91.5,81.5C 93.0174,81.4894 94.1841,80.8228 95,79.5C 95.4643,80.0944 95.631,80.7611 95.5,81.5 Z"/></g>
<g><path style="opacity:1" fill="#d3938b" d="M 136.5,88.5 C 138.245,90.0326 139.245,92.0326 139.5,94.5C 137.755,92.9674 136.755,90.9674 136.5,88.5 Z"/></g>
<g><path style="opacity:1" fill="#c97a70" d="M 159.5,91.5 C 160.906,91.9731 161.573,92.9731 161.5,94.5C 161.167,94.5 160.833,94.5 160.5,94.5C 159.89,93.609 159.557,92.609 159.5,91.5 Z"/></g>
<g><path style="opacity:1" fill="#ca7f75" d="M 358.5,91.5 C 359.906,91.9731 360.573,92.9731 360.5,94.5C 359.094,94.0269 358.427,93.0269 358.5,91.5 Z"/></g>
<g><path style="opacity:1" fill="#d29289" d="M 100.5,89.5 C 100.088,91.8867 99.0879,93.8867 97.5,95.5C 97.6206,92.8952 98.6206,90.8952 100.5,89.5 Z"/></g>
<g><path style="opacity:1" fill="#d59991" d="M 77.5,92.5 C 77.7406,94.8984 77.0739,96.8984 75.5,98.5C 75.2594,96.1016 75.9261,94.1016 77.5,92.5 Z"/></g>
<g><path style="opacity:1" fill="#bb5a51" d="M 238.5,97.5 C 237.298,96.5946 235.964,96.5946 234.5,97.5C 235.833,93.5 237.167,93.5 238.5,97.5 Z"/></g>
<g><path style="opacity:1" fill="#cc8077" d="M 83.5,93.5 C 83.3404,95.153 82.6737,96.4863 81.5,97.5C 81.1568,95.5168 81.8235,94.1834 83.5,93.5 Z"/></g>
<g><path style="opacity:1" fill="#d9a19a" d="M 146.5,93.5 C 147.537,94.9303 148.204,96.597 148.5,98.5C 146.787,97.3646 146.12,95.698 146.5,93.5 Z"/></g>
<g><path style="opacity:1" fill="#dba8a1" d="M 244.5,93.5 C 245.537,94.9303 246.204,96.597 246.5,98.5C 244.787,97.3646 244.12,95.698 244.5,93.5 Z"/></g>
<g><path style="opacity:1" fill="#d79f97" d="M 324.5,91.5 C 323.627,95.7685 323.294,100.102 323.5,104.5C 322.355,100.689 322.188,96.6888 323,92.5C 323.383,91.944 323.883,91.6107 324.5,91.5 Z"/></g>
<g><path style="opacity:1" fill="#d69e97" d="M 97.5,96.5 C 97.573,98.0269 96.9063,99.0269 95.5,99.5C 95.427,97.9731 96.0937,96.9731 97.5,96.5 Z"/></g>
<g><path style="opacity:1" fill="#e1b3ad" d="M 91.5,92.5 C 91.7603,97.2538 90.0936,100.92 86.5,103.5C 87.9302,99.6456 89.5969,95.9789 91.5,92.5 Z"/></g>
<g><path style="opacity:1" fill="#dfb1ab" d="M 160.5,94.5 C 160.833,94.5 161.167,94.5 161.5,94.5C 162.15,96.4352 162.483,98.4352 162.5,100.5C 160.926,98.8984 160.259,96.8984 160.5,94.5 Z"/></g>
<g><path style="opacity:1" fill="#dba9a3" d="M 234.5,97.5 C 234.573,99.0269 233.906,100.027 232.5,100.5C 232.427,98.9731 233.094,97.9731 234.5,97.5 Z"/></g>
<g><path style="opacity:1" fill="#e0b4af" d="M 290.5,94.5 C 290.221,99.3266 290.887,103.993 292.5,108.5C 291.542,108.047 290.708,107.381 290,106.5C 289.188,102.311 289.355,98.3112 290.5,94.5 Z"/></g>
<g><path style="opacity:1" fill="#d89f98" d="M 139.5,95.5 C 141.379,96.8952 142.379,98.8952 142.5,101.5C 140.755,99.9674 139.755,97.9674 139.5,95.5 Z"/></g>
<g><path style="opacity:1" fill="#d59b94" d="M 284.5,91.5 C 283.771,96.1304 283.437,100.797 283.5,105.5C 282.838,103.696 282.505,101.696 282.5,99.5C 282.287,96.4733 282.953,93.8066 284.5,91.5 Z"/></g>
<g><path style="opacity:1" fill="#ab3324" d="M 238.5,97.5 C 238.357,99.2624 238.691,100.929 239.5,102.5C 237.257,103.474 234.924,103.808 232.5,103.5C 232.5,103.167 232.5,102.833 232.5,102.5C 232.5,101.833 232.5,101.167 232.5,100.5C 233.906,100.027 234.573,99.0269 234.5,97.5C 235.964,96.5946 237.298,96.5946 238.5,97.5 Z"/></g>
<g><path style="opacity:1" fill="#b75145" d="M 238.5,97.5 C 239.931,98.7804 240.598,100.447 240.5,102.5C 239.666,103.748 238.333,104.415 236.5,104.5C 234.955,104.489 233.622,104.156 232.5,103.5C 234.924,103.808 237.257,103.474 239.5,102.5C 238.691,100.929 238.357,99.2624 238.5,97.5 Z"/></g>
<g><path style="opacity:1" fill="#d89f98" d="M 142.5,102.5 C 144.213,103.635 144.88,105.302 144.5,107.5C 143.463,106.07 142.796,104.403 142.5,102.5 Z"/></g>
<g><path style="opacity:1" fill="#d69c95" d="M 226.5,99.5 C 226.245,101.967 225.245,103.967 223.5,105.5C 223.755,103.033 224.755,101.033 226.5,99.5 Z"/></g>
<g><path style="opacity:1" fill="#ce8c84" d="M 232.5,102.5 C 232.5,102.833 232.5,103.167 232.5,103.5C 233.622,104.156 234.955,104.489 236.5,104.5C 238.333,104.415 239.666,103.748 240.5,102.5C 241.404,103.209 241.737,104.209 241.5,105.5C 238.167,105.5 234.833,105.5 231.5,105.5C 231.263,104.209 231.596,103.209 232.5,102.5 Z"/></g>
<g><path style="opacity:1" fill="#e1b7b2" d="M 246.5,98.5 C 248.065,100.509 249.065,102.843 249.5,105.5C 247.166,103.824 246.166,101.491 246.5,98.5 Z"/></g>
<g><path style="opacity:1" fill="#d9a59f" d="M 94.5,103.5 C 94.573,105.027 93.9063,106.027 92.5,106.5C 92.427,104.973 93.0937,103.973 94.5,103.5 Z"/></g>
<g><path style="opacity:1" fill="#e2b6b0" d="M 148.5,98.5 C 151.917,104.013 154.25,110.013 155.5,116.5C 152.067,110.96 149.733,104.96 148.5,98.5 Z"/></g>
<g><path style="opacity:1" fill="#d08f87" d="M 156.5,99.5 C 157.268,100.263 157.768,101.263 158,102.5C 158.499,107.489 158.666,112.489 158.5,117.5C 157.209,117.737 156.209,117.404 155.5,116.5C 156.8,114.777 157.467,112.61 157.5,110C 157.293,106.477 156.96,102.977 156.5,99.5 Z"/></g>
<g><path style="opacity:1" fill="#e0b4af" d="M 80.5,100.5 C 80.1786,106.026 80.5119,111.36 81.5,116.5C 81.2942,118.549 80.4609,118.883 79,117.5C 78.3333,112.167 78.3333,106.833 79,101.5C 79.3826,100.944 79.8826,100.611 80.5,100.5 Z"/></g>
<g><path style="opacity:1" fill="#cc857c" d="M 249.5,105.5 C 250.906,105.973 251.573,106.973 251.5,108.5C 251.167,108.5 250.833,108.5 250.5,108.5C 249.89,107.609 249.557,106.609 249.5,105.5 Z"/></g>
<g><path style="opacity:1" fill="#e7c6c1" d="M 75.5,100.5 C 75.2825,108.905 75.9492,117.238 77.5,125.5C 77.3701,127.375 77.0367,129.208 76.5,131C 76.1639,132.03 75.4972,132.53 74.5,132.5C 75.4469,130.266 76.1136,127.932 76.5,125.5C 74.5316,117.067 74.1983,108.733 75.5,100.5 Z"/></g>
<g><path style="opacity:1" fill="#e0b2ac" d="M 223.5,105.5 C 223.834,108.491 222.834,110.824 220.5,112.5C 220.935,109.843 221.935,107.509 223.5,105.5 Z"/></g>
<g><path style="opacity:1" fill="#cd847b" d="M 283.5,107.5 C 284.906,107.973 285.573,108.973 285.5,110.5C 284.094,110.027 283.427,109.027 283.5,107.5 Z"/></g>
<g><path style="opacity:1" fill="#deb1ac" d="M 145.5,109.5 C 146.906,109.973 147.573,110.973 147.5,112.5C 146.094,112.027 145.427,111.027 145.5,109.5 Z"/></g>
<g><path style="opacity:1" fill="#e6c1bc" d="M 250.5,108.5 C 250.833,108.5 251.167,108.5 251.5,108.5C 253.36,112.083 255.027,115.749 256.5,119.5C 254.721,121.344 252.388,122.01 249.5,121.5C 248.662,121.158 248.328,120.492 248.5,119.5C 250.738,120.537 253.071,120.703 255.5,120C 253.927,117.6 252.427,115.1 251,112.5C 250.51,111.207 250.343,109.873 250.5,108.5 Z"/></g>
<g><path style="opacity:1" fill="#d69b94" d="M 366.5,109.5 C 366.771,111.38 366.104,112.713 364.5,113.5C 364.66,111.847 365.326,110.514 366.5,109.5 Z"/></g>
<g><path style="opacity:1" fill="#c5746c" d="M 83.5,111.5 C 83.2041,113.403 82.5375,115.07 81.5,116.5C 81.1201,114.302 81.7868,112.635 83.5,111.5 Z"/></g>
<g><path style="opacity:1" fill="#e5c1bd" d="M 355.5,112.5 C 354.313,114.975 352.313,115.975 349.5,115.5C 351.456,114.508 353.456,113.508 355.5,112.5 Z"/></g>
<g><path style="opacity:1" fill="#dfb4af" d="M 339.5,114.5 C 342.807,115.051 346.14,115.384 349.5,115.5C 348.378,116.156 347.045,116.489 345.5,116.5C 343.117,116.639 341.117,115.972 339.5,114.5 Z"/></g>
<g><path style="opacity:1" fill="#d7a19b" d="M 316.5,112.5 C 317.209,111.596 318.209,111.263 319.5,111.5C 319.806,114.385 319.473,117.052 318.5,119.5C 319.01,116.612 318.344,114.279 316.5,112.5 Z"/></g>
<g><path style="opacity:1" fill="#cf8c83" d="M 246.5,115.5 C 247.906,115.973 248.573,116.973 248.5,118.5C 247.094,118.027 246.427,117.027 246.5,115.5 Z"/></g>
<g><path style="opacity:1" fill="#e4bfba" d="M 220.5,112.5 C 220.834,115.491 219.834,117.824 217.5,119.5C 217.935,116.843 218.935,114.509 220.5,112.5 Z"/></g>
<g><path style="opacity:1" fill="#c16459" d="M 363.5,114.5 C 363.167,117.5 361.5,119.167 358.5,119.5C 360.167,117.833 361.833,116.167 363.5,114.5 Z"/></g>
<g><path style="opacity:1" fill="#d29189" d="M 148.5,117.5 C 149.906,117.973 150.573,118.973 150.5,120.5C 149.094,120.027 148.427,119.027 148.5,117.5 Z"/></g>
<g><path style="opacity:1" fill="#ca7b71" d="M 226.5,116.5 C 226.25,118.674 225.25,120.341 223.5,121.5C 223.5,121.167 223.5,120.833 223.5,120.5C 223.799,118.545 224.799,117.211 226.5,116.5 Z"/></g>
<g><path style="opacity:1" fill="#d8a099" d="M 89.5,115.5 C 89.0879,117.887 88.0879,119.887 86.5,121.5C 86.6206,118.895 87.6206,116.895 89.5,115.5 Z"/></g>
<g><path style="opacity:1" fill="#ddafa9" d="M 217.5,119.5 C 219.265,120.461 221.265,120.795 223.5,120.5C 223.5,120.833 223.5,121.167 223.5,121.5C 221.076,121.808 218.743,121.474 216.5,120.5C 216.624,119.893 216.957,119.56 217.5,119.5 Z"/></g>
<g><path style="opacity:1" fill="#dfb4af" d="M 268.5,114.5 C 272.833,114.5 277.167,114.5 281.5,114.5C 281.5,116.833 281.5,119.167 281.5,121.5C 275.167,121.5 268.833,121.5 262.5,121.5C 262.5,121.167 262.5,120.833 262.5,120.5C 268.5,120.5 274.5,120.5 280.5,120.5C 280.5,118.833 280.5,117.167 280.5,115.5C 276.298,115.817 272.298,115.483 268.5,114.5 Z"/></g>
<g><path style="opacity:1" fill="#be6358" d="M 256.5,119.5 C 257.404,120.209 257.737,121.209 257.5,122.5C 254.615,122.806 251.948,122.473 249.5,121.5C 252.388,122.01 254.721,121.344 256.5,119.5 Z"/></g>
<g><path style="opacity:1" fill="#c47064" d="M 267.5,79.5 C 268.495,90.6544 268.828,101.988 268.5,113.5C 273.167,113.5 277.833,113.5 282.5,113.5C 282.5,116.5 282.5,119.5 282.5,122.5C 274.981,122.825 267.648,122.492 260.5,121.5C 261.167,121.5 261.833,121.5 262.5,121.5C 268.833,121.5 275.167,121.5 281.5,121.5C 281.5,119.167 281.5,116.833 281.5,114.5C 277.167,114.5 272.833,114.5 268.5,114.5C 267.505,103.012 267.172,91.3453 267.5,79.5 Z"/></g>
<g><path style="opacity:1" fill="#e7c4c0" d="M 291.5,117.5 C 294.269,118.437 296.936,119.604 299.5,121C 304.155,121.499 308.821,121.666 313.5,121.5C 308.35,122.651 303.016,122.817 297.5,122C 295.253,120.723 293.253,119.223 291.5,117.5 Z"/></g>
<g><path style="opacity:1" fill="#e8c9c4" d="M 335.5,120.5 C 341.13,121.292 346.797,121.625 352.5,121.5C 347.684,122.65 342.684,122.816 337.5,122C 336.584,121.722 335.918,121.222 335.5,120.5 Z"/></g>
<g><path style="opacity:1" fill="#d3948c" d="M 151.5,124.5 C 152.906,124.973 153.573,125.973 153.5,127.5C 152.094,127.027 151.427,126.027 151.5,124.5 Z"/></g>
<g><path style="opacity:1" fill="#d4978f" d="M 111.5,128.5 C 110.365,130.213 108.698,130.88 106.5,130.5C 107.93,129.463 109.597,128.796 111.5,128.5 Z"/></g>
<g><path style="opacity:1" fill="#c36a5f" d="M 141.5,134.5 C 143.898,134.259 145.898,134.926 147.5,136.5C 145.102,136.741 143.102,136.074 141.5,134.5 Z"/></g>
<g><path style="opacity:1" fill="#cd857c" d="M 94.5,134.5 C 94.0269,135.906 93.0269,136.573 91.5,136.5C 91.9731,135.094 92.9731,134.427 94.5,134.5 Z"/></g>
<g><path style="opacity:1" fill="#e8c6c2" d="M 120.5,134.5 C 123.992,134.446 126.992,135.446 129.5,137.5C 126.189,137.117 123.189,136.117 120.5,134.5 Z"/></g>
<g><path style="opacity:1" fill="#ecd0cc" d="M 98.5,133.5 C 95.4591,136.955 91.4591,138.622 86.5,138.5C 86.5,138.167 86.5,137.833 86.5,137.5C 88.1172,136.962 89.7839,136.629 91.5,136.5C 93.0269,136.573 94.0269,135.906 94.5,134.5C 95.8333,134.167 97.1667,133.833 98.5,133.5 Z"/></g>
<g><path style="opacity:1" fill="#bb5b4f" d="M 82.5,132.5 C 82.6427,134.262 82.3094,135.929 81.5,137.5C 83.0948,138.434 84.7615,138.434 86.5,137.5C 86.5,137.833 86.5,138.167 86.5,138.5C 84.6943,139.024 83.0276,139.691 81.5,140.5C 79.9519,140.179 79.2852,139.179 79.5,137.5C 80.3127,135.739 81.3127,134.072 82.5,132.5 Z"/></g>
<g><path style="opacity:1" fill="#b03e2f" d="M 120.5,134.5 C 123.189,136.117 126.189,137.117 129.5,137.5C 131.848,139.097 134.514,140.097 137.5,140.5C 137.918,141.222 138.584,141.722 139.5,142C 136.666,143.364 134,144.864 131.5,146.5C 130.432,147.434 129.099,147.768 127.5,147.5C 121.5,148.833 115.5,148.833 109.5,147.5C 108.07,146.463 106.403,145.796 104.5,145.5C 103.167,145.167 101.833,144.833 100.5,144.5C 100.047,143.542 99.3805,142.708 98.5,142C 100.32,141.8 101.653,140.966 102.5,139.5C 103.167,139.5 103.833,139.5 104.5,139.5C 106.403,139.204 108.07,138.537 109.5,137.5C 112.686,135.126 116.353,134.126 120.5,134.5 Z"/></g>
<g><path style="opacity:1" fill="#d08d85" d="M 147.5,136.5 C 149.967,136.755 151.967,137.755 153.5,139.5C 151.033,139.245 149.033,138.245 147.5,136.5 Z"/></g>
<g><path style="opacity:1" fill="#ddb0ac" d="M 79.5,137.5 C 79.2852,139.179 79.9519,140.179 81.5,140.5C 80.791,141.404 79.791,141.737 78.5,141.5C 78.2322,139.901 78.5655,138.568 79.5,137.5 Z"/></g>
<g><path style="opacity:1" fill="#ca7c73" d="M 109.5,137.5 C 108.07,138.537 106.403,139.204 104.5,139.5C 105.635,137.787 107.302,137.12 109.5,137.5 Z"/></g>
<g><path style="opacity:1" fill="#c97c75" d="M 156.5,136.5 C 158.104,137.287 158.771,138.62 158.5,140.5C 157.209,140.737 156.209,140.404 155.5,139.5C 156.239,139.631 156.906,139.464 157.5,139C 156.748,138.329 156.414,137.496 156.5,136.5 Z"/></g>
<g><path style="opacity:1" fill="#e5bdb7" d="M 74.5,132.5 C 74.631,137.375 72.9644,141.375 69.5,144.5C 70.6546,140.203 72.3213,136.203 74.5,132.5 Z"/></g>
<g><path style="opacity:1" fill="#cd867f" d="M 102.5,139.5 C 101.653,140.966 100.32,141.8 98.5,142C 99.3805,142.708 100.047,143.542 100.5,144.5C 98.0882,144.306 97.0882,142.973 97.5,140.5C 99.2161,140.371 100.883,140.038 102.5,139.5 Z"/></g>
<g><path style="opacity:1" fill="#e1b6b0" d="M 137.5,140.5 C 138.833,140.5 140.167,140.5 141.5,140.5C 141.719,141.675 141.386,142.675 140.5,143.5C 137.641,145.051 134.641,146.051 131.5,146.5C 134,144.864 136.666,143.364 139.5,142C 138.584,141.722 137.918,141.222 137.5,140.5 Z"/></g>
<g><path style="opacity:1" fill="#bd5c4e" d="M 151.5,145.5 C 151.5,145.833 151.5,146.167 151.5,146.5C 147.633,146.242 143.966,146.908 140.5,148.5C 143.43,144.872 147.096,143.872 151.5,145.5 Z"/></g>
<g><path style="opacity:1" fill="#e7c4bf" d="M 151.5,146.5 C 151.5,146.167 151.5,145.833 151.5,145.5C 154.393,145.031 156.393,146.031 157.5,148.5C 155.5,147.833 153.5,147.167 151.5,146.5 Z"/></g>
<g><path style="opacity:1" fill="#d2928a" d="M 87.5,145.5 C 86.0697,146.537 84.403,147.204 82.5,147.5C 83.6354,145.787 85.302,145.12 87.5,145.5 Z"/></g>
<g><path style="opacity:1" fill="#d19088" d="M 104.5,145.5 C 106.403,145.796 108.07,146.463 109.5,147.5C 107.302,147.88 105.635,147.213 104.5,145.5 Z"/></g>
<g><path style="opacity:1" fill="#e6c5c1" d="M 109.5,147.5 C 115.5,148.833 121.5,148.833 127.5,147.5C 127.389,148.117 127.056,148.617 126.5,149C 123.667,149.167 120.833,149.333 118,149.5C 114.748,149.481 111.915,148.814 109.5,147.5 Z"/></g>
<g><path style="opacity:1" fill="#e1b6b0" d="M 69.5,144.5 C 69.683,146.936 69.0163,149.103 67.5,151C 68.448,151.483 69.448,151.649 70.5,151.5C 69.469,152.249 68.3024,152.915 67,153.5C 66.5289,150.087 67.3622,147.087 69.5,144.5 Z"/></g>
<g><path style="opacity:1" fill="#d2928b" d="M 79.5,148.5 C 78.0697,149.537 76.403,150.204 74.5,150.5C 75.6354,148.787 77.302,148.12 79.5,148.5 Z"/></g>
<g><path style="opacity:1" fill="#e3bcb7" d="M 139.5,148.5 C 137.887,150.088 135.887,151.088 133.5,151.5C 134.895,149.621 136.895,148.621 139.5,148.5 Z"/></g>
<g><path style="opacity:1" fill="#d3958e" d="M 159.5,148.5 C 161.027,148.427 162.027,149.094 162.5,150.5C 160.973,150.573 159.973,149.906 159.5,148.5 Z"/></g>
<g><path style="opacity:1" fill="#e2b7b1" d="M 162.5,131.5 C 166.265,138.447 169.265,145.781 171.5,153.5C 169.62,153.771 168.287,153.104 167.5,151.5C 168.376,151.631 169.043,151.298 169.5,150.5C 167.352,146.261 165.352,141.928 163.5,137.5C 162.844,135.547 162.511,133.547 162.5,131.5 Z"/></g>
<g><path style="opacity:1" fill="#d8a39c" d="M 131.5,151.5 C 129.898,153.074 127.898,153.741 125.5,153.5C 127.102,151.926 129.102,151.259 131.5,151.5 Z"/></g>
<g><path style="opacity:1" fill="#d39991" d="M 437.5,173.5 C 437.5,174.167 437.5,174.833 437.5,175.5C 436.728,176.694 435.728,177.694 434.5,178.5C 434.75,176.326 435.75,174.659 437.5,173.5 Z"/></g>
<g><path style="opacity:1" fill="#f5f2f2" d="M 437.5,175.5 C 437.5,178.167 437.5,180.833 437.5,183.5C 435.167,183.5 432.833,183.5 430.5,183.5C 430.557,182.391 430.89,181.391 431.5,180.5C 432.29,179.599 433.29,178.932 434.5,178.5C 435.728,177.694 436.728,176.694 437.5,175.5 Z"/></g>
<g><path style="opacity:1" fill="#dfb5b0" d="M 431.5,180.5 C 430.89,181.391 430.557,182.391 430.5,183.5C 428.833,183.5 427.167,183.5 425.5,183.5C 427.456,182.508 429.456,181.508 431.5,180.5 Z"/></g>
</svg>
