<?xml version="1.0" encoding="iso-8859-1"?>
<!-- Generator: Adobe Illustrator 27.0.0, SVG Export Plug-In . SVG Version: 6.00 Build 0)  -->
<svg version="1.1" baseProfile="basic" id="Layer_1"
	 xmlns="http://www.w3.org/2000/svg" xmlns:xlink="http://www.w3.org/1999/xlink" x="0px" y="0px" viewBox="0 0 48 48"
	 xml:space="preserve">
<g>
	<path style="fill:#42A5F5;" d="M44,24c0,11.03-8.97,20-20,20S4,34.905,4,23.875C4,12.845,12.97,4,24,4v5C15.67,9,9,15.545,9,23.875
		c0,8.33,6.67,15.1,15,15.1S39,32.33,39,24H44z"/>
</g>
<line style="fill:#D50000;" x1="24.035" y1="29.98" x2="24.005" y2="30"/>
<g>
	<path style="fill:#FFC107;" d="M41,14L27.15,27.4l-1.36,1.36c-0.45,0.45-1.05,0.69-1.68,0.69h-0.06c-0.66-0.01-1.26-0.29-1.7-0.78
		L15.47,22L19,18.47l4.98,4.98L37,10L41,14z"/>
</g>
</svg>