<?xml version="1.0" encoding="UTF-8"?>
<!DOCTYPE svg PUBLIC "-//W3C//DTD SVG 1.1//EN" "http://www.w3.org/Graphics/SVG/1.1/DTD/svg11.dtd">
<svg xmlns="http://www.w3.org/2000/svg" version="1.1" width="162px" height="76px" style="shape-rendering:geometricPrecision; text-rendering:geometricPrecision; image-rendering:optimizeQuality; fill-rule:evenodd; clip-rule:evenodd" xmlns:xlink="http://www.w3.org/1999/xlink">
<g><path style="opacity:1" fill="#f6f5f0" d="M -0.5,-0.5 C 53.5,-0.5 107.5,-0.5 161.5,-0.5C 161.5,24.8333 161.5,50.1667 161.5,75.5C 107.5,75.5 53.5,75.5 -0.5,75.5C -0.5,50.1667 -0.5,24.8333 -0.5,-0.5 Z"/></g>
<g><path style="opacity:1" fill="#4d4b48" d="M 9.5,8.5 C 14.8333,8.5 20.1667,8.5 25.5,8.5C 25.5,9.83333 25.5,11.1667 25.5,12.5C 23.5,12.5 21.5,12.5 19.5,12.5C 19.5,17.8333 19.5,23.1667 19.5,28.5C 18.1667,28.5 16.8333,28.5 15.5,28.5C 15.5,23.1667 15.5,17.8333 15.5,12.5C 13.5,12.5 11.5,12.5 9.5,12.5C 9.5,11.1667 9.5,9.83333 9.5,8.5 Z"/></g>
<g><path style="opacity:1" fill="#565451" d="M 32.5,24.5 C 35.2869,25.4767 38.2869,25.81 41.5,25.5C 41.5,26.5 41.5,27.5 41.5,28.5C 36.8333,28.5 32.1667,28.5 27.5,28.5C 27.5,21.8333 27.5,15.1667 27.5,8.5C 29.1667,8.5 30.8333,8.5 32.5,8.5C 32.5,13.8333 32.5,19.1667 32.5,24.5 Z"/></g>
<g><path style="opacity:1" fill="#555350" d="M 47.5,13.5 C 54.0628,13.0675 57.3962,16.0675 57.5,22.5C 54.1016,22.1796 50.7683,22.513 47.5,23.5C 49.6046,25.8152 52.1046,26.1485 55,24.5C 56.726,25.6479 56.5593,26.8145 54.5,28C 45.6667,29.8333 42.1667,26.3333 44,17.5C 45.3756,16.2949 46.5423,14.9616 47.5,13.5 Z"/></g>
<g><path style="opacity:1" fill="#51504c" d="M 59.5,15.5 C 62.1287,14.0726 64.2954,14.7392 66,17.5C 67.5157,14.9938 69.6824,14.1605 72.5,15C 67.5099,19.4817 67.8432,23.8151 73.5,28C 70.113,28.8104 67.613,27.6437 66,24.5C 64.387,27.6437 61.887,28.8104 58.5,28C 60.1813,25.656 61.848,23.3227 63.5,21C 62.5175,18.8504 61.1842,17.0171 59.5,15.5 Z"/></g>
<g><path style="opacity:1" fill="#e1e0db" d="M 48.5,16.5 C 50.6648,16.1159 52.3315,16.7826 53.5,18.5C 51.5,19.8333 49.5,19.8333 47.5,18.5C 47.8627,17.8165 48.1961,17.1499 48.5,16.5 Z"/></g>
<g><path style="opacity:1" fill="#84827e" d="M 32.5,24.5 C 35.8333,24.5 39.1667,24.5 42.5,24.5C 42.7678,26.099 42.4345,27.4324 41.5,28.5C 41.5,27.5 41.5,26.5 41.5,25.5C 38.2869,25.81 35.2869,25.4767 32.5,24.5 Z"/></g>
<g><path style="opacity:1" fill="#4e4d4b" d="M 130.5,46.5 C 131.814,48.9151 132.481,51.7485 132.5,55C 132.167,57.8333 131.833,60.6667 131.5,63.5C 130.509,59.5546 130.176,55.5546 130.5,51.5C 126.029,51.3276 125.696,50.4943 129.5,49C 130.252,48.3292 130.586,47.4959 130.5,46.5 Z"/></g>
<g><path style="opacity:1" fill="#595957" d="M 143.5,46.5 C 144.814,48.9151 145.481,51.7485 145.5,55C 145.167,57.8333 144.833,60.6667 144.5,63.5C 143.509,59.5546 143.176,55.5546 143.5,51.5C 139.029,51.3276 138.696,50.4943 142.5,49C 143.252,48.3292 143.586,47.4959 143.5,46.5 Z"/></g>
<g><path style="opacity:1" fill="#595956" d="M 77.5,46.5 C 78.8142,48.9151 79.4809,51.7485 79.5,55C 79.1667,57.8333 78.8333,60.6667 78.5,63.5C 77.5091,59.5546 77.1758,55.5546 77.5,51.5C 71.7389,51.2912 71.4055,50.4578 76.5,49C 77.2524,48.3292 77.5858,47.4959 77.5,46.5 Z"/></g>
<g><path style="opacity:1" fill="#545452" d="M 14.5,53.5 C 14.2914,52.0783 13.7914,50.745 13,49.5C 12.5008,54.1548 12.3342,58.8215 12.5,63.5C 10.55,58.2649 9.88335,52.5982 10.5,46.5C 11.8333,46.5 13.1667,46.5 14.5,46.5C 15.4208,51.0138 16.9208,55.3471 19,59.5C 21.2009,55.7597 22.8676,51.7597 24,47.5C 25.0113,46.6634 26.1779,46.33 27.5,46.5C 27.8288,52.2055 27.4954,57.8722 26.5,63.5C 25.6725,59.2044 25.1725,54.8711 25,50.5C 23.4567,54.9655 21.6233,59.2988 19.5,63.5C 17.0808,60.5966 15.4141,57.2633 14.5,53.5 Z"/></g>
<g><path style="opacity:1" fill="#525250" d="M 61.5,46.5 C 64.6516,45.9586 67.1516,46.9586 69,49.5C 69.6667,52.8333 69.6667,56.1667 69,59.5C 66.1273,64.4077 62.794,64.741 59,60.5C 57.7179,55.2948 58.5513,50.6282 61.5,46.5 Z"/></g>
<g><path style="opacity:1" fill="#f0efea" d="M 61.5,48.5 C 63.7224,48.178 65.5557,48.8446 67,50.5C 67.6667,53.5 67.6667,56.5 67,59.5C 65,62.1667 63,62.1667 61,59.5C 60.3219,55.7789 60.4886,52.1122 61.5,48.5 Z"/></g>
<g><path style="opacity:1" fill="#bab9b5" d="M 14.5,53.5 C 13.8333,56.8333 13.1667,60.1667 12.5,63.5C 12.3342,58.8215 12.5008,54.1548 13,49.5C 13.7914,50.745 14.2914,52.0783 14.5,53.5 Z"/></g>
<g><path style="opacity:1" fill="#585755" d="M 44.5,51.5 C 46.4584,51.908 48.4584,52.2413 50.5,52.5C 49.3717,53.2621 48.2051,53.9288 47,54.5C 46.8214,57.5535 46.3214,60.5535 45.5,63.5C 44.5091,59.5546 44.1758,55.5546 44.5,51.5 Z"/></g>
<g><path style="opacity:1" fill="#5a5a57" d="M 101.5,46.5 C 107.499,46.002 109.666,48.6687 108,54.5C 105.407,56.5486 102.907,58.7152 100.5,61C 103.226,61.1816 105.893,61.6816 108.5,62.5C 105.232,63.487 101.898,63.8204 98.5,63.5C 98.3433,62.1266 98.51,60.7932 99,59.5C 101.333,57.5 103.667,55.5 106,53.5C 107.167,49.3333 105.667,47.8333 101.5,49C 100.929,50.2051 100.262,51.3717 99.5,52.5C 98.4117,49.9923 99.0784,47.9923 101.5,46.5 Z"/></g>
<g><path style="opacity:1" fill="#6b6b68" d="M 85.5,60.5 C 86.5,60.5 87.5,60.5 88.5,60.5C 88.8186,62.7505 88.3186,64.7505 87,66.5C 86.3828,65.5509 86.5494,64.7175 87.5,64C 86.0267,63.2904 85.3601,62.1238 85.5,60.5 Z"/></g>
<g><path style="opacity:1" fill="#656462" d="M 114.5,46.5 C 122.086,46.9402 124.919,50.9402 123,58.5C 121.923,63.1152 119.09,64.6152 114.5,63C 110.537,57.5011 110.537,52.0011 114.5,46.5 Z"/></g>
<g><path style="opacity:1" fill="#f4f3ee" d="M 115.5,48.5 C 117.144,48.2865 118.644,48.6198 120,49.5C 120.667,53.1667 120.667,56.8333 120,60.5C 118.333,61.8333 116.667,61.8333 115,60.5C 114.238,56.4126 114.404,52.4126 115.5,48.5 Z"/></g>
<g><path style="opacity:1" fill="#656563" d="M 33.5,50.5 C 36.1569,50.162 38.4902,50.8287 40.5,52.5C 41.1667,55.8333 41.8333,59.1667 42.5,62.5C 39.0241,63.0587 35.3574,63.2254 31.5,63C 30.0534,58.0939 32.0534,55.7606 37.5,56C 38.3366,54.9887 38.67,53.8221 38.5,52.5C 36.1727,52.2471 34.1727,52.9137 32.5,54.5C 32.1667,54.1667 31.8333,53.8333 31.5,53.5C 32.1925,52.4822 32.8592,51.4822 33.5,50.5 Z"/></g>
<g><path style="opacity:1" fill="#ebeae5" d="M 34.5,57.5 C 35.8333,57.5 37.1667,57.5 38.5,57.5C 38.5,58.8333 38.5,60.1667 38.5,61.5C 36.8333,61.5 35.1667,61.5 33.5,61.5C 33.4326,60.0413 33.7659,58.7079 34.5,57.5 Z"/></g>
</svg>
