<?xml version="1.0" encoding="UTF-8"?>
<!DOCTYPE svg PUBLIC "-//W3C//DTD SVG 1.1//EN" "http://www.w3.org/Graphics/SVG/1.1/DTD/svg11.dtd">
<svg xmlns="http://www.w3.org/2000/svg" version="1.1" width="348px" height="82px" style="shape-rendering:geometricPrecision; text-rendering:geometricPrecision; image-rendering:optimizeQuality; fill-rule:evenodd; clip-rule:evenodd" xmlns:xlink="http://www.w3.org/1999/xlink">
<g><path style="opacity:1" fill="#f6f5f0" d="M -0.5,-0.5 C 115.5,-0.5 231.5,-0.5 347.5,-0.5C 347.5,26.8333 347.5,54.1667 347.5,81.5C 231.5,81.5 115.5,81.5 -0.5,81.5C -0.5,54.1667 -0.5,26.8333 -0.5,-0.5 Z"/></g>
<g><path style="opacity:1" fill="#7d667b" d="M 70.5,16.5 C 69.8333,16.5 69.1667,16.5 68.5,16.5C 65.8333,16.5 63.1667,16.5 60.5,16.5C 60.6138,18.7179 61.2804,20.7179 62.5,22.5C 62.1667,23.5 61.5,24.1667 60.5,24.5C 59.5041,24.5858 58.6708,24.2524 58,23.5C 57.5702,20.8078 57.7369,18.1411 58.5,15.5C 61.2888,12.6399 64.6222,11.9733 68.5,13.5C 69.6119,14.2652 70.2786,15.2652 70.5,16.5 Z"/></g>
<g><path style="opacity:1" fill="#52504d" d="M 168.5,15.5 C 171.518,15.3354 174.518,15.502 177.5,16C 179.607,17.2635 180.607,19.0968 180.5,21.5C 177.685,21.1081 175.185,20.1081 173,18.5C 171.338,18.3875 170.171,19.0542 169.5,20.5C 173.358,22.7373 177.192,25.0706 181,27.5C 182.271,31.1661 181.104,33.6661 177.5,35C 170.652,37.3136 166.319,35.1469 164.5,28.5C 167.55,27.9232 169.55,29.0899 170.5,32C 173.14,32.839 175.473,32.339 177.5,30.5C 177.023,29.5224 176.357,28.6891 175.5,28C 166.073,27.1701 163.74,23.0035 168.5,15.5 Z"/></g>
<g><path style="opacity:1" fill="#53514d" d="M 284.5,15.5 C 287.579,15.2601 290.579,15.5934 293.5,16.5C 294.95,17.8498 295.617,19.5165 295.5,21.5C 292.685,21.1081 290.185,20.1081 288,18.5C 286.338,18.3875 285.171,19.0542 284.5,20.5C 288.241,22.5632 292.074,24.5632 296,26.5C 297.383,32.6235 294.883,35.6235 288.5,35.5C 283.983,35.7436 280.983,33.7436 279.5,29.5C 281.045,28.5481 282.712,28.2148 284.5,28.5C 284.33,29.8221 284.663,30.9887 285.5,32C 287.5,32.6667 289.5,32.6667 291.5,32C 292.022,31.4387 292.355,30.772 292.5,30C 288.554,28.1994 284.72,26.0328 281,23.5C 279.78,19.7069 280.947,17.0402 284.5,15.5 Z"/></g>
<g><path style="opacity:1" fill="#4d4b48" d="M 87.5,15.5 C 92.8333,15.5 98.1667,15.5 103.5,15.5C 103.5,16.8333 103.5,18.1667 103.5,19.5C 101.5,19.5 99.5,19.5 97.5,19.5C 97.5,24.8333 97.5,30.1667 97.5,35.5C 96.1667,35.5 94.8333,35.5 93.5,35.5C 93.5,30.1667 93.5,24.8333 93.5,19.5C 91.5,19.5 89.5,19.5 87.5,19.5C 87.5,18.1667 87.5,16.8333 87.5,15.5 Z"/></g>
<g><path style="opacity:1" fill="#54524f" d="M 105.5,15.5 C 110.179,15.3342 114.845,15.5008 119.5,16C 123.367,19.2488 123.367,22.5821 119.5,26C 122.186,28.5463 123.186,31.713 122.5,35.5C 121.167,35.5 119.833,35.5 118.5,35.5C 119.5,29.1667 116.833,26.5 110.5,27.5C 110.5,30.1667 110.5,32.8333 110.5,35.5C 108.833,35.5 107.167,35.5 105.5,35.5C 105.5,28.8333 105.5,22.1667 105.5,15.5 Z"/></g>
<g><path style="opacity:1" fill="#54524e" d="M 131.5,15.5 C 133.288,15.2148 134.955,15.5481 136.5,16.5C 138.833,22.5 141.167,28.5 143.5,34.5C 141.955,35.4519 140.288,35.7852 138.5,35.5C 138.5,34.1667 138.5,32.8333 138.5,31.5C 135.428,31.1826 132.428,31.5159 129.5,32.5C 128.625,34.7725 126.958,35.7725 124.5,35.5C 126.437,28.6896 128.77,22.0229 131.5,15.5 Z"/></g>
<g><path style="opacity:1" fill="#565451" d="M 145.5,15.5 C 147.722,15.178 149.556,15.8446 151,17.5C 153,20.8333 155,24.1667 157,27.5C 157.499,23.5138 157.666,19.5138 157.5,15.5C 159.167,15.5 160.833,15.5 162.5,15.5C 162.5,22.1667 162.5,28.8333 162.5,35.5C 160.801,35.6602 159.134,35.4935 157.5,35C 155.124,31.0813 152.624,27.248 150,23.5C 149.501,27.4862 149.334,31.4862 149.5,35.5C 148.167,35.5 146.833,35.5 145.5,35.5C 145.5,28.8333 145.5,22.1667 145.5,15.5 Z"/></g>
<g><path style="opacity:1" fill="#52504d" d="M 184.5,15.5 C 185.833,15.5 187.167,15.5 188.5,15.5C 188.5,20.8333 188.5,26.1667 188.5,31.5C 191.833,31.5 195.167,31.5 198.5,31.5C 198.351,32.552 198.517,33.552 199,34.5C 201.474,28.2434 203.641,21.9101 205.5,15.5C 207.467,15.2606 209.301,15.5939 211,16.5C 213.746,22.6538 215.913,28.9872 217.5,35.5C 214.507,34.2222 211.507,32.8889 208.5,31.5C 205.042,30.7741 203.375,32.1075 203.5,35.5C 197.167,35.5 190.833,35.5 184.5,35.5C 184.5,28.8333 184.5,22.1667 184.5,15.5 Z"/></g>
<g><path style="opacity:1" fill="#575552" d="M 215.5,15.5 C 221.167,15.5 226.833,15.5 232.5,15.5C 232.5,16.8333 232.5,18.1667 232.5,19.5C 230.5,19.5 228.5,19.5 226.5,19.5C 226.5,24.8333 226.5,30.1667 226.5,35.5C 224.833,35.5 223.167,35.5 221.5,35.5C 221.5,30.1667 221.5,24.8333 221.5,19.5C 219.5,19.5 217.5,19.5 215.5,19.5C 215.5,18.1667 215.5,16.8333 215.5,15.5 Z"/></g>
<g><path style="opacity:1" fill="#4b4946" d="M 248.5,26.5 C 245.167,26.5 241.833,26.5 238.5,26.5C 238.5,28.5 238.5,30.5 238.5,32.5C 242.167,32.5 245.833,32.5 249.5,32.5C 249.5,33.5 249.5,34.5 249.5,35.5C 244.5,35.5 239.5,35.5 234.5,35.5C 234.5,28.8333 234.5,22.1667 234.5,15.5C 239.5,15.5 244.5,15.5 249.5,15.5C 249.5,16.8333 249.5,18.1667 249.5,19.5C 245.833,19.5 242.167,19.5 238.5,19.5C 238.5,20.8333 238.5,22.1667 238.5,23.5C 241.833,23.5 245.167,23.5 248.5,23.5C 248.5,24.5 248.5,25.5 248.5,26.5 Z"/></g>
<g><path style="opacity:1" fill="#575551" d="M 252.5,15.5 C 257.297,15.1211 261.964,15.6211 266.5,17C 271.833,22.6667 271.833,28.3333 266.5,34C 261.964,35.3789 257.297,35.8789 252.5,35.5C 252.5,28.8333 252.5,22.1667 252.5,15.5 Z"/></g>
<g><path style="opacity:1" fill="#4d4b48" d="M 299.5,15.5 C 303.846,15.3343 308.179,15.501 312.5,16C 316.01,19.048 316.343,22.3813 313.5,26C 314.921,28.8614 315.921,31.8614 316.5,35C 314.866,35.4935 313.199,35.6602 311.5,35.5C 312.5,29.1667 309.833,26.5 303.5,27.5C 303.5,30.1667 303.5,32.8333 303.5,35.5C 302.167,35.5 300.833,35.5 299.5,35.5C 299.5,28.8333 299.5,22.1667 299.5,15.5 Z"/></g>
<g><path style="opacity:1" fill="#4c4a47" d="M 319.5,15.5 C 320.833,15.5 322.167,15.5 323.5,15.5C 323.5,20.8333 323.5,26.1667 323.5,31.5C 326.833,31.5 330.167,31.5 333.5,31.5C 333.5,32.8333 333.5,34.1667 333.5,35.5C 328.833,35.5 324.167,35.5 319.5,35.5C 319.5,28.8333 319.5,22.1667 319.5,15.5 Z"/></g>
<g><path style="opacity:1" fill="#dbd5d4" d="M 68.5,16.5 C 68.5,17.8333 68.5,19.1667 68.5,20.5C 66.7179,21.7196 64.7179,22.3862 62.5,22.5C 61.2804,20.7179 60.6138,18.7179 60.5,16.5C 63.1667,16.5 65.8333,16.5 68.5,16.5 Z"/></g>
<g><path style="opacity:1" fill="#deada8" d="M 27.5,14.5 C 27.2197,17.7205 25.5531,19.7205 22.5,20.5C 24.1709,18.3627 25.8375,16.3627 27.5,14.5 Z"/></g>
<g><path style="opacity:1" fill="#eeede8" d="M 110.5,19.5 C 112.857,19.3367 115.19,19.5034 117.5,20C 118.833,21.3333 118.833,22.6667 117.5,24C 115.19,24.4966 112.857,24.6633 110.5,24.5C 110.5,22.8333 110.5,21.1667 110.5,19.5 Z"/></g>
<g><path style="opacity:1" fill="#f6f5f0" d="M 257.5,19.5 C 262.827,18.1746 265.494,20.1746 265.5,25.5C 265.494,30.8254 262.827,32.8254 257.5,31.5C 257.5,27.5 257.5,23.5 257.5,19.5 Z"/></g>
<g><path style="opacity:1" fill="#ebeae5" d="M 303.5,18.5 C 305.527,18.3379 307.527,18.5045 309.5,19C 311.527,20.3957 311.86,22.0624 310.5,24C 308.19,24.4966 305.857,24.6633 303.5,24.5C 303.5,22.5 303.5,20.5 303.5,18.5 Z"/></g>
<g><path style="opacity:1" fill="#c29c59" d="M 68.5,16.5 C 69.1667,16.5 69.8333,16.5 70.5,16.5C 72.0481,16.8212 72.7148,17.8212 72.5,19.5C 71.1667,20.5 69.8333,21.5 68.5,22.5C 68.5,21.8333 68.5,21.1667 68.5,20.5C 68.5,19.1667 68.5,17.8333 68.5,16.5 Z"/></g>
<g><path style="opacity:1" fill="#e7e6e1" d="M 133.5,20.5 C 134.578,22.5394 135.578,24.706 136.5,27C 134.741,27.7975 133.074,27.6309 131.5,26.5C 132.372,24.5504 133.039,22.5504 133.5,20.5 Z"/></g>
<g><path style="opacity:1" fill="#e7e6e1" d="M 207.5,21.5 C 209.539,22.911 210.539,24.911 210.5,27.5C 209.167,27.5 207.833,27.5 206.5,27.5C 206.517,25.4352 206.85,23.4352 207.5,21.5 Z"/></g>
<g><path style="opacity:1" fill="#e4bbb6" d="M 22.5,20.5 C 21.5169,21.8503 20.1836,22.8503 18.5,23.5C 17.7542,24.7362 17.4208,26.0695 17.5,27.5C 16.3509,27.2089 15.6842,26.3756 15.5,25C 16.8366,22.1422 19.17,20.6422 22.5,20.5 Z"/></g>
<g><path style="opacity:1" fill="#a37f5c" d="M 68.5,20.5 C 68.5,21.1667 68.5,21.8333 68.5,22.5C 66.8984,24.0739 64.8984,24.7406 62.5,24.5C 62.1568,26.4832 62.8235,27.8166 64.5,28.5C 64.5,30.1667 64.5,31.8333 64.5,33.5C 64.1667,33.5 63.8333,33.5 63.5,33.5C 63.7593,31.0107 62.7593,29.344 60.5,28.5C 60.5,27.1667 60.5,25.8333 60.5,24.5C 61.5,24.1667 62.1667,23.5 62.5,22.5C 64.7179,22.3862 66.7179,21.7196 68.5,20.5 Z"/></g>
<g><path style="opacity:1" fill="#edbf55" d="M 72.5,19.5 C 74.3145,22.4074 76.9812,23.7407 80.5,23.5C 80.6085,25.5138 79.9418,27.1805 78.5,28.5C 76.9201,30.7171 75.9201,33.3837 75.5,36.5C 74.5832,35.8728 73.5832,35.5394 72.5,35.5C 71.4324,34.5655 70.099,34.2322 68.5,34.5C 67.1667,32.5 65.8333,30.5 64.5,28.5C 62.8235,27.8166 62.1568,26.4832 62.5,24.5C 64.8984,24.7406 66.8984,24.0739 68.5,22.5C 69.8333,21.5 71.1667,20.5 72.5,19.5 Z"/></g>
<g><path style="opacity:1" fill="#c2b7bb" d="M 58.5,15.5 C 57.7369,18.1411 57.5702,20.8078 58,23.5C 58.6708,24.2524 59.5041,24.5858 60.5,24.5C 60.5,25.8333 60.5,27.1667 60.5,28.5C 60.6495,29.552 60.4828,30.552 60,31.5C 56.8932,33.7135 55.3932,36.7135 55.5,40.5C 54.3871,39.0536 54.2204,37.3869 55,35.5C 56.7331,33.2769 58.2331,30.9435 59.5,28.5C 57.8006,26.2937 56.8006,23.7937 56.5,21C 56.3932,18.7794 57.0598,16.9461 58.5,15.5 Z"/></g>
<g><path style="opacity:1" fill="#e6c2c1" d="M 41.5,26.5 C 40.145,29.5177 37.8116,30.851 34.5,30.5C 32.9642,32.0251 31.9642,34.0251 31.5,36.5C 30.833,32.3525 30.1663,28.3525 29.5,24.5C 28.7659,23.2921 28.4326,21.9587 28.5,20.5C 32.7826,19.9894 36.7826,20.6561 40.5,22.5C 41.4287,23.6888 41.762,25.0222 41.5,26.5 Z"/></g>
<g><path style="opacity:1" fill="#b23b34" d="M 34.5,36.5 C 33.1667,34.5 33.1667,32.5 34.5,30.5C 37.8116,30.851 40.145,29.5177 41.5,26.5C 43.045,25.7703 43.8784,24.437 44,22.5C 44.2213,25.9431 45.2213,26.2764 47,23.5C 47.6667,25.5 47.6667,27.5 47,29.5C 46.586,29.0426 46.086,28.7093 45.5,28.5C 43.78,32.1014 41.4467,35.2681 38.5,38C 36.9343,38.2997 35.601,37.7997 34.5,36.5 Z"/></g>
<g><path style="opacity:1" fill="#a83129" d="M 28.5,34.5 C 28.5,35.1667 28.5,35.8333 28.5,36.5C 27.1667,37.5 25.8333,38.5 24.5,39.5C 22.236,36.9063 20.9027,33.9063 20.5,30.5C 20.0074,28.1944 19.6741,25.861 19.5,23.5C 21.5996,23.5228 23.4329,22.8561 25,21.5C 25.772,21.6448 26.4387,21.9781 27,22.5C 28.2662,26.3951 28.7662,30.3951 28.5,34.5 Z"/></g>
<g><path style="opacity:1" fill="#8f8d89" d="M 248.5,26.5 C 245.713,27.4767 242.713,27.81 239.5,27.5C 239.5,28.8333 239.5,30.1667 239.5,31.5C 243.042,31.1872 246.375,31.5206 249.5,32.5C 245.833,32.5 242.167,32.5 238.5,32.5C 238.5,30.5 238.5,28.5 238.5,26.5C 241.833,26.5 245.167,26.5 248.5,26.5 Z"/></g>
<g><path style="opacity:1" fill="#745b77" d="M 60.5,28.5 C 62.7593,29.344 63.7593,31.0107 63.5,33.5C 62.0812,36.1004 60.4146,38.6004 58.5,41C 57.4232,41.4696 56.4232,41.3029 55.5,40.5C 55.3932,36.7135 56.8932,33.7135 60,31.5C 60.4828,30.552 60.6495,29.552 60.5,28.5 Z"/></g>
<g><path style="opacity:1" fill="#c79e4f" d="M 64.5,28.5 C 65.8333,30.5 67.1667,32.5 68.5,34.5C 68.1667,35.1667 67.8333,35.8333 67.5,36.5C 66.5,36.5 65.5,36.5 64.5,36.5C 64.5,35.5 64.5,34.5 64.5,33.5C 64.5,31.8333 64.5,30.1667 64.5,28.5 Z"/></g>
<g><path style="opacity:1" fill="#e4ca8d" d="M 78.5,28.5 C 77.6487,31.1106 77.482,33.7773 78,36.5C 76.6439,37.3802 75.1439,37.7135 73.5,37.5C 73.1667,36.8333 72.8333,36.1667 72.5,35.5C 73.5832,35.5394 74.5832,35.8728 75.5,36.5C 75.9201,33.3837 76.9201,30.7171 78.5,28.5 Z"/></g>
<g><path style="opacity:1" fill="#d39391" d="M 29.5,24.5 C 30.1663,28.3525 30.833,32.3525 31.5,36.5C 31.9642,34.0251 32.9642,32.0251 34.5,30.5C 33.1667,32.5 33.1667,34.5 34.5,36.5C 34.0296,37.6935 33.0296,38.3601 31.5,38.5C 29.9704,38.3601 28.9704,37.6935 28.5,36.5C 28.5,35.8333 28.5,35.1667 28.5,34.5C 29.4794,31.3752 29.8128,28.0419 29.5,24.5 Z"/></g>
<g><path style="opacity:1" fill="#c2766f" d="M 20.5,30.5 C 20.9027,33.9063 22.236,36.9063 24.5,39.5C 25.5903,40.8571 26.9236,41.8571 28.5,42.5C 24.8296,42.6734 22.3296,41.0067 21,37.5C 20.5034,35.1902 20.3367,32.8568 20.5,30.5 Z"/></g>
<g><path style="opacity:1" fill="#cd9b94" d="M 48.5,30.5 C 48.6641,33.1873 48.4974,35.854 48,38.5C 46.4157,39.8613 44.5824,40.528 42.5,40.5C 43.8484,39.3994 45.3484,38.3994 47,37.5C 47.1862,34.9644 47.6862,32.631 48.5,30.5 Z"/></g>
<g><path style="opacity:1" fill="#8c7687" d="M 68.5,34.5 C 70.099,34.2322 71.4324,34.5655 72.5,35.5C 72.8333,36.1667 73.1667,36.8333 73.5,37.5C 73.6168,39.4835 72.9501,41.1502 71.5,42.5C 69.1671,41.1678 67.8337,39.1678 67.5,36.5C 67.8333,35.8333 68.1667,35.1667 68.5,34.5 Z"/></g>
<g><path style="opacity:1" fill="#b84d47" d="M 48.5,30.5 C 47.6862,32.631 47.1862,34.9644 47,37.5C 45.3484,38.3994 43.8484,39.3994 42.5,40.5C 40.174,42.4444 37.5073,43.7777 34.5,44.5C 32.1595,44.6369 30.1595,43.9702 28.5,42.5C 26.9236,41.8571 25.5903,40.8571 24.5,39.5C 25.8333,38.5 27.1667,37.5 28.5,36.5C 28.9704,37.6935 29.9704,38.3601 31.5,38.5C 33.0296,38.3601 34.0296,37.6935 34.5,36.5C 35.601,37.7997 36.9343,38.2997 38.5,38C 41.4467,35.2681 43.78,32.1014 45.5,28.5C 46.086,28.7093 46.586,29.0426 47,29.5C 47.6667,27.5 47.6667,25.5 47,23.5C 45.2213,26.2764 44.2213,25.9431 44,22.5C 43.8784,24.437 43.045,25.7703 41.5,26.5C 41.762,25.0222 41.4287,23.6888 40.5,22.5C 36.7826,20.6561 32.7826,19.9894 28.5,20.5C 28.4326,21.9587 28.7659,23.2921 29.5,24.5C 29.8128,28.0419 29.4794,31.3752 28.5,34.5C 28.7662,30.3951 28.2662,26.3951 27,22.5C 26.4387,21.9781 25.772,21.6448 25,21.5C 23.4329,22.8561 21.5996,23.5228 19.5,23.5C 19.6741,25.861 20.0074,28.1944 20.5,30.5C 18.5,30.5 17.5,29.5 17.5,27.5C 17.4208,26.0695 17.7542,24.7362 18.5,23.5C 20.1836,22.8503 21.5169,21.8503 22.5,20.5C 25.5531,19.7205 27.2197,17.7205 27.5,14.5C 28.7134,13.4253 30.2134,12.7586 32,12.5C 36.1615,15.1621 40.6615,17.1621 45.5,18.5C 48.1152,22.0297 49.1152,26.0297 48.5,30.5 Z"/></g>
<g><path style="opacity:1" fill="#b04741" d="M 33.5,24.5 C 38.9434,24.2013 39.6101,25.5346 35.5,28.5C 33.8888,27.6798 33.2222,26.3464 33.5,24.5 Z"/></g>
<g><path style="opacity:1" fill="#9b251b" d="M 29.5,16.5 C 33.5443,15.9579 37.211,16.7912 40.5,19C 36.1667,19.6667 31.8333,19.6667 27.5,19C 28.3805,18.2917 29.0472,17.4584 29.5,16.5 Z"/></g>
<g><path style="opacity:1" fill="#575755" d="M 68.5,53.5 C 73.8351,53.005 76.3351,55.3384 76,60.5C 73.2605,63.1176 70.4272,65.6176 67.5,68C 70.5535,68.1786 73.5535,68.6786 76.5,69.5C 72.8927,70.4892 69.226,70.8226 65.5,70.5C 65.7898,66.0388 68.1231,63.2055 72.5,62C 75.4617,58.7516 74.7951,56.585 70.5,55.5C 68.7284,56.3599 67.3951,57.6932 66.5,59.5C 66.1667,59 65.8333,58.5 65.5,58C 66.3146,56.3566 67.3146,54.8566 68.5,53.5 Z"/></g>
<g><path style="opacity:1" fill="#575755" d="M 108.5,53.5 C 113.835,53.005 116.335,55.3384 116,60.5C 113.261,63.1176 110.427,65.6176 107.5,68C 110.553,68.1786 113.553,68.6786 116.5,69.5C 112.893,70.4892 109.226,70.8226 105.5,70.5C 105.79,66.0388 108.123,63.2055 112.5,62C 115.462,58.7516 114.795,56.585 110.5,55.5C 108.728,56.3599 107.395,57.6932 106.5,59.5C 106.167,59 105.833,58.5 105.5,58C 106.315,56.3566 107.315,54.8566 108.5,53.5 Z"/></g>
<g><path style="opacity:1" fill="#5e5d5b" d="M 81.5,53.5 C 89.0859,53.9402 91.9192,57.9402 90,65.5C 88.8765,70.1147 86.0431,71.6147 81.5,70C 79.7397,69.0347 79.4063,67.868 80.5,66.5C 85.0541,69.8436 87.2208,68.8436 87,63.5C 80.9692,65.14 78.3026,62.8066 79,56.5C 80.045,55.6266 80.8783,54.6266 81.5,53.5 Z"/></g>
<g><path style="opacity:1" fill="#f3f2ed" d="M 82.5,55.5 C 87.3276,55.3852 88.6609,57.5519 86.5,62C 81.5705,62.427 80.2372,60.2604 82.5,55.5 Z"/></g>
<g><path style="opacity:1" fill="#5a5a57" d="M 135.5,53.5 C 141.499,53.002 143.666,55.6687 142,61.5C 139.407,63.5486 136.907,65.7152 134.5,68C 137.226,68.1816 139.893,68.6816 142.5,69.5C 139.232,70.487 135.898,70.8204 132.5,70.5C 132.343,69.1266 132.51,67.7932 133,66.5C 135.333,64.5 137.667,62.5 140,60.5C 141.167,56.3333 139.667,54.8333 135.5,56C 134.929,57.2051 134.262,58.3717 133.5,59.5C 132.412,56.9923 133.078,54.9923 135.5,53.5 Z"/></g>
<g><path style="opacity:1" fill="#5c5c59" d="M 148.5,53.5 C 154.487,52.9773 156.487,55.4773 154.5,61C 158.387,68.465 156.054,71.465 147.5,70C 145.579,68.7592 145.246,67.2592 146.5,65.5C 148.088,68.2571 150.421,69.0904 153.5,68C 155.382,64.0242 154.048,61.8575 149.5,61.5C 153.021,60.85 154.021,59.0166 152.5,56C 149.173,54.8365 147.173,56.0032 146.5,59.5C 146.167,59 145.833,58.5 145.5,58C 146.315,56.3566 147.315,54.8566 148.5,53.5 Z"/></g>
<g><path style="opacity:1" fill="#595957" d="M 16.5,53.5 C 17.8221,53.33 18.9887,53.6634 20,54.5C 22.1705,58.8441 24.8372,62.8441 28,66.5C 28.1725,62.1289 28.6725,57.7956 29.5,53.5C 30.4954,59.1278 30.8288,64.7945 30.5,70.5C 29.1779,70.67 28.0113,70.3366 27,69.5C 24.3333,65.5 21.6667,61.5 19,57.5C 18.8275,61.8711 18.3275,66.2044 17.5,70.5C 16.5046,64.8722 16.1712,59.2055 16.5,53.5 Z"/></g>
<g><path style="opacity:1" fill="#5b5b59" d="M 46.5,59.5 C 47.209,58.596 48.209,58.2627 49.5,58.5C 50.7468,69.6231 52.5801,69.9564 55,59.5C 55.7175,58.5494 56.5509,58.3828 57.5,59C 55.4703,62.5891 54.137,66.4224 53.5,70.5C 52.5,70.5 51.5,70.5 50.5,70.5C 49.9347,66.4632 48.6013,62.7966 46.5,59.5 Z"/></g>
<g><path style="opacity:1" fill="#5a5a57" d="M 122.5,53.5 C 126.182,52.7253 128.682,54.0586 130,57.5C 131.193,62.1519 130.36,66.3186 127.5,70C 124.653,70.9439 122.153,70.4439 120,68.5C 119.333,64.5 119.333,60.5 120,56.5C 120.698,55.3094 121.531,54.3094 122.5,53.5 Z"/></g>
<g><path style="opacity:1" fill="#eeede8" d="M 122.5,55.5 C 125.238,54.9648 127.072,55.9648 128,58.5C 128.667,60.8333 128.667,63.1667 128,65.5C 126.776,68.473 124.776,69.1397 122,67.5C 121.238,63.4126 121.404,59.4126 122.5,55.5 Z"/></g>
<g><path style="opacity:1" fill="#60605e" d="M 35.5,58.5 C 45.2669,58.0726 47.6002,61.9059 42.5,70C 33.4735,70.4618 31.1401,66.6284 35.5,58.5 Z"/></g>
<g><path style="opacity:1" fill="#f1f0eb" d="M 37.5,59.5 C 42.3833,60.4655 43.7166,63.2988 41.5,68C 35.9202,69.261 34.0868,67.0943 36,61.5C 36.7172,60.9558 37.2172,60.2891 37.5,59.5 Z"/></g>
<g><path style="opacity:1" fill="#4d4d4b" d="M 93.5,68.5 C 95.3442,69.2039 95.8442,70.5372 95,72.5C 94.2086,71.255 93.7086,69.9217 93.5,68.5 Z"/></g>
</svg>
