<svg width="220" height="32" viewBox="0 0 220 32" fill="none" xmlns="http://www.w3.org/2000/svg">
<rect x="0.25" y="0.25" width="51.5" height="31.5" rx="1.75" fill="white"/>
<rect x="0.25" y="0.25" width="51.5" height="31.5" rx="1.75" stroke="#EFEFEF" stroke-width="0.5"/>
<path d="M25.3977 10.212L22.9149 21.8186H19.9126L22.3963 10.212H25.3977ZM38.0299 17.706L39.6102 13.3481L40.5197 17.706H38.0299ZM41.38 21.8186H44.1569L41.7329 10.212H39.1699C38.5935 10.212 38.1075 10.5475 37.8922 11.0635L33.3866 21.8186H36.5393L37.1654 20.0848H41.0175L41.38 21.8186ZM33.5434 18.029C33.5562 14.9658 29.3075 14.797 29.3367 13.4286C29.3458 13.0122 29.7424 12.5694 30.6102 12.4563C31.0405 12.3999 32.2258 12.3569 33.5703 12.9757L34.0976 10.5146C33.3752 10.2524 32.4457 10 31.2891 10C28.3214 10 26.2329 11.5777 26.2153 13.8367C26.1961 15.5076 27.706 16.4399 28.8435 16.9951C30.0137 17.5638 30.4063 17.9291 30.4019 18.4378C30.3936 19.2164 29.4686 19.5601 28.6041 19.5735C27.0951 19.5967 26.2193 19.1652 25.5212 18.8406L24.977 21.3833C25.6785 21.7052 26.9734 21.986 28.316 22C31.4704 22 33.5336 20.442 33.5434 18.029ZM21.1077 10.212L16.2431 21.8186H13.0693L10.6755 12.556C10.5301 11.9854 10.4038 11.7765 9.96185 11.5362C9.24025 11.1446 8.04842 10.7774 7 10.5493L7.07124 10.212H12.1802C12.8314 10.212 13.4167 10.6455 13.5646 11.3955L14.8289 18.1117L17.9536 10.212H21.1077Z" fill="#1434CB"/>
<rect x="56.25" y="0.25" width="51.5" height="31.5" rx="1.75" fill="white"/>
<rect x="56.25" y="0.25" width="51.5" height="31.5" rx="1.75" stroke="#EFEFEF" stroke-width="0.5"/>
<path fill-rule="evenodd" clip-rule="evenodd" d="M99.7427 22.5216V22.99H99.6649V22.6354L99.5435 22.9398H99.4595L99.3381 22.6354V22.99H99.2572V22.5216H99.3692L99.5 22.8562L99.6307 22.5216H99.7427ZM99.0231 22.6019V22.99H98.9546V22.6019H98.8083V22.5216H99.1787V22.6019H99.0231Z" fill="#F79E1B"/>
<rect x="76.7136" y="7.35217" width="10.8054" height="17.2954" fill="#FF5F00"/>
<path d="M77.8713 15.9973C77.8686 12.6228 79.4493 9.43457 82.1579 7.35113C77.5564 3.80714 70.9484 4.32335 66.9779 8.53699C63.0074 12.7506 63.0074 19.247 66.9779 23.4606C70.9484 27.6743 77.5564 28.1905 82.1579 24.6465C79.4485 22.5624 77.8677 19.3728 77.8713 15.9973Z" fill="#EB001B"/>
<path d="M100.382 16.0015C100.382 20.2126 97.9288 24.054 94.0638 25.8942C90.1988 27.7344 85.6009 27.2504 82.2229 24.6477C84.9303 22.5625 86.5112 19.3746 86.5112 16C86.5112 12.6254 84.9303 9.43753 82.2229 7.35232C85.6009 4.74965 90.1988 4.26563 94.0638 6.10584C97.9288 7.94605 100.382 11.7874 100.382 15.9985V16.0015Z" fill="#F79E1B"/>
<rect x="112.25" y="0.25" width="51.5" height="31.5" rx="1.75" fill="white"/>
<rect x="112.25" y="0.25" width="51.5" height="31.5" rx="1.75" stroke="#EFEFEF" stroke-width="0.5"/>
<rect x="119.25" y="7" width="37.5" height="19" fill="white"/>
<path d="M153.618 25.376L151.954 23.52L150.226 25.376H146.834H139.538V16.736H136.146L140.37 7.072H144.466L145.938 10.4V7.072H151.058L151.954 9.568L152.85 7.072H156.754V5.6C156.754 4.704 156.05 4 155.154 4H120.85C119.954 4 119.25 4.704 119.25 5.6V26.4C119.25 27.296 119.954 28 120.85 28H155.154C156.05 28 156.754 27.296 156.754 26.4V25.376H153.618Z" fill="#0071CE"/>
<path d="M154.066 24.352H156.754L153.234 20.576L156.754 16.864H154.13L151.89 19.296L149.714 16.864H147.026L150.61 20.64L147.026 24.352H149.65L151.89 21.92L154.066 24.352Z" fill="#0071CE"/>
<path d="M142.738 22.624V21.472H146.962V19.744H142.738V18.592H147.026V16.864H140.69V24.352H147.026V22.624H142.738Z" fill="#0071CE"/>
<path d="M154.77 15.776H156.69V8.224L153.618 8.288L151.954 12.96L150.226 8.288H147.026V15.776H149.074V10.528L150.994 15.776H152.786L154.77 10.528V15.776Z" fill="#0071CE"/>
<path d="M143.762 8.28796H141.138L137.81 15.776H140.05L140.69 14.304H144.146L144.786 15.776H147.09L143.762 8.28796ZM141.394 12.576L142.418 10.144L143.442 12.576H141.394Z" fill="#0071CE"/>
<path d="M154.898 20.3841L156.754 22.4321V18.3361L154.898 20.3841Z" fill="#0071CE"/>
<rect x="168.25" y="0.25" width="51.5" height="31.5" rx="1.75" fill="white"/>
<rect x="168.25" y="0.25" width="51.5" height="31.5" rx="1.75" stroke="#EFEFEF" stroke-width="0.5"/>
<path d="M212.173 24.3555C212.173 27.4666 209.64 30 206.528 30H175.813V7.64448C175.813 4.53338 178.347 2 181.458 2H212.173V24.3555Z" fill="white"/>
<path d="M202.172 18.6221H204.506C204.572 18.6221 204.728 18.5999 204.795 18.5999C205.239 18.511 205.617 18.111 205.617 17.5554C205.617 17.0222 205.239 16.6221 204.795 16.5111C204.728 16.4888 204.595 16.4888 204.506 16.4888H202.172V18.6221Z" fill="url(#paint0_linear_907_5320)"/>
<path d="M204.239 3.88892C202.017 3.88892 200.194 5.68894 200.194 7.93333V12.1334H205.906C206.039 12.1334 206.195 12.1334 206.306 12.1555C207.595 12.2221 208.551 12.8889 208.551 14.0445C208.551 14.9555 207.906 15.7333 206.706 15.8889V15.9332C208.017 16.0221 209.017 16.7555 209.017 17.8889C209.017 19.1111 207.906 19.911 206.439 19.911H200.172V28.1334H206.106C208.328 28.1334 210.151 26.3333 210.151 24.0888V3.88892H204.239Z" fill="url(#paint1_linear_907_5320)"/>
<path d="M205.328 14.311C205.328 13.7778 204.95 13.4222 204.506 13.3555C204.461 13.3555 204.35 13.3333 204.284 13.3333H202.172V15.2889H204.284C204.35 15.2889 204.484 15.2889 204.506 15.2666C204.95 15.2 205.328 14.8444 205.328 14.311Z" fill="url(#paint2_linear_907_5320)"/>
<path d="M181.881 3.88892C179.658 3.88892 177.836 5.68894 177.836 7.93333V17.9111C178.969 18.4666 180.147 18.8222 181.325 18.8222C182.725 18.8222 183.481 17.9778 183.481 16.8223V12.1111H186.948V16.8C186.948 18.6221 185.815 20.1111 181.97 20.1111C179.636 20.1111 177.813 19.6 177.813 19.6V28.1111H183.748C185.97 28.1111 187.792 26.311 187.792 24.0667V3.88892H181.881Z" fill="url(#paint3_linear_907_5320)"/>
<path d="M193.06 3.88892C190.837 3.88892 189.015 5.68894 189.015 7.93333V13.2222C190.037 12.3555 191.815 11.7999 194.682 11.9333C196.215 12 197.86 12.4222 197.86 12.4222V14.1334C197.038 13.7112 196.06 13.3333 194.793 13.2444C192.615 13.0889 191.304 14.1555 191.304 16.0221C191.304 17.9111 192.615 18.9777 194.793 18.7999C196.06 18.711 197.038 18.3111 197.86 17.9111V19.6222C197.86 19.6222 196.238 20.0444 194.682 20.1111C191.815 20.2444 190.037 19.6888 189.015 18.8222V28.1555H194.949C197.171 28.1555 198.994 26.3555 198.994 24.1111V3.88892H193.06Z" fill="url(#paint4_linear_907_5320)"/>
<defs>
<linearGradient id="paint0_linear_907_5320" x1="200.19" y1="20.6505" x2="210.178" y2="20.6505" gradientUnits="userSpaceOnUse">
<stop stop-color="#007940"/>
<stop offset="0.23" stop-color="#00873F"/>
<stop offset="0.74" stop-color="#40A737"/>
<stop offset="1" stop-color="#5CB531"/>
</linearGradient>
<linearGradient id="paint1_linear_907_5320" x1="200.19" y1="28.1347" x2="210.178" y2="28.1347" gradientUnits="userSpaceOnUse">
<stop stop-color="#007940"/>
<stop offset="0.23" stop-color="#00873F"/>
<stop offset="0.74" stop-color="#40A737"/>
<stop offset="1" stop-color="#5CB531"/>
</linearGradient>
<linearGradient id="paint2_linear_907_5320" x1="200.19" y1="17.4029" x2="210.178" y2="17.4029" gradientUnits="userSpaceOnUse">
<stop stop-color="#007940"/>
<stop offset="0.23" stop-color="#00873F"/>
<stop offset="0.74" stop-color="#40A737"/>
<stop offset="1" stop-color="#5CB531"/>
</linearGradient>
<linearGradient id="paint3_linear_907_5320" x1="177.831" y1="28.3102" x2="187.973" y2="28.3102" gradientUnits="userSpaceOnUse">
<stop stop-color="#1F286F"/>
<stop offset="0.48" stop-color="#004E94"/>
<stop offset="0.83" stop-color="#0066B1"/>
<stop offset="1" stop-color="#006FBC"/>
</linearGradient>
<linearGradient id="paint4_linear_907_5320" x1="188.957" y1="27.978" x2="198.807" y2="27.978" gradientUnits="userSpaceOnUse">
<stop stop-color="#6C2C2F"/>
<stop offset="0.17" stop-color="#882730"/>
<stop offset="0.57" stop-color="#BE1833"/>
<stop offset="0.86" stop-color="#DC0436"/>
<stop offset="1" stop-color="#E60039"/>
</linearGradient>
</defs>
</svg>
