<?xml version="1.0" encoding="UTF-8"?>
<!DOCTYPE svg PUBLIC "-//W3C//DTD SVG 1.1//EN" "http://www.w3.org/Graphics/SVG/1.1/DTD/svg11.dtd">
<svg xmlns="http://www.w3.org/2000/svg" version="1.1" width="220px" height="96px" style="shape-rendering:geometricPrecision; text-rendering:geometricPrecision; image-rendering:optimizeQuality; fill-rule:evenodd; clip-rule:evenodd" xmlns:xlink="http://www.w3.org/1999/xlink">
<g><path style="opacity:1" fill="#fdfdfe" d="M -0.5,-0.5 C 72.8333,-0.5 146.167,-0.5 219.5,-0.5C 219.5,31.5 219.5,63.5 219.5,95.5C 146.167,95.5 72.8333,95.5 -0.5,95.5C -0.5,63.5 -0.5,31.5 -0.5,-0.5 Z"/></g>
<g><path style="opacity:1" fill="#48a9f8" d="M 24.5,9.5 C 39.837,9.33341 55.1703,9.50008 70.5,10C 69.4067,12.4433 68.4067,14.9433 67.5,17.5C 52.1667,18.8333 36.8333,18.8333 21.5,17.5C 22.5084,14.8048 23.5084,12.1381 24.5,9.5 Z"/></g>
<g><path style="opacity:1" fill="#92d3fb" d="M 19.5,23.5 C 34.6718,22.1736 50.0052,22.1736 65.5,23.5C 65.3764,24.1067 65.0431,24.44 64.5,24.5C 49.676,23.5039 34.676,23.1706 19.5,23.5 Z"/></g>
<g><path style="opacity:1" fill="#8895c7" d="M 122.5,23.5 C 137.005,22.1739 151.672,22.1739 166.5,23.5C 166.376,24.1067 166.043,24.44 165.5,24.5C 151.343,23.5041 137.01,23.1707 122.5,23.5 Z"/></g>
<g><path style="opacity:1" fill="#4babf8" d="M 19.5,23.5 C 34.676,23.1706 49.676,23.5039 64.5,24.5C 63.6295,27.1123 62.9628,29.779 62.5,32.5C 47.1522,32.8327 31.8189,32.4994 16.5,31.5C 17.5084,28.8048 18.5084,26.1381 19.5,23.5 Z"/></g>
<g><path style="opacity:1" fill="#172e91" d="M 75.5,23.5 C 79.5,23.5 83.5,23.5 87.5,23.5C 90.6821,35.8969 94.0155,48.2302 97.5,60.5C 101.845,48.4449 105.178,36.1116 107.5,23.5C 111.555,23.1758 115.555,23.5091 119.5,24.5C 113.699,41.7358 108.199,59.0691 103,76.5C 99.27,77.4601 95.4367,77.7935 91.5,77.5C 86.4786,59.416 81.1453,41.416 75.5,23.5 Z"/></g>
<g><path style="opacity:1" fill="#112b90" d="M 122.5,23.5 C 137.01,23.1707 151.343,23.5041 165.5,24.5C 164.434,26.7014 163.767,29.0347 163.5,31.5C 158.5,31.5 153.5,31.5 148.5,31.5C 148.5,46.8333 148.5,62.1667 148.5,77.5C 145.167,77.5 141.833,77.5 138.5,77.5C 138.5,62.5 138.5,47.5 138.5,32.5C 133.167,32.5 127.833,32.5 122.5,32.5C 122.5,29.5 122.5,26.5 122.5,23.5 Z"/></g>
<g><path style="opacity:1" fill="#132c91" d="M 169.5,23.5 C 177.84,23.3336 186.173,23.5003 194.5,24C 204.462,27.0927 207.629,33.5927 204,43.5C 202.316,45.3513 200.483,47.018 198.5,48.5C 207.801,54.0075 209.968,61.6741 205,71.5C 203.457,73.3783 201.624,74.8783 199.5,76C 189.58,77.4234 179.58,77.9234 169.5,77.5C 169.5,59.5 169.5,41.5 169.5,23.5 Z"/></g>
<g><path style="opacity:1" fill="#7b88c0" d="M 163.5,31.5 C 159.03,32.4861 154.363,32.8195 149.5,32.5C 149.829,47.676 149.496,62.676 148.5,77.5C 148.5,62.1667 148.5,46.8333 148.5,31.5C 153.5,31.5 158.5,31.5 163.5,31.5 Z"/></g>
<g><path style="opacity:1" fill="#f4f5f9" d="M 180.5,32.5 C 184.182,32.3347 187.848,32.5014 191.5,33C 195.5,36.6667 195.5,40.3333 191.5,44C 187.974,45.3368 184.308,45.8368 180.5,45.5C 180.5,41.1667 180.5,36.8333 180.5,32.5 Z"/></g>
<g><path style="opacity:1" fill="#4cabf8" d="M 14.5,36.5 C 29.8478,36.1673 45.1811,36.5006 60.5,37.5C 59.3052,39.7513 58.3052,42.0846 57.5,44.5C 42.1667,45.8333 26.8333,45.8333 11.5,44.5C 12.5084,41.8048 13.5084,39.1381 14.5,36.5 Z"/></g>
<g><path style="opacity:1" fill="#f3f4f9" d="M 180.5,53.5 C 185.808,52.7435 190.641,53.7435 195,56.5C 197.601,61.5018 196.434,65.3351 191.5,68C 187.848,68.4986 184.182,68.6653 180.5,68.5C 180.5,63.5 180.5,58.5 180.5,53.5 Z"/></g>
</svg>
