<?xml version="1.0" encoding="UTF-8"?>
<!DOCTYPE svg PUBLIC "-//W3C//DTD SVG 1.1//EN" "http://www.w3.org/Graphics/SVG/1.1/DTD/svg11.dtd">
<svg xmlns="http://www.w3.org/2000/svg" version="1.1" width="476px" height="104px" style="shape-rendering:geometricPrecision; text-rendering:geometricPrecision; image-rendering:optimizeQuality; fill-rule:evenodd; clip-rule:evenodd" xmlns:xlink="http://www.w3.org/1999/xlink">
<g><path style="opacity:1" fill="#fdfefe" d="M -0.5,-0.5 C 158.167,-0.5 316.833,-0.5 475.5,-0.5C 475.5,34.1667 475.5,68.8333 475.5,103.5C 316.833,103.5 158.167,103.5 -0.5,103.5C -0.5,68.8333 -0.5,34.1667 -0.5,-0.5 Z"/></g>
<g><path style="opacity:1" fill="#53ace2" d="M 48.5,10.5 C 54.3702,9.23381 60.3702,9.23381 66.5,10.5C 66.5,11.5 66.5,12.5 66.5,13.5C 61.9385,13.2792 61.2718,14.7792 64.5,18C 63.9306,20.432 62.9306,22.5987 61.5,24.5C 59.1667,27.1667 56.8333,29.8333 54.5,32.5C 54.7845,30.5853 54.4511,28.9187 53.5,27.5C 54.6253,25.8712 55.9586,24.3712 57.5,23C 54.3764,22.6968 51.3764,23.1968 48.5,24.5C 48.7148,22.8212 48.0481,21.8212 46.5,21.5C 48.5625,20.2237 50.8958,19.3903 53.5,19C 50.0418,17.5845 46.3751,17.0845 42.5,17.5C 45.2869,16.5233 48.2869,16.19 51.5,16.5C 51.3573,14.7376 51.6906,13.0709 52.5,11.5C 51.3112,10.5713 49.9778,10.238 48.5,10.5 Z"/></g>
<g><path style="opacity:1" fill="#f6f9fb" d="M 42.5,17.5 C 46.3751,17.0845 50.0418,17.5845 53.5,19C 50.8958,19.3903 48.5625,20.2237 46.5,21.5C 43.646,21.9239 40.9793,22.9239 38.5,24.5C 37.1771,20.7932 38.5104,18.4599 42.5,17.5 Z"/></g>
<g><path style="opacity:1" fill="#2c6692" d="M 48.5,10.5 C 49.9778,10.238 51.3112,10.5713 52.5,11.5C 51.6906,13.0709 51.3573,14.7376 51.5,16.5C 48.2869,16.19 45.2869,16.5233 42.5,17.5C 38.5104,18.4599 37.1771,20.7932 38.5,24.5C 40.9793,22.9239 43.646,21.9239 46.5,21.5C 48.0481,21.8212 48.7148,22.8212 48.5,24.5C 44.9099,25.6284 41.5766,27.295 38.5,29.5C 40.5227,31.8528 42.5227,34.1862 44.5,36.5C 44.7373,37.791 44.404,38.791 43.5,39.5C 39.8803,37.715 37.047,35.0483 35,31.5C 34.6174,32.056 34.1174,32.3893 33.5,32.5C 33.5,31.1667 33.5,29.8333 33.5,28.5C 33.7947,26.2646 33.4614,24.2646 32.5,22.5C 34.4318,21.0236 34.7652,19.3569 33.5,17.5C 37.7676,13.843 42.7676,11.5097 48.5,10.5 Z"/></g>
<g><path style="opacity:1" fill="#e5eaee" d="M 32.5,22.5 C 33.4614,24.2646 33.7947,26.2646 33.5,28.5C 28.8769,31.2887 25.0435,34.9553 22,39.5C 23.4323,32.6503 26.9323,26.9836 32.5,22.5 Z"/></g>
<g><path style="opacity:1" fill="#f3f8fb" d="M 53.5,27.5 C 51.1627,30.6809 48.996,34.0142 47,37.5C 46.3292,36.7476 45.4959,36.4142 44.5,36.5C 42.5227,34.1862 40.5227,31.8528 38.5,29.5C 41.5766,27.295 44.9099,25.6284 48.5,24.5C 51.3764,23.1968 54.3764,22.6968 57.5,23C 55.9586,24.3712 54.6253,25.8712 53.5,27.5 Z"/></g>
<g><path style="opacity:1" fill="#1c3c5d" d="M 33.5,17.5 C 34.7652,19.3569 34.4318,21.0236 32.5,22.5C 26.9323,26.9836 23.4323,32.6503 22,39.5C 25.0435,34.9553 28.8769,31.2887 33.5,28.5C 33.5,29.8333 33.5,31.1667 33.5,32.5C 27.6455,37.3615 23.3122,43.3615 20.5,50.5C 23.8071,56.9738 28.6404,61.9738 35,65.5C 36.6066,61.5102 38.1066,57.5102 39.5,53.5C 40.7777,53.7822 41.7777,54.4489 42.5,55.5C 41.4045,58.9555 40.4045,62.4555 39.5,66C 39.8333,66.8333 40.1667,67.6667 40.5,68.5C 43.4496,69.7054 46.4496,70.7054 49.5,71.5C 50.9025,72.9312 52.5692,74.0978 54.5,75C 53.2068,75.49 51.8734,75.6567 50.5,75.5C 46.4224,74.863 42.5891,73.5297 39,71.5C 35.6926,80.9846 38.8593,86.4846 48.5,88C 56.4205,90.5724 60.7539,87.739 61.5,79.5C 62.4674,78.1938 63.8007,77.5271 65.5,77.5C 65.0405,80.8774 64.3739,84.2107 63.5,87.5C 67.3424,87.1075 71.0091,86.1075 74.5,84.5C 76.099,84.2322 77.4324,84.5655 78.5,85.5C 56.351,97.8526 37.5176,93.8526 22,73.5C 12.7,57.0466 13.3667,41.0466 24,25.5C 26.7663,22.2232 29.933,19.5566 33.5,17.5 Z"/></g>
<g><path style="opacity:1" fill="#f6fbfd" d="M 61.5,24.5 C 62.5,27.8333 63.5,31.1667 64.5,34.5C 64.5,37.1667 64.5,39.8333 64.5,42.5C 61.7212,42.7214 59.0545,42.388 56.5,41.5C 54.4068,40.9553 52.4068,40.122 50.5,39C 52.0585,36.9481 53.3918,34.7815 54.5,32.5C 56.8333,29.8333 59.1667,27.1667 61.5,24.5 Z"/></g>
<g><path style="opacity:1" fill="#fbfdfe" d="M 69.5,26.5 C 73.2398,30.2328 76.5732,34.2328 79.5,38.5C 77.2062,40.3883 74.5395,41.7216 71.5,42.5C 70.209,42.7373 69.209,42.404 68.5,41.5C 68.5699,36.3921 67.9033,31.3921 66.5,26.5C 67.4246,25.4376 68.4246,25.4376 69.5,26.5 Z"/></g>
<g><path style="opacity:1" fill="#acdef5" d="M 77.5,14.5 C 82.4215,16.9027 85.5882,20.5693 87,25.5C 86.586,25.9574 86.086,26.2907 85.5,26.5C 81.122,23.6149 76.4553,22.6149 71.5,23.5C 75.4616,27.6338 79.2949,31.9671 83,36.5C 84.815,34.8998 85.9817,32.8998 86.5,30.5C 87.325,29.6143 88.325,29.281 89.5,29.5C 89.6621,31.5273 89.4955,33.5273 89,35.5C 87.1207,37.5268 85.954,39.8602 85.5,42.5C 83.5372,41.0401 81.7038,39.3734 80,37.5C 79.6012,37.7284 79.4346,38.0618 79.5,38.5C 76.5732,34.2328 73.2398,30.2328 69.5,26.5C 70.8009,25.1155 70.8009,23.6155 69.5,22C 74.6797,20.4772 74.6797,18.9772 69.5,17.5C 72.116,16.4385 74.616,16.7718 77,18.5C 77.49,17.2068 77.6567,15.8734 77.5,14.5 Z"/></g>
<g><path style="opacity:1" fill="#fafbfb" d="M 43.5,39.5 C 44.1098,40.391 44.4431,41.391 44.5,42.5C 42.5593,46.0477 40.8926,49.7143 39.5,53.5C 38.1066,57.5102 36.6066,61.5102 35,65.5C 28.6404,61.9738 23.8071,56.9738 20.5,50.5C 23.3122,43.3615 27.6455,37.3615 33.5,32.5C 34.1174,32.3893 34.6174,32.056 35,31.5C 37.047,35.0483 39.8803,37.715 43.5,39.5 Z"/></g>
<g><path style="opacity:1" fill="#6ec3ee" d="M 66.5,10.5 C 70.466,11.0439 74.1326,12.3772 77.5,14.5C 77.6567,15.8734 77.49,17.2068 77,18.5C 74.616,16.7718 72.116,16.4385 69.5,17.5C 74.6797,18.9772 74.6797,20.4772 69.5,22C 70.8009,23.6155 70.8009,25.1155 69.5,26.5C 68.4246,25.4376 67.4246,25.4376 66.5,26.5C 67.9033,31.3921 68.5699,36.3921 68.5,41.5C 66.4384,39.6387 65.1051,37.3053 64.5,34.5C 63.5,31.1667 62.5,27.8333 61.5,24.5C 62.9306,22.5987 63.9306,20.432 64.5,18C 61.2718,14.7792 61.9385,13.2792 66.5,13.5C 66.5,12.5 66.5,11.5 66.5,10.5 Z"/></g>
<g><path style="opacity:1" fill="#8cd1f2" d="M 85.5,42.5 C 88.0445,47.8742 89.7111,53.5409 90.5,59.5C 89.3951,58.3995 88.0618,57.7329 86.5,57.5C 85.7236,52.671 84.057,48.171 81.5,44C 77.8758,44.6542 74.2092,45.4876 70.5,46.5C 71.2341,45.2921 71.5674,43.9587 71.5,42.5C 74.5395,41.7216 77.2062,40.3883 79.5,38.5C 79.4346,38.0618 79.6012,37.7284 80,37.5C 81.7038,39.3734 83.5372,41.0401 85.5,42.5 Z"/></g>
<g><path style="opacity:1" fill="#142e44" d="M 359.5,55.5 C 358.081,54.5489 356.415,54.2155 354.5,54.5C 354.5,53.1667 354.5,51.8333 354.5,50.5C 357.833,50.5 361.167,50.5 364.5,50.5C 364.656,63.6724 358.823,67.3391 347,61.5C 344.556,56.0923 343.89,50.4257 345,44.5C 350.223,37.3476 356.223,36.6809 363,42.5C 364.009,44.0249 364.509,45.6916 364.5,47.5C 362.712,47.7852 361.045,47.4519 359.5,46.5C 356.423,42.5385 353.256,42.5385 350,46.5C 348.807,51.1519 349.64,55.3186 352.5,59C 356.193,60.1756 358.526,59.0089 359.5,55.5 Z"/></g>
<g><path style="opacity:1" fill="#1a3349" d="M 398.5,38.5 C 409.837,38.4708 414.67,44.1374 413,55.5C 409.333,64.5778 403.166,66.7445 394.5,62C 389.89,55.8361 389.39,49.3361 393,42.5C 394.812,41.0229 396.645,39.6896 398.5,38.5 Z"/></g>
<g><path style="opacity:1" fill="#173047" d="M 113.5,38.5 C 115.792,38.2436 117.959,38.5769 120,39.5C 121.441,45.1493 122.774,50.816 124,56.5C 125.452,50.5209 127.285,44.6875 129.5,39C 131.112,38.2797 132.612,38.4464 134,39.5C 134.81,44.7256 136.31,49.7256 138.5,54.5C 140.464,49.3126 141.797,43.9793 142.5,38.5C 144.5,38.5 146.5,38.5 148.5,38.5C 146.494,46.8573 144.327,55.1906 142,63.5C 139.959,64.4231 137.792,64.7564 135.5,64.5C 134.615,58.9574 133.115,53.6241 131,48.5C 129.511,53.4565 128.178,58.4565 127,63.5C 124.959,64.4231 122.792,64.7564 120.5,64.5C 118.576,55.7263 116.242,47.0596 113.5,38.5 Z"/></g>
<g><path style="opacity:1" fill="#193148" d="M 157.5,38.5 C 170.653,39.1112 175.153,45.7779 171,58.5C 167.153,64.3875 161.987,65.8875 155.5,63C 147.064,54.006 147.731,45.8393 157.5,38.5 Z"/></g>
<g><path style="opacity:1" fill="#122c43" d="M 184.5,55.5 C 183.432,54.5655 182.099,54.2322 180.5,54.5C 180.5,57.8333 180.5,61.1667 180.5,64.5C 178.833,64.5 177.167,64.5 175.5,64.5C 175.5,55.8333 175.5,47.1667 175.5,38.5C 180.599,38.1746 185.599,38.6746 190.5,40C 194.466,44.4643 194.466,48.9643 190.5,53.5C 191.333,55.1667 192.167,56.8333 193,58.5C 194.011,59.3366 195.178,59.67 196.5,59.5C 196.5,61.1667 196.5,62.8333 196.5,64.5C 194.011,64.7022 191.677,64.2022 189.5,63C 188.182,60.1761 186.515,57.6761 184.5,55.5 Z"/></g>
<g><path style="opacity:1" fill="#152f45" d="M 199.5,38.5 C 201.167,38.5 202.833,38.5 204.5,38.5C 204.5,45.5 204.5,52.5 204.5,59.5C 208.167,59.5 211.833,59.5 215.5,59.5C 215.5,61.1667 215.5,62.8333 215.5,64.5C 210.167,64.5 204.833,64.5 199.5,64.5C 199.5,55.8333 199.5,47.1667 199.5,38.5 Z"/></g>
<g><path style="opacity:1" fill="#173046" d="M 218.5,38.5 C 233.993,36.8201 240.16,43.4867 237,58.5C 235.749,61.3807 233.583,63.214 230.5,64C 226.514,64.4988 222.514,64.6655 218.5,64.5C 218.5,55.8333 218.5,47.1667 218.5,38.5 Z"/></g>
<g><path style="opacity:1" fill="#132d43" d="M 260.5,39.5 C 265.078,40.793 266.578,43.793 265,48.5C 263.015,50.2349 263.349,51.5683 266,52.5C 268.842,58.1338 267.342,61.8005 261.5,63.5C 257.167,63.5 252.833,63.5 248.5,63.5C 248.5,55.5 248.5,47.5 248.5,39.5C 252.5,39.5 256.5,39.5 260.5,39.5 Z"/></g>
<g><path style="opacity:1" fill="#1a3349" d="M 277.5,38.5 C 279.467,38.2606 281.301,38.5939 283,39.5C 286.141,47.7568 288.974,56.0902 291.5,64.5C 287.219,65.5168 284.886,63.8501 284.5,59.5C 281.554,58.3452 278.554,58.1786 275.5,59C 275.04,63.2174 272.706,65.0508 268.5,64.5C 270.938,55.6275 273.938,46.9608 277.5,38.5 Z"/></g>
<g><path style="opacity:1" fill="#112c43" d="M 293.5,38.5 C 296.044,38.1043 298.211,38.771 300,40.5C 302.079,44.9926 304.412,49.326 307,53.5C 307.499,48.5111 307.666,43.5111 307.5,38.5C 309.167,38.5 310.833,38.5 312.5,38.5C 312.5,47.1667 312.5,55.8333 312.5,64.5C 310.533,64.7394 308.699,64.4061 307,63.5C 304.333,58.8333 301.667,54.1667 299,49.5C 298.501,54.4889 298.334,59.4889 298.5,64.5C 296.833,64.5 295.167,64.5 293.5,64.5C 293.5,55.8333 293.5,47.1667 293.5,38.5 Z"/></g>
<g><path style="opacity:1" fill="#4f6474" d="M 323.5,49.5 C 322.521,46.3752 322.187,43.0419 322.5,39.5C 321.167,39.5 319.833,39.5 318.5,39.5C 318.5,47.5 318.5,55.5 318.5,63.5C 319.833,63.5 321.167,63.5 322.5,63.5C 322.177,59.774 322.511,56.1073 323.5,52.5C 324.107,52.6236 324.44,52.9569 324.5,53.5C 323.518,56.9619 323.185,60.6286 323.5,64.5C 321.5,64.5 319.5,64.5 317.5,64.5C 317.5,55.8333 317.5,47.1667 317.5,38.5C 319.5,38.5 321.5,38.5 323.5,38.5C 323.5,42.1667 323.5,45.8333 323.5,49.5 Z"/></g>
<g><path style="opacity:1" fill="#132d44" d="M 324.5,53.5 C 324.44,52.9569 324.107,52.6236 323.5,52.5C 322.511,56.1073 322.177,59.774 322.5,63.5C 321.167,63.5 319.833,63.5 318.5,63.5C 318.5,55.5 318.5,47.5 318.5,39.5C 319.833,39.5 321.167,39.5 322.5,39.5C 322.187,43.0419 322.521,46.3752 323.5,49.5C 326.268,46.1584 328.934,42.6584 331.5,39C 333.579,38.1923 335.579,38.359 337.5,39.5C 334.5,43.5 331.5,47.5 328.5,51.5C 331.643,55.811 334.977,59.9776 338.5,64C 336.167,64.6667 333.833,64.6667 331.5,64C 329.28,60.3854 326.947,56.8854 324.5,53.5 Z"/></g>
<g><path style="opacity:1" fill="#122c43" d="M 377.5,55.5 C 376.432,54.5655 375.099,54.2322 373.5,54.5C 373.5,57.8333 373.5,61.1667 373.5,64.5C 371.833,64.5 370.167,64.5 368.5,64.5C 368.5,55.8333 368.5,47.1667 368.5,38.5C 373.599,38.1746 378.599,38.6746 383.5,40C 387.466,44.4643 387.466,48.9643 383.5,53.5C 384.333,55.1667 385.167,56.8333 386,58.5C 387.011,59.3366 388.178,59.67 389.5,59.5C 389.5,61.1667 389.5,62.8333 389.5,64.5C 387.011,64.7022 384.677,64.2022 382.5,63C 381.182,60.1761 379.515,57.6761 377.5,55.5 Z"/></g>
<g><path style="opacity:1" fill="#193248" d="M 430.5,54.5 C 431.487,49.6946 431.821,44.6946 431.5,39.5C 432.833,39.5 434.167,39.5 435.5,39.5C 435.5,45.5 435.5,51.5 435.5,57.5C 435.16,60.6748 433.493,62.8415 430.5,64C 423.889,65.9433 419.389,63.7767 417,57.5C 416.5,51.1754 416.334,44.8421 416.5,38.5C 418.5,38.5 420.5,38.5 422.5,38.5C 422.334,44.8421 422.5,51.1754 423,57.5C 427.161,60.6677 429.661,59.6677 430.5,54.5 Z"/></g>
<g><path style="opacity:1" fill="#546878" d="M 435.5,57.5 C 435.5,51.5 435.5,45.5 435.5,39.5C 434.167,39.5 432.833,39.5 431.5,39.5C 431.821,44.6946 431.487,49.6946 430.5,54.5C 430.5,49.1667 430.5,43.8333 430.5,38.5C 432.5,38.5 434.5,38.5 436.5,38.5C 436.823,45.0221 436.49,51.3554 435.5,57.5 Z"/></g>
<g><path style="opacity:1" fill="#142e44" d="M 453.5,39.5 C 459.611,42.0418 461.111,46.3752 458,52.5C 456.871,54.1412 455.371,55.1412 453.5,55.5C 450.833,55.5 448.167,55.5 445.5,55.5C 445.5,58.1667 445.5,60.8333 445.5,63.5C 444.167,63.5 442.833,63.5 441.5,63.5C 441.5,55.5 441.5,47.5 441.5,39.5C 445.5,39.5 449.5,39.5 453.5,39.5 Z"/></g>
<g><path style="opacity:1" fill="#408ec2" d="M 53.5,27.5 C 54.4511,28.9187 54.7845,30.5853 54.5,32.5C 53.3918,34.7815 52.0585,36.9481 50.5,39C 52.4068,40.122 54.4068,40.9553 56.5,41.5C 56.7148,43.1788 56.0481,44.1788 54.5,44.5C 52.0897,43.5615 49.7564,43.5615 47.5,44.5C 48.0706,39.1488 47.0706,38.4822 44.5,42.5C 44.4431,41.391 44.1098,40.391 43.5,39.5C 44.404,38.791 44.7373,37.791 44.5,36.5C 45.4959,36.4142 46.3292,36.7476 47,37.5C 48.996,34.0142 51.1627,30.6809 53.5,27.5 Z"/></g>
<g><path style="opacity:1" fill="#c4e8f8" d="M 97.5,42.5 C 96.5,42.5 95.5,42.5 94.5,42.5C 94.5,43.8333 94.5,45.1667 94.5,46.5C 93.0491,42.6872 92.2158,38.6872 92,34.5C 93,33.1667 94,33.1667 95,34.5C 95.84,37.2017 96.6733,39.8683 97.5,42.5 Z"/></g>
<g><path style="opacity:1" fill="#526777" d="M 453.5,39.5 C 449.5,39.5 445.5,39.5 441.5,39.5C 441.5,47.5 441.5,55.5 441.5,63.5C 442.833,63.5 444.167,63.5 445.5,63.5C 445.5,60.8333 445.5,58.1667 445.5,55.5C 448.167,55.5 450.833,55.5 453.5,55.5C 451.393,56.4682 449.059,56.8016 446.5,56.5C 446.5,59.1667 446.5,61.8333 446.5,64.5C 444.5,64.5 442.5,64.5 440.5,64.5C 440.5,55.8333 440.5,47.1667 440.5,38.5C 445.032,38.1818 449.366,38.5151 453.5,39.5 Z"/></g>
<g><path style="opacity:1" fill="#fbfcfd" d="M 54.5,44.5 C 57.5072,46.1745 60.8405,46.8412 64.5,46.5C 64.5,50.5 64.5,54.5 64.5,58.5C 64.3867,63.518 64.0534,68.518 63.5,73.5C 58.7277,73.4781 54.0611,72.8115 49.5,71.5C 46.4496,70.7054 43.4496,69.7054 40.5,68.5C 40.1667,67.6667 39.8333,66.8333 39.5,66C 40.4045,62.4555 41.4045,58.9555 42.5,55.5C 44.4031,52.0211 46.0698,48.3544 47.5,44.5C 49.7564,43.5615 52.0897,43.5615 54.5,44.5 Z"/></g>
<g><path style="opacity:1" fill="#58b3e7" d="M 64.5,34.5 C 65.1051,37.3053 66.4384,39.6387 68.5,41.5C 69.209,42.404 70.209,42.7373 71.5,42.5C 71.5674,43.9587 71.2341,45.2921 70.5,46.5C 68.8476,53.6101 67.8476,60.9434 67.5,68.5C 67.665,65.1501 67.4983,61.8168 67,58.5C 66.2303,57.4019 65.397,57.4019 64.5,58.5C 64.5,54.5 64.5,50.5 64.5,46.5C 60.8405,46.8412 57.5072,46.1745 54.5,44.5C 56.0481,44.1788 56.7148,43.1788 56.5,41.5C 59.0545,42.388 61.7212,42.7214 64.5,42.5C 64.5,39.8333 64.5,37.1667 64.5,34.5 Z"/></g>
<g><path style="opacity:1" fill="#fcfdfe" d="M 86.5,57.5 C 86.7633,61.6002 86.4299,65.6002 85.5,69.5C 79.7026,71.6891 73.7026,73.0224 67.5,73.5C 67.5,71.8333 67.5,70.1667 67.5,68.5C 67.8476,60.9434 68.8476,53.6101 70.5,46.5C 74.2092,45.4876 77.8758,44.6542 81.5,44C 84.057,48.171 85.7236,52.671 86.5,57.5 Z"/></g>
<g><path style="opacity:1" fill="#f9fafa" d="M 158.5,43.5 C 161.695,42.9607 164.195,43.9607 166,46.5C 166.667,49.8333 166.667,53.1667 166,56.5C 162.206,60.741 158.873,60.4077 156,55.5C 154.773,50.938 155.607,46.938 158.5,43.5 Z"/></g>
<g><path style="opacity:1" fill="#f5f6f7" d="M 181.5,43.5 C 187.113,42.079 189.28,44.079 188,49.5C 187.329,50.2524 186.496,50.5858 185.5,50.5C 184.167,50.5 182.833,50.5 181.5,50.5C 181.5,48.1667 181.5,45.8333 181.5,43.5 Z"/></g>
<g><path style="opacity:1" fill="#f8f9fa" d="M 223.5,43.5 C 232.13,43.6279 234.964,47.9612 232,56.5C 229.804,59.1252 226.97,60.1252 223.5,59.5C 223.5,54.1667 223.5,48.8333 223.5,43.5 Z"/></g>
<g><path style="opacity:1" fill="#596e7d" d="M 260.5,39.5 C 256.5,39.5 252.5,39.5 248.5,39.5C 248.5,47.5 248.5,55.5 248.5,63.5C 252.833,63.5 257.167,63.5 261.5,63.5C 257.03,64.4861 252.363,64.8195 247.5,64.5C 247.5,55.8333 247.5,47.1667 247.5,38.5C 252.032,38.1818 256.366,38.5151 260.5,39.5 Z"/></g>
<g><path style="opacity:1" fill="#ebedef" d="M 253.5,43.5 C 255.527,43.3379 257.527,43.5045 259.5,44C 260.479,48.5166 258.479,50.35 253.5,49.5C 253.5,47.5 253.5,45.5 253.5,43.5 Z"/></g>
<g><path style="opacity:1" fill="#f7f8f9" d="M 374.5,43.5 C 380.36,42.0738 382.36,44.0738 380.5,49.5C 379.583,50.1272 378.583,50.4606 377.5,50.5C 376.5,50.5 375.5,50.5 374.5,50.5C 374.5,48.1667 374.5,45.8333 374.5,43.5 Z"/></g>
<g><path style="opacity:1" fill="#f9fafa" d="M 398.5,43.5 C 406.819,43.3442 409.652,47.3442 407,55.5C 404.177,60.3954 400.843,60.7287 397,56.5C 396.055,51.9393 396.555,47.606 398.5,43.5 Z"/></g>
<g><path style="opacity:1" fill="#fafafb" d="M 446.5,43.5 C 452.885,42.2136 454.885,44.5469 452.5,50.5C 450.591,51.3482 448.591,51.6816 446.5,51.5C 446.5,48.8333 446.5,46.1667 446.5,43.5 Z"/></g>
<g><path style="opacity:1" fill="#336e99" d="M 47.5,44.5 C 46.0698,48.3544 44.4031,52.0211 42.5,55.5C 41.7777,54.4489 40.7777,53.7822 39.5,53.5C 40.8926,49.7143 42.5593,46.0477 44.5,42.5C 47.0706,38.4822 48.0706,39.1488 47.5,44.5 Z"/></g>
<g><path style="opacity:1" fill="#e4e7ea" d="M 279.5,46.5 C 280.864,48.22 281.864,50.22 282.5,52.5C 280.955,53.4519 279.288,53.7852 277.5,53.5C 277.767,51.0347 278.434,48.7014 279.5,46.5 Z"/></g>
<g><path style="opacity:1" fill="#5b6e7e" d="M 181.5,43.5 C 181.5,45.8333 181.5,48.1667 181.5,50.5C 182.833,50.5 184.167,50.5 185.5,50.5C 184.081,51.4511 182.415,51.7845 180.5,51.5C 180.194,48.6146 180.527,45.9479 181.5,43.5 Z"/></g>
<g><path style="opacity:1" fill="#607382" d="M 374.5,43.5 C 374.5,45.8333 374.5,48.1667 374.5,50.5C 375.5,50.5 376.5,50.5 377.5,50.5C 376.432,51.4345 375.099,51.7678 373.5,51.5C 373.194,48.6146 373.527,45.9479 374.5,43.5 Z"/></g>
<g><path style="opacity:1" fill="#f7f8f9" d="M 253.5,53.5 C 255.857,53.3367 258.19,53.5034 260.5,54C 261.833,55.6667 261.833,57.3333 260.5,59C 258.19,59.4966 255.857,59.6633 253.5,59.5C 253.5,57.5 253.5,55.5 253.5,53.5 Z"/></g>
<g><path style="opacity:1" fill="#95a2ac" d="M 354.5,50.5 C 354.5,51.8333 354.5,53.1667 354.5,54.5C 356.415,54.2155 358.081,54.5489 359.5,55.5C 357.5,55.5 355.5,55.5 353.5,55.5C 353.216,53.5853 353.549,51.9187 354.5,50.5 Z"/></g>
<g><path style="opacity:1" fill="#8d9ba6" d="M 184.5,55.5 C 183.5,55.5 182.5,55.5 181.5,55.5C 181.81,58.7131 181.477,61.7131 180.5,64.5C 180.5,61.1667 180.5,57.8333 180.5,54.5C 182.099,54.2322 183.432,54.5655 184.5,55.5 Z"/></g>
<g><path style="opacity:1" fill="#8e9ca7" d="M 377.5,55.5 C 376.5,55.5 375.5,55.5 374.5,55.5C 374.81,58.7131 374.477,61.7131 373.5,64.5C 373.5,61.1667 373.5,57.8333 373.5,54.5C 375.099,54.2322 376.432,54.5655 377.5,55.5 Z"/></g>
<g><path style="opacity:1" fill="#eceff2" d="M 20.5,58.5 C 24.5456,62.7111 29.0456,66.3777 34,69.5C 34.8253,73.2113 34.6586,76.878 33.5,80.5C 26.5934,74.6867 22.26,67.3533 20.5,58.5 Z"/></g>
<g><path style="opacity:1" fill="#71c3ee" d="M 97.5,42.5 C 99.1082,50.4728 98.4416,58.1395 95.5,65.5C 94.8166,63.8235 93.4832,63.1568 91.5,63.5C 93.8778,58.1289 94.8778,52.4623 94.5,46.5C 94.5,45.1667 94.5,43.8333 94.5,42.5C 95.5,42.5 96.5,42.5 97.5,42.5 Z"/></g>
<g><path style="opacity:1" fill="#47a3dc" d="M 86.5,57.5 C 88.0618,57.7329 89.3951,58.3995 90.5,59.5C 90.1455,61.7674 90.4789,63.1007 91.5,63.5C 93.4832,63.1568 94.8166,63.8235 95.5,65.5C 95.0075,67.8185 94.0075,69.8185 92.5,71.5C 90.4006,70.3882 88.0673,69.7215 85.5,69.5C 86.4299,65.6002 86.7633,61.6002 86.5,57.5 Z"/></g>
<g><path style="opacity:1" fill="#fafbfb" d="M 50.5,75.5 C 54.463,76.3089 58.1297,77.6422 61.5,79.5C 60.7539,87.739 56.4205,90.5724 48.5,88C 38.8593,86.4846 35.6926,80.9846 39,71.5C 42.5891,73.5297 46.4224,74.863 50.5,75.5 Z"/></g>
<g><path style="opacity:1" fill="#377eaf" d="M 67.5,68.5 C 67.5,70.1667 67.5,71.8333 67.5,73.5C 73.7026,73.0224 79.7026,71.6891 85.5,69.5C 88.0673,69.7215 90.4006,70.3882 92.5,71.5C 89.5,77.8333 84.8333,82.5 78.5,85.5C 77.4324,84.5655 76.099,84.2322 74.5,84.5C 77.7255,82.7869 80.5588,80.4536 83,77.5C 83.9819,76.2411 84.3152,74.9078 84,73.5C 78.4919,76.0759 72.6586,77.4092 66.5,77.5C 65.7888,75.9699 64.7888,74.6366 63.5,73.5C 64.0534,68.518 64.3867,63.518 64.5,58.5C 65.397,57.4019 66.2303,57.4019 67,58.5C 67.4983,61.8168 67.665,65.1501 67.5,68.5 Z"/></g>
<g><path style="opacity:1" fill="#2e5c84" d="M 49.5,71.5 C 54.0611,72.8115 58.7277,73.4781 63.5,73.5C 64.7888,74.6366 65.7888,75.9699 66.5,77.5C 66.1667,77.5 65.8333,77.5 65.5,77.5C 63.8007,77.5271 62.4674,78.1938 61.5,79.5C 58.1297,77.6422 54.463,76.3089 50.5,75.5C 51.8734,75.6567 53.2068,75.49 54.5,75C 52.5692,74.0978 50.9025,72.9312 49.5,71.5 Z"/></g>
<g><path style="opacity:1" fill="#f1f5f8" d="M 74.5,84.5 C 71.0091,86.1075 67.3424,87.1075 63.5,87.5C 64.3739,84.2107 65.0405,80.8774 65.5,77.5C 65.8333,77.5 66.1667,77.5 66.5,77.5C 72.6586,77.4092 78.4919,76.0759 84,73.5C 84.3152,74.9078 83.9819,76.2411 83,77.5C 80.5588,80.4536 77.7255,82.7869 74.5,84.5 Z"/></g>
</svg>
